<?xml version="1.0" encoding="utf-8" ?>
<svg baseProfile="tiny" height="1600" version="1.2" viewBox="0 0 1600 1600" width="1600" xmlns="http://www.w3.org/2000/svg" xmlns:ev="http://www.w3.org/2001/xml-events" xmlns:xlink="http://www.w3.org/1999/xlink"><defs /><rect fill="#0B1026" height="100%" width="100%" x="0" y="0" /><line opacity="0.9" stroke="#0B1026" stroke-width="4.5" x1="800.0" x2="800.0" y1="928.0" y2="672.0" /><line opacity="0.9" stroke="#7A5CFF" stroke-width="3.6" x1="800.0" x2="723.3953" y1="672.0" y2="528.6902" /><line opacity="0.9" stroke="#19D3FF" stroke-width="2.7" x1="723.3953" x2="645.9127" y1="528.6902" y2="470.3292" /><line opacity="0.9" stroke="#FFB000" stroke-width="1.8" x1="645.9127" x2="582.592" y1="470.3292" y2="460.0045" /><line opacity="0.9" stroke="#FF2E88" stroke-width="1.0" x1="582.592" x2="542.0683" y1="460.0045" y2="474.7117" /><line opacity="0.9" stroke="#FF2E88" stroke-width="1.0" x1="582.592" x2="548.8392" y1="460.0045" y2="433.1862" /><line opacity="0.9" stroke="#FFB000" stroke-width="1.8" x1="645.9127" x2="618.5092" y1="470.3292" y2="412.3192" /><line opacity="0.9" stroke="#FF2E88" stroke-width="1.0" x1="618.5092" x2="585.3221" y1="412.3192" y2="386.7003" /><line opacity="0.9" stroke="#FF2E88" stroke-width="1.0" x1="618.5092" x2="619.7983" y1="412.3192" y2="370.414" /><line opacity="0.9" stroke="#19D3FF" stroke-width="2.7" x1="723.3953" x2="717.9128" y1="528.6902" y2="431.8423" /><line opacity="0.9" stroke="#FFB000" stroke-width="1.8" x1="717.9128" x2="681.0606" y1="431.8423" y2="374.6343" /><line opacity="0.9" stroke="#FF2E88" stroke-width="1.0" x1="681.0606" x2="640.6922" y1="374.6343" y2="349.7245" /><line opacity="0.9" stroke="#FF2E88" stroke-width="1.0" x1="681.0606" x2="675.0706" y1="374.6343" y2="327.5788" /><line opacity="0.9" stroke="#FFB000" stroke-width="1.8" x1="717.9128" x2="748.0731" y1="431.8423" y2="370.8407" /><line opacity="0.9" stroke="#FF2E88" stroke-width="1.0" x1="748.0731" x2="747.3799" y1="370.8407" y2="328.8174" /><line opacity="0.9" stroke="#FF2E88" stroke-width="1.0" x1="748.0731" x2="781.8856" y1="370.8407" y2="345.8777" /><line opacity="0.9" stroke="#7A5CFF" stroke-width="3.6" x1="800.0" x2="876.6047" y1="672.0" y2="528.6902" /><line opacity="0.9" stroke="#19D3FF" stroke-width="2.7" x1="876.6047" x2="879.3933" y1="528.6902" y2="414.6321" /><line opacity="0.9" stroke="#FFB000" stroke-width="1.8" x1="879.3933" x2="847.5875" y1="414.6321" y2="353.9976" /><line opacity="0.9" stroke="#FF2E88" stroke-width="1.0" x1="847.5875" x2="808.2537" y1="353.9976" y2="326.1278" /><line opacity="0.9" stroke="#FF2E88" stroke-width="1.0" x1="847.5875" x2="847.0173" y1="353.9976" y2="305.7944" /><line opacity="0.9" stroke="#FFB000" stroke-width="1.8" x1="879.3933" x2="914.1243" y1="414.6321" y2="355.6244" /><line opacity="0.9" stroke="#FF2E88" stroke-width="1.0" x1="914.1243" x2="912.7339" y1="355.6244" y2="315.1878" /><line opacity="0.9" stroke="#FF2E88" stroke-width="1.0" x1="914.1243" x2="950.1523" y1="355.6244" y2="337.2116" /><line opacity="0.9" stroke="#19D3FF" stroke-width="2.7" x1="876.6047" x2="969.8941" y1="528.6902" y2="463.0083" /><line opacity="0.9" stroke="#FFB000" stroke-width="1.8" x1="969.8941" x2="1006.0549" y1="463.0083" y2="404.4263" /><line opacity="0.9" stroke="#FF2E88" stroke-width="1.0" x1="1006.0549" x2="1006.9399" y1="404.4263" y2="357.1645" /><line opacity="0.9" stroke="#FF2E88" stroke-width="1.0" x1="1006.0549" x2="1047.9071" y1="404.4263" y2="382.4522" /><line opacity="0.9" stroke="#FFB000" stroke-width="1.8" x1="969.8941" x2="1037.2379" y1="463.0083" y2="448.7162" /><line opacity="0.9" stroke="#FF2E88" stroke-width="1.0" x1="1037.2379" x2="1067.9364" y1="448.7162" y2="420.0591" /><line opacity="0.9" stroke="#FF2E88" stroke-width="1.0" x1="1037.2379" x2="1076.9296" y1="448.7162" y2="462.4347" /><line opacity="0.9" stroke="#0B1026" stroke-width="4.5" x1="709.4903" x2="890.5097" y1="890.5097" y2="709.4903" /><line opacity="0.9" stroke="#7A5CFF" stroke-width="3.6" x1="890.5097" x2="926.5345" y1="709.4903" y2="551.984" /><line opacity="0.9" stroke="#19D3FF" stroke-width="2.7" x1="926.5345" x2="894.5834" y1="551.984" y2="463.2821" /><line opacity="0.9" stroke="#FFB000" stroke-width="1.8" x1="894.5834" x2="854.2616" y1="463.2821" y2="425.6251" /><line opacity="0.9" stroke="#FF2E88" stroke-width="1.0" x1="854.2616" x2="817.2158" y1="425.6251" y2="413.8909" /><line opacity="0.9" stroke="#FF2E88" stroke-width="1.0" x1="854.2616" x2="840.0258" y1="425.6251" y2="389.4668" /><line opacity="0.9" stroke="#FFB000" stroke-width="1.8" x1="894.5834" x2="901.6305" y1="463.2821" y2="408.5625" /><line opacity="0.9" stroke="#FF2E88" stroke-width="1.0" x1="901.6305" x2="886.8734" y1="408.5625" y2="373.683" /><line opacity="0.9" stroke="#FF2E88" stroke-width="1.0" x1="901.6305" x2="924.7434" y1="408.5625" y2="378.5601" /><line opacity="0.9" stroke="#19D3FF" stroke-width="2.7" x1="926.5345" x2="993.8675" y1="551.984" y2="485.9903" /><line opacity="0.9" stroke="#FFB000" stroke-width="1.8" x1="993.8675" x2="1009.8614" y1="485.9903" y2="432.4132" /><line opacity="0.9" stroke="#FF2E88" stroke-width="1.0" x1="1009.8614" x2="999.7629" y1="432.4132" y2="395.3279" /><line opacity="0.9" stroke="#FF2E88" stroke-width="1.0" x1="1009.8614" x2="1038.6372" y1="432.4132" y2="406.9327" /><line opacity="0.9" stroke="#FFB000" stroke-width="1.8" x1="993.8675" x2="1047.7552" y1="485.9903" y2="471.0759" /><line opacity="0.9" stroke="#FF2E88" stroke-width="1.0" x1="1047.7552" x2="1074.0051" y1="471.0759" y2="441.635" /><line opacity="0.9" stroke="#FF2E88" stroke-width="1.0" x1="1047.7552" x2="1085.4069" y1="471.0759" y2="482.8309" /><line opacity="0.9" stroke="#7A5CFF" stroke-width="3.6" x1="890.5097" x2="1048.016" y1="709.4903" y2="673.4655" /><line opacity="0.9" stroke="#19D3FF" stroke-width="2.7" x1="1048.016" x2="1127.1522" y1="673.4655" y2="598.2342" /><line opacity="0.9" stroke="#FFB000" stroke-width="1.8" x1="1127.1522" x2="1148.6599" y1="598.2342" y2="526.6872" /><line opacity="0.9" stroke="#FF2E88" stroke-width="1.0" x1="1148.6599" x2="1135.244" y1="526.6872" y2="476.1412" /><line opacity="0.9" stroke="#FF2E88" stroke-width="1.0" x1="1148.6599" x2="1187.7228" y1="526.6872" y2="491.9168" /><line opacity="0.9" stroke="#FFB000" stroke-width="1.8" x1="1127.1522" x2="1199.6952" y1="598.2342" y2="580.3715" /><line opacity="0.9" stroke="#FF2E88" stroke-width="1.0" x1="1199.6952" x2="1233.4844" y1="580.3715" y2="548.6112" /><line opacity="0.9" stroke="#FF2E88" stroke-width="1.0" x1="1199.6952" x2="1244.3682" y1="580.3715" y2="592.8115" /><line opacity="0.9" stroke="#19D3FF" stroke-width="2.7" x1="1048.016" x2="1151.9871" y1="673.4655" y2="706.8165" /><line opacity="0.9" stroke="#FFB000" stroke-width="1.8" x1="1151.9871" x2="1225.3964" y1="706.8165" y2="691.383" /><line opacity="0.9" stroke="#FF2E88" stroke-width="1.0" x1="1225.3964" x2="1260.8373" y1="691.383" y2="664.8535" /><line opacity="0.9" stroke="#FF2E88" stroke-width="1.0" x1="1225.3964" x2="1268.5198" y1="691.383" y2="701.3952" /><line opacity="0.9" stroke="#FFB000" stroke-width="1.8" x1="1151.9871" x2="1202.7214" y1="706.8165" y2="762.0718" /><line opacity="0.9" stroke="#FF2E88" stroke-width="1.0" x1="1202.7214" x2="1246.1723" y1="762.0718" y2="774.6826" /><line opacity="0.9" stroke="#FF2E88" stroke-width="1.0" x1="1202.7214" x2="1211.5864" y1="762.0718" y2="806.4387" /><line opacity="0.9" stroke="#0B1026" stroke-width="4.5" x1="672.0" x2="928.0" y1="800.0" y2="800.0" /><line opacity="0.9" stroke="#7A5CFF" stroke-width="3.6" x1="928.0" x2="1067.9909" y1="800.0" y2="716.5511" /><line opacity="0.9" stroke="#19D3FF" stroke-width="2.7" x1="1067.9909" x2="1117.589" y1="716.5511" y2="628.836" /><line opacity="0.9" stroke="#FFB000" stroke-width="1.8" x1="1117.589" x2="1122.9218" y1="628.836" y2="563.7363" /><line opacity="0.9" stroke="#FF2E88" stroke-width="1.0" x1="1122.9218" x2="1108.0284" y1="563.7363" y2="520.2579" /><line opacity="0.9" stroke="#FF2E88" stroke-width="1.0" x1="1122.9218" x2="1144.6924" y1="563.7363" y2="523.2613" /><line opacity="0.9" stroke="#FFB000" stroke-width="1.8" x1="1117.589" x2="1170.6249" y1="628.836" y2="590.7099" /><line opacity="0.9" stroke="#FF2E88" stroke-width="1.0" x1="1170.6249" x2="1189.9387" y1="590.7099" y2="555.738" /><line opacity="0.9" stroke="#FF2E88" stroke-width="1.0" x1="1170.6249" x2="1209.9275" y1="590.7099" y2="583.5437" /><line opacity="0.9" stroke="#19D3FF" stroke-width="2.7" x1="1067.9909" x2="1168.7394" y1="716.5511" y2="714.644" /><line opacity="0.9" stroke="#FFB000" stroke-width="1.8" x1="1168.7394" x2="1228.6886" y1="714.644" y2="684.1427" /><line opacity="0.9" stroke="#FF2E88" stroke-width="1.0" x1="1228.6886" x2="1253.7878" y1="684.1427" y2="644.1791" /><line opacity="0.9" stroke="#FF2E88" stroke-width="1.0" x1="1228.6886" x2="1275.769" y1="684.1427" y2="687.3823" /><line opacity="0.9" stroke="#FFB000" stroke-width="1.8" x1="1168.7394" x2="1229.7999" y1="714.644" y2="742.8549" /><line opacity="0.9" stroke="#FF2E88" stroke-width="1.0" x1="1229.7999" x2="1272.8347" y1="742.8549" y2="741.1093" /><line opacity="0.9" stroke="#FF2E88" stroke-width="1.0" x1="1229.7999" x2="1256.3652" y1="742.8549" y2="776.7566" /><line opacity="0.9" stroke="#7A5CFF" stroke-width="3.6" x1="928.0" x2="1067.9909" y1="800.0" y2="883.4489" /><line opacity="0.9" stroke="#19D3FF" stroke-width="2.7" x1="1067.9909" x2="1162.8424" y1="883.4489" y2="879.7358" /><line opacity="0.9" stroke="#FFB000" stroke-width="1.8" x1="1162.8424" x2="1214.7232" y1="879.7358" y2="851.9239" /><line opacity="0.9" stroke="#FF2E88" stroke-width="1.0" x1="1214.7232" x2="1238.1484" y1="851.9239" y2="821.3791" /><line opacity="0.9" stroke="#FF2E88" stroke-width="1.0" x1="1214.7232" x2="1253.1284" y1="851.9239" y2="849.323" /><line opacity="0.9" stroke="#FFB000" stroke-width="1.8" x1="1162.8424" x2="1216.7386" y1="879.7358" y2="903.4068" /><line opacity="0.9" stroke="#FF2E88" stroke-width="1.0" x1="1216.7386" x2="1251.1386" y1="903.4068" y2="901.8707" /><line opacity="0.9" stroke="#FF2E88" stroke-width="1.0" x1="1216.7386" x2="1238.8823" y1="903.4068" y2="929.7768" /><line opacity="0.9" stroke="#19D3FF" stroke-width="2.7" x1="1067.9909" x2="1109.8404" y1="883.4489" y2="968.6499" /><line opacity="0.9" stroke="#FFB000" stroke-width="1.8" x1="1109.8404" x2="1164.3163" y1="968.6499" y2="1002.8833" /><line opacity="0.9" stroke="#FF2E88" stroke-width="1.0" x1="1164.3163" x2="1207.1996" y1="1002.8833" y2="1007.8942" /><line opacity="0.9" stroke="#FF2E88" stroke-width="1.0" x1="1164.3163" x2="1187.4335" y1="1002.8833" y2="1039.3482" /><line opacity="0.9" stroke="#FFB000" stroke-width="1.8" x1="1109.8404" x2="1103.6347" y1="968.6499" y2="1032.6893" /><line opacity="0.9" stroke="#FF2E88" stroke-width="1.0" x1="1103.6347" x2="1119.7291" y1="1032.6893" y2="1068.8917" /><line opacity="0.9" stroke="#FF2E88" stroke-width="1.0" x1="1103.6347" x2="1080.8886" y1="1032.6893" y2="1065.1279" /><line opacity="0.9" stroke="#0B1026" stroke-width="4.5" x1="709.4903" x2="890.5097" y1="709.4903" y2="890.5097" /><line opacity="0.9" stroke="#7A5CFF" stroke-width="3.6" x1="890.5097" x2="1063.5696" y1="890.5097" y2="937.9583" /><line opacity="0.9" stroke="#19D3FF" stroke-width="2.7" x1="1063.5696" x2="1177.92" y1="937.9583" y2="918.6809" /><line opacity="0.9" stroke="#FFB000" stroke-width="1.8" x1="1177.92" x2="1230.1304" y1="918.6809" y2="870.8064" /><line opacity="0.9" stroke="#FF2E88" stroke-width="1.0" x1="1230.1304" x2="1244.3024" y1="870.8064" y2="828.4849" /><line opacity="0.9" stroke="#FF2E88" stroke-width="1.0" x1="1230.1304" x2="1273.519" y1="870.8064" y2="860.3476" /><line opacity="0.9" stroke="#FFB000" stroke-width="1.8" x1="1177.92" x2="1242.9402" y1="918.6809" y2="946.7923" /><line opacity="0.9" stroke="#FF2E88" stroke-width="1.0" x1="1242.9402" x2="1292.7153" y1="946.7923" y2="946.8081" /><line opacity="0.9" stroke="#FF2E88" stroke-width="1.0" x1="1242.9402" x2="1277.0489" y1="946.7923" y2="983.0437" /><line opacity="0.9" stroke="#19D3FF" stroke-width="2.7" x1="1063.5696" x2="1152.0985" y1="937.9583" y2="1012.8601" /><line opacity="0.9" stroke="#FFB000" stroke-width="1.8" x1="1152.0985" x2="1229.9022" y1="1012.8601" y2="1034.8136" /><line opacity="0.9" stroke="#FF2E88" stroke-width="1.0" x1="1229.9022" x2="1284.1423" y1="1034.8136" y2="1020.1144" /><line opacity="0.9" stroke="#FF2E88" stroke-width="1.0" x1="1229.9022" x2="1268.4589" y1="1034.8136" y2="1075.6967" /><line opacity="0.9" stroke="#FFB000" stroke-width="1.8" x1="1152.0985" x2="1186.634" y1="1012.8601" y2="1085.9537" /><line opacity="0.9" stroke="#FF2E88" stroke-width="1.0" x1="1186.634" x2="1227.2805" y1="1085.9537" y2="1121.9426" /><line opacity="0.9" stroke="#FF2E88" stroke-width="1.0" x1="1186.634" x2="1188.6252" y1="1085.9537" y2="1140.2066" /><line opacity="0.9" stroke="#7A5CFF" stroke-width="3.6" x1="890.5097" x2="937.9583" y1="890.5097" y2="1063.5696" /><line opacity="0.9" stroke="#19D3FF" stroke-width="2.7" x1="937.9583" x2="1015.8972" y1="1063.5696" y2="1139.4499" /><line opacity="0.9" stroke="#FFB000" stroke-width="1.8" x1="1015.8972" x2="1075.0538" y1="1139.4499" y2="1161.4724" /><line opacity="0.9" stroke="#FF2E88" stroke-width="1.0" x1="1075.0538" x2="1111.7141" y1="1161.4724" y2="1156.8523" /><line opacity="0.9" stroke="#FF2E88" stroke-width="1.0" x1="1075.0538" x2="1099.7683" y1="1161.4724" y2="1188.9409" /><line opacity="0.9" stroke="#FFB000" stroke-width="1.8" x1="1015.8972" x2="1039.495" y1="1139.4499" y2="1197.996" /><line opacity="0.9" stroke="#FF2E88" stroke-width="1.0" x1="1039.495" x2="1074.5583" y1="1197.996" y2="1223.8088" /><line opacity="0.9" stroke="#FF2E88" stroke-width="1.0" x1="1039.495" x2="1032.1326" y1="1197.996" y2="1240.909" /><line opacity="0.9" stroke="#19D3FF" stroke-width="2.7" x1="937.9583" x2="909.6175" y1="1063.5696" y2="1168.5891" /><line opacity="0.9" stroke="#FFB000" stroke-width="1.8" x1="909.6175" x2="929.6821" y1="1168.5891" y2="1238.9325" /><line opacity="0.9" stroke="#FF2E88" stroke-width="1.0" x1="929.6821" x2="964.8242" y1="1238.9325" y2="1273.491" /><line opacity="0.9" stroke="#FF2E88" stroke-width="1.0" x1="929.6821" x2="918.0596" y1="1238.9325" y2="1286.83" /><line opacity="0.9" stroke="#FFB000" stroke-width="1.8" x1="909.6175" x2="856.8881" y1="1168.5891" y2="1219.2881" /><line opacity="0.9" stroke="#FF2E88" stroke-width="1.0" x1="856.8881" x2="841.4472" y1="1219.2881" y2="1264.2619" /><line opacity="0.9" stroke="#FF2E88" stroke-width="1.0" x1="856.8881" x2="811.3431" y1="1219.2881" y2="1232.9522" /><line opacity="0.9" stroke="#0B1026" stroke-width="4.5" x1="800.0" x2="800.0" y1="672.0" y2="928.0" /><line opacity="0.9" stroke="#7A5CFF" stroke-width="3.6" x1="800.0" x2="875.8058" y1="928.0" y2="1070.3419" /><line opacity="0.9" stroke="#19D3FF" stroke-width="2.7" x1="875.8058" x2="968.3321" y1="1070.3419" y2="1123.3271" /><line opacity="0.9" stroke="#FFB000" stroke-width="1.8" x1="968.3321" x2="1039.9363" y1="1123.3271" y2="1121.2388" /><line opacity="0.9" stroke="#FF2E88" stroke-width="1.0" x1="1039.9363" x2="1081.5345" y1="1121.2388" y2="1092.314" /><line opacity="0.9" stroke="#FF2E88" stroke-width="1.0" x1="1039.9363" x2="1083.1496" y1="1121.2388" y2="1147.6901" /><line opacity="0.9" stroke="#FFB000" stroke-width="1.8" x1="968.3321" x2="1002.7702" y1="1123.3271" y2="1186.1407" /><line opacity="0.9" stroke="#FF2E88" stroke-width="1.0" x1="1002.7702" x2="1042.6822" y1="1186.1407" y2="1212.0814" /><line opacity="0.9" stroke="#FF2E88" stroke-width="1.0" x1="1002.7702" x2="1003.1773" y1="1186.1407" y2="1233.7403" /><line opacity="0.9" stroke="#19D3FF" stroke-width="2.7" x1="875.8058" x2="868.1338" y1="1070.3419" y2="1176.6889" /><line opacity="0.9" stroke="#FFB000" stroke-width="1.8" x1="868.1338" x2="898.3903" y1="1176.6889" y2="1231.9616" /><line opacity="0.9" stroke="#FF2E88" stroke-width="1.0" x1="898.3903" x2="931.4328" y1="1231.9616" y2="1257.7582" /><line opacity="0.9" stroke="#FF2E88" stroke-width="1.0" x1="898.3903" x2="902.3152" y1="1231.9616" y2="1273.6973" /><line opacity="0.9" stroke="#FFB000" stroke-width="1.8" x1="868.1338" x2="830.257" y1="1176.6889" y2="1227.0464" /><line opacity="0.9" stroke="#FF2E88" stroke-width="1.0" x1="830.257" x2="825.3352" y1="1227.0464" y2="1269.8731" /><line opacity="0.9" stroke="#FF2E88" stroke-width="1.0" x1="830.257" x2="790.4755" y1="1227.0464" y2="1243.6531" /><line opacity="0.9" stroke="#7A5CFF" stroke-width="3.6" x1="800.0" x2="724.1942" y1="928.0" y2="1070.3419" /><line opacity="0.9" stroke="#19D3FF" stroke-width="2.7" x1="724.1942" x2="726.3469" y1="1070.3419" y2="1174.7032" /><line opacity="0.9" stroke="#FFB000" stroke-width="1.8" x1="726.3469" x2="755.5804" y1="1174.7032" y2="1230.9301" /><line opacity="0.9" stroke="#FF2E88" stroke-width="1.0" x1="755.5804" x2="786.0865" y1="1230.9301" y2="1256.4245" /><line opacity="0.9" stroke="#FF2E88" stroke-width="1.0" x1="755.5804" x2="758.9262" y1="1230.9301" y2="1270.5457" /><line opacity="0.9" stroke="#FFB000" stroke-width="1.8" x1="726.3469" x2="699.457" y1="1174.7032" y2="1232.0878" /><line opacity="0.9" stroke="#FF2E88" stroke-width="1.0" x1="699.457" x2="704.6999" y1="1232.0878" y2="1271.8686" /><line opacity="0.9" stroke="#FF2E88" stroke-width="1.0" x1="699.457" x2="665.5325" y1="1232.0878" y2="1253.5151" /><line opacity="0.9" stroke="#19D3FF" stroke-width="2.7" x1="724.1942" x2="636.3958" y1="1070.3419" y2="1126.7988" /><line opacity="0.9" stroke="#FFB000" stroke-width="1.8" x1="636.3958" x2="598.2192" y1="1126.7988" y2="1190.1497" /><line opacity="0.9" stroke="#FF2E88" stroke-width="1.0" x1="598.2192" x2="591.3977" y1="1190.1497" y2="1237.3263" /><line opacity="0.9" stroke="#FF2E88" stroke-width="1.0" x1="598.2192" x2="559.6946" y1="1190.1497" y2="1218.2213" /><line opacity="0.9" stroke="#FFB000" stroke-width="1.8" x1="636.3958" x2="562.915" y1="1126.7988" y2="1135.2468" /><line opacity="0.9" stroke="#FF2E88" stroke-width="1.0" x1="562.915" x2="521.6031" y1="1135.2468" y2="1161.0554" /><line opacity="0.9" stroke="#FF2E88" stroke-width="1.0" x1="562.915" x2="516.8241" y1="1135.2468" y2="1119.4868" /><line opacity="0.9" stroke="#0B1026" stroke-width="4.5" x1="890.5097" x2="709.4903" y1="709.4903" y2="890.5097" /><line opacity="0.9" stroke="#7A5CFF" stroke-width="3.6" x1="709.4903" x2="664.6423" y1="890.5097" y2="1038.9143" /><line opacity="0.9" stroke="#19D3FF" stroke-width="2.7" x1="664.6423" x2="682.8553" y1="1038.9143" y2="1127.666" /><line opacity="0.9" stroke="#FFB000" stroke-width="1.8" x1="682.8553" x2="717.9905" y1="1127.666" y2="1167.7716" /><line opacity="0.9" stroke="#FF2E88" stroke-width="1.0" x1="717.9905" x2="750.7313" y1="1167.7716" y2="1177.6138" /><line opacity="0.9" stroke="#FF2E88" stroke-width="1.0" x1="717.9905" x2="723.4404" y1="1167.7716" y2="1201.5226" /><line opacity="0.9" stroke="#FFB000" stroke-width="1.8" x1="682.8553" x2="666.3549" y1="1127.666" y2="1178.3679" /><line opacity="0.9" stroke="#FF2E88" stroke-width="1.0" x1="666.3549" x2="671.9252" y1="1178.3679" y2="1213.8375" /><line opacity="0.9" stroke="#FF2E88" stroke-width="1.0" x1="666.3549" x2="640.9762" y1="1178.3679" y2="1203.7655" /><line opacity="0.9" stroke="#19D3FF" stroke-width="2.7" x1="664.6423" x2="600.3246" y1="1038.9143" y2="1102.7252" /><line opacity="0.9" stroke="#FFB000" stroke-width="1.8" x1="600.3246" x2="578.9071" y1="1102.7252" y2="1161.6586" /><line opacity="0.9" stroke="#FF2E88" stroke-width="1.0" x1="578.9071" x2="585.5393" y1="1161.6586" y2="1198.7808" /><line opacity="0.9" stroke="#FF2E88" stroke-width="1.0" x1="578.9071" x2="549.9885" y1="1161.6586" y2="1185.861" /><line opacity="0.9" stroke="#FFB000" stroke-width="1.8" x1="600.3246" x2="541.2236" y1="1102.7252" y2="1123.6758" /><line opacity="0.9" stroke="#FF2E88" stroke-width="1.0" x1="541.2236" x2="512.9871" y1="1123.6758" y2="1154.5339" /><line opacity="0.9" stroke="#FF2E88" stroke-width="1.0" x1="541.2236" x2="499.856" y1="1123.6758" y2="1117.4915" /><line opacity="0.9" stroke="#7A5CFF" stroke-width="3.6" x1="709.4903" x2="561.0857" y1="890.5097" y2="935.3577" /><line opacity="0.9" stroke="#19D3FF" stroke-width="2.7" x1="561.0857" x2="499.7373" y1="935.3577" y2="1001.598" /><line opacity="0.9" stroke="#FFB000" stroke-width="1.8" x1="499.7373" x2="482.5628" y1="1001.598" y2="1061.3957" /><line opacity="0.9" stroke="#FF2E88" stroke-width="1.0" x1="482.5628" x2="492.0361" y1="1061.3957" y2="1102.9793" /><line opacity="0.9" stroke="#FF2E88" stroke-width="1.0" x1="482.5628" x2="452.4671" y1="1061.3957" y2="1091.6147" /><line opacity="0.9" stroke="#FFB000" stroke-width="1.8" x1="499.7373" x2="441.4302" y1="1001.598" y2="1023.3007" /><line opacity="0.9" stroke="#FF2E88" stroke-width="1.0" x1="441.4302" x2="415.5069" y1="1023.3007" y2="1051.9749" /><line opacity="0.9" stroke="#FF2E88" stroke-width="1.0" x1="441.4302" x2="403.0674" y1="1023.3007" y2="1018.5547" /><line opacity="0.9" stroke="#19D3FF" stroke-width="2.7" x1="561.0857" x2="473.3195" y1="935.3577" y2="914.1801" /><line opacity="0.9" stroke="#FFB000" stroke-width="1.8" x1="473.3195" x2="410.3863" y1="914.1801" y2="925.9677" /><line opacity="0.9" stroke="#FF2E88" stroke-width="1.0" x1="410.3863" x2="378.51" y1="925.9677" y2="952.3008" /><line opacity="0.9" stroke="#FF2E88" stroke-width="1.0" x1="410.3863" x2="371.1406" y1="925.9677" y2="912.9559" /><line opacity="0.9" stroke="#FFB000" stroke-width="1.8" x1="473.3195" x2="422.6871" y1="914.1801" y2="874.9896" /><line opacity="0.9" stroke="#FF2E88" stroke-width="1.0" x1="422.6871" x2="380.4986" y1="874.9896" y2="867.2585" /><line opacity="0.9" stroke="#FF2E88" stroke-width="1.0" x1="422.6871" x2="404.6264" y1="874.9896" y2="836.0865" /><line opacity="0.9" stroke="#0B1026" stroke-width="4.5" x1="928.0" x2="672.0" y1="800.0" y2="800.0" /><line opacity="0.9" stroke="#7A5CFF" stroke-width="3.6" x1="672.0" x2="543.0586" y1="800.0" y2="881.3502" /><line opacity="0.9" stroke="#19D3FF" stroke-width="2.7" x1="543.0586" x2="493.9873" y1="881.3502" y2="972.666" /><line opacity="0.9" stroke="#FFB000" stroke-width="1.8" x1="493.9873" x2="490.3397" y1="972.666" y2="1043.6013" /><line opacity="0.9" stroke="#FF2E88" stroke-width="1.0" x1="490.3397" x2="511.157" y1="1043.6013" y2="1080.3705" /><line opacity="0.9" stroke="#FF2E88" stroke-width="1.0" x1="490.3397" x2="465.8608" y1="1043.6013" y2="1078.0413" /><line opacity="0.9" stroke="#FFB000" stroke-width="1.8" x1="493.9873" x2="436.8446" y1="972.666" y2="1014.8541" /><line opacity="0.9" stroke="#FF2E88" stroke-width="1.0" x1="436.8446" x2="417.0988" y1="1014.8541" y2="1055.8847" /><line opacity="0.9" stroke="#FF2E88" stroke-width="1.0" x1="436.8446" x2="391.819" y1="1014.8541" y2="1021.6439" /><line opacity="0.9" stroke="#19D3FF" stroke-width="2.7" x1="543.0586" x2="439.5122" y1="881.3502" y2="886.3221" /><line opacity="0.9" stroke="#FFB000" stroke-width="1.8" x1="439.5122" x2="383.9226" y1="886.3221" y2="920.5134" /><line opacity="0.9" stroke="#FF2E88" stroke-width="1.0" x1="383.9226" x2="365.6683" y1="920.5134" y2="959.1513" /><line opacity="0.9" stroke="#FF2E88" stroke-width="1.0" x1="383.9226" x2="341.2048" y1="920.5134" y2="919.3775" /><line opacity="0.9" stroke="#FFB000" stroke-width="1.8" x1="439.5122" x2="380.9024" y1="886.3221" y2="857.6141" /><line opacity="0.9" stroke="#FF2E88" stroke-width="1.0" x1="380.9024" x2="338.5116" y1="857.6141" y2="861.5513" /><line opacity="0.9" stroke="#FF2E88" stroke-width="1.0" x1="380.9024" x2="358.0271" y1="857.6141" y2="821.7086" /><line opacity="0.9" stroke="#7A5CFF" stroke-width="3.6" x1="672.0" x2="543.0586" y1="800.0" y2="718.6498" /><line opacity="0.9" stroke="#19D3FF" stroke-width="2.7" x1="543.0586" x2="451.2943" y1="718.6498" y2="718.2436" /><line opacity="0.9" stroke="#FFB000" stroke-width="1.8" x1="451.2943" x2="404.7353" y1="718.2436" y2="747.852" /><line opacity="0.9" stroke="#FF2E88" stroke-width="1.0" x1="404.7353" x2="386.327" y1="747.852" y2="775.2482" /><line opacity="0.9" stroke="#FF2E88" stroke-width="1.0" x1="404.7353" x2="372.118" y1="747.852" y2="752.9047" /><line opacity="0.9" stroke="#FFB000" stroke-width="1.8" x1="451.2943" x2="404.9992" y1="718.2436" y2="688.2241" /><line opacity="0.9" stroke="#FF2E88" stroke-width="1.0" x1="404.9992" x2="370.3218" y1="688.2241" y2="686.9585" /><line opacity="0.9" stroke="#FF2E88" stroke-width="1.0" x1="404.9992" x2="389.696" y1="688.2241" y2="657.0802" /><line opacity="0.9" stroke="#19D3FF" stroke-width="2.7" x1="543.0586" x2="503.1811" y1="718.6498" y2="636.0022" /><line opacity="0.9" stroke="#FFB000" stroke-width="1.8" x1="503.1811" x2="455.4976" y1="636.0022" y2="601.5615" /><line opacity="0.9" stroke="#FF2E88" stroke-width="1.0" x1="455.4976" x2="416.7295" y1="601.5615" y2="594.1652" /><line opacity="0.9" stroke="#FF2E88" stroke-width="1.0" x1="455.4976" x2="436.2901" y1="601.5615" y2="567.0834" /><line opacity="0.9" stroke="#FFB000" stroke-width="1.8" x1="503.1811" x2="505.8961" y1="636.0022" y2="577.2442" /><line opacity="0.9" stroke="#FF2E88" stroke-width="1.0" x1="505.8961" x2="488.6091" y1="577.2442" y2="540.4779" /><line opacity="0.9" stroke="#FF2E88" stroke-width="1.0" x1="505.8961" x2="526.5" y1="577.2442" y2="542.2287" /><line opacity="0.9" stroke="#0B1026" stroke-width="4.5" x1="890.5097" x2="709.4903" y1="890.5097" y2="709.4903" /><line opacity="0.9" stroke="#7A5CFF" stroke-width="3.6" x1="709.4903" x2="559.4301" y1="709.4903" y2="673.926" /><line opacity="0.9" stroke="#19D3FF" stroke-width="2.7" x1="559.4301" x2="469.0701" y1="673.926" y2="705.6609" /><line opacity="0.9" stroke="#FFB000" stroke-width="1.8" x1="469.0701" x2="429.627" y1="705.6609" y2="746.6902" /><line opacity="0.9" stroke="#FF2E88" stroke-width="1.0" x1="429.627" x2="420.4047" y1="746.6902" y2="782.8903" /><line opacity="0.9" stroke="#FF2E88" stroke-width="1.0" x1="429.627" x2="393.8184" y1="746.6902" y2="757.3319" /><line opacity="0.9" stroke="#FFB000" stroke-width="1.8" x1="469.0701" x2="412.6338" y1="705.6609" y2="698.305" /><line opacity="0.9" stroke="#FF2E88" stroke-width="1.0" x1="412.6338" x2="380.9537" y1="698.305" y2="713.3398" /><line opacity="0.9" stroke="#FF2E88" stroke-width="1.0" x1="412.6338" x2="385.866" y1="698.305" y2="675.6519" /><line opacity="0.9" stroke="#19D3FF" stroke-width="2.7" x1="559.4301" x2="492.9236" y1="673.926" y2="605.0137" /><line opacity="0.9" stroke="#FFB000" stroke-width="1.8" x1="492.9236" x2="431.3544" y1="605.0137" y2="587.6523" /><line opacity="0.9" stroke="#FF2E88" stroke-width="1.0" x1="431.3544" x2="393.3757" y1="587.6523" y2="594.2103" /><line opacity="0.9" stroke="#FF2E88" stroke-width="1.0" x1="431.3544" x2="402.3965" y1="587.6523" y2="562.2195" /><line opacity="0.9" stroke="#FFB000" stroke-width="1.8" x1="492.9236" x2="477.7601" y1="605.0137" y2="542.8667" /><line opacity="0.9" stroke="#FF2E88" stroke-width="1.0" x1="477.7601" x2="449.5969" y1="542.8667" y2="514.8239" /><line opacity="0.9" stroke="#FF2E88" stroke-width="1.0" x1="477.7601" x2="489.8428" y1="542.8667" y2="505.0041" /><line opacity="0.9" stroke="#7A5CFF" stroke-width="3.6" x1="709.4903" x2="673.926" y1="709.4903" y2="559.4301" /><line opacity="0.9" stroke="#19D3FF" stroke-width="2.7" x1="673.926" x2="615.6114" y1="559.4301" y2="487.0328" /><line opacity="0.9" stroke="#FFB000" stroke-width="1.8" x1="615.6114" x2="555.7193" y1="487.0328" y2="463.5756" /><line opacity="0.9" stroke="#FF2E88" stroke-width="1.0" x1="555.7193" x2="514.0536" y1="463.5756" y2="466.4822" /><line opacity="0.9" stroke="#FF2E88" stroke-width="1.0" x1="555.7193" x2="527.1102" y1="463.5756" y2="433.1454" /><line opacity="0.9" stroke="#FFB000" stroke-width="1.8" x1="615.6114" x2="605.4499" y1="487.0328" y2="423.5186" /><line opacity="0.9" stroke="#FF2E88" stroke-width="1.0" x1="605.4499" x2="580.2444" y1="423.5186" y2="395.3023" /><line opacity="0.9" stroke="#FF2E88" stroke-width="1.0" x1="605.4499" x2="620.5938" y1="423.5186" y2="388.8468" /><line opacity="0.9" stroke="#19D3FF" stroke-width="2.7" x1="673.926" x2="693.5466" y1="559.4301" y2="468.5622" /><line opacity="0.9" stroke="#FFB000" stroke-width="1.8" x1="693.5466" x2="676.0322" y1="468.5622" y2="413.5526" /><line opacity="0.9" stroke="#FF2E88" stroke-width="1.0" x1="676.0322" x2="645.7461" y1="413.5526" y2="388.82" /><line opacity="0.9" stroke="#FF2E88" stroke-width="1.0" x1="676.0322" x2="686.4437" y1="413.5526" y2="375.8624" /><line opacity="0.9" stroke="#FFB000" stroke-width="1.8" x1="693.5466" x2="732.1982" y1="468.5622" y2="425.6802" /><line opacity="0.9" stroke="#FF2E88" stroke-width="1.0" x1="732.1982" x2="740.0539" y1="425.6802" y2="392.7398" /><line opacity="0.9" stroke="#FF2E88" stroke-width="1.0" x1="732.1982" x2="764.1489" y1="425.6802" y2="414.4578" /><circle cx="800.0" cy="800.0" fill="none" r="71.68" stroke="#7A5CFF" stroke-width="3" /></svg>