<?xml version="1.0" encoding="utf-8" ?>
<svg baseProfile="tiny" height="1600" version="1.2" viewBox="0 0 1600 1600" width="1600" xmlns="http://www.w3.org/2000/svg" xmlns:ev="http://www.w3.org/2001/xml-events" xmlns:xlink="http://www.w3.org/1999/xlink"><defs /><rect fill="#0B1026" height="100%" width="100%" x="0" y="0" /><line opacity="0.9" stroke="#0B1026" stroke-width="4.5" x1="800.0" x2="800.0" y1="928.0" y2="672.0" /><line opacity="0.9" stroke="#7A5CFF" stroke-width="3.6" x1="800.0" x2="715.0018" y1="672.0" y2="512.9068" /><line opacity="0.9" stroke="#19D3FF" stroke-width="2.7" x1="715.0018" x2="616.5711" y1="512.9068" y2="442.1493" /><line opacity="0.9" stroke="#FFB000" stroke-width="1.8" x1="616.5711" x2="545.5803" y1="442.1493" y2="438.1575" /><line opacity="0.9" stroke="#FF2E88" stroke-width="1.0" x1="545.5803" x2="501.8025" y1="438.1575" y2="459.9118" /><line opacity="0.9" stroke="#FF2E88" stroke-width="1.0" x1="545.5803" x2="504.5172" y1="438.1575" y2="411.6325" /><line opacity="0.9" stroke="#FFB000" stroke-width="1.8" x1="616.5711" x2="590.1693" y1="442.1493" y2="376.1298" /><line opacity="0.9" stroke="#FF2E88" stroke-width="1.0" x1="590.1693" x2="556.188" y1="376.1298" y2="341.4531" /><line opacity="0.9" stroke="#FF2E88" stroke-width="1.0" x1="590.1693" x2="590.8692" y1="376.1298" y2="327.5838" /><line opacity="0.9" stroke="#19D3FF" stroke-width="2.7" x1="715.0018" x2="710.9004" y1="512.9068" y2="391.7523" /><line opacity="0.9" stroke="#FFB000" stroke-width="1.8" x1="710.9004" x2="679.379" y1="391.7523" y2="327.0848" /><line opacity="0.9" stroke="#FF2E88" stroke-width="1.0" x1="679.379" x2="644.4239" y1="327.0848" y2="298.7489" /><line opacity="0.9" stroke="#FF2E88" stroke-width="1.0" x1="679.379" x2="678.592" y1="327.0848" y2="282.0941" /><line opacity="0.9" stroke="#FFB000" stroke-width="1.8" x1="710.9004" x2="737.9762" y1="391.7523" y2="325.1011" /><line opacity="0.9" stroke="#FF2E88" stroke-width="1.0" x1="737.9762" x2="735.4938" y1="325.1011" y2="275.6819" /><line opacity="0.9" stroke="#FF2E88" stroke-width="1.0" x1="737.9762" x2="774.2192" y1="325.1011" y2="291.4134" /><line opacity="0.9" stroke="#7A5CFF" stroke-width="3.6" x1="800.0" x2="884.9982" y1="672.0" y2="512.9068" /><line opacity="0.9" stroke="#19D3FF" stroke-width="2.7" x1="884.9982" x2="886.7417" y1="512.9068" y2="397.5741" /><line opacity="0.9" stroke="#FFB000" stroke-width="1.8" x1="886.7417" x2="850.9257" y1="397.5741" y2="329.4248" /><line opacity="0.9" stroke="#FF2E88" stroke-width="1.0" x1="850.9257" x2="805.659" y1="329.4248" y2="300.4187" /><line opacity="0.9" stroke="#FF2E88" stroke-width="1.0" x1="850.9257" x2="852.7088" y1="329.4248" y2="275.6917" /><line opacity="0.9" stroke="#FFB000" stroke-width="1.8" x1="886.7417" x2="924.6013" y1="397.5741" y2="330.5386" /><line opacity="0.9" stroke="#FF2E88" stroke-width="1.0" x1="924.6013" x2="928.0966" y1="330.5386" y2="284.5799" /><line opacity="0.9" stroke="#FF2E88" stroke-width="1.0" x1="924.6013" x2="962.1548" y1="330.5386" y2="303.8149" /><line opacity="0.9" stroke="#19D3FF" stroke-width="2.7" x1="884.9982" x2="979.9002" y1="512.9068" y2="447.3456" /><line opacity="0.9" stroke="#FFB000" stroke-width="1.8" x1="979.9002" x2="1014.1326" y1="447.3456" y2="381.9202" /><line opacity="0.9" stroke="#FF2E88" stroke-width="1.0" x1="1014.1326" x2="1013.5149" y1="381.9202" y2="330.3757" /><line opacity="0.9" stroke="#FF2E88" stroke-width="1.0" x1="1014.1326" x2="1056.8309" y1="381.9202" y2="353.0399" /><line opacity="0.9" stroke="#FFB000" stroke-width="1.8" x1="979.9002" x2="1053.206" y1="447.3456" y2="438.4802" /><line opacity="0.9" stroke="#FF2E88" stroke-width="1.0" x1="1053.206" x2="1090.1163" y1="438.4802" y2="415.1878" /><line opacity="0.9" stroke="#FF2E88" stroke-width="1.0" x1="1053.206" x2="1094.6048" y1="438.4802" y2="452.3022" /><line opacity="0.9" stroke="#0B1026" stroke-width="4.5" x1="709.4903" x2="890.5097" y1="890.5097" y2="709.4903" /><line opacity="0.9" stroke="#7A5CFF" stroke-width="3.6" x1="890.5097" x2="951.117" y1="709.4903" y2="541.7035" /><line opacity="0.9" stroke="#19D3FF" stroke-width="2.7" x1="951.117" x2="934.0114" y1="541.7035" y2="423.6716" /><line opacity="0.9" stroke="#FFB000" stroke-width="1.8" x1="934.0114" x2="890.4499" y1="423.6716" y2="355.381" /><line opacity="0.9" stroke="#FF2E88" stroke-width="1.0" x1="890.4499" x2="846.7282" y1="355.381" y2="328.5111" /><line opacity="0.9" stroke="#FF2E88" stroke-width="1.0" x1="890.4499" x2="884.5159" y1="355.381" y2="304.4069" /><line opacity="0.9" stroke="#FFB000" stroke-width="1.8" x1="934.0114" x2="956.3942" y1="423.6716" y2="345.8241" /><line opacity="0.9" stroke="#FF2E88" stroke-width="1.0" x1="956.3942" x2="949.2866" y1="345.8241" y2="295.3099" /><line opacity="0.9" stroke="#FF2E88" stroke-width="1.0" x1="956.3942" x2="989.2461" y1="345.8241" y2="306.7991" /><line opacity="0.9" stroke="#19D3FF" stroke-width="2.7" x1="951.117" x2="1039.7025" y1="541.7035" y2="461.849" /><line opacity="0.9" stroke="#FFB000" stroke-width="1.8" x1="1039.7025" x2="1063.9785" y1="461.849" y2="385.0598" /><line opacity="0.9" stroke="#FF2E88" stroke-width="1.0" x1="1063.9785" x2="1054.322" y1="385.0598" y2="336.5405" /><line opacity="0.9" stroke="#FF2E88" stroke-width="1.0" x1="1063.9785" x2="1099.7702" y1="385.0598" y2="350.9084" /><line opacity="0.9" stroke="#FFB000" stroke-width="1.8" x1="1039.7025" x2="1118.5901" y1="461.849" y2="445.6424" /><line opacity="0.9" stroke="#FF2E88" stroke-width="1.0" x1="1118.5901" x2="1162.7929" y1="445.6424" y2="412.6696" /><line opacity="0.9" stroke="#FF2E88" stroke-width="1.0" x1="1118.5901" x2="1172.212" y1="445.6424" y2="458.5181" /><line opacity="0.9" stroke="#7A5CFF" stroke-width="3.6" x1="890.5097" x2="1058.2965" y1="709.4903" y2="648.883" /><line opacity="0.9" stroke="#19D3FF" stroke-width="2.7" x1="1058.2965" x2="1145.1712" y1="648.883" y2="569.2818" /><line opacity="0.9" stroke="#FFB000" stroke-width="1.8" x1="1145.1712" x2="1174.671" y1="569.2818" y2="500.4393" /><line opacity="0.9" stroke="#FF2E88" stroke-width="1.0" x1="1174.671" x2="1173.4923" y1="500.4393" y2="454.7166" /><line opacity="0.9" stroke="#FF2E88" stroke-width="1.0" x1="1174.671" x2="1208.5904" y1="500.4393" y2="469.7566" /><line opacity="0.9" stroke="#FFB000" stroke-width="1.8" x1="1145.1712" x2="1216.3242" y1="569.2818" y2="545.8984" /><line opacity="0.9" stroke="#FF2E88" stroke-width="1.0" x1="1216.3242" x2="1247.1368" y1="545.8984" y2="508.4212" /><line opacity="0.9" stroke="#FF2E88" stroke-width="1.0" x1="1216.3242" x2="1263.3615" y1="545.8984" y2="557.7915" /><line opacity="0.9" stroke="#19D3FF" stroke-width="2.7" x1="1058.2965" x2="1175.9866" y1="648.883" y2="654.592" /><line opacity="0.9" stroke="#FFB000" stroke-width="1.8" x1="1175.9866" x2="1250.2319" y1="654.592" y2="626.5108" /><line opacity="0.9" stroke="#FF2E88" stroke-width="1.0" x1="1250.2319" x2="1284.5848" y1="626.5108" y2="582.6257" /><line opacity="0.9" stroke="#FF2E88" stroke-width="1.0" x1="1250.2319" x2="1305.0283" y1="626.5108" y2="636.6776" /><line opacity="0.9" stroke="#FFB000" stroke-width="1.8" x1="1175.9866" x2="1247.1653" y1="654.592" y2="689.7275" /><line opacity="0.9" stroke="#FF2E88" stroke-width="1.0" x1="1247.1653" x2="1299.9171" y1="689.7275" y2="684.2526" /><line opacity="0.9" stroke="#FF2E88" stroke-width="1.0" x1="1247.1653" x2="1274.9002" y1="689.7275" y2="734.9326" /><line opacity="0.9" stroke="#0B1026" stroke-width="4.5" x1="672.0" x2="928.0" y1="800.0" y2="800.0" /><line opacity="0.9" stroke="#7A5CFF" stroke-width="3.6" x1="928.0" x2="1091.3609" y1="800.0" y2="722.2036" /><line opacity="0.9" stroke="#19D3FF" stroke-width="2.7" x1="1091.3609" x2="1160.3774" y1="722.2036" y2="625.3321" /><line opacity="0.9" stroke="#FFB000" stroke-width="1.8" x1="1160.3774" x2="1170.8656" y1="625.3321" y2="552.0938" /><line opacity="0.9" stroke="#FF2E88" stroke-width="1.0" x1="1170.8656" x2="1154.0985" y1="552.0938" y2="512.1182" /><line opacity="0.9" stroke="#FF2E88" stroke-width="1.0" x1="1170.8656" x2="1198.1784" y1="552.0938" y2="518.4307" /><line opacity="0.9" stroke="#FFB000" stroke-width="1.8" x1="1160.3774" x2="1226.1733" y1="625.3321" y2="591.4979" /><line opacity="0.9" stroke="#FF2E88" stroke-width="1.0" x1="1226.1733" x2="1252.3003" y1="591.4979" y2="553.8798" /><line opacity="0.9" stroke="#FF2E88" stroke-width="1.0" x1="1226.1733" x2="1271.97" y1="591.4979" y2="592.1308" /><line opacity="0.9" stroke="#19D3FF" stroke-width="2.7" x1="1091.3609" x2="1210.0686" y1="722.2036" y2="729.6763" /><line opacity="0.9" stroke="#FFB000" stroke-width="1.8" x1="1210.0686" x2="1281.1438" y1="729.6763" y2="700.7382" /><line opacity="0.9" stroke="#FF2E88" stroke-width="1.0" x1="1281.1438" x2="1309.0444" y1="700.7382" y2="663.7259" /><line opacity="0.9" stroke="#FF2E88" stroke-width="1.0" x1="1281.1438" x2="1326.9629" y1="700.7382" y2="707.7357" /><line opacity="0.9" stroke="#FFB000" stroke-width="1.8" x1="1210.0686" x2="1276.9538" y1="729.6763" y2="767.2992" /><line opacity="0.9" stroke="#FF2E88" stroke-width="1.0" x1="1276.9538" x2="1329.3509" y1="767.2992" y2="772.2248" /><line opacity="0.9" stroke="#FF2E88" stroke-width="1.0" x1="1276.9538" x2="1308.3724" y1="767.2992" y2="809.52" /><line opacity="0.9" stroke="#7A5CFF" stroke-width="3.6" x1="928.0" x2="1091.3609" y1="800.0" y2="877.7964" /><line opacity="0.9" stroke="#19D3FF" stroke-width="2.7" x1="1091.3609" x2="1196.5716" y1="877.7964" y2="863.877" /><line opacity="0.9" stroke="#FFB000" stroke-width="1.8" x1="1196.5716" x2="1252.5612" y1="863.877" y2="820.5299" /><line opacity="0.9" stroke="#FF2E88" stroke-width="1.0" x1="1252.5612" x2="1273.4487" y1="820.5299" y2="779.6964" /><line opacity="0.9" stroke="#FF2E88" stroke-width="1.0" x1="1252.5612" x2="1297.3249" y1="820.5299" y2="810.5362" /><line opacity="0.9" stroke="#FFB000" stroke-width="1.8" x1="1196.5716" x2="1261.9072" y1="863.877" y2="891.1729" /><line opacity="0.9" stroke="#FF2E88" stroke-width="1.0" x1="1261.9072" x2="1305.4006" y1="891.1729" y2="889.58" /><line opacity="0.9" stroke="#FF2E88" stroke-width="1.0" x1="1261.9072" x2="1291.3409" y1="891.1729" y2="923.2333" /><line opacity="0.9" stroke="#19D3FF" stroke-width="2.7" x1="1091.3609" x2="1146.8656" y1="877.7964" y2="968.2523" /><line opacity="0.9" stroke="#FFB000" stroke-width="1.8" x1="1146.8656" x2="1199.8998" y1="968.2523" y2="1004.7609" /><line opacity="0.9" stroke="#FF2E88" stroke-width="1.0" x1="1199.8998" x2="1240.4604" y1="1004.7609" y2="1012.9861" /><line opacity="0.9" stroke="#FF2E88" stroke-width="1.0" x1="1199.8998" x2="1222.0614" y1="1004.7609" y2="1039.7134" /><line opacity="0.9" stroke="#FFB000" stroke-width="1.8" x1="1146.8656" x2="1155.3931" y1="968.2523" y2="1032.0707" /><line opacity="0.9" stroke="#FF2E88" stroke-width="1.0" x1="1155.3931" x2="1177.4506" y1="1032.0707" y2="1063.6828" /><line opacity="0.9" stroke="#FF2E88" stroke-width="1.0" x1="1155.3931" x2="1142.4093" y1="1032.0707" y2="1068.365" /><line opacity="0.9" stroke="#0B1026" stroke-width="4.5" x1="709.4903" x2="890.5097" y1="709.4903" y2="890.5097" /><line opacity="0.9" stroke="#7A5CFF" stroke-width="3.6" x1="890.5097" x2="1036.8049" y1="890.5097" y2="943.3126" /><line opacity="0.9" stroke="#19D3FF" stroke-width="2.7" x1="1036.8049" x2="1140.1136" y1="943.3126" y2="935.0689" /><line opacity="0.9" stroke="#FFB000" stroke-width="1.8" x1="1140.1136" x2="1195.5554" y1="935.0689" y2="906.4924" /><line opacity="0.9" stroke="#FF2E88" stroke-width="1.0" x1="1195.5554" x2="1220.828" y1="906.4924" y2="875.9928" /><line opacity="0.9" stroke="#FF2E88" stroke-width="1.0" x1="1195.5554" x2="1235.0597" y1="906.4924" y2="903.6038" /><line opacity="0.9" stroke="#FFB000" stroke-width="1.8" x1="1140.1136" x2="1199.3856" y1="935.0689" y2="954.4918" /><line opacity="0.9" stroke="#FF2E88" stroke-width="1.0" x1="1199.3856" x2="1242.0716" y1="954.4918" y2="946.9033" /><line opacity="0.9" stroke="#FF2E88" stroke-width="1.0" x1="1199.3856" x2="1229.3021" y1="954.4918" y2="985.8714" /><line opacity="0.9" stroke="#19D3FF" stroke-width="2.7" x1="1036.8049" x2="1111.0343" y1="943.3126" y2="1015.6358" /><line opacity="0.9" stroke="#FFB000" stroke-width="1.8" x1="1111.0343" x2="1176.7873" y1="1015.6358" y2="1031.4725" /><line opacity="0.9" stroke="#FF2E88" stroke-width="1.0" x1="1176.7873" x2="1221.8747" y1="1031.4725" y2="1023.5682" /><line opacity="0.9" stroke="#FF2E88" stroke-width="1.0" x1="1176.7873" x2="1213.3317" y1="1031.4725" y2="1059.038" /><line opacity="0.9" stroke="#FFB000" stroke-width="1.8" x1="1111.0343" x2="1128.5759" y1="1015.6358" y2="1080.9546" /><line opacity="0.9" stroke="#FF2E88" stroke-width="1.0" x1="1128.5759" x2="1156.0906" y1="1080.9546" y2="1114.046" /><line opacity="0.9" stroke="#FF2E88" stroke-width="1.0" x1="1128.5759" x2="1121.3409" y1="1080.9546" y2="1123.3782" /><line opacity="0.9" stroke="#7A5CFF" stroke-width="3.6" x1="890.5097" x2="943.3126" y1="890.5097" y2="1036.8049" /><line opacity="0.9" stroke="#19D3FF" stroke-width="2.7" x1="943.3126" x2="1011.2789" y1="1036.8049" y2="1102.9292" /><line opacity="0.9" stroke="#FFB000" stroke-width="1.8" x1="1011.2789" x2="1071.5953" y1="1102.9292" y2="1124.7322" /><line opacity="0.9" stroke="#FF2E88" stroke-width="1.0" x1="1071.5953" x2="1113.6267" y1="1124.7322" y2="1117.8844" /><line opacity="0.9" stroke="#FF2E88" stroke-width="1.0" x1="1071.5953" x2="1099.5335" y1="1124.7322" y2="1156.8723" /><line opacity="0.9" stroke="#FFB000" stroke-width="1.8" x1="1011.2789" x2="1034.7304" y1="1102.9292" y2="1162.624" /><line opacity="0.9" stroke="#FF2E88" stroke-width="1.0" x1="1034.7304" x2="1065.757" y1="1162.624" y2="1189.4294" /><line opacity="0.9" stroke="#FF2E88" stroke-width="1.0" x1="1034.7304" x2="1030.2459" y1="1162.624" y2="1203.3802" /><line opacity="0.9" stroke="#19D3FF" stroke-width="2.7" x1="943.3126" x2="933.245" y1="1036.8049" y2="1131.0943" /><line opacity="0.9" stroke="#FFB000" stroke-width="1.8" x1="933.245" x2="960.2045" y1="1131.0943" y2="1188.7225" /><line opacity="0.9" stroke="#FF2E88" stroke-width="1.0" x1="960.2045" x2="992.9822" y1="1188.7225" y2="1216.4731" /><line opacity="0.9" stroke="#FF2E88" stroke-width="1.0" x1="960.2045" x2="960.5001" y1="1188.7225" y2="1231.6688" /><line opacity="0.9" stroke="#FFB000" stroke-width="1.8" x1="933.245" x2="894.7258" y1="1131.0943" y2="1181.7311" /><line opacity="0.9" stroke="#FF2E88" stroke-width="1.0" x1="894.7258" x2="885.7161" y1="1181.7311" y2="1220.1929" /><line opacity="0.9" stroke="#FF2E88" stroke-width="1.0" x1="894.7258" x2="860.064" y1="1181.7311" y2="1200.6794" /><line opacity="0.9" stroke="#0B1026" stroke-width="4.5" x1="800.0" x2="800.0" y1="672.0" y2="928.0" /><line opacity="0.9" stroke="#7A5CFF" stroke-width="3.6" x1="800.0" x2="867.7525" y1="928.0" y2="1078.6283" /><line opacity="0.9" stroke="#19D3FF" stroke-width="2.7" x1="867.7525" x2="959.2667" y1="1078.6283" y2="1143.6993" /><line opacity="0.9" stroke="#FFB000" stroke-width="1.8" x1="959.2667" x2="1033.2825" y1="1143.6993" y2="1157.2779" /><line opacity="0.9" stroke="#FF2E88" stroke-width="1.0" x1="1033.2825" x2="1084.185" y1="1157.2779" y2="1142.9715" /><line opacity="0.9" stroke="#FF2E88" stroke-width="1.0" x1="1033.2825" x2="1075.792" y1="1157.2779" y2="1188.7212" /><line opacity="0.9" stroke="#FFB000" stroke-width="1.8" x1="959.2667" x2="996.3979" y1="1143.6993" y2="1209.1515" /><line opacity="0.9" stroke="#FF2E88" stroke-width="1.0" x1="996.3979" x2="1040.5492" y1="1209.1515" y2="1237.7114" /><line opacity="0.9" stroke="#FF2E88" stroke-width="1.0" x1="996.3979" x2="998.2607" y1="1209.1515" y2="1261.7017" /><line opacity="0.9" stroke="#19D3FF" stroke-width="2.7" x1="867.7525" x2="855.7246" y1="1078.6283" y2="1190.2725" /><line opacity="0.9" stroke="#FFB000" stroke-width="1.8" x1="855.7246" x2="888.1195" y1="1190.2725" y2="1258.4044" /><line opacity="0.9" stroke="#FF2E88" stroke-width="1.0" x1="888.1195" x2="930.9693" y1="1258.4044" y2="1288.6325" /><line opacity="0.9" stroke="#FF2E88" stroke-width="1.0" x1="888.1195" x2="884.5169" y1="1258.4044" y2="1310.7194" /><line opacity="0.9" stroke="#FFB000" stroke-width="1.8" x1="855.7246" x2="809.5611" y1="1190.2725" y2="1249.941" /><line opacity="0.9" stroke="#FF2E88" stroke-width="1.0" x1="809.5611" x2="803.2454" y1="1249.941" y2="1296.0265" /><line opacity="0.9" stroke="#FF2E88" stroke-width="1.0" x1="809.5611" x2="766.5384" y1="1249.941" y2="1267.6276" /><line opacity="0.9" stroke="#7A5CFF" stroke-width="3.6" x1="800.0" x2="732.2475" y1="928.0" y2="1078.6283" /><line opacity="0.9" stroke="#19D3FF" stroke-width="2.7" x1="732.2475" x2="748.2074" y1="1078.6283" y2="1194.2435" /><line opacity="0.9" stroke="#FFB000" stroke-width="1.8" x1="748.2074" x2="796.1441" y1="1194.2435" y2="1254.1352" /><line opacity="0.9" stroke="#FF2E88" stroke-width="1.0" x1="796.1441" x2="846.4077" y1="1254.1352" y2="1271.0209" /><line opacity="0.9" stroke="#FF2E88" stroke-width="1.0" x1="796.1441" x2="801.6095" y1="1254.1352" y2="1306.8769" /><line opacity="0.9" stroke="#FFB000" stroke-width="1.8" x1="748.2074" x2="718.2897" y1="1194.2435" y2="1264.8825" /><line opacity="0.9" stroke="#FF2E88" stroke-width="1.0" x1="718.2897" x2="724.1845" y1="1264.8825" y2="1316.3798" /><line opacity="0.9" stroke="#FF2E88" stroke-width="1.0" x1="718.2897" x2="677.2013" y1="1264.8825" y2="1296.481" /><line opacity="0.9" stroke="#19D3FF" stroke-width="2.7" x1="732.2475" x2="635.1533" y1="1078.6283" y2="1143.3919" /><line opacity="0.9" stroke="#FFB000" stroke-width="1.8" x1="635.1533" x2="603.7229" y1="1143.3919" y2="1212.732" /><line opacity="0.9" stroke="#FF2E88" stroke-width="1.0" x1="603.7229" x2="609.3675" y1="1212.732" y2="1263.1084" /><line opacity="0.9" stroke="#FF2E88" stroke-width="1.0" x1="603.7229" x2="562.1174" y1="1212.732" y2="1241.691" /><line opacity="0.9" stroke="#FFB000" stroke-width="1.8" x1="635.1533" x2="559.0596" y1="1143.3919" y2="1145.7723" /><line opacity="0.9" stroke="#FF2E88" stroke-width="1.0" x1="559.0596" x2="519.0453" y1="1145.7723" y2="1166.1036" /><line opacity="0.9" stroke="#FF2E88" stroke-width="1.0" x1="559.0596" x2="517.8527" y1="1145.7723" y2="1127.9819" /><line opacity="0.9" stroke="#0B1026" stroke-width="4.5" x1="890.5097" x2="709.4903" y1="709.4903" y2="890.5097" /><line opacity="0.9" stroke="#7A5CFF" stroke-width="3.6" x1="709.4903" x2="657.7076" y1="890.5097" y2="1064.5975" /><line opacity="0.9" stroke="#19D3FF" stroke-width="2.7" x1="657.7076" x2="677.8632" y1="1064.5975" y2="1174.64" /><line opacity="0.9" stroke="#FFB000" stroke-width="1.8" x1="677.8632" x2="720.6341" y1="1174.64" y2="1238.1422" /><line opacity="0.9" stroke="#FF2E88" stroke-width="1.0" x1="720.6341" x2="768.1166" y1="1238.1422" y2="1259.7222" /><line opacity="0.9" stroke="#FF2E88" stroke-width="1.0" x1="720.6341" x2="722.7858" y1="1238.1422" y2="1290.2541" /><line opacity="0.9" stroke="#FFB000" stroke-width="1.8" x1="677.8632" x2="660.3762" y1="1174.64" y2="1249.1791" /><line opacity="0.9" stroke="#FF2E88" stroke-width="1.0" x1="660.3762" x2="668.7196" y1="1249.1791" y2="1299.2771" /><line opacity="0.9" stroke="#FF2E88" stroke-width="1.0" x1="660.3762" x2="630.6235" y1="1249.1791" y2="1290.3397" /><line opacity="0.9" stroke="#19D3FF" stroke-width="2.7" x1="657.7076" x2="580.6853" y1="1064.5975" y2="1145.7343" /><line opacity="0.9" stroke="#FFB000" stroke-width="1.8" x1="580.6853" x2="558.9404" y1="1145.7343" y2="1216.524" /><line opacity="0.9" stroke="#FF2E88" stroke-width="1.0" x1="558.9404" x2="568.464" y1="1216.524" y2="1261.6427" /><line opacity="0.9" stroke="#FF2E88" stroke-width="1.0" x1="558.9404" x2="525.7304" y1="1216.524" y2="1248.516" /><line opacity="0.9" stroke="#FFB000" stroke-width="1.8" x1="580.6853" x2="511.122" y1="1145.7343" y2="1171.1305" /><line opacity="0.9" stroke="#FF2E88" stroke-width="1.0" x1="511.122" x2="479.5305" y1="1171.1305" y2="1201.777" /><line opacity="0.9" stroke="#FF2E88" stroke-width="1.0" x1="511.122" x2="467.2162" y1="1171.1305" y2="1168.0465" /><line opacity="0.9" stroke="#7A5CFF" stroke-width="3.6" x1="709.4903" x2="535.4025" y1="890.5097" y2="942.2924" /><line opacity="0.9" stroke="#19D3FF" stroke-width="2.7" x1="535.4025" x2="454.7148" y1="942.2924" y2="1022.9452" /><line opacity="0.9" stroke="#FFB000" stroke-width="1.8" x1="454.7148" x2="437.3097" y1="1022.9452" y2="1095.5604" /><line opacity="0.9" stroke="#FF2E88" stroke-width="1.0" x1="437.3097" x2="449.1501" y1="1095.5604" y2="1137.9406" /><line opacity="0.9" stroke="#FF2E88" stroke-width="1.0" x1="437.3097" x2="407.5434" y1="1095.5604" y2="1127.9679" /><line opacity="0.9" stroke="#FFB000" stroke-width="1.8" x1="454.7148" x2="382.0921" y1="1022.9452" y2="1040.319" /><line opacity="0.9" stroke="#FF2E88" stroke-width="1.0" x1="382.0921" x2="346.4284" y1="1040.319" y2="1067.6249" /><line opacity="0.9" stroke="#FF2E88" stroke-width="1.0" x1="382.0921" x2="337.932" y1="1040.319" y2="1032.1096" /><line opacity="0.9" stroke="#19D3FF" stroke-width="2.7" x1="535.4025" x2="423.7518" y1="942.2924" y2="918.851" /><line opacity="0.9" stroke="#FFB000" stroke-width="1.8" x1="423.7518" x2="353.4764" y1="918.851" y2="935.3196" /><line opacity="0.9" stroke="#FF2E88" stroke-width="1.0" x1="353.4764" x2="313.3007" y1="935.3196" y2="965.2101" /><line opacity="0.9" stroke="#FF2E88" stroke-width="1.0" x1="353.4764" x2="304.2036" y1="935.3196" y2="926.3908" /><line opacity="0.9" stroke="#FFB000" stroke-width="1.8" x1="423.7518" x2="366.0337" y1="918.851" y2="875.5098" /><line opacity="0.9" stroke="#FF2E88" stroke-width="1.0" x1="366.0337" x2="320.0484" y1="875.5098" y2="870.7336" /><line opacity="0.9" stroke="#FF2E88" stroke-width="1.0" x1="366.0337" x2="348.6227" y1="875.5098" y2="832.6809" /><line opacity="0.9" stroke="#0B1026" stroke-width="4.5" x1="928.0" x2="672.0" y1="800.0" y2="800.0" /><line opacity="0.9" stroke="#7A5CFF" stroke-width="3.6" x1="672.0" x2="538.703" y1="800.0" y2="868.7354" /><line opacity="0.9" stroke="#19D3FF" stroke-width="2.7" x1="538.703" x2="486.3481" y1="868.7354" y2="939.2894" /><line opacity="0.9" stroke="#FFB000" stroke-width="1.8" x1="486.3481" x2="475.1269" y1="939.2894" y2="993.0598" /><line opacity="0.9" stroke="#FF2E88" stroke-width="1.0" x1="475.1269" x2="484.8346" y1="993.0598" y2="1030.2595" /><line opacity="0.9" stroke="#FF2E88" stroke-width="1.0" x1="475.1269" x2="451.3513" y1="993.0598" y2="1023.272" /><line opacity="0.9" stroke="#FFB000" stroke-width="1.8" x1="486.3481" x2="438.1367" y1="939.2894" y2="965.611" /><line opacity="0.9" stroke="#FF2E88" stroke-width="1.0" x1="438.1367" x2="418.5455" y1="965.611" y2="995.0761" /><line opacity="0.9" stroke="#FF2E88" stroke-width="1.0" x1="438.1367" x2="402.7572" y1="965.611" y2="966.1577" /><line opacity="0.9" stroke="#19D3FF" stroke-width="2.7" x1="538.703" x2="450.8629" y1="868.7354" y2="870.4738" /><line opacity="0.9" stroke="#FFB000" stroke-width="1.8" x1="450.8629" x2="402.9565" y1="870.4738" y2="897.8843" /><line opacity="0.9" stroke="#FF2E88" stroke-width="1.0" x1="402.9565" x2="384.2326" y1="897.8843" y2="932.2739" /><line opacity="0.9" stroke="#FF2E88" stroke-width="1.0" x1="402.9565" x2="363.821" y1="897.8843" y2="896.5997" /><line opacity="0.9" stroke="#FFB000" stroke-width="1.8" x1="450.8629" x2="401.9095" y1="870.4738" y2="844.9803" /><line opacity="0.9" stroke="#FF2E88" stroke-width="1.0" x1="401.9095" x2="365.9469" y1="844.9803" y2="843.4544" /><line opacity="0.9" stroke="#FF2E88" stroke-width="1.0" x1="401.9095" x2="380.0414" y1="844.9803" y2="816.3897" /><line opacity="0.9" stroke="#7A5CFF" stroke-width="3.6" x1="672.0" x2="538.703" y1="800.0" y2="731.2646" /><line opacity="0.9" stroke="#19D3FF" stroke-width="2.7" x1="538.703" x2="446.4886" y1="731.2646" y2="724.0186" /><line opacity="0.9" stroke="#FFB000" stroke-width="1.8" x1="446.4886" x2="397.335" y1="724.0186" y2="746.4777" /><line opacity="0.9" stroke="#FF2E88" stroke-width="1.0" x1="397.335" x2="379.1392" y1="746.4777" y2="773.7583" /><line opacity="0.9" stroke="#FF2E88" stroke-width="1.0" x1="397.335" x2="364.8004" y1="746.4777" y2="742.3767" /><line opacity="0.9" stroke="#FFB000" stroke-width="1.8" x1="446.4886" x2="401.4462" y1="724.0186" y2="694.1577" /><line opacity="0.9" stroke="#FF2E88" stroke-width="1.0" x1="401.4462" x2="365.5202" y1="694.1577" y2="690.9208" /><line opacity="0.9" stroke="#FF2E88" stroke-width="1.0" x1="401.4462" x2="384.4763" y1="694.1577" y2="662.3273" /><line opacity="0.9" stroke="#19D3FF" stroke-width="2.7" x1="538.703" x2="479.3244" y1="731.2646" y2="660.3408" /><line opacity="0.9" stroke="#FFB000" stroke-width="1.8" x1="479.3244" x2="423.8494" y1="660.3408" y2="637.1702" /><line opacity="0.9" stroke="#FF2E88" stroke-width="1.0" x1="423.8494" x2="382.4002" y1="637.1702" y2="637.7248" /><line opacity="0.9" stroke="#FF2E88" stroke-width="1.0" x1="423.8494" x2="395.1084" y1="637.1702" y2="607.2988" /><line opacity="0.9" stroke="#FFB000" stroke-width="1.8" x1="479.3244" x2="466.2689" y1="660.3408" y2="601.656" /><line opacity="0.9" stroke="#FF2E88" stroke-width="1.0" x1="466.2689" x2="441.41" y1="601.656" y2="576.844" /><line opacity="0.9" stroke="#FF2E88" stroke-width="1.0" x1="466.2689" x2="478.2639" y1="601.656" y2="568.6451" /><line opacity="0.9" stroke="#0B1026" stroke-width="4.5" x1="890.5097" x2="709.4903" y1="890.5097" y2="709.4903" /><line opacity="0.9" stroke="#7A5CFF" stroke-width="3.6" x1="709.4903" x2="545.5225" y1="709.4903" y2="667.4885" /><line opacity="0.9" stroke="#19D3FF" stroke-width="2.7" x1="545.5225" x2="436.8742" y1="667.4885" y2="694.8036" /><line opacity="0.9" stroke="#FFB000" stroke-width="1.8" x1="436.8742" x2="380.0881" y1="694.8036" y2="747.3868" /><line opacity="0.9" stroke="#FF2E88" stroke-width="1.0" x1="380.0881" x2="361.3266" y1="747.3868" y2="795.2129" /><line opacity="0.9" stroke="#FF2E88" stroke-width="1.0" x1="380.0881" x2="330.9631" y1="747.3868" y2="762.4226" /><line opacity="0.9" stroke="#FFB000" stroke-width="1.8" x1="436.8742" x2="361.9719" y1="694.8036" y2="675.3278" /><line opacity="0.9" stroke="#FF2E88" stroke-width="1.0" x1="361.9719" x2="308.7129" y1="675.3278" y2="684.8673" /><line opacity="0.9" stroke="#FF2E88" stroke-width="1.0" x1="361.9719" x2="320.105" y1="675.3278" y2="641.0542" /><line opacity="0.9" stroke="#19D3FF" stroke-width="2.7" x1="545.5225" x2="463.3869" y1="667.4885" y2="591.3026" /><line opacity="0.9" stroke="#FFB000" stroke-width="1.8" x1="463.3869" x2="389.1763" y1="591.3026" y2="577.7611" /><line opacity="0.9" stroke="#FF2E88" stroke-width="1.0" x1="389.1763" x2="343.5585" y1="577.7611" y2="595.3166" /><line opacity="0.9" stroke="#FF2E88" stroke-width="1.0" x1="389.1763" x2="352.6988" y1="577.7611" y2="545.2253" /><line opacity="0.9" stroke="#FFB000" stroke-width="1.8" x1="463.3869" x2="444.3139" y1="591.3026" y2="518.3176" /><line opacity="0.9" stroke="#FF2E88" stroke-width="1.0" x1="444.3139" x2="413.8879" y1="518.3176" y2="484.6581" /><line opacity="0.9" stroke="#FF2E88" stroke-width="1.0" x1="444.3139" x2="454.3821" y1="518.3176" y2="474.0758" /><line opacity="0.9" stroke="#7A5CFF" stroke-width="3.6" x1="709.4903" x2="667.4885" y1="709.4903" y2="545.5225" /><line opacity="0.9" stroke="#19D3FF" stroke-width="2.7" x1="667.4885" x2="589.5294" y1="545.5225" y2="459.5695" /><line opacity="0.9" stroke="#FFB000" stroke-width="1.8" x1="589.5294" x2="523.2065" y1="459.5695" y2="429.8168" /><line opacity="0.9" stroke="#FF2E88" stroke-width="1.0" x1="523.2065" x2="472.3304" y1="429.8168" y2="429.3874" /><line opacity="0.9" stroke="#FF2E88" stroke-width="1.0" x1="523.2065" x2="489.0564" y1="429.8168" y2="392.103" /><line opacity="0.9" stroke="#FFB000" stroke-width="1.8" x1="589.5294" x2="566.3715" y1="459.5695" y2="390.6662" /><line opacity="0.9" stroke="#FF2E88" stroke-width="1.0" x1="566.3715" x2="527.7869" y1="390.6662" y2="357.8127" /><line opacity="0.9" stroke="#FF2E88" stroke-width="1.0" x1="566.3715" x2="577.2816" y1="390.6662" y2="341.1779" /><line opacity="0.9" stroke="#19D3FF" stroke-width="2.7" x1="667.4885" x2="694.5231" y1="545.5225" y2="432.6744" /><line opacity="0.9" stroke="#FFB000" stroke-width="1.8" x1="694.5231" x2="677.6473" y1="432.6744" y2="352.3896" /><line opacity="0.9" stroke="#FF2E88" stroke-width="1.0" x1="677.6473" x2="646.7042" y1="352.3896" y2="312.5721" /><line opacity="0.9" stroke="#FF2E88" stroke-width="1.0" x1="677.6473" x2="689.9408" y1="352.3896" y2="303.4838" /><line opacity="0.9" stroke="#FFB000" stroke-width="1.8" x1="694.5231" x2="745.9461" y1="432.6744" y2="368.7516" /><line opacity="0.9" stroke="#FF2E88" stroke-width="1.0" x1="745.9461" x2="752.2145" y1="368.7516" y2="317.8392" /><line opacity="0.9" stroke="#FF2E88" stroke-width="1.0" x1="745.9461" x2="794.3338" y1="368.7516" y2="351.7223" /><circle cx="800.0" cy="800.0" fill="none" r="71.68" stroke="#7A5CFF" stroke-width="3" /></svg>