<?xml version="1.0" encoding="utf-8" ?>
<svg baseProfile="tiny" height="1600" version="1.2" viewBox="0 0 1600 1600" width="1600" xmlns="http://www.w3.org/2000/svg" xmlns:ev="http://www.w3.org/2001/xml-events" xmlns:xlink="http://www.w3.org/1999/xlink"><defs /><rect fill="#0B1026" height="100%" width="100%" x="0" y="0" /><polygon fill="#FF2E88" opacity="0.12" points="857.3333,800.0 835.7467,844.825 787.2421,855.8959 748.3445,824.876 748.3445,775.124 787.2421,744.1041 835.7467,755.175" stroke="#7A5CFF" stroke-width="2" /><polygon fill="none" opacity="1" points="905.9382,843.881 843.881,905.9382 756.119,905.9382 694.0618,843.881 694.0618,756.119 756.119,694.0618 843.881,694.0618 905.9382,756.119" stroke="#7A5CFF" stroke-width="3" /><polygon fill="#19D3FF" opacity="0.12" points="921.6224,921.6224 814.9908,971.3455 701.3449,940.8942 633.8608,844.5169 644.1151,727.3097 727.3097,644.1151 844.5169,633.8608 940.8942,701.3449 971.3455,814.9908" stroke="#7A5CFF" stroke-width="4" /><polygon fill="none" opacity="1" points="887.7621,1011.8764 746.4632,1022.9968 625.6136,948.9401 571.3736,817.9933 604.4612,680.1737 712.2379,588.1236 853.5368,577.0032 974.3864,651.0599 1028.6264,782.0067 995.5388,919.8263" stroke="#7A5CFF" stroke-width="2" /><polygon fill="#0B1026" opacity="0.12" points="800.0,1086.6667 575.875,978.7337 520.5207,736.2107 675.62,541.7223 924.38,541.7223 1079.4793,736.2107 1024.125,978.7337" stroke="#7A5CFF" stroke-width="3" /><polygon fill="none" opacity="1" points="668.3569,1117.8146 482.1854,931.6431 482.1854,668.3569 668.3569,482.1854 931.6431,482.1854 1117.8146,668.3569 1117.8146,931.6431 931.6431,1117.8146" stroke="#7A5CFF" stroke-width="4" /><polygon fill="#FFB000" opacity="0.12" points="516.2145,1083.7855 400.1939,834.9785 471.247,569.8047 696.1273,412.3418 969.6108,436.2685 1163.7315,630.3892 1187.6582,903.8727 1030.1953,1128.753 765.0215,1199.8061" stroke="#7A5CFF" stroke-width="2" /><polygon fill="none" opacity="1" points="376.2473,975.5241 354.0063,692.9264 502.1198,451.2271 764.0134,342.7472 1039.6527,408.9224 1223.7527,624.4759 1245.9937,907.0736 1097.8802,1148.7729 835.9866,1257.2528 560.3473,1191.0776" stroke="#7A5CFF" stroke-width="3" /><polygon fill="#7A5CFF" opacity="0.12" points="284.0,800.0 478.2793,396.575 914.8208,296.9372 1264.8999,576.116 1264.8999,1023.884 914.8208,1303.0628 478.2793,1203.425" stroke="#7A5CFF" stroke-width="4" /><polygon fill="none" opacity="1" points="270.3091,580.5948 580.5948,270.3091 1019.4052,270.3091 1329.6909,580.5948 1329.6909,1019.4052 1019.4052,1329.6909 580.5948,1329.6909 270.3091,1019.4052" stroke="#7A5CFF" stroke-width="2" /><polygon fill="#FF2E88" opacity="0.12" points="354.0513,354.0513 745.0338,171.7332 1161.7355,283.3881 1409.1772,636.7715 1371.5781,1066.5313 1066.5313,1371.5781 636.7715,1409.1772 283.3881,1161.7355 171.7332,745.0338" stroke="#7A5CFF" stroke-width="3" /><polygon fill="none" opacity="1" points="536.7138,164.3709 960.6104,131.0095 1323.1593,353.1797 1485.8791,746.0201 1386.6164,1159.479 1063.2862,1435.6291 639.3896,1468.9905 276.8407,1246.8203 114.1209,853.9799 213.3836,440.521" stroke="#7A5CFF" stroke-width="4" /><line opacity="0.75" stroke="#FFB000" stroke-width="1.6" x1="1048.0678" x2="441.4705" y1="951.892" y2="668.4968" /><line opacity="0.75" stroke="#19D3FF" stroke-width="1.6" x1="868.0066" x2="639.4681" y1="1082.8143" y2="453.4945" /><line opacity="0.75" stroke="#7A5CFF" stroke-width="1.6" x1="648.108" x2="931.5032" y1="1048.0678" y2="441.4705" /><line opacity="0.75" stroke="#0B1026" stroke-width="1.6" x1="517.1857" x2="1146.5055" y1="868.0066" y2="639.4681" /><line opacity="0.75" stroke="#FF2E88" stroke-width="1.6" x1="551.9322" x2="1158.5295" y1="648.108" y2="931.5032" /><line opacity="0.75" stroke="#FFB000" stroke-width="1.6" x1="731.9934" x2="960.5319" y1="517.1857" y2="1146.5055" /><line opacity="0.75" stroke="#19D3FF" stroke-width="1.6" x1="951.892" x2="668.4968" y1="551.9322" y2="1158.5295" /><line opacity="0.75" stroke="#7A5CFF" stroke-width="1.6" x1="1082.8143" x2="453.4945" y1="731.9934" y2="960.5319" /><line opacity="0.75" stroke="#FFB000" stroke-width="1.6" x1="771.2967" x2="1227.7996" y1="831.0211" y2="469.354" /><line opacity="0.75" stroke="#19D3FF" stroke-width="1.6" x1="757.7684" x2="1336.302" y1="801.6389" y2="868.698" /><line opacity="0.75" stroke="#7A5CFF" stroke-width="1.6" x1="768.9789" x2="1130.646" y1="771.2967" y2="1227.7996" /><line opacity="0.75" stroke="#0B1026" stroke-width="1.6" x1="798.3611" x2="731.302" y1="757.7684" y2="1336.302" /><line opacity="0.75" stroke="#FF2E88" stroke-width="1.6" x1="828.7033" x2="372.2004" y1="768.9789" y2="1130.646" /><line opacity="0.75" stroke="#FFB000" stroke-width="1.6" x1="842.2316" x2="263.698" y1="798.3611" y2="731.302" /><line opacity="0.75" stroke="#19D3FF" stroke-width="1.6" x1="831.0211" x2="469.354" y1="828.7033" y2="372.2004" /><line opacity="0.75" stroke="#7A5CFF" stroke-width="1.6" x1="801.6389" x2="868.698" y1="842.2316" y2="263.698" /><line opacity="0.75" stroke="#FFB000" stroke-width="1.6" x1="953.1602" x2="790.0147" y1="678.5668" y2="534.3741" /><line opacity="0.75" stroke="#19D3FF" stroke-width="1.6" x1="994.1668" x2="980.7652" y1="822.4343" y2="605.1134" /><line opacity="0.75" stroke="#7A5CFF" stroke-width="1.6" x1="921.4332" x2="1065.6259" y1="953.1602" y2="790.0147" /><line opacity="0.75" stroke="#0B1026" stroke-width="1.6" x1="777.5657" x2="994.8866" y1="994.1668" y2="980.7652" /><line opacity="0.75" stroke="#FF2E88" stroke-width="1.6" x1="646.8398" x2="809.9853" y1="921.4332" y2="1065.6259" /><line opacity="0.75" stroke="#FFB000" stroke-width="1.6" x1="605.8332" x2="619.2348" y1="777.5657" y2="994.8866" /><line opacity="0.75" stroke="#19D3FF" stroke-width="1.6" x1="678.5668" x2="534.3741" y1="646.8398" y2="809.9853" /><line opacity="0.75" stroke="#7A5CFF" stroke-width="1.6" x1="822.4343" x2="605.1134" y1="605.8332" y2="619.2348" /><line opacity="0.75" stroke="#FFB000" stroke-width="1.6" x1="948.6478" x2="762.4925" y1="556.4218" y2="389.2221" /><line opacity="0.75" stroke="#19D3FF" stroke-width="1.6" x1="1077.3457" x2="1063.942" y1="732.8741" y2="483.0144" /><line opacity="0.75" stroke="#7A5CFF" stroke-width="1.6" x1="1043.5782" x2="1210.7779" y1="948.6478" y2="762.4925" /><line opacity="0.75" stroke="#0B1026" stroke-width="1.6" x1="867.1259" x2="1116.9856" y1="1077.3457" y2="1063.942" /><line opacity="0.75" stroke="#FF2E88" stroke-width="1.6" x1="651.3522" x2="837.5075" y1="1043.5782" y2="1210.7779" /><line opacity="0.75" stroke="#FFB000" stroke-width="1.6" x1="522.6543" x2="536.058" y1="867.1259" y2="1116.9856" /><line opacity="0.75" stroke="#19D3FF" stroke-width="1.6" x1="556.4218" x2="389.2221" y1="651.3522" y2="837.5075" /><line opacity="0.75" stroke="#7A5CFF" stroke-width="1.6" x1="732.8741" x2="483.0144" y1="522.6543" y2="536.058" /><line opacity="0.75" stroke="#FFB000" stroke-width="1.6" x1="1224.2048" x2="765.6674" y1="788.7986" y2="991.5332" /><line opacity="0.75" stroke="#19D3FF" stroke-width="1.6" x1="1107.8787" x2="640.2888" y1="1092.0375" y2="911.1576" /><line opacity="0.75" stroke="#7A5CFF" stroke-width="1.6" x1="811.2014" x2="608.4668" y1="1224.2048" y2="765.6674" /><line opacity="0.75" stroke="#0B1026" stroke-width="1.6" x1="507.9625" x2="688.8424" y1="1107.8787" y2="640.2888" /><line opacity="0.75" stroke="#FF2E88" stroke-width="1.6" x1="375.7952" x2="834.3326" y1="811.2014" y2="608.4668" /><line opacity="0.75" stroke="#FFB000" stroke-width="1.6" x1="492.1213" x2="959.7112" y1="507.9625" y2="688.8424" /><line opacity="0.75" stroke="#19D3FF" stroke-width="1.6" x1="788.7986" x2="991.5332" y1="375.7952" y2="834.3326" /><line opacity="0.75" stroke="#7A5CFF" stroke-width="1.6" x1="1092.0375" x2="911.1576" y1="492.1213" y2="959.7112" /><line opacity="0.75" stroke="#FFB000" stroke-width="1.6" x1="724.6273" x2="373.6337" y1="1147.0377" y2="1098.288" /><line opacity="0.75" stroke="#19D3FF" stroke-width="1.6" x1="501.3107" x2="287.592" y1="992.0961" y2="709.4349" /><line opacity="0.75" stroke="#7A5CFF" stroke-width="1.6" x1="452.9623" x2="501.712" y1="724.6273" y2="373.6337" /><line opacity="0.75" stroke="#0B1026" stroke-width="1.6" x1="607.9039" x2="890.5651" y1="501.3107" y2="287.592" /><line opacity="0.75" stroke="#FF2E88" stroke-width="1.6" x1="875.3727" x2="1226.3663" y1="452.9623" y2="501.712" /><line opacity="0.75" stroke="#FFB000" stroke-width="1.6" x1="1098.6893" x2="1312.408" y1="607.9039" y2="890.5651" /><line opacity="0.75" stroke="#19D3FF" stroke-width="1.6" x1="1147.0377" x2="1098.288" y1="875.3727" y2="1226.3663" /><line opacity="0.75" stroke="#7A5CFF" stroke-width="1.6" x1="992.0961" x2="709.4349" y1="1098.6893" y2="1312.408" /><line opacity="0.75" stroke="#FFB000" stroke-width="1.6" x1="771.8217" x2="1198.537" y1="1078.5875" y2="1232.0742" /><line opacity="0.75" stroke="#19D3FF" stroke-width="1.6" x1="583.0838" x2="776.2856" y1="977.0661" y2="1387.3309" /><line opacity="0.75" stroke="#7A5CFF" stroke-width="1.6" x1="521.4125" x2="367.9258" y1="771.8217" y2="1198.537" /><line opacity="0.75" stroke="#0B1026" stroke-width="1.6" x1="622.9339" x2="212.6691" y1="583.0838" y2="776.2856" /><line opacity="0.75" stroke="#FF2E88" stroke-width="1.6" x1="828.1783" x2="401.463" y1="521.4125" y2="367.9258" /><line opacity="0.75" stroke="#FFB000" stroke-width="1.6" x1="1016.9162" x2="823.7144" y1="622.9339" y2="212.6691" /><line opacity="0.75" stroke="#19D3FF" stroke-width="1.6" x1="1078.5875" x2="1232.0742" y1="828.1783" y2="401.463" /><line opacity="0.75" stroke="#7A5CFF" stroke-width="1.6" x1="977.0661" x2="1387.3309" y1="1016.9162" y2="823.7144" /><line opacity="0.75" stroke="#FFB000" stroke-width="1.6" x1="510.3772" x2="450.1605" y1="977.6777" y2="496.1399" /><line opacity="0.75" stroke="#19D3FF" stroke-width="1.6" x1="469.5687" x2="767.4877" y1="720.8429" y2="337.7646" /><line opacity="0.75" stroke="#7A5CFF" stroke-width="1.6" x1="622.3223" x2="1103.8601" y1="510.3772" y2="450.1605" /><line opacity="0.75" stroke="#0B1026" stroke-width="1.6" x1="879.1571" x2="1262.2354" y1="469.5687" y2="767.4877" /><line opacity="0.75" stroke="#FF2E88" stroke-width="1.6" x1="1089.6228" x2="1149.8395" y1="622.3223" y2="1103.8601" /><line opacity="0.75" stroke="#FFB000" stroke-width="1.6" x1="1130.4313" x2="832.5123" y1="879.1571" y2="1262.2354" /><line opacity="0.75" stroke="#19D3FF" stroke-width="1.6" x1="977.6777" x2="496.1399" y1="1089.6228" y2="1149.8395" /><line opacity="0.75" stroke="#7A5CFF" stroke-width="1.6" x1="720.8429" x2="337.7646" y1="1130.4313" y2="832.5123" /><line opacity="0.75" stroke="#FFB000" stroke-width="1.6" x1="435.8542" x2="367.5922" y1="633.6971" y2="1116.6615" /><line opacity="0.75" stroke="#19D3FF" stroke-width="1.6" x1="660.1039" x2="270.328" y1="424.9162" y2="718.155" /><line opacity="0.75" stroke="#7A5CFF" stroke-width="1.6" x1="966.3029" x2="483.3385" y1="435.8542" y2="367.5922" /><line opacity="0.75" stroke="#0B1026" stroke-width="1.6" x1="1175.0838" x2="881.845" y1="660.1039" y2="270.328" /><line opacity="0.75" stroke="#FF2E88" stroke-width="1.6" x1="1164.1458" x2="1232.4078" y1="966.3029" y2="483.3385" /><line opacity="0.75" stroke="#FFB000" stroke-width="1.6" x1="939.8961" x2="1329.672" y1="1175.0838" y2="881.845" /><line opacity="0.75" stroke="#19D3FF" stroke-width="1.6" x1="633.6971" x2="1116.6615" y1="1164.1458" y2="1232.4078" /><line opacity="0.75" stroke="#7A5CFF" stroke-width="1.6" x1="424.9162" x2="718.155" y1="939.8961" y2="1329.672" /><line opacity="0.75" stroke="#FFB000" stroke-width="1.6" x1="613.0847" x2="843.0175" y1="1050.4746" y2="526.6094" /><line opacity="0.75" stroke="#19D3FF" stroke-width="1.6" x1="490.7187" x2="1023.7344" y1="844.9432" y2="637.1016" /><line opacity="0.75" stroke="#7A5CFF" stroke-width="1.6" x1="549.5254" x2="1073.3906" y1="613.0847" y2="843.0175" /><line opacity="0.75" stroke="#0B1026" stroke-width="1.6" x1="755.0568" x2="962.8984" y1="490.7187" y2="1023.7344" /><line opacity="0.75" stroke="#FF2E88" stroke-width="1.6" x1="986.9153" x2="756.9825" y1="549.5254" y2="1073.3906" /><line opacity="0.75" stroke="#FFB000" stroke-width="1.6" x1="1109.2813" x2="576.2656" y1="755.0568" y2="962.8984" /><line opacity="0.75" stroke="#19D3FF" stroke-width="1.6" x1="1050.4746" x2="526.6094" y1="986.9153" y2="756.9825" /><line opacity="0.75" stroke="#7A5CFF" stroke-width="1.6" x1="844.9432" x2="637.1016" y1="1109.2813" y2="576.2656" /><line opacity="0.75" stroke="#FFB000" stroke-width="1.6" x1="613.999" x2="941.8503" y1="638.5186" y2="559.8724" /><line opacity="0.75" stroke="#19D3FF" stroke-width="1.6" x1="782.6621" x2="1070.0991" y1="554.2928" y2="730.5074" /><line opacity="0.75" stroke="#7A5CFF" stroke-width="1.6" x1="961.4814" x2="1040.1276" y1="613.999" y2="941.8503" /><line opacity="0.75" stroke="#0B1026" stroke-width="1.6" x1="1045.7072" x2="869.4926" y1="782.6621" y2="1070.0991" /><line opacity="0.75" stroke="#FF2E88" stroke-width="1.6" x1="986.001" x2="658.1497" y1="961.4814" y2="1040.1276" /><line opacity="0.75" stroke="#FFB000" stroke-width="1.6" x1="817.3379" x2="529.9009" y1="1045.7072" y2="869.4926" /><line opacity="0.75" stroke="#19D3FF" stroke-width="1.6" x1="638.5186" x2="559.8724" y1="986.001" y2="658.1497" /><line opacity="0.75" stroke="#7A5CFF" stroke-width="1.6" x1="554.2928" x2="730.5074" y1="817.3379" y2="529.9009" /><line opacity="0.75" stroke="#FFB000" stroke-width="1.6" x1="906.8185" x2="1130.422" y1="1153.5909" y2="615.5809" /><line opacity="0.75" stroke="#19D3FF" stroke-width="1.6" x1="625.5056" x2="1164.0476" y1="1125.5586" y2="903.2396" /><line opacity="0.75" stroke="#7A5CFF" stroke-width="1.6" x1="446.4091" x2="984.4191" y1="906.8185" y2="1130.422" /><line opacity="0.75" stroke="#0B1026" stroke-width="1.6" x1="474.4414" x2="696.7604" y1="625.5056" y2="1164.0476" /><line opacity="0.75" stroke="#FF2E88" stroke-width="1.6" x1="693.1815" x2="469.578" y1="446.4091" y2="984.4191" /><line opacity="0.75" stroke="#FFB000" stroke-width="1.6" x1="974.4944" x2="435.9524" y1="474.4414" y2="696.7604" /><line opacity="0.75" stroke="#19D3FF" stroke-width="1.6" x1="1153.5909" x2="615.5809" y1="693.1815" y2="469.578" /><line opacity="0.75" stroke="#7A5CFF" stroke-width="1.6" x1="1125.5586" x2="903.2396" y1="974.4944" y2="435.9524" /><line opacity="0.75" stroke="#FFB000" stroke-width="1.6" x1="762.6184" x2="603.5793" y1="786.5659" y2="647.0191" /><line opacity="0.75" stroke="#19D3FF" stroke-width="1.6" x1="783.0665" x2="769.2834" y1="764.0679" y2="552.9357" /><line opacity="0.75" stroke="#7A5CFF" stroke-width="1.6" x1="813.4341" x2="952.9809" y1="762.6184" y2="603.5793" /><line opacity="0.75" stroke="#0B1026" stroke-width="1.6" x1="835.9321" x2="1047.0643" y1="783.0665" y2="769.2834" /><line opacity="0.75" stroke="#FF2E88" stroke-width="1.6" x1="837.3816" x2="996.4207" y1="813.4341" y2="952.9809" /><line opacity="0.75" stroke="#FFB000" stroke-width="1.6" x1="816.9335" x2="830.7166" y1="835.9321" y2="1047.0643" /><line opacity="0.75" stroke="#19D3FF" stroke-width="1.6" x1="786.5659" x2="647.0191" y1="837.3816" y2="996.4207" /><line opacity="0.75" stroke="#7A5CFF" stroke-width="1.6" x1="764.0679" x2="552.9357" y1="816.9335" y2="830.7166" /><line opacity="0.75" stroke="#FFB000" stroke-width="1.6" x1="1233.1064" x2="480.6104" y1="363.4828" y2="935.9284" /><line opacity="0.75" stroke="#19D3FF" stroke-width="1.6" x1="1414.9167" x2="478.0416" y1="797.5882" y2="670.2734" /><line opacity="0.75" stroke="#7A5CFF" stroke-width="1.6" x1="1236.5172" x2="664.0716" y1="1233.1064" y2="480.6104" /><line opacity="0.75" stroke="#0B1026" stroke-width="1.6" x1="802.4118" x2="929.7266" y1="1414.9167" y2="478.0416" /><line opacity="0.75" stroke="#FF2E88" stroke-width="1.6" x1="366.8936" x2="1119.3896" y1="1236.5172" y2="664.0716" /><line opacity="0.75" stroke="#FFB000" stroke-width="1.6" x1="185.0833" x2="1121.9584" y1="802.4118" y2="929.7266" /><line opacity="0.75" stroke="#19D3FF" stroke-width="1.6" x1="363.4828" x2="935.9284" y1="366.8936" y2="1119.3896" /><line opacity="0.75" stroke="#7A5CFF" stroke-width="1.6" x1="797.5882" x2="670.2734" y1="185.0833" y2="1121.9584" /><line opacity="0.75" stroke="#FFB000" stroke-width="1.6" x1="419.8739" x2="1062.4554" y1="614.0352" y2="1168.1289" /><line opacity="0.75" stroke="#19D3FF" stroke-width="1.6" x1="662.7072" x2="725.2776" y1="399.7133" y2="1245.8904" /><line opacity="0.75" stroke="#7A5CFF" stroke-width="1.6" x1="985.9648" x2="431.8711" y1="419.8739" y2="1062.4554" /><line opacity="0.75" stroke="#0B1026" stroke-width="1.6" x1="1200.2867" x2="354.1096" y1="662.7072" y2="725.2776" /><line opacity="0.75" stroke="#FF2E88" stroke-width="1.6" x1="1180.1261" x2="537.5446" y1="985.9648" y2="431.8711" /><line opacity="0.75" stroke="#FFB000" stroke-width="1.6" x1="937.2928" x2="874.7224" y1="1200.2867" y2="354.1096" /><line opacity="0.75" stroke="#19D3FF" stroke-width="1.6" x1="614.0352" x2="1168.1289" y1="1180.1261" y2="537.5446" /><line opacity="0.75" stroke="#7A5CFF" stroke-width="1.6" x1="399.7133" x2="1245.8904" y1="937.2928" y2="874.7224" /><line opacity="0.75" stroke="#FFB000" stroke-width="1.6" x1="684.0784" x2="1139.9447" y1="536.4044" y2="918.5674" /><line opacity="0.75" stroke="#19D3FF" stroke-width="1.6" x1="904.4213" x2="956.5374" y1="531.6408" y2="1124.2171" /><line opacity="0.75" stroke="#7A5CFF" stroke-width="1.6" x1="1063.5956" x2="681.4326" y1="684.0784" y2="1139.9447" /><line opacity="0.75" stroke="#0B1026" stroke-width="1.6" x1="1068.3592" x2="475.7829" y1="904.4213" y2="956.5374" /><line opacity="0.75" stroke="#FF2E88" stroke-width="1.6" x1="915.9216" x2="460.0553" y1="1063.5956" y2="681.4326" /><line opacity="0.75" stroke="#FFB000" stroke-width="1.6" x1="695.5787" x2="643.4626" y1="1068.3592" y2="475.7829" /><line opacity="0.75" stroke="#19D3FF" stroke-width="1.6" x1="536.4044" x2="918.5674" y1="915.9216" y2="460.0553" /><line opacity="0.75" stroke="#7A5CFF" stroke-width="1.6" x1="531.6408" x2="1124.2171" y1="695.5787" y2="643.4626" /><line opacity="0.75" stroke="#FFB000" stroke-width="1.6" x1="803.1432" x2="663.5147" y1="648.7065" y2="614.3329" /><line opacity="0.75" stroke="#19D3FF" stroke-width="1.6" x1="909.2033" x2="834.7768" y1="695.2419" y2="572.2039" /><line opacity="0.75" stroke="#7A5CFF" stroke-width="1.6" x1="951.2935" x2="985.6671" y1="803.1432" y2="663.5147" /><line opacity="0.75" stroke="#0B1026" stroke-width="1.6" x1="904.7581" x2="1027.7961" y1="909.2033" y2="834.7768" /><line opacity="0.75" stroke="#FF2E88" stroke-width="1.6" x1="796.8568" x2="936.4853" y1="951.2935" y2="985.6671" /><line opacity="0.75" stroke="#FFB000" stroke-width="1.6" x1="690.7967" x2="765.2232" y1="904.7581" y2="1027.7961" /><line opacity="0.75" stroke="#19D3FF" stroke-width="1.6" x1="648.7065" x2="614.3329" y1="796.8568" y2="936.4853" /><line opacity="0.75" stroke="#7A5CFF" stroke-width="1.6" x1="695.2419" x2="572.2039" y1="690.7967" y2="765.2232" /><line opacity="0.75" stroke="#FFB000" stroke-width="1.6" x1="1037.3715" x2="533.055" y1="780.7197" y2="1132.3257" /><line opacity="0.75" stroke="#19D3FF" stroke-width="1.6" x1="981.4802" x2="376.2516" y1="954.2137" y2="846.2311" /><line opacity="0.75" stroke="#7A5CFF" stroke-width="1.6" x1="819.2803" x2="467.6743" y1="1037.3715" y2="533.055" /><line opacity="0.75" stroke="#0B1026" stroke-width="1.6" x1="645.7863" x2="753.7689" y1="981.4802" y2="376.2516" /><line opacity="0.75" stroke="#FF2E88" stroke-width="1.6" x1="562.6285" x2="1066.945" y1="819.2803" y2="467.6743" /><line opacity="0.75" stroke="#FFB000" stroke-width="1.6" x1="618.5198" x2="1223.7484" y1="645.7863" y2="753.7689" /><line opacity="0.75" stroke="#19D3FF" stroke-width="1.6" x1="780.7197" x2="1132.3257" y1="562.6285" y2="1066.945" /><line opacity="0.75" stroke="#7A5CFF" stroke-width="1.6" x1="954.2137" x2="846.2311" y1="618.5198" y2="1223.7484" /><line opacity="0.75" stroke="#FFB000" stroke-width="1.6" x1="1028.2317" x2="1186.6703" y1="1128.7443" y2="568.9883" /><line opacity="0.75" stroke="#19D3FF" stroke-width="1.6" x1="728.9269" x2="1236.7671" y1="1193.8415" y2="910.0673" /><line opacity="0.75" stroke="#7A5CFF" stroke-width="1.6" x1="471.2557" x2="1031.0117" y1="1028.2317" y2="1186.6703" /><line opacity="0.75" stroke="#0B1026" stroke-width="1.6" x1="406.1585" x2="689.9327" y1="728.9269" y2="1236.7671" /><line opacity="0.75" stroke="#FF2E88" stroke-width="1.6" x1="571.7683" x2="413.3297" y1="471.2557" y2="1031.0117" /><line opacity="0.75" stroke="#FFB000" stroke-width="1.6" x1="871.0731" x2="363.2329" y1="406.1585" y2="689.9327" /><line opacity="0.75" stroke="#19D3FF" stroke-width="1.6" x1="1128.7443" x2="568.9883" y1="571.7683" y2="413.3297" /><line opacity="0.75" stroke="#7A5CFF" stroke-width="1.6" x1="1193.8415" x2="910.0673" y1="871.0731" y2="363.2329" /><line opacity="0.75" stroke="#FFB000" stroke-width="1.6" x1="1151.0077" x2="723.6922" y1="1037.8717" y2="642.3017" /><line opacity="0.75" stroke="#19D3FF" stroke-width="1.6" x1="879.9993" x2="857.5518" y1="1216.4006" y2="634.5327" /><line opacity="0.75" stroke="#7A5CFF" stroke-width="1.6" x1="562.1283" x2="957.6983" y1="1151.0077" y2="723.6922" /><line opacity="0.75" stroke="#0B1026" stroke-width="1.6" x1="383.5994" x2="965.4673" y1="879.9993" y2="857.5518" /><line opacity="0.75" stroke="#FF2E88" stroke-width="1.6" x1="448.9923" x2="876.3078" y1="562.1283" y2="957.6983" /><line opacity="0.75" stroke="#FFB000" stroke-width="1.6" x1="720.0007" x2="742.4482" y1="383.5994" y2="965.4673" /><line opacity="0.75" stroke="#19D3FF" stroke-width="1.6" x1="1037.8717" x2="642.3017" y1="448.9923" y2="876.3078" /><line opacity="0.75" stroke="#7A5CFF" stroke-width="1.6" x1="1216.4006" x2="634.5327" y1="720.0007" y2="742.4482" /><line opacity="0.75" stroke="#FFB000" stroke-width="1.6" x1="854.8314" x2="500.8972" y1="881.2437" y2="787.6547" /><line opacity="0.75" stroke="#19D3FF" stroke-width="1.6" x1="781.3237" x2="597.2319" y1="896.2196" y2="579.7729" /><line opacity="0.75" stroke="#7A5CFF" stroke-width="1.6" x1="718.7563" x2="812.3453" y1="854.8314" y2="500.8972" /><line opacity="0.75" stroke="#0B1026" stroke-width="1.6" x1="703.7804" x2="1020.2271" y1="781.3237" y2="597.2319" /><line opacity="0.75" stroke="#FF2E88" stroke-width="1.6" x1="745.1686" x2="1099.1028" y1="718.7563" y2="812.3453" /><line opacity="0.75" stroke="#FFB000" stroke-width="1.6" x1="818.6763" x2="1002.7681" y1="703.7804" y2="1020.2271" /><line opacity="0.75" stroke="#19D3FF" stroke-width="1.6" x1="881.2437" x2="787.6547" y1="745.1686" y2="1099.1028" /><line opacity="0.75" stroke="#7A5CFF" stroke-width="1.6" x1="896.2196" x2="579.7729" y1="818.6763" y2="1002.7681" /><line opacity="0.75" stroke="#FFB000" stroke-width="1.6" x1="1201.605" x2="707.5456" y1="771.5501" y2="1174.5806" /><line opacity="0.75" stroke="#19D3FF" stroke-width="1.6" x1="1104.0947" x2="469.7564" y1="1063.8605" y2="999.4934" /><line opacity="0.75" stroke="#7A5CFF" stroke-width="1.6" x1="828.4499" x2="425.4194" y1="1201.605" y2="707.5456" /><line opacity="0.75" stroke="#0B1026" stroke-width="1.6" x1="536.1395" x2="600.5066" y1="1104.0947" y2="469.7564" /><line opacity="0.75" stroke="#FF2E88" stroke-width="1.6" x1="398.395" x2="892.4544" y1="828.4499" y2="425.4194" /><line opacity="0.75" stroke="#FFB000" stroke-width="1.6" x1="495.9053" x2="1130.2436" y1="536.1395" y2="600.5066" /><line opacity="0.75" stroke="#19D3FF" stroke-width="1.6" x1="771.5501" x2="1174.5806" y1="398.395" y2="892.4544" /><line opacity="0.75" stroke="#7A5CFF" stroke-width="1.6" x1="1063.8605" x2="999.4934" y1="495.9053" y2="1130.2436" /><line opacity="0.75" stroke="#FFB000" stroke-width="1.6" x1="1234.4348" x2="395.4049" y1="1192.8211" y2="1122.3202" /><line opacity="0.75" stroke="#19D3FF" stroke-width="1.6" x1="829.4253" x2="285.9932" y1="1384.9582" y2="741.8229" /><line opacity="0.75" stroke="#7A5CFF" stroke-width="1.6" x1="407.1789" x2="477.6798" y1="1234.4348" y2="395.4049" /><line opacity="0.75" stroke="#0B1026" stroke-width="1.6" x1="215.0418" x2="858.1771" y1="829.4253" y2="285.9932" /><line opacity="0.75" stroke="#FF2E88" stroke-width="1.6" x1="365.5652" x2="1204.5951" y1="407.1789" y2="477.6798" /><line opacity="0.75" stroke="#FFB000" stroke-width="1.6" x1="770.5747" x2="1314.0068" y1="215.0418" y2="858.1771" /><line opacity="0.75" stroke="#19D3FF" stroke-width="1.6" x1="1192.8211" x2="1122.3202" y1="365.5652" y2="1204.5951" /><line opacity="0.75" stroke="#7A5CFF" stroke-width="1.6" x1="1384.9582" x2="741.8229" y1="770.5747" y2="1314.0068" /><line opacity="0.75" stroke="#FFB000" stroke-width="1.6" x1="532.6154" x2="1142.1372" y1="660.1239" y2="440.8222" /><line opacity="0.75" stroke="#19D3FF" stroke-width="1.6" x1="709.8379" x2="1295.9046" y1="512.0232" y2="787.9505" /><line opacity="0.75" stroke="#7A5CFF" stroke-width="1.6" x1="939.8761" x2="1159.1778" y1="532.6154" y2="1142.1372" /><line opacity="0.75" stroke="#0B1026" stroke-width="1.6" x1="1087.9768" x2="812.0495" y1="709.8379" y2="1295.9046" /><line opacity="0.75" stroke="#FF2E88" stroke-width="1.6" x1="1067.3846" x2="457.8628" y1="939.8761" y2="1159.1778" /><line opacity="0.75" stroke="#FFB000" stroke-width="1.6" x1="890.1621" x2="304.0954" y1="1087.9768" y2="812.0495" /><line opacity="0.75" stroke="#19D3FF" stroke-width="1.6" x1="660.1239" x2="440.8222" y1="1067.3846" y2="457.8628" /><line opacity="0.75" stroke="#7A5CFF" stroke-width="1.6" x1="512.0232" x2="787.9505" y1="890.1621" y2="304.0954" /><line opacity="0.75" stroke="#FFB000" stroke-width="1.6" x1="471.9898" x2="540.0095" y1="592.2216" y2="657.4916" /><line opacity="0.75" stroke="#19D3FF" stroke-width="1.6" x1="714.9833" x2="716.9276" y1="421.1402" y2="515.3903" /><line opacity="0.75" stroke="#7A5CFF" stroke-width="1.6" x1="1007.7784" x2="942.5084" y1="471.9898" y2="540.0095" /><line opacity="0.75" stroke="#0B1026" stroke-width="1.6" x1="1178.8598" x2="1084.6097" y1="714.9833" y2="716.9276" /><line opacity="0.75" stroke="#FF2E88" stroke-width="1.6" x1="1128.0102" x2="1059.9905" y1="1007.7784" y2="942.5084" /><line opacity="0.75" stroke="#FFB000" stroke-width="1.6" x1="885.0167" x2="883.0724" y1="1178.8598" y2="1084.6097" /><line opacity="0.75" stroke="#19D3FF" stroke-width="1.6" x1="592.2216" x2="657.4916" y1="1128.0102" y2="1059.9905" /><line opacity="0.75" stroke="#7A5CFF" stroke-width="1.6" x1="421.1402" x2="515.3903" y1="885.0167" y2="883.0724" /><line opacity="0.75" stroke="#FFB000" stroke-width="1.6" x1="1002.6661" x2="494.8134" y1="917.8698" y2="1038.1014" /><line opacity="0.75" stroke="#19D3FF" stroke-width="1.6" x1="859.96" x2="415.8374" y1="1026.6531" y2="752.5636" /><line opacity="0.75" stroke="#7A5CFF" stroke-width="1.6" x1="682.1302" x2="561.8986" y1="1002.6661" y2="494.8134" /><line opacity="0.75" stroke="#0B1026" stroke-width="1.6" x1="573.3469" x2="847.4364" y1="859.96" y2="415.8374" /><line opacity="0.75" stroke="#FF2E88" stroke-width="1.6" x1="597.3339" x2="1105.1866" y1="682.1302" y2="561.8986" /><line opacity="0.75" stroke="#FFB000" stroke-width="1.6" x1="740.04" x2="1184.1626" y1="573.3469" y2="847.4364" /><line opacity="0.75" stroke="#19D3FF" stroke-width="1.6" x1="917.8698" x2="1038.1014" y1="597.3339" y2="1105.1866" /><line opacity="0.75" stroke="#7A5CFF" stroke-width="1.6" x1="1026.6531" x2="752.5636" y1="740.04" y2="1184.1626" /><line opacity="0.75" stroke="#FFB000" stroke-width="1.6" x1="1179.1235" x2="503.538" y1="881.4605" y2="789.8816" /><line opacity="0.75" stroke="#19D3FF" stroke-width="1.6" x1="1010.4795" x2="597.5245" y1="1125.6821" y2="583.2149" /><line opacity="0.75" stroke="#7A5CFF" stroke-width="1.6" x1="718.5395" x2="810.1184" y1="1179.1235" y2="503.538" /><line opacity="0.75" stroke="#0B1026" stroke-width="1.6" x1="474.3179" x2="1016.7851" y1="1010.4795" y2="597.5245" /><line opacity="0.75" stroke="#FF2E88" stroke-width="1.6" x1="420.8765" x2="1096.462" y1="718.5395" y2="810.1184" /><line opacity="0.75" stroke="#FFB000" stroke-width="1.6" x1="589.5205" x2="1002.4755" y1="474.3179" y2="1016.7851" /><line opacity="0.75" stroke="#19D3FF" stroke-width="1.6" x1="881.4605" x2="789.8816" y1="420.8765" y2="1096.462" /><line opacity="0.75" stroke="#7A5CFF" stroke-width="1.6" x1="1125.6821" x2="583.2149" y1="589.5205" y2="1002.4755" /><line opacity="0.75" stroke="#FFB000" stroke-width="1.6" x1="995.2783" x2="900.3014" y1="546.1583" y2="907.6326" /><line opacity="0.75" stroke="#19D3FF" stroke-width="1.6" x1="1117.5758" x2="794.8161" y1="758.5895" y2="947.0315" /><line opacity="0.75" stroke="#7A5CFF" stroke-width="1.6" x1="1053.8417" x2="692.3674" y1="995.2783" y2="900.3014" /><line opacity="0.75" stroke="#0B1026" stroke-width="1.6" x1="841.4105" x2="652.9685" y1="1117.5758" y2="794.8161" /><line opacity="0.75" stroke="#FF2E88" stroke-width="1.6" x1="604.7217" x2="699.6986" y1="1053.8417" y2="692.3674" /><line opacity="0.75" stroke="#FFB000" stroke-width="1.6" x1="482.4242" x2="805.1839" y1="841.4105" y2="652.9685" /><line opacity="0.75" stroke="#19D3FF" stroke-width="1.6" x1="546.1583" x2="907.6326" y1="604.7217" y2="699.6986" /><line opacity="0.75" stroke="#7A5CFF" stroke-width="1.6" x1="758.5895" x2="947.0315" y1="482.4242" y2="805.1839" /><line opacity="0.75" stroke="#FFB000" stroke-width="1.6" x1="565.2371" x2="1043.4681" y1="481.5826" y2="827.3459" /><line opacity="0.75" stroke="#19D3FF" stroke-width="1.6" x1="859.1527" x2="952.8215" y1="408.8424" y2="991.4944" /><line opacity="0.75" stroke="#7A5CFF" stroke-width="1.6" x1="1118.4174" x2="772.6541" y1="565.2371" y2="1043.4681" /><line opacity="0.75" stroke="#0B1026" stroke-width="1.6" x1="1191.1576" x2="608.5056" y1="859.1527" y2="952.8215" /><line opacity="0.75" stroke="#FF2E88" stroke-width="1.6" x1="1034.7629" x2="556.5319" y1="1118.4174" y2="772.6541" /><line opacity="0.75" stroke="#FFB000" stroke-width="1.6" x1="740.8473" x2="647.1785" y1="1191.1576" y2="608.5056" /><line opacity="0.75" stroke="#19D3FF" stroke-width="1.6" x1="481.5826" x2="827.3459" y1="1034.7629" y2="556.5319" /><line opacity="0.75" stroke="#7A5CFF" stroke-width="1.6" x1="408.8424" x2="991.4944" y1="740.8473" y2="647.1785" /><line opacity="0.75" stroke="#FFB000" stroke-width="1.6" x1="745.1665" x2="1054.1038" y1="780.2336" y2="1101.2906" /><line opacity="0.75" stroke="#19D3FF" stroke-width="1.6" x1="775.2039" x2="766.6339" y1="747.2499" y2="1192.7232" /><line opacity="0.75" stroke="#7A5CFF" stroke-width="1.6" x1="819.7664" x2="498.7094" y1="745.1665" y2="1054.1038" /><line opacity="0.75" stroke="#0B1026" stroke-width="1.6" x1="852.7501" x2="407.2768" y1="775.2039" y2="766.6339" /><line opacity="0.75" stroke="#FF2E88" stroke-width="1.6" x1="854.8335" x2="545.8962" y1="819.7664" y2="498.7094" /><line opacity="0.75" stroke="#FFB000" stroke-width="1.6" x1="824.7961" x2="833.3661" y1="852.7501" y2="407.2768" /><line opacity="0.75" stroke="#19D3FF" stroke-width="1.6" x1="780.2336" x2="1101.2906" y1="854.8335" y2="545.8962" /><line opacity="0.75" stroke="#7A5CFF" stroke-width="1.6" x1="747.2499" x2="1192.7232" y1="824.7961" y2="833.3661" /><line opacity="0.75" stroke="#FFB000" stroke-width="1.6" x1="716.1597" x2="355.597" y1="1045.2316" y2="1136.788" /><line opacity="0.75" stroke="#19D3FF" stroke-width="1.6" x1="567.311" x2="247.6146" y1="914.1208" y2="723.9047" /><line opacity="0.75" stroke="#7A5CFF" stroke-width="1.6" x1="554.7684" x2="463.212" y1="716.1597" y2="355.597" /><line opacity="0.75" stroke="#0B1026" stroke-width="1.6" x1="685.8792" x2="876.0953" y1="567.311" y2="247.6146" /><line opacity="0.75" stroke="#FF2E88" stroke-width="1.6" x1="883.8403" x2="1244.403" y1="554.7684" y2="463.212" /><line opacity="0.75" stroke="#FFB000" stroke-width="1.6" x1="1032.689" x2="1352.3854" y1="685.8792" y2="876.0953" /><line opacity="0.75" stroke="#19D3FF" stroke-width="1.6" x1="1045.2316" x2="1136.788" y1="883.8403" y2="1244.403" /><line opacity="0.75" stroke="#7A5CFF" stroke-width="1.6" x1="914.1208" x2="723.9047" y1="1032.689" y2="1352.3854" /><line opacity="0.75" stroke="#FFB000" stroke-width="1.6" x1="381.134" x2="1242.92" y1="1230.8757" y2="894.8333" /><line opacity="0.75" stroke="#19D3FF" stroke-width="1.6" x1="199.1419" x2="1046.1345" y1="808.4922" y2="1180.249" /><line opacity="0.75" stroke="#7A5CFF" stroke-width="1.6" x1="369.1243" x2="705.1667" y1="381.134" y2="1242.92" /><line opacity="0.75" stroke="#0B1026" stroke-width="1.6" x1="791.5078" x2="419.751" y1="199.1419" y2="1046.1345" /><line opacity="0.75" stroke="#FF2E88" stroke-width="1.6" x1="1218.866" x2="357.08" y1="369.1243" y2="705.1667" /><line opacity="0.75" stroke="#FFB000" stroke-width="1.6" x1="1400.8581" x2="553.8655" y1="791.5078" y2="419.751" /><line opacity="0.75" stroke="#19D3FF" stroke-width="1.6" x1="1230.8757" x2="894.8333" y1="1218.866" y2="357.08" /><line opacity="0.75" stroke="#7A5CFF" stroke-width="1.6" x1="808.4922" x2="1180.249" y1="1400.8581" y2="553.8655" /><line opacity="0.75" stroke="#FFB000" stroke-width="1.6" x1="1148.1391" x2="414.1969" y1="957.7149" y2="979.1723" /><line opacity="0.75" stroke="#19D3FF" stroke-width="1.6" x1="934.6503" x2="400.502" y1="1157.6928" y2="653.89" /><line opacity="0.75" stroke="#7A5CFF" stroke-width="1.6" x1="642.2851" x2="620.8277" y1="1148.1391" y2="414.1969" /><line opacity="0.75" stroke="#0B1026" stroke-width="1.6" x1="442.3072" x2="946.11" y1="934.6503" y2="400.502" /><line opacity="0.75" stroke="#FF2E88" stroke-width="1.6" x1="451.8609" x2="1185.8031" y1="642.2851" y2="620.8277" /><line opacity="0.75" stroke="#FFB000" stroke-width="1.6" x1="665.3497" x2="1199.498" y1="442.3072" y2="946.11" /><line opacity="0.75" stroke="#19D3FF" stroke-width="1.6" x1="957.7149" x2="979.1723" y1="451.8609" y2="1185.8031" /><line opacity="0.75" stroke="#7A5CFF" stroke-width="1.6" x1="1157.6928" x2="653.89" y1="665.3497" y2="1199.498" /><line opacity="0.75" stroke="#FFB000" stroke-width="1.6" x1="1246.5267" x2="548.3261" y1="994.927" y2="730.3293" /><line opacity="0.75" stroke="#19D3FF" stroke-width="1.6" x1="977.9078" x2="671.3043" y1="1253.5763" y2="572.7751" /><line opacity="0.75" stroke="#7A5CFF" stroke-width="1.6" x1="605.073" x2="869.6707" y1="1246.5267" y2="548.3261" /><line opacity="0.75" stroke="#0B1026" stroke-width="1.6" x1="346.4237" x2="1027.2249" y1="977.9078" y2="671.3043" /><line opacity="0.75" stroke="#FF2E88" stroke-width="1.6" x1="353.4733" x2="1051.6739" y1="605.073" y2="869.6707" /><line opacity="0.75" stroke="#FFB000" stroke-width="1.6" x1="622.0922" x2="928.6957" y1="346.4237" y2="1027.2249" /><line opacity="0.75" stroke="#19D3FF" stroke-width="1.6" x1="994.927" x2="730.3293" y1="353.4733" y2="1051.6739" /><line opacity="0.75" stroke="#7A5CFF" stroke-width="1.6" x1="1253.5763" x2="572.7751" y1="622.0922" y2="928.6957" /><line opacity="0.75" stroke="#FFB000" stroke-width="1.6" x1="1127.5394" x2="544.312" y1="1063.465" y2="1086.7932" /><line opacity="0.75" stroke="#19D3FF" stroke-width="1.6" x1="845.3074" x2="416.4079" y1="1217.9033" y2="821.9947" /><line opacity="0.75" stroke="#7A5CFF" stroke-width="1.6" x1="536.535" x2="513.2068" y1="1127.5394" y2="544.312" /><line opacity="0.75" stroke="#0B1026" stroke-width="1.6" x1="382.0967" x2="778.0053" y1="845.3074" y2="416.4079" /><line opacity="0.75" stroke="#FF2E88" stroke-width="1.6" x1="472.4606" x2="1055.688" y1="536.535" y2="513.2068" /><line opacity="0.75" stroke="#FFB000" stroke-width="1.6" x1="754.6926" x2="1183.5921" y1="382.0967" y2="778.0053" /><line opacity="0.75" stroke="#19D3FF" stroke-width="1.6" x1="1063.465" x2="1086.7932" y1="472.4606" y2="1055.688" /><line opacity="0.75" stroke="#7A5CFF" stroke-width="1.6" x1="1217.9033" x2="821.9947" y1="754.6926" y2="1183.5921" /><line opacity="0.75" stroke="#FFB000" stroke-width="1.6" x1="655.6084" x2="1188.3541" y1="360.6851" y2="873.7603" /><line opacity="0.75" stroke="#19D3FF" stroke-width="1.6" x1="1008.5423" x2="1022.4515" y1="387.2572" y2="1126.7642" /><line opacity="0.75" stroke="#7A5CFF" stroke-width="1.6" x1="1239.3149" x2="726.2397" y1="655.6084" y2="1188.3541" /><line opacity="0.75" stroke="#0B1026" stroke-width="1.6" x1="1212.7428" x2="473.2358" y1="1008.5423" y2="1022.4515" /><line opacity="0.75" stroke="#FF2E88" stroke-width="1.6" x1="944.3916" x2="411.6459" y1="1239.3149" y2="726.2397" /><line opacity="0.75" stroke="#FFB000" stroke-width="1.6" x1="591.4577" x2="577.5485" y1="1212.7428" y2="473.2358" /><line opacity="0.75" stroke="#19D3FF" stroke-width="1.6" x1="360.6851" x2="873.7603" y1="944.3916" y2="411.6459" /><line opacity="0.75" stroke="#7A5CFF" stroke-width="1.6" x1="387.2572" x2="1126.7642" y1="591.4577" y2="577.5485" /><line opacity="0.75" stroke="#FFB000" stroke-width="1.6" x1="1016.4101" x2="840.3761" y1="477.6349" y2="1178.8453" /><line opacity="0.75" stroke="#19D3FF" stroke-width="1.6" x1="1180.9716" x2="560.6661" y1="725.0785" y2="1096.4343" /><line opacity="0.75" stroke="#7A5CFF" stroke-width="1.6" x1="1122.3651" x2="421.1547" y1="1016.4101" y2="840.3761" /><line opacity="0.75" stroke="#0B1026" stroke-width="1.6" x1="874.9215" x2="503.5657" y1="1180.9716" y2="560.6661" /><line opacity="0.75" stroke="#FF2E88" stroke-width="1.6" x1="583.5899" x2="759.6239" y1="1122.3651" y2="421.1547" /><line opacity="0.75" stroke="#FFB000" stroke-width="1.6" x1="419.0284" x2="1039.3339" y1="874.9215" y2="503.5657" /><line opacity="0.75" stroke="#19D3FF" stroke-width="1.6" x1="477.6349" x2="1178.8453" y1="583.5899" y2="759.6239" /><line opacity="0.75" stroke="#7A5CFF" stroke-width="1.6" x1="725.0785" x2="1096.4343" y1="419.0284" y2="1039.3339" /><line opacity="0.75" stroke="#FFB000" stroke-width="1.6" x1="487.3888" x2="907.7886" y1="1222.0743" y2="1001.3832" /><line opacity="0.75" stroke="#19D3FF" stroke-width="1.6" x1="280.4989" x2="733.8186" y1="877.4021" y2="1018.6175" /><line opacity="0.75" stroke="#7A5CFF" stroke-width="1.6" x1="377.9257" x2="598.6168" y1="487.3888" y2="907.7886" /><line opacity="0.75" stroke="#0B1026" stroke-width="1.6" x1="722.5979" x2="581.3825" y1="280.4989" y2="733.8186" /><line opacity="0.75" stroke="#FF2E88" stroke-width="1.6" x1="1112.6112" x2="692.2114" y1="377.9257" y2="598.6168" /><line opacity="0.75" stroke="#FFB000" stroke-width="1.6" x1="1319.5011" x2="866.1814" y1="722.5979" y2="581.3825" /><line opacity="0.75" stroke="#19D3FF" stroke-width="1.6" x1="1222.0743" x2="1001.3832" y1="1112.6112" y2="692.2114" /><line opacity="0.75" stroke="#7A5CFF" stroke-width="1.6" x1="877.4021" x2="1018.6175" y1="1319.5011" y2="866.1814" /><line opacity="0.75" stroke="#FFB000" stroke-width="1.6" x1="971.3781" x2="528.1963" y1="1036.1294" y2="891.9057" /><line opacity="0.75" stroke="#19D3FF" stroke-width="1.6" x1="754.2139" x2="542.8186" y1="1088.1513" y2="672.7929" /><line opacity="0.75" stroke="#7A5CFF" stroke-width="1.6" x1="563.8706" x2="708.0943" y1="971.3781" y2="528.1963" /><line opacity="0.75" stroke="#0B1026" stroke-width="1.6" x1="511.8487" x2="927.2071" y1="754.2139" y2="542.8186" /><line opacity="0.75" stroke="#FF2E88" stroke-width="1.6" x1="628.6219" x2="1071.8037" y1="563.8706" y2="708.0943" /><line opacity="0.75" stroke="#FFB000" stroke-width="1.6" x1="845.7861" x2="1057.1814" y1="511.8487" y2="927.2071" /><line opacity="0.75" stroke="#19D3FF" stroke-width="1.6" x1="1036.1294" x2="891.9057" y1="628.6219" y2="1071.8037" /><line opacity="0.75" stroke="#7A5CFF" stroke-width="1.6" x1="1088.1513" x2="672.7929" y1="845.7861" y2="1057.1814" /><line opacity="0.75" stroke="#FFB000" stroke-width="1.6" x1="563.8526" x2="632.6131" y1="449.5258" y2="1166.63" /><line opacity="0.75" stroke="#19D3FF" stroke-width="1.6" x1="880.8412" x2="422.393" y1="385.1959" y2="940.8862" /><line opacity="0.75" stroke="#7A5CFF" stroke-width="1.6" x1="1150.4742" x2="433.37" y1="563.8526" y2="632.6131" /><line opacity="0.75" stroke="#0B1026" stroke-width="1.6" x1="1214.8041" x2="659.1138" y1="880.8412" y2="422.393" /><line opacity="0.75" stroke="#FF2E88" stroke-width="1.6" x1="1036.1474" x2="967.3869" y1="1150.4742" y2="433.37" /><line opacity="0.75" stroke="#FFB000" stroke-width="1.6" x1="719.1588" x2="1177.607" y1="1214.8041" y2="659.1138" /><line opacity="0.75" stroke="#19D3FF" stroke-width="1.6" x1="449.5258" x2="1166.63" y1="1036.1474" y2="967.3869" /><line opacity="0.75" stroke="#7A5CFF" stroke-width="1.6" x1="385.1959" x2="940.8862" y1="719.1588" y2="1177.607" /><line opacity="0.75" stroke="#FFB000" stroke-width="1.6" x1="1194.2167" x2="904.1956" y1="786.9142" y2="514.857" /><line opacity="0.75" stroke="#19D3FF" stroke-width="1.6" x1="1088.0063" x2="1075.3039" y1="1069.5003" y2="672.0508" /><line opacity="0.75" stroke="#7A5CFF" stroke-width="1.6" x1="813.0858" x2="1085.143" y1="1194.2167" y2="904.1956" /><line opacity="0.75" stroke="#0B1026" stroke-width="1.6" x1="530.4997" x2="927.9492" y1="1088.0063" y2="1075.3039" /><line opacity="0.75" stroke="#FF2E88" stroke-width="1.6" x1="405.7833" x2="695.8044" y1="813.0858" y2="1085.143" /><line opacity="0.75" stroke="#FFB000" stroke-width="1.6" x1="511.9937" x2="524.6961" y1="530.4997" y2="927.9492" /><line opacity="0.75" stroke="#19D3FF" stroke-width="1.6" x1="786.9142" x2="514.857" y1="405.7833" y2="695.8044" /><line opacity="0.75" stroke="#7A5CFF" stroke-width="1.6" x1="1069.5003" x2="672.0508" y1="511.9937" y2="524.6961" /><line opacity="0.75" stroke="#FFB000" stroke-width="1.6" x1="612.4002" x2="607.756" y1="930.3444" y2="1037.0405" /><line opacity="0.75" stroke="#19D3FF" stroke-width="1.6" x1="575.1795" x2="496.45" y1="759.5143" y2="831.6759" /><line opacity="0.75" stroke="#7A5CFF" stroke-width="1.6" x1="669.6556" x2="562.9595" y1="612.4002" y2="607.756" /><line opacity="0.75" stroke="#0B1026" stroke-width="1.6" x1="840.4857" x2="768.3241" y1="575.1795" y2="496.45" /><line opacity="0.75" stroke="#FF2E88" stroke-width="1.6" x1="987.5998" x2="992.244" y1="669.6556" y2="562.9595" /><line opacity="0.75" stroke="#FFB000" stroke-width="1.6" x1="1024.8205" x2="1103.55" y1="840.4857" y2="768.3241" /><line opacity="0.75" stroke="#19D3FF" stroke-width="1.6" x1="930.3444" x2="1037.0405" y1="987.5998" y2="992.244" /><line opacity="0.75" stroke="#7A5CFF" stroke-width="1.6" x1="759.5143" x2="831.6759" y1="1024.8205" y2="1103.55" /><line opacity="0.75" stroke="#FFB000" stroke-width="1.6" x1="1090.3472" x2="715.2447" y1="755.3063" y2="504.5319" /><line opacity="0.75" stroke="#19D3FF" stroke-width="1.6" x1="1036.9097" x2="948.9965" y1="973.7032" y2="531.1414" /><line opacity="0.75" stroke="#7A5CFF" stroke-width="1.6" x1="844.6937" x2="1095.4681" y1="1090.3472" y2="715.2447" /><line opacity="0.75" stroke="#0B1026" stroke-width="1.6" x1="626.2968" x2="1068.8586" y1="1036.9097" y2="948.9965" /><line opacity="0.75" stroke="#FF2E88" stroke-width="1.6" x1="509.6528" x2="884.7553" y1="844.6937" y2="1095.4681" /><line opacity="0.75" stroke="#FFB000" stroke-width="1.6" x1="563.0903" x2="651.0035" y1="626.2968" y2="1068.8586" /><line opacity="0.75" stroke="#19D3FF" stroke-width="1.6" x1="755.3063" x2="504.5319" y1="509.6528" y2="884.7553" /><line opacity="0.75" stroke="#7A5CFF" stroke-width="1.6" x1="973.7032" x2="531.1414" y1="563.0903" y2="651.0035" /><line opacity="0.75" stroke="#FFB000" stroke-width="1.6" x1="555.0289" x2="585.5776" y1="1091.4086" y2="420.5738" /><line opacity="0.75" stroke="#19D3FF" stroke-width="1.6" x1="420.7222" x2="916.6753" y1="832.8363" y2="380.0856" /><line opacity="0.75" stroke="#7A5CFF" stroke-width="1.6" x1="508.5914" x2="1179.4262" y1="555.0289" y2="585.5776" /><line opacity="0.75" stroke="#0B1026" stroke-width="1.6" x1="767.1637" x2="1219.9144" y1="420.7222" y2="916.6753" /><line opacity="0.75" stroke="#FF2E88" stroke-width="1.6" x1="1044.9711" x2="1014.4224" y1="508.5914" y2="1179.4262" /><line opacity="0.75" stroke="#FFB000" stroke-width="1.6" x1="1179.2778" x2="683.3247" y1="767.1637" y2="1219.9144" /><line opacity="0.75" stroke="#19D3FF" stroke-width="1.6" x1="1091.4086" x2="420.5738" y1="1044.9711" y2="1014.4224" /><line opacity="0.75" stroke="#7A5CFF" stroke-width="1.6" x1="832.8363" x2="380.0856" y1="1179.2778" y2="683.3247" /><line opacity="0.75" stroke="#FFB000" stroke-width="1.6" x1="1012.5465" x2="1118.8473" y1="1072.909" y2="1028.1388" /><line opacity="0.75" stroke="#19D3FF" stroke-width="1.6" x1="757.3173" x2="864.1406" y1="1143.2689" y2="1186.7776" /><line opacity="0.75" stroke="#7A5CFF" stroke-width="1.6" x1="527.091" x2="571.8612" y1="1012.5465" y2="1118.8473" /><line opacity="0.75" stroke="#0B1026" stroke-width="1.6" x1="456.7311" x2="413.2224" y1="757.3173" y2="864.1406" /><line opacity="0.75" stroke="#FF2E88" stroke-width="1.6" x1="587.4535" x2="481.1527" y1="527.091" y2="571.8612" /><line opacity="0.75" stroke="#FFB000" stroke-width="1.6" x1="842.6827" x2="735.8594" y1="456.7311" y2="413.2224" /><line opacity="0.75" stroke="#19D3FF" stroke-width="1.6" x1="1072.909" x2="1028.1388" y1="587.4535" y2="481.1527" /><line opacity="0.75" stroke="#7A5CFF" stroke-width="1.6" x1="1143.2689" x2="1186.7776" y1="842.6827" y2="735.8594" /><line opacity="0.75" stroke="#FFB000" stroke-width="1.6" x1="482.6318" x2="745.2903" y1="780.9651" y2="806.8886" /><line opacity="0.75" stroke="#19D3FF" stroke-width="1.6" x1="589.0465" x2="756.4434" y1="562.1271" y2="766.1854" /><line opacity="0.75" stroke="#7A5CFF" stroke-width="1.6" x1="819.0349" x2="793.1114" y1="482.6318" y2="745.2903" /><line opacity="0.75" stroke="#0B1026" stroke-width="1.6" x1="1037.8729" x2="833.8146" y1="589.0465" y2="756.4434" /><line opacity="0.75" stroke="#FF2E88" stroke-width="1.6" x1="1117.3682" x2="854.7097" y1="819.0349" y2="793.1114" /><line opacity="0.75" stroke="#FFB000" stroke-width="1.6" x1="1010.9535" x2="843.5566" y1="1037.8729" y2="833.8146" /><line opacity="0.75" stroke="#19D3FF" stroke-width="1.6" x1="780.9651" x2="806.8886" y1="1117.3682" y2="854.7097" /><line opacity="0.75" stroke="#7A5CFF" stroke-width="1.6" x1="562.1271" x2="766.1854" y1="1010.9535" y2="843.5566" /><line opacity="0.75" stroke="#FFB000" stroke-width="1.6" x1="982.663" x2="984.0716" y1="968.4421" y2="1197.5899" /><line opacity="0.75" stroke="#19D3FF" stroke-width="1.6" x1="810.0557" x2="649.0197" y1="1048.2688" y2="1211.2968" /><line opacity="0.75" stroke="#7A5CFF" stroke-width="1.6" x1="631.5579" x2="402.4101" y1="982.663" y2="984.0716" /><line opacity="0.75" stroke="#0B1026" stroke-width="1.6" x1="551.7312" x2="388.7032" y1="810.0557" y2="649.0197" /><line opacity="0.75" stroke="#FF2E88" stroke-width="1.6" x1="617.337" x2="615.9284" y1="631.5579" y2="402.4101" /><line opacity="0.75" stroke="#FFB000" stroke-width="1.6" x1="789.9443" x2="950.9803" y1="551.7312" y2="388.7032" /><line opacity="0.75" stroke="#19D3FF" stroke-width="1.6" x1="968.4421" x2="1197.5899" y1="617.337" y2="615.9284" /><line opacity="0.75" stroke="#7A5CFF" stroke-width="1.6" x1="1048.2688" x2="1211.2968" y1="789.9443" y2="950.9803" /><line opacity="0.75" stroke="#FFB000" stroke-width="1.6" x1="1071.7381" x2="732.568" y1="1045.1363" y2="1098.2195" /><line opacity="0.75" stroke="#19D3FF" stroke-width="1.6" x1="818.8103" x2="541.4454" y1="1165.4854" y2="963.1914" /><line opacity="0.75" stroke="#7A5CFF" stroke-width="1.6" x1="554.8637" x2="501.7805" y1="1071.7381" y2="732.568" /><line opacity="0.75" stroke="#0B1026" stroke-width="1.6" x1="434.5146" x2="636.8086" y1="818.8103" y2="541.4454" /><line opacity="0.75" stroke="#FF2E88" stroke-width="1.6" x1="528.2619" x2="867.432" y1="554.8637" y2="501.7805" /><line opacity="0.75" stroke="#FFB000" stroke-width="1.6" x1="781.1897" x2="1058.5546" y1="434.5146" y2="636.8086" /><line opacity="0.75" stroke="#19D3FF" stroke-width="1.6" x1="1045.1363" x2="1098.2195" y1="528.2619" y2="867.432" /><line opacity="0.75" stroke="#7A5CFF" stroke-width="1.6" x1="1165.4854" x2="963.1914" y1="781.1897" y2="1058.5546" /></svg>