<?xml version="1.0" encoding="utf-8" ?>
<svg baseProfile="tiny" height="1600" version="1.2" viewBox="0 0 1600 1600" width="1600" xmlns="http://www.w3.org/2000/svg" xmlns:ev="http://www.w3.org/2001/xml-events" xmlns:xlink="http://www.w3.org/1999/xlink"><defs /><rect fill="#0B1026" height="100%" width="100%" x="0" y="0" /><polygon fill="#FF2E88" opacity="0.12" points="857.3333,800.0 835.7467,844.825 787.2421,855.8959 748.3445,824.876 748.3445,775.124 787.2421,744.1041 835.7467,755.175" stroke="#7A5CFF" stroke-width="2" /><polygon fill="none" opacity="1" points="905.9382,843.881 843.881,905.9382 756.119,905.9382 694.0618,843.881 694.0618,756.119 756.119,694.0618 843.881,694.0618 905.9382,756.119" stroke="#7A5CFF" stroke-width="3" /><polygon fill="#19D3FF" opacity="0.12" points="921.6224,921.6224 814.9908,971.3455 701.3449,940.8942 633.8608,844.5169 644.1151,727.3097 727.3097,644.1151 844.5169,633.8608 940.8942,701.3449 971.3455,814.9908" stroke="#7A5CFF" stroke-width="4" /><polygon fill="none" opacity="1" points="887.7621,1011.8764 746.4632,1022.9968 625.6136,948.9401 571.3736,817.9933 604.4612,680.1737 712.2379,588.1236 853.5368,577.0032 974.3864,651.0599 1028.6264,782.0067 995.5388,919.8263" stroke="#7A5CFF" stroke-width="2" /><polygon fill="#0B1026" opacity="0.12" points="800.0,1086.6667 575.875,978.7337 520.5207,736.2107 675.62,541.7223 924.38,541.7223 1079.4793,736.2107 1024.125,978.7337" stroke="#7A5CFF" stroke-width="3" /><polygon fill="none" opacity="1" points="668.3569,1117.8146 482.1854,931.6431 482.1854,668.3569 668.3569,482.1854 931.6431,482.1854 1117.8146,668.3569 1117.8146,931.6431 931.6431,1117.8146" stroke="#7A5CFF" stroke-width="4" /><polygon fill="#FFB000" opacity="0.12" points="516.2145,1083.7855 400.1939,834.9785 471.247,569.8047 696.1273,412.3418 969.6108,436.2685 1163.7315,630.3892 1187.6582,903.8727 1030.1953,1128.753 765.0215,1199.8061" stroke="#7A5CFF" stroke-width="2" /><polygon fill="none" opacity="1" points="376.2473,975.5241 354.0063,692.9264 502.1198,451.2271 764.0134,342.7472 1039.6527,408.9224 1223.7527,624.4759 1245.9937,907.0736 1097.8802,1148.7729 835.9866,1257.2528 560.3473,1191.0776" stroke="#7A5CFF" stroke-width="3" /><polygon fill="#7A5CFF" opacity="0.12" points="284.0,800.0 478.2793,396.575 914.8208,296.9372 1264.8999,576.116 1264.8999,1023.884 914.8208,1303.0628 478.2793,1203.425" stroke="#7A5CFF" stroke-width="4" /><polygon fill="none" opacity="1" points="270.3091,580.5948 580.5948,270.3091 1019.4052,270.3091 1329.6909,580.5948 1329.6909,1019.4052 1019.4052,1329.6909 580.5948,1329.6909 270.3091,1019.4052" stroke="#7A5CFF" stroke-width="2" /><polygon fill="#FF2E88" opacity="0.12" points="354.0513,354.0513 745.0338,171.7332 1161.7355,283.3881 1409.1772,636.7715 1371.5781,1066.5313 1066.5313,1371.5781 636.7715,1409.1772 283.3881,1161.7355 171.7332,745.0338" stroke="#7A5CFF" stroke-width="3" /><polygon fill="none" opacity="1" points="536.7138,164.3709 960.6104,131.0095 1323.1593,353.1797 1485.8791,746.0201 1386.6164,1159.479 1063.2862,1435.6291 639.3896,1468.9905 276.8407,1246.8203 114.1209,853.9799 213.3836,440.521" stroke="#7A5CFF" stroke-width="4" /><line opacity="0.75" stroke="#FFB000" stroke-width="1.6" x1="662.8169" x2="363.8838" y1="557.2966" y2="1185.3317" /><line opacity="0.75" stroke="#19D3FF" stroke-width="1.6" x1="874.6141" x2="219.1486" y1="531.3797" y2="764.0899" /><line opacity="0.75" stroke="#7A5CFF" stroke-width="1.6" x1="1042.7034" x2="414.6683" y1="662.8169" y2="363.8838" /><line opacity="0.75" stroke="#0B1026" stroke-width="1.6" x1="1068.6203" x2="835.9101" y1="874.6141" y2="219.1486" /><line opacity="0.75" stroke="#FF2E88" stroke-width="1.6" x1="937.1831" x2="1236.1162" y1="1042.7034" y2="414.6683" /><line opacity="0.75" stroke="#FFB000" stroke-width="1.6" x1="725.3859" x2="1380.8514" y1="1068.6203" y2="835.9101" /><line opacity="0.75" stroke="#19D3FF" stroke-width="1.6" x1="557.2966" x2="1185.3317" y1="937.1831" y2="1236.1162" /><line opacity="0.75" stroke="#7A5CFF" stroke-width="1.6" x1="531.3797" x2="764.0899" y1="725.3859" y2="1380.8514" /><line opacity="0.75" stroke="#FFB000" stroke-width="1.6" x1="641.257" x2="540.3709" y1="353.422" y2="816.0636" /><line opacity="0.75" stroke="#19D3FF" stroke-width="1.6" x1="1003.5301" x2="605.0558" y1="371.9735" y2="627.7732" /><line opacity="0.75" stroke="#7A5CFF" stroke-width="1.6" x1="1246.578" x2="783.9364" y1="641.257" y2="540.3709" /><line opacity="0.75" stroke="#0B1026" stroke-width="1.6" x1="1228.0265" x2="972.2268" y1="1003.5301" y2="605.0558" /><line opacity="0.75" stroke="#FF2E88" stroke-width="1.6" x1="958.743" x2="1059.6291" y1="1246.578" y2="783.9364" /><line opacity="0.75" stroke="#FFB000" stroke-width="1.6" x1="596.4699" x2="994.9442" y1="1228.0265" y2="972.2268" /><line opacity="0.75" stroke="#19D3FF" stroke-width="1.6" x1="353.422" x2="816.0636" y1="958.743" y2="1059.6291" /><line opacity="0.75" stroke="#7A5CFF" stroke-width="1.6" x1="371.9735" x2="627.7732" y1="596.4699" y2="994.9442" /><line opacity="0.75" stroke="#FFB000" stroke-width="1.6" x1="1035.0682" x2="487.9718" y1="629.1444" y2="415.8174" /><line opacity="0.75" stroke="#19D3FF" stroke-width="1.6" x1="1087.0315" x2="851.0209" y1="845.4051" y2="307.7046" /><line opacity="0.75" stroke="#7A5CFF" stroke-width="1.6" x1="970.8556" x2="1184.1826" y1="1035.0682" y2="487.9718" /><line opacity="0.75" stroke="#0B1026" stroke-width="1.6" x1="754.5949" x2="1292.2954" y1="1087.0315" y2="851.0209" /><line opacity="0.75" stroke="#FF2E88" stroke-width="1.6" x1="564.9318" x2="1112.0282" y1="970.8556" y2="1184.1826" /><line opacity="0.75" stroke="#FFB000" stroke-width="1.6" x1="512.9685" x2="748.9791" y1="754.5949" y2="1292.2954" /><line opacity="0.75" stroke="#19D3FF" stroke-width="1.6" x1="629.1444" x2="415.8174" y1="564.9318" y2="1112.0282" /><line opacity="0.75" stroke="#7A5CFF" stroke-width="1.6" x1="845.4051" x2="307.7046" y1="512.9685" y2="748.9791" /><line opacity="0.75" stroke="#FFB000" stroke-width="1.6" x1="1133.1697" x2="596.8458" y1="627.8263" y2="1232.7523" /><line opacity="0.75" stroke="#19D3FF" stroke-width="1.6" x1="1157.3317" x2="350.3462" y1="913.8414" y2="962.3504" /><line opacity="0.75" stroke="#7A5CFF" stroke-width="1.6" x1="972.1737" x2="367.2477" y1="1133.1697" y2="596.8458" /><line opacity="0.75" stroke="#0B1026" stroke-width="1.6" x1="686.1586" x2="637.6496" y1="1157.3317" y2="350.3462" /><line opacity="0.75" stroke="#FF2E88" stroke-width="1.6" x1="466.8303" x2="1003.1542" y1="972.1737" y2="367.2477" /><line opacity="0.75" stroke="#FFB000" stroke-width="1.6" x1="442.6683" x2="1249.6538" y1="686.1586" y2="637.6496" /><line opacity="0.75" stroke="#19D3FF" stroke-width="1.6" x1="627.8263" x2="1232.7523" y1="466.8303" y2="1003.1542" /><line opacity="0.75" stroke="#7A5CFF" stroke-width="1.6" x1="913.8414" x2="962.3504" y1="442.6683" y2="1249.6538" /><line opacity="0.75" stroke="#FFB000" stroke-width="1.6" x1="1013.3215" x2="1009.9851" y1="1040.6636" y2="388.6744" /><line opacity="0.75" stroke="#19D3FF" stroke-width="1.6" x1="780.6662" x2="1239.333" y1="1121.0159" y2="657.6308" /><line opacity="0.75" stroke="#7A5CFF" stroke-width="1.6" x1="559.3364" x2="1211.3256" y1="1013.3215" y2="1009.9851" /><line opacity="0.75" stroke="#0B1026" stroke-width="1.6" x1="478.9841" x2="942.3692" y1="780.6662" y2="1239.333" /><line opacity="0.75" stroke="#FF2E88" stroke-width="1.6" x1="586.6785" x2="590.0149" y1="559.3364" y2="1211.3256" /><line opacity="0.75" stroke="#FFB000" stroke-width="1.6" x1="819.3338" x2="360.667" y1="478.9841" y2="942.3692" /><line opacity="0.75" stroke="#19D3FF" stroke-width="1.6" x1="1040.6636" x2="388.6744" y1="586.6785" y2="590.0149" /><line opacity="0.75" stroke="#7A5CFF" stroke-width="1.6" x1="1121.0159" x2="657.6308" y1="819.3338" y2="360.667" /><line opacity="0.75" stroke="#FFB000" stroke-width="1.6" x1="1053.3622" x2="1235.3966" y1="1237.2789" y2="434.6938" /><line opacity="0.75" stroke="#19D3FF" stroke-width="1.6" x1="669.9513" x2="1366.1824" y1="1288.3571" y2="849.5615" /><line opacity="0.75" stroke="#7A5CFF" stroke-width="1.6" x1="362.7211" x2="1165.3062" y1="1053.3622" y2="1235.3966" /><line opacity="0.75" stroke="#0B1026" stroke-width="1.6" x1="311.6429" x2="750.4385" y1="669.9513" y2="1366.1824" /><line opacity="0.75" stroke="#FF2E88" stroke-width="1.6" x1="546.6378" x2="364.6034" y1="362.7211" y2="1165.3062" /><line opacity="0.75" stroke="#FFB000" stroke-width="1.6" x1="930.0487" x2="233.8176" y1="311.6429" y2="750.4385" /><line opacity="0.75" stroke="#19D3FF" stroke-width="1.6" x1="1237.2789" x2="434.6938" y1="546.6378" y2="364.6034" /><line opacity="0.75" stroke="#7A5CFF" stroke-width="1.6" x1="1288.3571" x2="849.5615" y1="930.0487" y2="233.8176" /><line opacity="0.75" stroke="#FFB000" stroke-width="1.6" x1="904.627" x2="1067.0148" y1="1160.156" y2="690.5507" /><line opacity="0.75" stroke="#19D3FF" stroke-width="1.6" x1="619.3137" x2="1066.2004" y1="1128.6513" y2="911.4156" /><line opacity="0.75" stroke="#7A5CFF" stroke-width="1.6" x1="439.844" x2="909.4493" y1="904.627" y2="1067.0148" /><line opacity="0.75" stroke="#0B1026" stroke-width="1.6" x1="471.3487" x2="688.5844" y1="619.3137" y2="1066.2004" /><line opacity="0.75" stroke="#FF2E88" stroke-width="1.6" x1="695.373" x2="532.9852" y1="439.844" y2="909.4493" /><line opacity="0.75" stroke="#FFB000" stroke-width="1.6" x1="980.6863" x2="533.7996" y1="471.3487" y2="688.5844" /><line opacity="0.75" stroke="#19D3FF" stroke-width="1.6" x1="1160.156" x2="690.5507" y1="695.373" y2="532.9852" /><line opacity="0.75" stroke="#7A5CFF" stroke-width="1.6" x1="1128.6513" x2="911.4156" y1="980.6863" y2="533.7996" /><line opacity="0.75" stroke="#FFB000" stroke-width="1.6" x1="670.1628" x2="822.2715" y1="713.6465" y2="720.1308" /><line opacity="0.75" stroke="#19D3FF" stroke-width="1.6" x1="769.2523" x2="872.2244" y1="647.1301" y2="759.2723" /><line opacity="0.75" stroke="#7A5CFF" stroke-width="1.6" x1="886.3535" x2="879.8692" y1="670.1628" y2="822.2715" /><line opacity="0.75" stroke="#0B1026" stroke-width="1.6" x1="952.8699" x2="840.7277" y1="769.2523" y2="872.2244" /><line opacity="0.75" stroke="#FF2E88" stroke-width="1.6" x1="929.8372" x2="777.7285" y1="886.3535" y2="879.8692" /><line opacity="0.75" stroke="#FFB000" stroke-width="1.6" x1="830.7477" x2="727.7756" y1="952.8699" y2="840.7277" /><line opacity="0.75" stroke="#19D3FF" stroke-width="1.6" x1="713.6465" x2="720.1308" y1="929.8372" y2="777.7285" /><line opacity="0.75" stroke="#7A5CFF" stroke-width="1.6" x1="647.1301" x2="759.2723" y1="830.7477" y2="727.7756" /><line opacity="0.75" stroke="#FFB000" stroke-width="1.6" x1="924.9265" x2="995.6093" y1="929.5679" y2="764.8302" /><line opacity="0.75" stroke="#19D3FF" stroke-width="1.6" x1="796.718" x2="963.1854" y1="979.9547" y2="913.4479" /><line opacity="0.75" stroke="#7A5CFF" stroke-width="1.6" x1="670.4321" x2="835.1698" y1="924.9265" y2="995.6093" /><line opacity="0.75" stroke="#0B1026" stroke-width="1.6" x1="620.0453" x2="686.5521" y1="796.718" y2="963.1854" /><line opacity="0.75" stroke="#FF2E88" stroke-width="1.6" x1="675.0735" x2="604.3907" y1="670.4321" y2="835.1698" /><line opacity="0.75" stroke="#FFB000" stroke-width="1.6" x1="803.282" x2="636.8146" y1="620.0453" y2="686.5521" /><line opacity="0.75" stroke="#19D3FF" stroke-width="1.6" x1="929.5679" x2="764.8302" y1="675.0735" y2="604.3907" /><line opacity="0.75" stroke="#7A5CFF" stroke-width="1.6" x1="979.9547" x2="913.4479" y1="803.282" y2="636.8146" /><line opacity="0.75" stroke="#FFB000" stroke-width="1.6" x1="1200.0144" x2="819.0004" y1="843.0186" y2="1244.9435" /><line opacity="0.75" stroke="#19D3FF" stroke-width="1.6" x1="1052.4342" x2="498.8128" y1="1113.2716" y2="1128.0579" /><line opacity="0.75" stroke="#7A5CFF" stroke-width="1.6" x1="756.9814" x2="355.0565" y1="1200.0144" y2="819.0004" /><line opacity="0.75" stroke="#0B1026" stroke-width="1.6" x1="486.7284" x2="471.9421" y1="1052.4342" y2="498.8128" /><line opacity="0.75" stroke="#FF2E88" stroke-width="1.6" x1="399.9856" x2="780.9996" y1="756.9814" y2="355.0565" /><line opacity="0.75" stroke="#FFB000" stroke-width="1.6" x1="547.5658" x2="1101.1872" y1="486.7284" y2="471.9421" /><line opacity="0.75" stroke="#19D3FF" stroke-width="1.6" x1="843.0186" x2="1244.9435" y1="399.9856" y2="780.9996" /><line opacity="0.75" stroke="#7A5CFF" stroke-width="1.6" x1="1113.2716" x2="1128.0579" y1="547.5658" y2="1101.1872" /><line opacity="0.75" stroke="#FFB000" stroke-width="1.6" x1="1099.3768" x2="825.1506" y1="882.3148" y2="1242.4727" /><line opacity="0.75" stroke="#19D3FF" stroke-width="1.6" x1="953.4861" x2="504.9087" y1="1069.8967" y2="1130.6596" /><line opacity="0.75" stroke="#7A5CFF" stroke-width="1.6" x1="717.6852" x2="357.5273" y1="1099.3768" y2="825.1506" /><line opacity="0.75" stroke="#0B1026" stroke-width="1.6" x1="530.1033" x2="469.3404" y1="953.4861" y2="504.9087" /><line opacity="0.75" stroke="#FF2E88" stroke-width="1.6" x1="500.6232" x2="774.8494" y1="717.6852" y2="357.5273" /><line opacity="0.75" stroke="#FFB000" stroke-width="1.6" x1="646.5139" x2="1095.0913" y1="530.1033" y2="469.3404" /><line opacity="0.75" stroke="#19D3FF" stroke-width="1.6" x1="882.3148" x2="1242.4727" y1="500.6232" y2="774.8494" /><line opacity="0.75" stroke="#7A5CFF" stroke-width="1.6" x1="1069.8967" x2="1130.6596" y1="646.5139" y2="1095.0913" /><line opacity="0.75" stroke="#FFB000" stroke-width="1.6" x1="693.326" x2="675.0302" y1="500.596" y2="425.1209" /><line opacity="0.75" stroke="#19D3FF" stroke-width="1.6" x1="936.2807" x2="976.7125" y1="512.8594" y2="446.5534" /><line opacity="0.75" stroke="#7A5CFF" stroke-width="1.6" x1="1099.404" x2="1174.8791" y1="693.326" y2="675.0302" /><line opacity="0.75" stroke="#0B1026" stroke-width="1.6" x1="1087.1406" x2="1153.4466" y1="936.2807" y2="976.7125" /><line opacity="0.75" stroke="#FF2E88" stroke-width="1.6" x1="906.674" x2="924.9698" y1="1099.404" y2="1174.8791" /><line opacity="0.75" stroke="#FFB000" stroke-width="1.6" x1="663.7193" x2="623.2875" y1="1087.1406" y2="1153.4466" /><line opacity="0.75" stroke="#19D3FF" stroke-width="1.6" x1="500.596" x2="425.1209" y1="906.674" y2="924.9698" /><line opacity="0.75" stroke="#7A5CFF" stroke-width="1.6" x1="512.8594" x2="446.5534" y1="663.7193" y2="623.2875" /><line opacity="0.75" stroke="#FFB000" stroke-width="1.6" x1="1103.6672" x2="429.505" y1="1212.6824" y2="408.5229" /><line opacity="0.75" stroke="#19D3FF" stroke-width="1.6" x1="722.9146" x2="814.8366" y1="1306.5356" y2="261.2044" /><line opacity="0.75" stroke="#7A5CFF" stroke-width="1.6" x1="387.3176" x2="1191.4771" y1="1103.6672" y2="429.505" /><line opacity="0.75" stroke="#0B1026" stroke-width="1.6" x1="293.4644" x2="1338.7956" y1="722.9146" y2="814.8366" /><line opacity="0.75" stroke="#FF2E88" stroke-width="1.6" x1="496.3328" x2="1170.495" y1="387.3176" y2="1191.4771" /><line opacity="0.75" stroke="#FFB000" stroke-width="1.6" x1="877.0854" x2="785.1634" y1="293.4644" y2="1338.7956" /><line opacity="0.75" stroke="#19D3FF" stroke-width="1.6" x1="1212.6824" x2="408.5229" y1="496.3328" y2="1170.495" /><line opacity="0.75" stroke="#7A5CFF" stroke-width="1.6" x1="1306.5356" x2="261.2044" y1="877.0854" y2="785.1634" /><line opacity="0.75" stroke="#FFB000" stroke-width="1.6" x1="784.8829" x2="858.4288" y1="1026.0159" y2="480.7735" /><line opacity="0.75" stroke="#19D3FF" stroke-width="1.6" x1="629.4932" x2="1067.0426" y1="949.1279" y2="615.5882" /><line opacity="0.75" stroke="#7A5CFF" stroke-width="1.6" x1="573.9841" x2="1119.2265" y1="784.8829" y2="858.4288" /><line opacity="0.75" stroke="#0B1026" stroke-width="1.6" x1="650.8721" x2="984.4118" y1="629.4932" y2="1067.0426" /><line opacity="0.75" stroke="#FF2E88" stroke-width="1.6" x1="815.1171" x2="741.5712" y1="573.9841" y2="1119.2265" /><line opacity="0.75" stroke="#FFB000" stroke-width="1.6" x1="970.5068" x2="532.9574" y1="650.8721" y2="984.4118" /><line opacity="0.75" stroke="#19D3FF" stroke-width="1.6" x1="1026.0159" x2="480.7735" y1="815.1171" y2="741.5712" /><line opacity="0.75" stroke="#7A5CFF" stroke-width="1.6" x1="949.1279" x2="615.5882" y1="970.5068" y2="532.9574" /><line opacity="0.75" stroke="#FFB000" stroke-width="1.6" x1="1160.2145" x2="392.7876" y1="703.189" y2="762.0174" /><line opacity="0.75" stroke="#19D3FF" stroke-width="1.6" x1="1123.1658" x2="538.9151" y1="986.2544" y2="485.1997" /><line opacity="0.75" stroke="#7A5CFF" stroke-width="1.6" x1="896.811" x2="837.9826" y1="1160.2145" y2="392.7876" /><line opacity="0.75" stroke="#0B1026" stroke-width="1.6" x1="613.7456" x2="1114.8003" y1="1123.1658" y2="538.9151" /><line opacity="0.75" stroke="#FF2E88" stroke-width="1.6" x1="439.7855" x2="1207.2124" y1="896.811" y2="837.9826" /><line opacity="0.75" stroke="#FFB000" stroke-width="1.6" x1="476.8342" x2="1061.0849" y1="613.7456" y2="1114.8003" /><line opacity="0.75" stroke="#19D3FF" stroke-width="1.6" x1="703.189" x2="762.0174" y1="439.7855" y2="1207.2124" /><line opacity="0.75" stroke="#7A5CFF" stroke-width="1.6" x1="986.2544" x2="485.1997" y1="476.8342" y2="1061.0849" /><line opacity="0.75" stroke="#FFB000" stroke-width="1.6" x1="750.0756" x2="690.6193" y1="423.6147" y2="575.2565" /><line opacity="0.75" stroke="#19D3FF" stroke-width="1.6" x1="1030.8427" x2="881.5738" y1="498.5536" y2="563.7385" /><line opacity="0.75" stroke="#7A5CFF" stroke-width="1.6" x1="1176.3853" x2="1024.7435" y1="750.0756" y2="690.6193" /><line opacity="0.75" stroke="#0B1026" stroke-width="1.6" x1="1101.4464" x2="1036.2615" y1="1030.8427" y2="881.5738" /><line opacity="0.75" stroke="#FF2E88" stroke-width="1.6" x1="849.9244" x2="909.3807" y1="1176.3853" y2="1024.7435" /><line opacity="0.75" stroke="#FFB000" stroke-width="1.6" x1="569.1573" x2="718.4262" y1="1101.4464" y2="1036.2615" /><line opacity="0.75" stroke="#19D3FF" stroke-width="1.6" x1="423.6147" x2="575.2565" y1="849.9244" y2="909.3807" /><line opacity="0.75" stroke="#7A5CFF" stroke-width="1.6" x1="498.5536" x2="563.7385" y1="569.1573" y2="718.4262" /><line opacity="0.75" stroke="#FFB000" stroke-width="1.6" x1="633.7709" x2="506.81" y1="717.2686" y2="700.0125" /><line opacity="0.75" stroke="#19D3FF" stroke-width="1.6" x1="740.9582" x2="663.3851" y1="623.9583" y2="521.9815" /><line opacity="0.75" stroke="#7A5CFF" stroke-width="1.6" x1="882.7314" x2="899.9875" y1="633.7709" y2="506.81" /><line opacity="0.75" stroke="#0B1026" stroke-width="1.6" x1="976.0417" x2="1078.0185" y1="740.9582" y2="663.3851" /><line opacity="0.75" stroke="#FF2E88" stroke-width="1.6" x1="966.2291" x2="1093.19" y1="882.7314" y2="899.9875" /><line opacity="0.75" stroke="#FFB000" stroke-width="1.6" x1="859.0418" x2="936.6149" y1="976.0417" y2="1078.0185" /><line opacity="0.75" stroke="#19D3FF" stroke-width="1.6" x1="717.2686" x2="700.0125" y1="966.2291" y2="1093.19" /><line opacity="0.75" stroke="#7A5CFF" stroke-width="1.6" x1="623.9583" x2="521.9815" y1="859.0418" y2="936.6149" /><line opacity="0.75" stroke="#FFB000" stroke-width="1.6" x1="1031.8612" x2="856.655" y1="551.6494" y2="409.9149" /><line opacity="0.75" stroke="#19D3FF" stroke-width="1.6" x1="1139.561" x2="1115.8929" y1="788.3402" y2="564.2293" /><line opacity="0.75" stroke="#7A5CFF" stroke-width="1.6" x1="1048.3506" x2="1190.0851" y1="1031.8612" y2="856.655" /><line opacity="0.75" stroke="#0B1026" stroke-width="1.6" x1="811.6598" x2="1035.7707" y1="1139.561" y2="1115.8929" /><line opacity="0.75" stroke="#FF2E88" stroke-width="1.6" x1="568.1388" x2="743.345" y1="1048.3506" y2="1190.0851" /><line opacity="0.75" stroke="#FFB000" stroke-width="1.6" x1="460.439" x2="484.1071" y1="811.6598" y2="1035.7707" /><line opacity="0.75" stroke="#19D3FF" stroke-width="1.6" x1="551.6494" x2="409.9149" y1="568.1388" y2="743.345" /><line opacity="0.75" stroke="#7A5CFF" stroke-width="1.6" x1="788.3402" x2="564.2293" y1="460.439" y2="484.1071" /><line opacity="0.75" stroke="#FFB000" stroke-width="1.6" x1="792.4315" x2="674.1012" y1="933.5651" y2="362.7968" /><line opacity="0.75" stroke="#19D3FF" stroke-width="1.6" x1="700.2035" x2="1020.1255" y1="889.093" y2="401.8267" /><line opacity="0.75" stroke="#7A5CFF" stroke-width="1.6" x1="666.4349" x2="1237.2032" y1="792.4315" y2="674.1012" /><line opacity="0.75" stroke="#0B1026" stroke-width="1.6" x1="710.907" x2="1198.1733" y1="700.2035" y2="1020.1255" /><line opacity="0.75" stroke="#FF2E88" stroke-width="1.6" x1="807.5685" x2="925.8988" y1="666.4349" y2="1237.2032" /><line opacity="0.75" stroke="#FFB000" stroke-width="1.6" x1="899.7965" x2="579.8745" y1="710.907" y2="1198.1733" /><line opacity="0.75" stroke="#19D3FF" stroke-width="1.6" x1="933.5651" x2="362.7968" y1="807.5685" y2="925.8988" /><line opacity="0.75" stroke="#7A5CFF" stroke-width="1.6" x1="889.093" x2="401.8267" y1="899.7965" y2="579.8745" /><line opacity="0.75" stroke="#FFB000" stroke-width="1.6" x1="597.2813" x2="916.4477" y1="831.8004" y2="469.2626" /><line opacity="0.75" stroke="#19D3FF" stroke-width="1.6" x1="634.17" x2="1116.2076" y1="679.1425" y2="648.4743" /><line opacity="0.75" stroke="#7A5CFF" stroke-width="1.6" x1="768.1996" x2="1130.7374" y1="597.2813" y2="916.4477" /><line opacity="0.75" stroke="#0B1026" stroke-width="1.6" x1="920.8575" x2="951.5257" y1="634.17" y2="1116.2076" /><line opacity="0.75" stroke="#FF2E88" stroke-width="1.6" x1="1002.7187" x2="683.5523" y1="768.1996" y2="1130.7374" /><line opacity="0.75" stroke="#FFB000" stroke-width="1.6" x1="965.83" x2="483.7924" y1="920.8575" y2="951.5257" /><line opacity="0.75" stroke="#19D3FF" stroke-width="1.6" x1="831.8004" x2="469.2626" y1="1002.7187" y2="683.5523" /><line opacity="0.75" stroke="#7A5CFF" stroke-width="1.6" x1="679.1425" x2="648.4743" y1="965.83" y2="483.7924" /><line opacity="0.75" stroke="#FFB000" stroke-width="1.6" x1="585.3123" x2="1017.6078" y1="428.865" y2="515.8154" /><line opacity="0.75" stroke="#19D3FF" stroke-width="1.6" x1="910.6249" x2="1154.8208" y1="385.7608" y2="752.9231" /><line opacity="0.75" stroke="#7A5CFF" stroke-width="1.6" x1="1171.135" x2="1084.1846" y1="585.3123" y2="1017.6078" /><line opacity="0.75" stroke="#0B1026" stroke-width="1.6" x1="1214.2392" x2="847.0769" y1="910.6249" y2="1154.8208" /><line opacity="0.75" stroke="#FF2E88" stroke-width="1.6" x1="1014.6877" x2="582.3922" y1="1171.135" y2="1084.1846" /><line opacity="0.75" stroke="#FFB000" stroke-width="1.6" x1="689.3751" x2="445.1792" y1="1214.2392" y2="847.0769" /><line opacity="0.75" stroke="#19D3FF" stroke-width="1.6" x1="428.865" x2="515.8154" y1="1014.6877" y2="582.3922" /><line opacity="0.75" stroke="#7A5CFF" stroke-width="1.6" x1="385.7608" x2="752.9231" y1="689.3751" y2="445.1792" /><line opacity="0.75" stroke="#FFB000" stroke-width="1.6" x1="1201.5536" x2="601.7786" y1="1128.52" y2="1050.023" /><line opacity="0.75" stroke="#19D3FF" stroke-width="1.6" x1="851.6426" x2="483.0434" y1="1316.24" y2="836.6293" /><line opacity="0.75" stroke="#7A5CFF" stroke-width="1.6" x1="471.48" x2="549.977" y1="1201.5536" y2="601.7786" /><line opacity="0.75" stroke="#0B1026" stroke-width="1.6" x1="283.76" x2="763.3707" y1="851.6426" y2="483.0434" /><line opacity="0.75" stroke="#FF2E88" stroke-width="1.6" x1="398.4464" x2="998.2214" y1="471.48" y2="549.977" /><line opacity="0.75" stroke="#FFB000" stroke-width="1.6" x1="748.3574" x2="1116.9566" y1="283.76" y2="763.3707" /><line opacity="0.75" stroke="#19D3FF" stroke-width="1.6" x1="1128.52" x2="1050.023" y1="398.4464" y2="998.2214" /><line opacity="0.75" stroke="#7A5CFF" stroke-width="1.6" x1="1316.24" x2="836.6293" y1="748.3574" y2="1116.9566" /><line opacity="0.75" stroke="#FFB000" stroke-width="1.6" x1="399.6947" x2="1039.3325" y1="821.269" y2="830.6439" /><line opacity="0.75" stroke="#19D3FF" stroke-width="1.6" x1="501.902" x2="947.5651" y1="531.9809" y2="990.9021" /><line opacity="0.75" stroke="#7A5CFF" stroke-width="1.6" x1="778.731" x2="769.3561" y1="399.6947" y2="1039.3325" /><line opacity="0.75" stroke="#0B1026" stroke-width="1.6" x1="1068.0191" x2="609.0979" y1="501.902" y2="947.5651" /><line opacity="0.75" stroke="#FF2E88" stroke-width="1.6" x1="1200.3053" x2="560.6675" y1="778.731" y2="769.3561" /><line opacity="0.75" stroke="#FFB000" stroke-width="1.6" x1="1098.098" x2="652.4349" y1="1068.0191" y2="609.0979" /><line opacity="0.75" stroke="#19D3FF" stroke-width="1.6" x1="821.269" x2="830.6439" y1="1200.3053" y2="560.6675" /><line opacity="0.75" stroke="#7A5CFF" stroke-width="1.6" x1="531.9809" x2="990.9021" y1="1098.098" y2="652.4349" /><line opacity="0.75" stroke="#FFB000" stroke-width="1.6" x1="481.1781" x2="918.8615" y1="986.7623" y2="581.6861" /><line opacity="0.75" stroke="#19D3FF" stroke-width="1.6" x1="442.498" x2="1038.4191" y1="706.6198" y2="729.6765" /><line opacity="0.75" stroke="#7A5CFF" stroke-width="1.6" x1="613.2377" x2="1018.3139" y1="481.1781" y2="918.8615" /><line opacity="0.75" stroke="#0B1026" stroke-width="1.6" x1="893.3802" x2="870.3235" y1="442.498" y2="1038.4191" /><line opacity="0.75" stroke="#FF2E88" stroke-width="1.6" x1="1118.8219" x2="681.1385" y1="613.2377" y2="1018.3139" /><line opacity="0.75" stroke="#FFB000" stroke-width="1.6" x1="1157.502" x2="561.5809" y1="893.3802" y2="870.3235" /><line opacity="0.75" stroke="#19D3FF" stroke-width="1.6" x1="986.7623" x2="581.6861" y1="1118.8219" y2="681.1385" /><line opacity="0.75" stroke="#7A5CFF" stroke-width="1.6" x1="706.6198" x2="729.6765" y1="1157.502" y2="561.5809" /><line opacity="0.75" stroke="#FFB000" stroke-width="1.6" x1="480.0409" x2="379.5722" y1="1109.7687" y2="1019.2702" /><line opacity="0.75" stroke="#19D3FF" stroke-width="1.6" x1="354.7152" x2="347.6653" y1="792.7943" y2="657.7601" /><line opacity="0.75" stroke="#7A5CFF" stroke-width="1.6" x1="490.2313" x2="580.7298" y1="480.0409" y2="379.5722" /><line opacity="0.75" stroke="#0B1026" stroke-width="1.6" x1="807.2057" x2="942.2399" y1="354.7152" y2="347.6653" /><line opacity="0.75" stroke="#FF2E88" stroke-width="1.6" x1="1119.9591" x2="1220.4278" y1="490.2313" y2="580.7298" /><line opacity="0.75" stroke="#FFB000" stroke-width="1.6" x1="1245.2848" x2="1252.3347" y1="807.2057" y2="942.2399" /><line opacity="0.75" stroke="#19D3FF" stroke-width="1.6" x1="1109.7687" x2="1019.2702" y1="1119.9591" y2="1220.4278" /><line opacity="0.75" stroke="#7A5CFF" stroke-width="1.6" x1="792.7943" x2="657.7601" y1="1245.2848" y2="1252.3347" /><line opacity="0.75" stroke="#FFB000" stroke-width="1.6" x1="516.4308" x2="1026.1448" y1="1061.5658" y2="578.9847" /><line opacity="0.75" stroke="#19D3FF" stroke-width="1.6" x1="414.5313" x2="1116.1899" y1="784.4412" y2="803.6271" /><line opacity="0.75" stroke="#7A5CFF" stroke-width="1.6" x1="538.4342" x2="1021.0153" y1="516.4308" y2="1026.1448" /><line opacity="0.75" stroke="#0B1026" stroke-width="1.6" x1="815.5588" x2="796.3729" y1="414.5313" y2="1116.1899" /><line opacity="0.75" stroke="#FF2E88" stroke-width="1.6" x1="1083.5692" x2="573.8552" y1="538.4342" y2="1021.0153" /><line opacity="0.75" stroke="#FFB000" stroke-width="1.6" x1="1185.4687" x2="483.8101" y1="815.5588" y2="796.3729" /><line opacity="0.75" stroke="#19D3FF" stroke-width="1.6" x1="1061.5658" x2="578.9847" y1="1083.5692" y2="573.8552" /><line opacity="0.75" stroke="#7A5CFF" stroke-width="1.6" x1="784.4412" x2="803.6271" y1="1185.4687" y2="483.8101" /><line opacity="0.75" stroke="#FFB000" stroke-width="1.6" x1="671.486" x2="922.9329" y1="524.1944" y2="1067.9633" /><line opacity="0.75" stroke="#19D3FF" stroke-width="1.6" x1="904.1509" x2="697.448" y1="514.1029" y2="1076.4054" /><line opacity="0.75" stroke="#7A5CFF" stroke-width="1.6" x1="1075.8056" x2="532.0367" y1="671.486" y2="922.9329" /><line opacity="0.75" stroke="#0B1026" stroke-width="1.6" x1="1085.8971" x2="523.5946" y1="904.1509" y2="697.448" /><line opacity="0.75" stroke="#FF2E88" stroke-width="1.6" x1="928.514" x2="677.0671" y1="1075.8056" y2="532.0367" /><line opacity="0.75" stroke="#FFB000" stroke-width="1.6" x1="695.8491" x2="902.552" y1="1085.8971" y2="523.5946" /><line opacity="0.75" stroke="#19D3FF" stroke-width="1.6" x1="524.1944" x2="1067.9633" y1="928.514" y2="677.0671" /><line opacity="0.75" stroke="#7A5CFF" stroke-width="1.6" x1="514.1029" x2="1076.4054" y1="695.8491" y2="902.552" /><line opacity="0.75" stroke="#FFB000" stroke-width="1.6" x1="767.1275" x2="1097.8848" y1="1209.1833" y2="1102.548" /><line opacity="0.75" stroke="#19D3FF" stroke-width="1.6" x1="487.4193" x2="796.7026" y1="1066.0919" y2="1224.5701" /><line opacity="0.75" stroke="#7A5CFF" stroke-width="1.6" x1="390.8167" x2="497.452" y1="767.1275" y2="1097.8848" /><line opacity="0.75" stroke="#0B1026" stroke-width="1.6" x1="533.9081" x2="375.4299" y1="487.4193" y2="796.7026" /><line opacity="0.75" stroke="#FF2E88" stroke-width="1.6" x1="832.8725" x2="502.1152" y1="390.8167" y2="497.452" /><line opacity="0.75" stroke="#FFB000" stroke-width="1.6" x1="1112.5807" x2="803.2974" y1="533.9081" y2="375.4299" /><line opacity="0.75" stroke="#19D3FF" stroke-width="1.6" x1="1209.1833" x2="1102.548" y1="832.8725" y2="502.1152" /><line opacity="0.75" stroke="#7A5CFF" stroke-width="1.6" x1="1066.0919" x2="1224.5701" y1="1112.5807" y2="803.2974" /><line opacity="0.75" stroke="#FFB000" stroke-width="1.6" x1="507.6198" x2="744.5347" y1="1185.9884" y2="472.1223" /><line opacity="0.75" stroke="#19D3FF" stroke-width="1.6" x1="320.3209" x2="992.6247" y1="866.191" y2="528.9356" /><line opacity="0.75" stroke="#7A5CFF" stroke-width="1.6" x1="414.0116" x2="1127.8777" y1="507.6198" y2="744.5347" /><line opacity="0.75" stroke="#0B1026" stroke-width="1.6" x1="733.809" x2="1071.0644" y1="320.3209" y2="992.6247" /><line opacity="0.75" stroke="#FF2E88" stroke-width="1.6" x1="1092.3802" x2="855.4653" y1="414.0116" y2="1127.8777" /><line opacity="0.75" stroke="#FFB000" stroke-width="1.6" x1="1279.6791" x2="607.3753" y1="733.809" y2="1071.0644" /><line opacity="0.75" stroke="#19D3FF" stroke-width="1.6" x1="1185.9884" x2="472.1223" y1="1092.3802" y2="855.4653" /><line opacity="0.75" stroke="#7A5CFF" stroke-width="1.6" x1="866.191" x2="528.9356" y1="1279.6791" y2="607.3753" /><line opacity="0.75" stroke="#FFB000" stroke-width="1.6" x1="1041.7752" x2="1011.9072" y1="779.7397" y2="1137.0434" /><line opacity="0.75" stroke="#19D3FF" stroke-width="1.6" x1="985.2871" x2="711.5153" y1="956.6346" y2="1188.1667" /><line opacity="0.75" stroke="#7A5CFF" stroke-width="1.6" x1="820.2603" x2="462.9566" y1="1041.7752" y2="1011.9072" /><line opacity="0.75" stroke="#0B1026" stroke-width="1.6" x1="643.3654" x2="411.8333" y1="985.2871" y2="711.5153" /><line opacity="0.75" stroke="#FF2E88" stroke-width="1.6" x1="558.2248" x2="588.0928" y1="820.2603" y2="462.9566" /><line opacity="0.75" stroke="#FFB000" stroke-width="1.6" x1="614.7129" x2="888.4847" y1="643.3654" y2="411.8333" /><line opacity="0.75" stroke="#19D3FF" stroke-width="1.6" x1="779.7397" x2="1137.0434" y1="558.2248" y2="588.0928" /><line opacity="0.75" stroke="#7A5CFF" stroke-width="1.6" x1="956.6346" x2="1188.1667" y1="614.7129" y2="888.4847" /><line opacity="0.75" stroke="#FFB000" stroke-width="1.6" x1="798.1956" x2="610.9261" y1="441.0026" y2="525.0808" /><line opacity="0.75" stroke="#19D3FF" stroke-width="1.6" x1="1052.5736" x2="860.7018" y1="544.8746" y2="471.9073" /><line opacity="0.75" stroke="#7A5CFF" stroke-width="1.6" x1="1158.9974" x2="1074.9192" y1="798.1956" y2="610.9261" /><line opacity="0.75" stroke="#0B1026" stroke-width="1.6" x1="1055.1254" x2="1128.0927" y1="1052.5736" y2="860.7018" /><line opacity="0.75" stroke="#FF2E88" stroke-width="1.6" x1="801.8044" x2="989.0739" y1="1158.9974" y2="1074.9192" /><line opacity="0.75" stroke="#FFB000" stroke-width="1.6" x1="547.4264" x2="739.2982" y1="1055.1254" y2="1128.0927" /><line opacity="0.75" stroke="#19D3FF" stroke-width="1.6" x1="441.0026" x2="525.0808" y1="801.8044" y2="989.0739" /><line opacity="0.75" stroke="#7A5CFF" stroke-width="1.6" x1="544.8746" x2="471.9073" y1="547.4264" y2="739.2982" /><line opacity="0.75" stroke="#FFB000" stroke-width="1.6" x1="1193.6957" x2="1083.491" y1="504.1883" y2="1088.258" /><line opacity="0.75" stroke="#19D3FF" stroke-width="1.6" x1="1287.5554" x2="796.6292" y1="869.2144" y2="1204.2876" /><line opacity="0.75" stroke="#7A5CFF" stroke-width="1.6" x1="1095.8117" x2="511.742" y1="1193.6957" y2="1083.491" /><line opacity="0.75" stroke="#0B1026" stroke-width="1.6" x1="730.7856" x2="395.7124" y1="1287.5554" y2="796.6292" /><line opacity="0.75" stroke="#FF2E88" stroke-width="1.6" x1="406.3043" x2="516.509" y1="1095.8117" y2="511.742" /><line opacity="0.75" stroke="#FFB000" stroke-width="1.6" x1="312.4446" x2="803.3708" y1="730.7856" y2="395.7124" /><line opacity="0.75" stroke="#19D3FF" stroke-width="1.6" x1="504.1883" x2="1088.258" y1="406.3043" y2="516.509" /><line opacity="0.75" stroke="#7A5CFF" stroke-width="1.6" x1="869.2144" x2="1204.2876" y1="312.4446" y2="803.3708" /><line opacity="0.75" stroke="#FFB000" stroke-width="1.6" x1="911.9427" x2="386.9812" y1="711.4456" y2="680.7669" /><line opacity="0.75" stroke="#19D3FF" stroke-width="1.6" x1="941.7728" x2="592.2621" y1="816.538" y2="423.6411" /><line opacity="0.75" stroke="#7A5CFF" stroke-width="1.6" x1="888.5544" x2="919.2331" y1="911.9427" y2="386.9812" /><line opacity="0.75" stroke="#0B1026" stroke-width="1.6" x1="783.462" x2="1176.3589" y1="941.7728" y2="592.2621" /><line opacity="0.75" stroke="#FF2E88" stroke-width="1.6" x1="688.0573" x2="1213.0188" y1="888.5544" y2="919.2331" /><line opacity="0.75" stroke="#FFB000" stroke-width="1.6" x1="658.2272" x2="1007.7379" y1="783.462" y2="1176.3589" /><line opacity="0.75" stroke="#19D3FF" stroke-width="1.6" x1="711.4456" x2="680.7669" y1="688.0573" y2="1213.0188" /><line opacity="0.75" stroke="#7A5CFF" stroke-width="1.6" x1="816.538" x2="423.6411" y1="658.2272" y2="1007.7379" /><line opacity="0.75" stroke="#FFB000" stroke-width="1.6" x1="536.8663" x2="922.4109" y1="427.1581" y2="525.0149" /><line opacity="0.75" stroke="#19D3FF" stroke-width="1.6" x1="877.5754" x2="1081.0014" y1="350.2973" y2="692.1138" /><line opacity="0.75" stroke="#7A5CFF" stroke-width="1.6" x1="1172.8419" x2="1074.9851" y1="536.8663" y2="922.4109" /><line opacity="0.75" stroke="#0B1026" stroke-width="1.6" x1="1249.7027" x2="907.8862" y1="877.5754" y2="1081.0014" /><line opacity="0.75" stroke="#FF2E88" stroke-width="1.6" x1="1063.1337" x2="677.5891" y1="1172.8419" y2="1074.9851" /><line opacity="0.75" stroke="#FFB000" stroke-width="1.6" x1="722.4246" x2="518.9986" y1="1249.7027" y2="907.8862" /><line opacity="0.75" stroke="#19D3FF" stroke-width="1.6" x1="427.1581" x2="525.0149" y1="1063.1337" y2="677.5891" /><line opacity="0.75" stroke="#7A5CFF" stroke-width="1.6" x1="350.2973" x2="692.1138" y1="722.4246" y2="518.9986" /><line opacity="0.75" stroke="#FFB000" stroke-width="1.6" x1="761.996" x2="765.9136" y1="523.7088" y2="1181.0078" /><line opacity="0.75" stroke="#19D3FF" stroke-width="1.6" x1="968.4945" x2="506.484" y1="577.7597" y2="1045.3105" /><line opacity="0.75" stroke="#7A5CFF" stroke-width="1.6" x1="1076.2912" x2="418.9922" y1="761.996" y2="765.9136" /><line opacity="0.75" stroke="#0B1026" stroke-width="1.6" x1="1022.2403" x2="554.6895" y1="968.4945" y2="506.484" /><line opacity="0.75" stroke="#FF2E88" stroke-width="1.6" x1="838.004" x2="834.0864" y1="1076.2912" y2="418.9922" /><line opacity="0.75" stroke="#FFB000" stroke-width="1.6" x1="631.5055" x2="1093.516" y1="1022.2403" y2="554.6895" /><line opacity="0.75" stroke="#19D3FF" stroke-width="1.6" x1="523.7088" x2="1181.0078" y1="838.004" y2="834.0864" /><line opacity="0.75" stroke="#7A5CFF" stroke-width="1.6" x1="577.7597" x2="1045.3105" y1="631.5055" y2="1093.516" /><line opacity="0.75" stroke="#FFB000" stroke-width="1.6" x1="825.2878" x2="1129.3703" y1="812.6802" y2="432.8785" /><line opacity="0.75" stroke="#19D3FF" stroke-width="1.6" x1="808.9149" x2="1292.4941" y1="826.8474" y2="773.3058" /><line opacity="0.75" stroke="#7A5CFF" stroke-width="1.6" x1="787.3198" x2="1167.1215" y1="825.2878" y2="1129.3703" /><line opacity="0.75" stroke="#0B1026" stroke-width="1.6" x1="773.1526" x2="826.6942" y1="808.9149" y2="1292.4941" /><line opacity="0.75" stroke="#FF2E88" stroke-width="1.6" x1="774.7122" x2="470.6297" y1="787.3198" y2="1167.1215" /><line opacity="0.75" stroke="#FFB000" stroke-width="1.6" x1="791.0851" x2="307.5059" y1="773.1526" y2="826.6942" /><line opacity="0.75" stroke="#19D3FF" stroke-width="1.6" x1="812.6802" x2="432.8785" y1="774.7122" y2="470.6297" /><line opacity="0.75" stroke="#7A5CFF" stroke-width="1.6" x1="826.8474" x2="773.3058" y1="791.0851" y2="307.5059" /><line opacity="0.75" stroke="#FFB000" stroke-width="1.6" x1="738.1617" x2="841.34" y1="951.5452" y2="768.2912" /><line opacity="0.75" stroke="#19D3FF" stroke-width="1.6" x1="649.1151" x2="851.6533" y1="863.4324" y2="806.8103" /><line opacity="0.75" stroke="#7A5CFF" stroke-width="1.6" x1="648.4548" x2="831.7088" y1="738.1617" y2="841.34" /><line opacity="0.75" stroke="#0B1026" stroke-width="1.6" x1="736.5676" x2="793.1897" y1="649.1151" y2="851.6533" /><line opacity="0.75" stroke="#FF2E88" stroke-width="1.6" x1="861.8383" x2="758.66" y1="648.4548" y2="831.7088" /><line opacity="0.75" stroke="#FFB000" stroke-width="1.6" x1="950.8849" x2="748.3467" y1="736.5676" y2="793.1897" /><line opacity="0.75" stroke="#19D3FF" stroke-width="1.6" x1="951.5452" x2="768.2912" y1="861.8383" y2="758.66" /><line opacity="0.75" stroke="#7A5CFF" stroke-width="1.6" x1="863.4324" x2="806.8103" y1="950.8849" y2="748.3467" /><line opacity="0.75" stroke="#FFB000" stroke-width="1.6" x1="794.2524" x2="975.8209" y1="402.6613" y2="994.316" /><line opacity="0.75" stroke="#19D3FF" stroke-width="1.6" x1="1076.8967" x2="786.9219" y1="514.975" y2="1061.7263" /><line opacity="0.75" stroke="#7A5CFF" stroke-width="1.6" x1="1197.3387" x2="605.684" y1="794.2524" y2="975.8209" /><line opacity="0.75" stroke="#0B1026" stroke-width="1.6" x1="1085.025" x2="538.2737" y1="1076.8967" y2="786.9219" /><line opacity="0.75" stroke="#FF2E88" stroke-width="1.6" x1="805.7476" x2="624.1791" y1="1197.3387" y2="605.684" /><line opacity="0.75" stroke="#FFB000" stroke-width="1.6" x1="523.1033" x2="813.0781" y1="1085.025" y2="538.2737" /><line opacity="0.75" stroke="#19D3FF" stroke-width="1.6" x1="402.6613" x2="994.316" y1="805.7476" y2="624.1791" /><line opacity="0.75" stroke="#7A5CFF" stroke-width="1.6" x1="514.975" x2="1061.7263" y1="523.1033" y2="813.0781" /><line opacity="0.75" stroke="#FFB000" stroke-width="1.6" x1="384.4603" x2="697.2603" y1="1065.9968" y2="819.3689" /><line opacity="0.75" stroke="#19D3FF" stroke-width="1.6" x1="318.0809" x2="713.6562" y1="694.2572" y2="741.0479" /><line opacity="0.75" stroke="#7A5CFF" stroke-width="1.6" x1="534.0032" x2="780.6311" y1="384.4603" y2="697.2603" /><line opacity="0.75" stroke="#0B1026" stroke-width="1.6" x1="905.7428" x2="858.9521" y1="318.0809" y2="713.6562" /><line opacity="0.75" stroke="#FF2E88" stroke-width="1.6" x1="1215.5397" x2="902.7397" y1="534.0032" y2="780.6311" /><line opacity="0.75" stroke="#FFB000" stroke-width="1.6" x1="1281.9191" x2="886.3438" y1="905.7428" y2="858.9521" /><line opacity="0.75" stroke="#19D3FF" stroke-width="1.6" x1="1065.9968" x2="819.3689" y1="1215.5397" y2="902.7397" /><line opacity="0.75" stroke="#7A5CFF" stroke-width="1.6" x1="694.2572" x2="741.0479" y1="1281.9191" y2="886.3438" /><line opacity="0.75" stroke="#FFB000" stroke-width="1.6" x1="983.4939" x2="480.984" y1="1153.9677" y2="719.7482" /><line opacity="0.75" stroke="#19D3FF" stroke-width="1.6" x1="679.4568" x2="631.1682" y1="1180.0427" y2="517.6751" /><line opacity="0.75" stroke="#7A5CFF" stroke-width="1.6" x1="446.0323" x2="880.2518" y1="983.4939" y2="480.984" /><line opacity="0.75" stroke="#0B1026" stroke-width="1.6" x1="419.9573" x2="1082.3249" y1="679.4568" y2="631.1682" /><line opacity="0.75" stroke="#FF2E88" stroke-width="1.6" x1="616.5061" x2="1119.016" y1="446.0323" y2="880.2518" /><line opacity="0.75" stroke="#FFB000" stroke-width="1.6" x1="920.5432" x2="968.8318" y1="419.9573" y2="1082.3249" /><line opacity="0.75" stroke="#19D3FF" stroke-width="1.6" x1="1153.9677" x2="719.7482" y1="616.5061" y2="1119.016" /><line opacity="0.75" stroke="#7A5CFF" stroke-width="1.6" x1="1180.0427" x2="517.6751" y1="920.5432" y2="968.8318" /><line opacity="0.75" stroke="#FFB000" stroke-width="1.6" x1="813.7847" x2="1117.7502" y1="766.8218" y2="728.4183" /><line opacity="0.75" stroke="#19D3FF" stroke-width="1.6" x1="833.2078" x2="1075.2993" y1="786.2867" y2="974.0674" /><line opacity="0.75" stroke="#7A5CFF" stroke-width="1.6" x1="833.1782" x2="871.5817" y1="813.7847" y2="1117.7502" /><line opacity="0.75" stroke="#0B1026" stroke-width="1.6" x1="813.7133" x2="625.9326" y1="833.2078" y2="1075.2993" /><line opacity="0.75" stroke="#FF2E88" stroke-width="1.6" x1="786.2153" x2="482.2498" y1="833.1782" y2="871.5817" /><line opacity="0.75" stroke="#FFB000" stroke-width="1.6" x1="766.7922" x2="524.7007" y1="813.7133" y2="625.9326" /><line opacity="0.75" stroke="#19D3FF" stroke-width="1.6" x1="766.8218" x2="728.4183" y1="786.2153" y2="482.2498" /><line opacity="0.75" stroke="#7A5CFF" stroke-width="1.6" x1="786.2867" x2="974.0674" y1="766.7922" y2="524.7007" /><line opacity="0.75" stroke="#FFB000" stroke-width="1.6" x1="489.3144" x2="622.5455" y1="618.6637" y2="529.9534" /><line opacity="0.75" stroke="#19D3FF" stroke-width="1.6" x1="708.5363" x2="865.4725" y1="452.088" y2="483.5689" /><line opacity="0.75" stroke="#7A5CFF" stroke-width="1.6" x1="981.3363" x2="1070.0466" y1="489.3144" y2="622.5455" /><line opacity="0.75" stroke="#0B1026" stroke-width="1.6" x1="1147.912" x2="1116.4311" y1="708.5363" y2="865.4725" /><line opacity="0.75" stroke="#FF2E88" stroke-width="1.6" x1="1110.6856" x2="977.4545" y1="981.3363" y2="1070.0466" /><line opacity="0.75" stroke="#FFB000" stroke-width="1.6" x1="891.4637" x2="734.5275" y1="1147.912" y2="1116.4311" /><line opacity="0.75" stroke="#19D3FF" stroke-width="1.6" x1="618.6637" x2="529.9534" y1="1110.6856" y2="977.4545" /><line opacity="0.75" stroke="#7A5CFF" stroke-width="1.6" x1="452.088" x2="483.5689" y1="891.4637" y2="734.5275" /><line opacity="0.75" stroke="#FFB000" stroke-width="1.6" x1="410.1775" x2="1108.5011" y1="383.7413" y2="1101.3015" /><line opacity="0.75" stroke="#19D3FF" stroke-width="1.6" x1="818.6932" x2="805.0909" y1="230.0145" y2="1231.1956" /><line opacity="0.75" stroke="#7A5CFF" stroke-width="1.6" x1="1216.2587" x2="498.6985" y1="410.1775" y2="1108.5011" /><line opacity="0.75" stroke="#0B1026" stroke-width="1.6" x1="1369.9855" x2="368.8044" y1="818.6932" y2="805.0909" /><line opacity="0.75" stroke="#FF2E88" stroke-width="1.6" x1="1189.8225" x2="491.4989" y1="1216.2587" y2="498.6985" /><line opacity="0.75" stroke="#FFB000" stroke-width="1.6" x1="781.3068" x2="794.9091" y1="1369.9855" y2="368.8044" /><line opacity="0.75" stroke="#19D3FF" stroke-width="1.6" x1="383.7413" x2="1101.3015" y1="1189.8225" y2="491.4989" /><line opacity="0.75" stroke="#7A5CFF" stroke-width="1.6" x1="230.0145" x2="1231.1956" y1="781.3068" y2="794.9091" /><line opacity="0.75" stroke="#FFB000" stroke-width="1.6" x1="756.5528" x2="932.127" y1="1201.0878" y2="451.255" /><line opacity="0.75" stroke="#19D3FF" stroke-width="1.6" x1="485.6663" x2="1140.0278" y1="1052.8901" y2="646.8279" /><line opacity="0.75" stroke="#7A5CFF" stroke-width="1.6" x1="398.9122" x2="1148.745" y1="756.5528" y2="932.127" /><line opacity="0.75" stroke="#0B1026" stroke-width="1.6" x1="547.1099" x2="953.1721" y1="485.6663" y2="1140.0278" /><line opacity="0.75" stroke="#FF2E88" stroke-width="1.6" x1="843.4472" x2="667.873" y1="398.9122" y2="1148.745" /><line opacity="0.75" stroke="#FFB000" stroke-width="1.6" x1="1114.3337" x2="459.9722" y1="547.1099" y2="953.1721" /><line opacity="0.75" stroke="#19D3FF" stroke-width="1.6" x1="1201.0878" x2="451.255" y1="843.4472" y2="667.873" /><line opacity="0.75" stroke="#7A5CFF" stroke-width="1.6" x1="1052.8901" x2="646.8279" y1="1114.3337" y2="459.9722" /><line opacity="0.75" stroke="#FFB000" stroke-width="1.6" x1="479.0654" x2="991.4874" y1="436.8359" y2="952.572" /><line opacity="0.75" stroke="#19D3FF" stroke-width="1.6" x1="829.8607" x2="827.5173" y1="316.2691" y2="1043.2867" /><line opacity="0.75" stroke="#7A5CFF" stroke-width="1.6" x1="1163.1641" x2="647.428" y1="479.0654" y2="991.4874" /><line opacity="0.75" stroke="#0B1026" stroke-width="1.6" x1="1283.7309" x2="556.7133" y1="829.8607" y2="827.5173" /><line opacity="0.75" stroke="#FF2E88" stroke-width="1.6" x1="1120.9346" x2="608.5126" y1="1163.1641" y2="647.428" /><line opacity="0.75" stroke="#FFB000" stroke-width="1.6" x1="770.1393" x2="772.4827" y1="1283.7309" y2="556.7133" /><line opacity="0.75" stroke="#19D3FF" stroke-width="1.6" x1="436.8359" x2="952.572" y1="1120.9346" y2="608.5126" /><line opacity="0.75" stroke="#7A5CFF" stroke-width="1.6" x1="316.2691" x2="1043.2867" y1="770.1393" y2="772.4827" /><line opacity="0.75" stroke="#FFB000" stroke-width="1.6" x1="367.323" x2="1146.3256" y1="541.2947" y2="944.2504" /><line opacity="0.75" stroke="#19D3FF" stroke-width="1.6" x1="676.9834" x2="942.8888" y1="311.1189" y2="1146.8896" /><line opacity="0.75" stroke="#7A5CFF" stroke-width="1.6" x1="1058.7053" x2="655.7496" y1="367.323" y2="1146.3256" /><line opacity="0.75" stroke="#0B1026" stroke-width="1.6" x1="1288.8811" x2="453.1104" y1="676.9834" y2="942.8888" /><line opacity="0.75" stroke="#FF2E88" stroke-width="1.6" x1="1232.677" x2="453.6744" y1="1058.7053" y2="655.7496" /><line opacity="0.75" stroke="#FFB000" stroke-width="1.6" x1="923.0166" x2="657.1112" y1="1288.8811" y2="453.1104" /><line opacity="0.75" stroke="#19D3FF" stroke-width="1.6" x1="541.2947" x2="944.2504" y1="1232.677" y2="453.6744" /><line opacity="0.75" stroke="#7A5CFF" stroke-width="1.6" x1="311.1189" x2="1146.8896" y1="923.0166" y2="657.1112" /><line opacity="0.75" stroke="#FFB000" stroke-width="1.6" x1="525.613" x2="355.4827" y1="1086.7417" y2="505.7842" /><line opacity="0.75" stroke="#19D3FF" stroke-width="1.6" x1="403.2221" x2="693.7208" y1="808.7361" y2="277.6369" /><line opacity="0.75" stroke="#7A5CFF" stroke-width="1.6" x1="513.2583" x2="1094.2158" y1="525.613" y2="355.4827" /><line opacity="0.75" stroke="#0B1026" stroke-width="1.6" x1="791.2639" x2="1322.3631" y1="403.2221" y2="693.7208" /><line opacity="0.75" stroke="#FF2E88" stroke-width="1.6" x1="1074.387" x2="1244.5173" y1="513.2583" y2="1094.2158" /><line opacity="0.75" stroke="#FFB000" stroke-width="1.6" x1="1196.7779" x2="906.2792" y1="791.2639" y2="1322.3631" /><line opacity="0.75" stroke="#19D3FF" stroke-width="1.6" x1="1086.7417" x2="505.7842" y1="1074.387" y2="1244.5173" /><line opacity="0.75" stroke="#7A5CFF" stroke-width="1.6" x1="808.7361" x2="277.6369" y1="1196.7779" y2="906.2792" /><line opacity="0.75" stroke="#FFB000" stroke-width="1.6" x1="417.8822" x2="539.2471" y1="525.3064" y2="1061.0746" /><line opacity="0.75" stroke="#19D3FF" stroke-width="1.6" x1="724.0397" x2="431.0122" y1="335.5642" y2="800.2275" /><line opacity="0.75" stroke="#7A5CFF" stroke-width="1.6" x1="1074.6936" x2="538.9254" y1="417.8822" y2="539.2471" /><line opacity="0.75" stroke="#0B1026" stroke-width="1.6" x1="1264.4358" x2="799.7725" y1="724.0397" y2="431.0122" /><line opacity="0.75" stroke="#FF2E88" stroke-width="1.6" x1="1182.1178" x2="1060.7529" y1="1074.6936" y2="538.9254" /><line opacity="0.75" stroke="#FFB000" stroke-width="1.6" x1="875.9603" x2="1168.9878" y1="1264.4358" y2="799.7725" /><line opacity="0.75" stroke="#19D3FF" stroke-width="1.6" x1="525.3064" x2="1061.0746" y1="1182.1178" y2="1060.7529" /><line opacity="0.75" stroke="#7A5CFF" stroke-width="1.6" x1="335.5642" x2="800.2275" y1="875.9603" y2="1168.9878" /></svg>