<?xml version="1.0" encoding="utf-8" ?>
<svg baseProfile="tiny" height="1600" version="1.2" viewBox="0 0 1600 1600" width="1600" xmlns="http://www.w3.org/2000/svg" xmlns:ev="http://www.w3.org/2001/xml-events" xmlns:xlink="http://www.w3.org/1999/xlink"><defs /><rect fill="#0B1026" height="100%" width="100%" x="0" y="0" /><circle cx="800.0" cy="800.0" fill="none" opacity="0.82" r="56.0" stroke="#FF2E88" stroke-width="2" /><polygon fill="#FF2E88" opacity="0.35" points="813.3586,795.811 875.6,800.0 813.3586,804.189 812.88,800.0" stroke="#FF2E88" stroke-width="1.5" /><polygon fill="#FFB000" opacity="0.35" points="812.247,806.7831 853.4573,853.4573 806.7831,812.247 809.1075,809.1075" stroke="#FF2E88" stroke-width="1.5" /><polygon fill="#19D3FF" opacity="0.35" points="804.7161,813.1818 800.0,875.6 795.2839,813.1818 800.0,812.88" stroke="#FF2E88" stroke-width="1.5" /><polygon fill="#7A5CFF" opacity="0.35" points="793.4054,812.3496 746.5427,853.4573 787.6504,806.5946 790.8925,809.1075" stroke="#FF2E88" stroke-width="1.5" /><polygon fill="#0B1026" opacity="0.35" points="786.6093,804.0851 724.4,800.0 786.6093,795.9149 787.12,800.0" stroke="#FF2E88" stroke-width="1.5" /><polygon fill="#FF2E88" opacity="0.35" points="788.1745,792.5062 746.5427,746.5427 792.5062,788.1745 790.8925,790.8925" stroke="#FF2E88" stroke-width="1.5" /><polygon fill="#FFB000" opacity="0.35" points="796.1961,786.5267 800.0,724.4 803.8039,786.5267 800.0,787.12" stroke="#FF2E88" stroke-width="1.5" /><polygon fill="#19D3FF" opacity="0.35" points="806.5316,787.617 853.4573,746.5427 812.383,793.4684 809.1075,790.8925" stroke="#FF2E88" stroke-width="1.5" /><circle cx="800.0" cy="800.0" fill="none" opacity="0.82" r="112.0" stroke="#FFB000" stroke-width="2" /><polygon fill="#FFB000" opacity="0.35" points="866.9611,779.5987 931.6,800.0 866.9611,820.4013 864.4,800.0" stroke="#FFB000" stroke-width="1.5" /><polygon fill="#19D3FF" opacity="0.35" points="859.5342,836.8195 893.0553,893.0553 836.8195,859.5342 845.5377,845.5377" stroke="#FFB000" stroke-width="1.5" /><polygon fill="#7A5CFF" opacity="0.35" points="818.5452,867.4987 800.0,931.6 781.4548,867.4987 800.0,864.4" stroke="#FFB000" stroke-width="1.5" /><polygon fill="#0B1026" opacity="0.35" points="765.8537,861.1067 706.9447,893.0553 738.8933,834.1463 754.4623,845.5377" stroke="#FFB000" stroke-width="1.5" /><polygon fill="#FF2E88" opacity="0.35" points="734.8747,825.665 668.4,800.0 734.8747,774.335 735.6,800.0" stroke="#FFB000" stroke-width="1.5" /><polygon fill="#FFB000" opacity="0.35" points="736.7466,770.0166 706.9447,706.9447 770.0166,736.7466 754.4623,754.4623" stroke="#FFB000" stroke-width="1.5" /><polygon fill="#19D3FF" opacity="0.35" points="774.3751,734.8589 800.0,668.4 825.6249,734.8589 800.0,735.6" stroke="#FFB000" stroke-width="1.5" /><polygon fill="#7A5CFF" opacity="0.35" points="837.3953,740.8257 893.0553,706.9447 859.1743,762.6047 845.5377,754.4623" stroke="#FFB000" stroke-width="1.5" /><circle cx="800.0" cy="800.0" fill="none" opacity="0.82" r="168.0" stroke="#19D3FF" stroke-width="2" /><polygon fill="#19D3FF" opacity="0.35" points="921.8823,768.0515 987.6,800.0 921.8823,831.9485 915.92,800.0" stroke="#19D3FF" stroke-width="1.5" /><polygon fill="#7A5CFF" opacity="0.35" points="912.0903,857.5479 932.6532,932.6532 857.5479,912.0903 881.9678,881.9678" stroke="#19D3FF" stroke-width="1.5" /><polygon fill="#0B1026" opacity="0.35" points="828.334,922.7729 800.0,987.6 771.666,922.7729 800.0,915.92" stroke="#19D3FF" stroke-width="1.5" /><polygon fill="#FF2E88" opacity="0.35" points="736.4243,908.7848 667.3468,932.6532 691.2152,863.5757 718.0322,881.9678" stroke="#19D3FF" stroke-width="1.5" /><polygon fill="#FFB000" opacity="0.35" points="680.1962,839.0264 612.4,800.0 680.1962,760.9736 684.08,800.0" stroke="#19D3FF" stroke-width="1.5" /><polygon fill="#19D3FF" opacity="0.35" points="693.8705,732.0845 667.3468,667.3468 732.0845,693.8705 718.0322,718.0322" stroke="#19D3FF" stroke-width="1.5" /><polygon fill="#7A5CFF" opacity="0.35" points="764.5424,679.0919 800.0,612.4 835.4576,679.0919 800.0,684.08" stroke="#19D3FF" stroke-width="1.5" /><polygon fill="#0B1026" opacity="0.35" points="867.3428,693.5061 932.6532,667.3468 906.4939,732.6572 881.9678,718.0322" stroke="#19D3FF" stroke-width="1.5" /><circle cx="800.0" cy="800.0" fill="none" opacity="0.82" r="224.0" stroke="#7A5CFF" stroke-width="2" /><polygon fill="#7A5CFF" opacity="0.35" points="975.9531,753.4758 1043.6,800.0 975.9531,846.5242 967.44,800.0" stroke="#7A5CFF" stroke-width="1.5" /><polygon fill="#0B1026" opacity="0.35" points="966.8297,872.745 972.2512,972.2512 872.745,966.8297 918.398,918.398" stroke="#7A5CFF" stroke-width="1.5" /><polygon fill="#FF2E88" opacity="0.35" points="851.0506,974.6936 800.0,1043.6 748.9494,974.6936 800.0,967.44" stroke="#7A5CFF" stroke-width="1.5" /><polygon fill="#FFB000" opacity="0.35" points="709.2396,957.7547 627.7488,972.2512 642.2453,890.7604 681.602,918.398" stroke="#7A5CFF" stroke-width="1.5" /><polygon fill="#19D3FF" opacity="0.35" points="630.7837,867.0063 556.4,800.0 630.7837,732.9937 632.56,800.0" stroke="#7A5CFF" stroke-width="1.5" /><polygon fill="#7A5CFF" opacity="0.35" points="633.6783,726.1008 627.7488,627.7488 726.1008,633.6783 681.602,681.602" stroke="#7A5CFF" stroke-width="1.5" /><polygon fill="#0B1026" opacity="0.35" points="753.0315,624.165 800.0,556.4 846.9685,624.165 800.0,632.56" stroke="#7A5CFF" stroke-width="1.5" /><polygon fill="#FF2E88" opacity="0.35" points="886.2835,639.7528 972.2512,627.7488 960.2472,713.7165 918.398,681.602" stroke="#7A5CFF" stroke-width="1.5" /><circle cx="800.0" cy="800.0" fill="none" opacity="0.82" r="280.0" stroke="#0B1026" stroke-width="2" /><polygon fill="#0B1026" opacity="0.35" points="1030.5521,740.9261 1099.6,800.0 1030.5521,859.0739 1018.96,800.0" stroke="#0B1026" stroke-width="1.5" /><polygon fill="#FF2E88" opacity="0.35" points="1015.9034,900.1486 1011.8492,1011.8492 900.1486,1015.9034 954.8281,954.8281" stroke="#0B1026" stroke-width="1.5" /><polygon fill="#FFB000" opacity="0.35" points="869.4807,1027.6322 800.0,1099.6 730.5193,1027.6322 800.0,1018.96" stroke="#0B1026" stroke-width="1.5" /><polygon fill="#19D3FF" opacity="0.35" points="700.0675,1016.0035 588.1508,1011.8492 583.9965,899.9325 645.1719,954.8281" stroke="#0B1026" stroke-width="1.5" /><polygon fill="#7A5CFF" opacity="0.35" points="576.3734,881.4565 500.4,800.0 576.3734,718.5435 581.04,800.0" stroke="#0B1026" stroke-width="1.5" /><polygon fill="#0B1026" opacity="0.35" points="596.5935,676.429 588.1508,588.1508 676.429,596.5935 645.1719,645.1719" stroke="#0B1026" stroke-width="1.5" /><polygon fill="#FF2E88" opacity="0.35" points="743.4193,568.8234 800.0,500.4 856.5807,568.8234 800.0,581.04" stroke="#0B1026" stroke-width="1.5" /><polygon fill="#FFB000" opacity="0.35" points="900.998,584.4927 1011.8492,588.1508 1015.5073,699.002 954.8281,645.1719" stroke="#0B1026" stroke-width="1.5" /><circle cx="800.0" cy="800.0" fill="none" opacity="0.82" r="336.0" stroke="#FF2E88" stroke-width="2" /><polygon fill="#FF2E88" opacity="0.35" points="1074.1139,693.7101 1155.6,800.0 1074.1139,906.2899 1070.48,800.0" stroke="#FF2E88" stroke-width="1.5" /><polygon fill="#FFB000" opacity="0.35" points="1052.5591,950.4989 1051.4472,1051.4472 950.4989,1052.5591 991.2582,991.2582" stroke="#FF2E88" stroke-width="1.5" /><polygon fill="#19D3FF" opacity="0.35" points="905.6659,1074.3551 800.0,1155.6 694.3341,1074.3551 800.0,1070.48" stroke="#FF2E88" stroke-width="1.5" /><polygon fill="#7A5CFF" opacity="0.35" points="650.4646,1053.1307 548.5528,1051.4472 546.8693,949.5354 608.7418,991.2582" stroke="#FF2E88" stroke-width="1.5" /><polygon fill="#0B1026" opacity="0.35" points="517.147,880.1882 444.4,800.0 517.147,719.8118 529.52,800.0" stroke="#FF2E88" stroke-width="1.5" /><polygon fill="#FF2E88" opacity="0.35" points="536.145,670.3213 548.5528,548.5528 670.3213,536.145 608.7418,608.7418" stroke="#FF2E88" stroke-width="1.5" /><polygon fill="#FFB000" opacity="0.35" points="729.4519,514.5898 800.0,444.4 870.5481,514.5898 800.0,529.52" stroke="#FF2E88" stroke-width="1.5" /><polygon fill="#19D3FF" opacity="0.35" points="935.5357,539.1053 1051.4472,548.5528 1060.8947,664.4643 991.2582,608.7418" stroke="#FF2E88" stroke-width="1.5" /><circle cx="800.0" cy="800.0" fill="none" opacity="0.82" r="392.0" stroke="#FFB000" stroke-width="2" /><polygon fill="#FFB000" opacity="0.35" points="1135.093,698.9421 1211.6,800.0 1135.093,901.0579 1122.0,800.0" stroke="#FFB000" stroke-width="1.5" /><polygon fill="#19D3FF" opacity="0.35" points="1097.9868,983.5861 1091.0452,1091.0452 983.5861,1097.9868 1027.6884,1027.6884" stroke="#FFB000" stroke-width="1.5" /><polygon fill="#7A5CFF" opacity="0.35" points="878.5937,1141.0616 800.0,1211.6 721.4063,1141.0616 800.0,1122.0" stroke="#FFB000" stroke-width="1.5" /><polygon fill="#0B1026" opacity="0.35" points="634.2513,1108.2651 508.9548,1091.0452 491.7349,965.7487 572.3116,1027.6884" stroke="#FFB000" stroke-width="1.5" /><polygon fill="#FF2E88" opacity="0.35" points="466.1307,905.03 388.4,800.0 466.1307,694.97 478.0,800.0" stroke="#FFB000" stroke-width="1.5" /><polygon fill="#FFB000" opacity="0.35" points="489.4948,638.4868 508.9548,508.9548 638.4868,489.4948 572.3116,572.3116" stroke="#FFB000" stroke-width="1.5" /><polygon fill="#19D3FF" opacity="0.35" points="721.126,459.0031 800.0,388.4 878.874,459.0031 800.0,478.0" stroke="#FFB000" stroke-width="1.5" /><polygon fill="#7A5CFF" opacity="0.35" points="965.6839,491.7001 1091.0452,508.9548 1108.2999,634.3161 1027.6884,572.3116" stroke="#FFB000" stroke-width="1.5" /><circle cx="800.0" cy="800.0" fill="none" opacity="0.82" r="448.0" stroke="#19D3FF" stroke-width="2" /><polygon fill="#19D3FF" opacity="0.35" points="1175.7125,646.1296 1267.6,800.0 1175.7125,953.8704 1173.52,800.0" stroke="#19D3FF" stroke-width="1.5" /><polygon fill="#7A5CFF" opacity="0.35" points="1166.5938,974.485 1130.6431,1130.6431 974.485,1166.5938 1064.1185,1064.1185" stroke="#19D3FF" stroke-width="1.5" /><polygon fill="#0B1026" opacity="0.35" points="909.5366,1190.9447 800.0,1267.6 690.4634,1190.9447 800.0,1173.52" stroke="#19D3FF" stroke-width="1.5" /><polygon fill="#FF2E88" opacity="0.35" points="624.6383,1166.1752 469.3569,1130.6431 433.8248,975.3617 535.8815,1064.1185" stroke="#19D3FF" stroke-width="1.5" /><polygon fill="#FFB000" opacity="0.35" points="410.487,914.5235 332.4,800.0 410.487,685.4765 426.48,800.0" stroke="#19D3FF" stroke-width="1.5" /><polygon fill="#19D3FF" opacity="0.35" points="437.7755,616.6168 469.3569,469.3569 616.6168,437.7755 535.8815,535.8815" stroke="#19D3FF" stroke-width="1.5" /><polygon fill="#7A5CFF" opacity="0.35" points="704.0864,405.492 800.0,332.4 895.9136,405.492 800.0,426.48" stroke="#19D3FF" stroke-width="1.5" /><polygon fill="#0B1026" opacity="0.35" points="1018.7565,457.9743 1130.6431,469.3569 1142.0257,581.2435 1064.1185,535.8815" stroke="#19D3FF" stroke-width="1.5" /><circle cx="800.0" cy="800.0" fill="none" opacity="0.82" r="504.0" stroke="#7A5CFF" stroke-width="2" /><polygon fill="#7A5CFF" opacity="0.35" points="1235.3766,645.4323 1323.6,800.0 1235.3766,954.5677 1225.04,800.0" stroke="#7A5CFF" stroke-width="1.5" /><polygon fill="#0B1026" opacity="0.35" points="1208.085,1016.5887 1170.2411,1170.2411 1016.5887,1208.085 1100.5487,1100.5487" stroke="#7A5CFF" stroke-width="1.5" /><polygon fill="#FF2E88" opacity="0.35" points="902.8926,1250.3966 800.0,1323.6 697.1074,1250.3966 800.0,1225.04" stroke="#7A5CFF" stroke-width="1.5" /><polygon fill="#FFB000" opacity="0.35" points="623.1712,1226.8203 429.7589,1170.2411 373.1797,976.8288 499.4513,1100.5487" stroke="#7A5CFF" stroke-width="1.5" /><polygon fill="#19D3FF" opacity="0.35" points="362.4593,948.3313 276.4,800.0 362.4593,651.6687 374.96,800.0" stroke="#7A5CFF" stroke-width="1.5" /><polygon fill="#7A5CFF" opacity="0.35" points="400.8959,567.2772 429.7589,429.7589 567.2772,400.8959 499.4513,499.4513" stroke="#7A5CFF" stroke-width="1.5" /><polygon fill="#0B1026" opacity="0.35" points="661.2342,359.3323 800.0,276.4 938.7658,359.3323 800.0,374.96" stroke="#7A5CFF" stroke-width="1.5" /><polygon fill="#FF2E88" opacity="0.35" points="991.4789,379.5481 1170.2411,429.7589 1220.4519,608.5211 1100.5487,499.4513" stroke="#7A5CFF" stroke-width="1.5" /><circle cx="800.0" cy="800.0" fill="none" opacity="0.82" r="560.0" stroke="#0B1026" stroke-width="2" /><polygon fill="#0B1026" opacity="0.35" points="1294.7589,646.5804 1379.6,800.0 1294.7589,953.4196 1276.56,800.0" stroke="#0B1026" stroke-width="1.5" /><polygon fill="#FF2E88" opacity="0.35" points="1267.7067,1022.6532 1209.8391,1209.8391 1022.6532,1267.7067 1136.9788,1136.9788" stroke="#0B1026" stroke-width="1.5" /><polygon fill="#FFB000" opacity="0.35" points="911.6875,1305.8161 800.0,1379.6 688.3125,1305.8161 800.0,1276.56" stroke="#0B1026" stroke-width="1.5" /><polygon fill="#19D3FF" opacity="0.35" points="585.0429,1271.2934 390.1609,1209.8391 328.7066,1014.9571 463.0212,1136.9788" stroke="#0B1026" stroke-width="1.5" /><polygon fill="#7A5CFF" opacity="0.35" points="307.8047,961.4552 220.4,800.0 307.8047,638.5448 323.44,800.0" stroke="#0B1026" stroke-width="1.5" /><polygon fill="#0B1026" opacity="0.35" points="347.0657,548.6546 390.1609,390.1609 548.6546,347.0657 463.0212,463.0212" stroke="#0B1026" stroke-width="1.5" /><polygon fill="#FF2E88" opacity="0.35" points="652.5691,303.4236 800.0,220.4 947.4309,303.4236 800.0,323.44" stroke="#0B1026" stroke-width="1.5" /><polygon fill="#FFB000" opacity="0.35" points="1008.8256,325.9579 1209.8391,390.1609 1274.0421,591.1744 1136.9788,463.0212" stroke="#0B1026" stroke-width="1.5" /><circle cx="800.0" cy="800.0" fill="none" opacity="0.82" r="616.0" stroke="#FF2E88" stroke-width="2" /><polygon fill="#FF2E88" opacity="0.35" points="1332.5296,585.7845 1435.6,800.0 1332.5296,1014.2155 1328.08,800.0" stroke="#FF2E88" stroke-width="1.5" /><polygon fill="#FFB000" opacity="0.35" points="1299.2923,1083.1663 1249.4371,1249.4371 1083.1663,1299.2923 1173.4089,1173.4089" stroke="#FF2E88" stroke-width="1.5" /><polygon fill="#19D3FF" opacity="0.35" points="1003.4819,1336.7226 800.0,1435.6 596.5181,1336.7226 800.0,1328.08" stroke="#FF2E88" stroke-width="1.5" /><polygon fill="#7A5CFF" opacity="0.35" points="519.2775,1300.6704 350.5629,1249.4371 299.3296,1080.7225 426.5911,1173.4089" stroke="#FF2E88" stroke-width="1.5" /><polygon fill="#0B1026" opacity="0.35" points="253.4389,975.3481 164.4,800.0 253.4389,624.6519 271.92,800.0" stroke="#FF2E88" stroke-width="1.5" /><polygon fill="#FF2E88" opacity="0.35" points="313.396,495.5455 350.5629,350.5629 495.5455,313.396 426.5911,426.5911" stroke="#FF2E88" stroke-width="1.5" /><polygon fill="#FFB000" opacity="0.35" points="641.1957,248.4049 800.0,164.4 958.8043,248.4049 800.0,271.92" stroke="#FF2E88" stroke-width="1.5" /><polygon fill="#19D3FF" opacity="0.35" points="1066.3276,291.5262 1249.4371,350.5629 1308.4738,533.6724 1173.4089,426.5911" stroke="#FF2E88" stroke-width="1.5" /><circle cx="800.0" cy="800.0" fill="none" opacity="0.82" r="672.0" stroke="#FFB000" stroke-width="2" /><polygon fill="#FFB000" opacity="0.35" points="1414.0775,659.2563 1491.6,800.0 1414.0775,940.7437 1379.6,800.0" stroke="#FFB000" stroke-width="1.5" /><polygon fill="#19D3FF" opacity="0.35" points="1378.0568,1050.5001 1289.035,1289.035 1050.5001,1378.0568 1209.8391,1209.8391" stroke="#FFB000" stroke-width="1.5" /><polygon fill="#7A5CFF" opacity="0.35" points="1016.0922,1391.7805 800.0,1491.6 583.9078,1391.7805 800.0,1379.6" stroke="#FFB000" stroke-width="1.5" /><polygon fill="#0B1026" opacity="0.35" points="549.1017,1377.8841 310.965,1289.035 222.1159,1050.8983 390.1609,1209.8391" stroke="#FFB000" stroke-width="1.5" /><polygon fill="#FF2E88" opacity="0.35" points="199.1474,989.4099 108.4,800.0 199.1474,610.5901 220.4,800.0" stroke="#FFB000" stroke-width="1.5" /><polygon fill="#FFB000" opacity="0.35" points="258.4716,478.0574 310.965,310.965 478.0574,258.4716 390.1609,390.1609" stroke="#FFB000" stroke-width="1.5" /><polygon fill="#19D3FF" opacity="0.35" points="624.1701,195.034 800.0,108.4 975.8299,195.034 800.0,220.4" stroke="#FFB000" stroke-width="1.5" /><polygon fill="#7A5CFF" opacity="0.35" points="1133.1109,265.2691 1289.035,310.965 1334.7309,466.8891 1209.8391,390.1609" stroke="#FFB000" stroke-width="1.5" /><circle cx="912.0" cy="800.0" fill="#7A5CFF" r="7" /><circle cx="1024.0" cy="800.0" fill="#7A5CFF" r="9" /><circle cx="1136.0" cy="800.0" fill="#7A5CFF" r="11" /><circle cx="1248.0" cy="800.0" fill="#7A5CFF" r="13" /><circle cx="1360.0" cy="800.0" fill="#7A5CFF" r="15" /><circle cx="903.4745" cy="842.8605" fill="#7A5CFF" r="7" /><circle cx="1006.949" cy="885.7211" fill="#7A5CFF" r="9" /><circle cx="1110.4235" cy="928.5816" fill="#7A5CFF" r="11" /><circle cx="1213.898" cy="971.4422" fill="#7A5CFF" r="13" /><circle cx="1317.3725" cy="1014.3027" fill="#7A5CFF" r="15" /><circle cx="879.196" cy="879.196" fill="#7A5CFF" r="7" /><circle cx="958.3919" cy="958.3919" fill="#7A5CFF" r="9" /><circle cx="1037.5879" cy="1037.5879" fill="#7A5CFF" r="11" /><circle cx="1116.7838" cy="1116.7838" fill="#7A5CFF" r="13" /><circle cx="1195.9798" cy="1195.9798" fill="#7A5CFF" r="15" /><circle cx="842.8605" cy="903.4745" fill="#7A5CFF" r="7" /><circle cx="885.7211" cy="1006.949" fill="#7A5CFF" r="9" /><circle cx="928.5816" cy="1110.4235" fill="#7A5CFF" r="11" /><circle cx="971.4422" cy="1213.898" fill="#7A5CFF" r="13" /><circle cx="1014.3027" cy="1317.3725" fill="#7A5CFF" r="15" /><circle cx="800.0" cy="912.0" fill="#7A5CFF" r="7" /><circle cx="800.0" cy="1024.0" fill="#7A5CFF" r="9" /><circle cx="800.0" cy="1136.0" fill="#7A5CFF" r="11" /><circle cx="800.0" cy="1248.0" fill="#7A5CFF" r="13" /><circle cx="800.0" cy="1360.0" fill="#7A5CFF" r="15" /><circle cx="757.1395" cy="903.4745" fill="#7A5CFF" r="7" /><circle cx="714.2789" cy="1006.949" fill="#7A5CFF" r="9" /><circle cx="671.4184" cy="1110.4235" fill="#7A5CFF" r="11" /><circle cx="628.5578" cy="1213.898" fill="#7A5CFF" r="13" /><circle cx="585.6973" cy="1317.3725" fill="#7A5CFF" r="15" /><circle cx="720.804" cy="879.196" fill="#7A5CFF" r="7" /><circle cx="641.6081" cy="958.3919" fill="#7A5CFF" r="9" /><circle cx="562.4121" cy="1037.5879" fill="#7A5CFF" r="11" /><circle cx="483.2162" cy="1116.7838" fill="#7A5CFF" r="13" /><circle cx="404.0202" cy="1195.9798" fill="#7A5CFF" r="15" /><circle cx="696.5255" cy="842.8605" fill="#7A5CFF" r="7" /><circle cx="593.051" cy="885.7211" fill="#7A5CFF" r="9" /><circle cx="489.5765" cy="928.5816" fill="#7A5CFF" r="11" /><circle cx="386.102" cy="971.4422" fill="#7A5CFF" r="13" /><circle cx="282.6275" cy="1014.3027" fill="#7A5CFF" r="15" /><circle cx="688.0" cy="800.0" fill="#7A5CFF" r="7" /><circle cx="576.0" cy="800.0" fill="#7A5CFF" r="9" /><circle cx="464.0" cy="800.0" fill="#7A5CFF" r="11" /><circle cx="352.0" cy="800.0" fill="#7A5CFF" r="13" /><circle cx="240.0" cy="800.0" fill="#7A5CFF" r="15" /><circle cx="696.5255" cy="757.1395" fill="#7A5CFF" r="7" /><circle cx="593.051" cy="714.2789" fill="#7A5CFF" r="9" /><circle cx="489.5765" cy="671.4184" fill="#7A5CFF" r="11" /><circle cx="386.102" cy="628.5578" fill="#7A5CFF" r="13" /><circle cx="282.6275" cy="585.6973" fill="#7A5CFF" r="15" /><circle cx="720.804" cy="720.804" fill="#7A5CFF" r="7" /><circle cx="641.6081" cy="641.6081" fill="#7A5CFF" r="9" /><circle cx="562.4121" cy="562.4121" fill="#7A5CFF" r="11" /><circle cx="483.2162" cy="483.2162" fill="#7A5CFF" r="13" /><circle cx="404.0202" cy="404.0202" fill="#7A5CFF" r="15" /><circle cx="757.1395" cy="696.5255" fill="#7A5CFF" r="7" /><circle cx="714.2789" cy="593.051" fill="#7A5CFF" r="9" /><circle cx="671.4184" cy="489.5765" fill="#7A5CFF" r="11" /><circle cx="628.5578" cy="386.102" fill="#7A5CFF" r="13" /><circle cx="585.6973" cy="282.6275" fill="#7A5CFF" r="15" /><circle cx="800.0" cy="688.0" fill="#7A5CFF" r="7" /><circle cx="800.0" cy="576.0" fill="#7A5CFF" r="9" /><circle cx="800.0" cy="464.0" fill="#7A5CFF" r="11" /><circle cx="800.0" cy="352.0" fill="#7A5CFF" r="13" /><circle cx="800.0" cy="240.0" fill="#7A5CFF" r="15" /><circle cx="842.8605" cy="696.5255" fill="#7A5CFF" r="7" /><circle cx="885.7211" cy="593.051" fill="#7A5CFF" r="9" /><circle cx="928.5816" cy="489.5765" fill="#7A5CFF" r="11" /><circle cx="971.4422" cy="386.102" fill="#7A5CFF" r="13" /><circle cx="1014.3027" cy="282.6275" fill="#7A5CFF" r="15" /><circle cx="879.196" cy="720.804" fill="#7A5CFF" r="7" /><circle cx="958.3919" cy="641.6081" fill="#7A5CFF" r="9" /><circle cx="1037.5879" cy="562.4121" fill="#7A5CFF" r="11" /><circle cx="1116.7838" cy="483.2162" fill="#7A5CFF" r="13" /><circle cx="1195.9798" cy="404.0202" fill="#7A5CFF" r="15" /><circle cx="903.4745" cy="757.1395" fill="#7A5CFF" r="7" /><circle cx="1006.949" cy="714.2789" fill="#7A5CFF" r="9" /><circle cx="1110.4235" cy="671.4184" fill="#7A5CFF" r="11" /><circle cx="1213.898" cy="628.5578" fill="#7A5CFF" r="13" /><circle cx="1317.3725" cy="585.6973" fill="#7A5CFF" r="15" /></svg>