<?xml version="1.0" encoding="utf-8" ?>
<svg baseProfile="tiny" height="1600" version="1.2" viewBox="0 0 1600 1600" width="1600" xmlns="http://www.w3.org/2000/svg" xmlns:ev="http://www.w3.org/2001/xml-events" xmlns:xlink="http://www.w3.org/1999/xlink"><defs /><rect fill="#0B1026" height="100%" width="100%" x="0" y="0" /><circle cx="800.0" cy="800.0" fill="none" opacity="0.82" r="56.0" stroke="#FF2E88" stroke-width="2" /><polygon fill="#FF2E88" opacity="0.35" points="813.5723,796.5658 875.6,800.0 813.5723,803.4342 812.88,800.0" stroke="#FF2E88" stroke-width="1.5" /><polygon fill="#FFB000" opacity="0.35" points="812.3966,806.5057 853.4573,853.4573 806.5057,812.3966 809.1075,809.1075" stroke="#FF2E88" stroke-width="1.5" /><polygon fill="#19D3FF" opacity="0.35" points="803.1875,813.6323 800.0,875.6 796.8125,813.6323 800.0,812.88" stroke="#FF2E88" stroke-width="1.5" /><polygon fill="#7A5CFF" opacity="0.35" points="793.5715,812.4368 746.5427,853.4573 787.5632,806.4285 790.8925,809.1075" stroke="#FF2E88" stroke-width="1.5" /><polygon fill="#0B1026" opacity="0.35" points="786.9909,805.1734 724.4,800.0 786.9909,794.8266 787.12,800.0" stroke="#FF2E88" stroke-width="1.5" /><polygon fill="#FF2E88" opacity="0.35" points="787.1859,794.3609 746.5427,746.5427 794.3609,787.1859 790.8925,790.8925" stroke="#FF2E88" stroke-width="1.5" /><polygon fill="#FFB000" opacity="0.35" points="795.7977,786.6456 800.0,724.4 804.2023,786.6456 800.0,787.12" stroke="#FF2E88" stroke-width="1.5" /><polygon fill="#19D3FF" opacity="0.35" points="805.7752,787.2467 853.4573,746.5427 812.7533,794.2248 809.1075,790.8925" stroke="#FF2E88" stroke-width="1.5" /><circle cx="800.0" cy="800.0" fill="none" opacity="0.82" r="112.0" stroke="#FFB000" stroke-width="2" /><polygon fill="#FFB000" opacity="0.35" points="865.5521,775.4456 931.6,800.0 865.5521,824.5544 864.4,800.0" stroke="#FFB000" stroke-width="1.5" /><polygon fill="#19D3FF" opacity="0.35" points="860.3403,835.4831 893.0553,893.0553 835.4831,860.3403 845.5377,845.5377" stroke="#FFB000" stroke-width="1.5" /><polygon fill="#7A5CFF" opacity="0.35" points="816.0638,868.1319 800.0,931.6 783.9362,868.1319 800.0,864.4" stroke="#FFB000" stroke-width="1.5" /><polygon fill="#0B1026" opacity="0.35" points="764.4022,860.2727 706.9447,893.0553 739.7273,835.5978 754.4623,845.5377" stroke="#FFB000" stroke-width="1.5" /><polygon fill="#FF2E88" opacity="0.35" points="733.5346,821.9625 668.4,800.0 733.5346,778.0375 735.6,800.0" stroke="#FFB000" stroke-width="1.5" /><polygon fill="#FFB000" opacity="0.35" points="736.9795,769.53 706.9447,706.9447 769.53,736.9795 754.4623,754.4623" stroke="#FFB000" stroke-width="1.5" /><polygon fill="#19D3FF" opacity="0.35" points="783.0618,732.0802 800.0,668.4 816.9382,732.0802 800.0,735.6" stroke="#FFB000" stroke-width="1.5" /><polygon fill="#7A5CFF" opacity="0.35" points="829.6571,736.5929 893.0553,706.9447 863.4071,770.3429 845.5377,754.4623" stroke="#FFB000" stroke-width="1.5" /><circle cx="800.0" cy="800.0" fill="none" opacity="0.82" r="168.0" stroke="#19D3FF" stroke-width="2" /><polygon fill="#19D3FF" opacity="0.35" points="919.7287,760.7439 987.6,800.0 919.7287,839.2561 915.92,800.0" stroke="#19D3FF" stroke-width="1.5" /><polygon fill="#7A5CFF" opacity="0.35" points="911.3246,859.0156 932.6532,932.6532 859.0156,911.3246 881.9678,881.9678" stroke="#19D3FF" stroke-width="1.5" /><polygon fill="#0B1026" opacity="0.35" points="837.9852,920.1379 800.0,987.6 762.0148,920.1379 800.0,915.92" stroke="#19D3FF" stroke-width="1.5" /><polygon fill="#FF2E88" opacity="0.35" points="734.6073,907.7023 667.3468,932.6532 692.2977,865.3927 718.0322,881.9678" stroke="#19D3FF" stroke-width="1.5" /><polygon fill="#FFB000" opacity="0.35" points="680.4453,839.7828 612.4,800.0 680.4453,760.2172 684.08,800.0" stroke="#19D3FF" stroke-width="1.5" /><polygon fill="#19D3FF" opacity="0.35" points="683.8433,751.1777 667.3468,667.3468 751.1777,683.8433 718.0322,718.0322" stroke="#19D3FF" stroke-width="1.5" /><polygon fill="#7A5CFF" opacity="0.35" points="770.0035,677.6227 800.0,612.4 829.9965,677.6227 800.0,684.08" stroke="#19D3FF" stroke-width="1.5" /><polygon fill="#0B1026" opacity="0.35" points="854.4894,686.3915 932.6532,667.3468 913.6085,745.5106 881.9678,718.0322" stroke="#19D3FF" stroke-width="1.5" /><circle cx="800.0" cy="800.0" fill="none" opacity="0.82" r="224.0" stroke="#7A5CFF" stroke-width="2" /><polygon fill="#7A5CFF" opacity="0.35" points="974.0445,746.7785 1043.6,800.0 974.0445,853.2215 967.44,800.0" stroke="#7A5CFF" stroke-width="1.5" /><polygon fill="#0B1026" opacity="0.35" points="965.2728,876.2161 972.2512,972.2512 876.2161,965.2728 918.398,918.398" stroke="#7A5CFF" stroke-width="1.5" /><polygon fill="#FF2E88" opacity="0.35" points="852.3529,974.3077 800.0,1043.6 747.6471,974.3077 800.0,967.44" stroke="#7A5CFF" stroke-width="1.5" /><polygon fill="#FFB000" opacity="0.35" points="724.0836,965.4107 627.7488,972.2512 634.5893,875.9164 681.602,918.398" stroke="#7A5CFF" stroke-width="1.5" /><polygon fill="#19D3FF" opacity="0.35" points="625.9224,853.1129 556.4,800.0 625.9224,746.8871 632.56,800.0" stroke="#7A5CFF" stroke-width="1.5" /><polygon fill="#7A5CFF" opacity="0.35" points="641.7333,710.1355 627.7488,627.7488 710.1355,641.7333 681.602,681.602" stroke="#7A5CFF" stroke-width="1.5" /><polygon fill="#0B1026" opacity="0.35" points="752.6278,624.2733 800.0,556.4 847.3722,624.2733 800.0,632.56" stroke="#7A5CFF" stroke-width="1.5" /><polygon fill="#FF2E88" opacity="0.35" points="886.6619,639.9571 972.2512,627.7488 960.0429,713.3381 918.398,681.602" stroke="#7A5CFF" stroke-width="1.5" /><circle cx="800.0" cy="800.0" fill="none" opacity="0.82" r="280.0" stroke="#0B1026" stroke-width="2" /><polygon fill="#0B1026" opacity="0.35" points="1021.5265,712.9942 1099.6,800.0 1021.5265,887.0058 1018.96,800.0" stroke="#0B1026" stroke-width="1.5" /><polygon fill="#FF2E88" opacity="0.35" points="1007.7703,916.0841 1011.8492,1011.8492 916.0841,1007.7703 954.8281,954.8281" stroke="#0B1026" stroke-width="1.5" /><polygon fill="#FFB000" opacity="0.35" points="869.0667,1027.7582 800.0,1099.6 730.9333,1027.7582 800.0,1018.96" stroke="#0B1026" stroke-width="1.5" /><polygon fill="#19D3FF" opacity="0.35" points="681.2571,1006.2623 588.1508,1011.8492 593.7377,918.7429 645.1719,954.8281" stroke="#0B1026" stroke-width="1.5" /><polygon fill="#7A5CFF" opacity="0.35" points="569.3856,858.8302 500.4,800.0 569.3856,741.1698 581.04,800.0" stroke="#0B1026" stroke-width="1.5" /><polygon fill="#0B1026" opacity="0.35" points="582.7414,702.8265 588.1508,588.1508 702.8265,582.7414 645.1719,645.1719" stroke="#0B1026" stroke-width="1.5" /><polygon fill="#FF2E88" opacity="0.35" points="743.6946,568.7562 800.0,500.4 856.3054,568.7562 800.0,581.04" stroke="#0B1026" stroke-width="1.5" /><polygon fill="#FFB000" opacity="0.35" points="908.4171,588.128 1011.8492,588.1508 1011.872,691.5829 954.8281,645.1719" stroke="#0B1026" stroke-width="1.5" /><circle cx="800.0" cy="800.0" fill="none" opacity="0.82" r="336.0" stroke="#FF2E88" stroke-width="2" /><polygon fill="#FF2E88" opacity="0.35" points="1077.3912,702.5826 1155.6,800.0 1077.3912,897.4174 1070.48,800.0" stroke="#FF2E88" stroke-width="1.5" /><polygon fill="#FFB000" opacity="0.35" points="1056.0039,944.5614 1051.4472,1051.4472 944.5614,1056.0039 991.2582,991.2582" stroke="#FF2E88" stroke-width="1.5" /><polygon fill="#19D3FF" opacity="0.35" points="901.9324,1075.764 800.0,1155.6 698.0676,1075.764 800.0,1070.48" stroke="#FF2E88" stroke-width="1.5" /><polygon fill="#7A5CFF" opacity="0.35" points="675.4952,1066.3354 548.5528,1051.4472 533.6646,924.5048 608.7418,991.2582" stroke="#FF2E88" stroke-width="1.5" /><polygon fill="#0B1026" opacity="0.35" points="522.7014,897.6804 444.4,800.0 522.7014,702.3196 529.52,800.0" stroke="#FF2E88" stroke-width="1.5" /><polygon fill="#FF2E88" opacity="0.35" points="552.1005,641.9436 548.5528,548.5528 641.9436,552.1005 608.7418,608.7418" stroke="#FF2E88" stroke-width="1.5" /><polygon fill="#FFB000" opacity="0.35" points="699.1989,523.8205 800.0,444.4 900.8011,523.8205 800.0,529.52" stroke="#FF2E88" stroke-width="1.5" /><polygon fill="#19D3FF" opacity="0.35" points="920.3056,531.7416 1051.4472,548.5528 1068.2584,679.6944 991.2582,608.7418" stroke="#FF2E88" stroke-width="1.5" /><circle cx="800.0" cy="800.0" fill="none" opacity="0.82" r="392.0" stroke="#FFB000" stroke-width="2" /><polygon fill="#FFB000" opacity="0.35" points="1125.7527,671.9954 1211.6,800.0 1125.7527,928.0046 1122.0,800.0" stroke="#FFB000" stroke-width="1.5" /><polygon fill="#19D3FF" opacity="0.35" points="1108.1042,966.0477 1091.0452,1091.0452 966.0477,1108.1042 1027.6884,1027.6884" stroke="#FFB000" stroke-width="1.5" /><polygon fill="#7A5CFF" opacity="0.35" points="892.8552,1137.458 800.0,1211.6 707.1448,1137.458 800.0,1122.0" stroke="#FFB000" stroke-width="1.5" /><polygon fill="#0B1026" opacity="0.35" points="621.2624,1100.9201 508.9548,1091.0452 499.0799,978.7376 572.3116,1027.6884" stroke="#FFB000" stroke-width="1.5" /><polygon fill="#FF2E88" opacity="0.35" points="470.5034,918.0339 388.4,800.0 470.5034,681.9661 478.0,800.0" stroke="#FFB000" stroke-width="1.5" /><polygon fill="#FFB000" opacity="0.35" points="480.256,657.6492 508.9548,508.9548 657.6492,480.256 572.3116,572.3116" stroke="#FFB000" stroke-width="1.5" /><polygon fill="#19D3FF" opacity="0.35" points="718.8551,459.5363 800.0,388.4 881.1449,459.5363 800.0,478.0" stroke="#FFB000" stroke-width="1.5" /><polygon fill="#7A5CFF" opacity="0.35" points="960.5793,489.0108 1091.0452,508.9548 1110.9892,639.4207 1027.6884,572.3116" stroke="#FFB000" stroke-width="1.5" /><circle cx="800.0" cy="800.0" fill="none" opacity="0.82" r="448.0" stroke="#19D3FF" stroke-width="2" /><polygon fill="#19D3FF" opacity="0.35" points="1190.0535,687.3311 1267.6,800.0 1190.0535,912.6689 1173.52,800.0" stroke="#19D3FF" stroke-width="1.5" /><polygon fill="#7A5CFF" opacity="0.35" points="1147.344,1010.2098 1130.6431,1130.6431 1010.2098,1147.344 1064.1185,1064.1185" stroke="#19D3FF" stroke-width="1.5" /><polygon fill="#0B1026" opacity="0.35" points="949.4953,1177.4747 800.0,1267.6 650.5047,1177.4747 800.0,1173.52" stroke="#19D3FF" stroke-width="1.5" /><polygon fill="#FF2E88" opacity="0.35" points="614.8879,1161.344 469.3569,1130.6431 438.656,985.1121 535.8815,1064.1185" stroke="#19D3FF" stroke-width="1.5" /><polygon fill="#FFB000" opacity="0.35" points="410.9848,916.203 332.4,800.0 410.9848,683.797 426.48,800.0" stroke="#19D3FF" stroke-width="1.5" /><polygon fill="#19D3FF" opacity="0.35" points="430.1438,632.5414 469.3569,469.3569 632.5414,430.1438 535.8815,535.8815" stroke="#19D3FF" stroke-width="1.5" /><polygon fill="#7A5CFF" opacity="0.35" points="654.0295,421.1483 800.0,332.4 945.9705,421.1483 800.0,426.48" stroke="#19D3FF" stroke-width="1.5" /><polygon fill="#0B1026" opacity="0.35" points="971.1578,431.8411 1130.6431,469.3569 1168.1589,628.8422 1064.1185,535.8815" stroke="#19D3FF" stroke-width="1.5" /><circle cx="800.0" cy="800.0" fill="none" opacity="0.82" r="504.0" stroke="#7A5CFF" stroke-width="2" /><polygon fill="#7A5CFF" opacity="0.35" points="1230.3298,631.892 1323.6,800.0 1230.3298,968.108 1225.04,800.0" stroke="#7A5CFF" stroke-width="1.5" /><polygon fill="#0B1026" opacity="0.35" points="1195.1497,1039.3757 1170.2411,1170.2411 1039.3757,1195.1497 1100.5487,1100.5487" stroke="#7A5CFF" stroke-width="1.5" /><polygon fill="#FF2E88" opacity="0.35" points="955.1116,1235.1832 800.0,1323.6 644.8884,1235.1832 800.0,1225.04" stroke="#7A5CFF" stroke-width="1.5" /><polygon fill="#FFB000" opacity="0.35" points="579.2623,1205.8557 429.7589,1170.2411 394.1443,1020.7377 499.4513,1100.5487" stroke="#7A5CFF" stroke-width="1.5" /><polygon fill="#19D3FF" opacity="0.35" points="355.1536,924.7226 276.4,800.0 355.1536,675.2774 374.96,800.0" stroke="#7A5CFF" stroke-width="1.5" /><polygon fill="#7A5CFF" opacity="0.35" points="386.3377,594.2635 429.7589,429.7589 594.2635,386.3377 499.4513,499.4513" stroke="#7A5CFF" stroke-width="1.5" /><polygon fill="#0B1026" opacity="0.35" points="627.4577,371.429 800.0,276.4 972.5423,371.429 800.0,374.96" stroke="#7A5CFF" stroke-width="1.5" /><polygon fill="#FF2E88" opacity="0.35" points="1033.3882,401.2846 1170.2411,429.7589 1198.7154,566.6118 1100.5487,499.4513" stroke="#7A5CFF" stroke-width="1.5" /><circle cx="800.0" cy="800.0" fill="none" opacity="0.82" r="560.0" stroke="#0B1026" stroke-width="2" /><polygon fill="#0B1026" opacity="0.35" points="1301.0842,668.704 1379.6,800.0 1301.0842,931.296 1276.56,800.0" stroke="#0B1026" stroke-width="1.5" /><polygon fill="#FF2E88" opacity="0.35" points="1251.365,1054.1527 1209.8391,1209.8391 1054.1527,1251.365 1136.9788,1136.9788" stroke="#0B1026" stroke-width="1.5" /><polygon fill="#FFB000" opacity="0.35" points="993.7537,1280.3993 800.0,1379.6 606.2463,1280.3993 800.0,1276.56" stroke="#0B1026" stroke-width="1.5" /><polygon fill="#19D3FF" opacity="0.35" points="525.7693,1239.4559 390.1609,1209.8391 360.5441,1074.2307 463.0212,1136.9788" stroke="#0B1026" stroke-width="1.5" /><polygon fill="#7A5CFF" opacity="0.35" points="306.6863,958.0049 220.4,800.0 306.6863,641.9951 323.44,800.0" stroke="#0B1026" stroke-width="1.5" /><polygon fill="#0B1026" opacity="0.35" points="360.7727,525.4032 390.1609,390.1609 525.4032,360.7727 463.0212,463.0212" stroke="#0B1026" stroke-width="1.5" /><polygon fill="#FF2E88" opacity="0.35" points="683.9127,295.1755 800.0,220.4 916.0873,295.1755 800.0,323.44" stroke="#0B1026" stroke-width="1.5" /><polygon fill="#FFB000" opacity="0.35" points="1075.0008,361.0256 1209.8391,390.1609 1238.9744,524.9992 1136.9788,463.0212" stroke="#0B1026" stroke-width="1.5" /><circle cx="800.0" cy="800.0" fill="none" opacity="0.82" r="616.0" stroke="#FF2E88" stroke-width="2" /><polygon fill="#FF2E88" opacity="0.35" points="1358.8591,669.0326 1435.6,800.0 1358.8591,930.9674 1328.08,800.0" stroke="#FF2E88" stroke-width="1.5" /><polygon fill="#FFB000" opacity="0.35" points="1306.6861,1069.7131 1249.4371,1249.4371 1069.7131,1306.6861 1173.4089,1173.4089" stroke="#FF2E88" stroke-width="1.5" /><polygon fill="#19D3FF" opacity="0.35" points="975.8571,1346.3975 800.0,1435.6 624.1429,1346.3975 800.0,1328.08" stroke="#FF2E88" stroke-width="1.5" /><polygon fill="#7A5CFF" opacity="0.35" points="576.7855,1328.8207 350.5629,1249.4371 271.1793,1023.2145 426.5911,1173.4089" stroke="#FF2E88" stroke-width="1.5" /><polygon fill="#0B1026" opacity="0.35" points="250.714,966.6159 164.4,800.0 250.714,633.3841 271.92,800.0" stroke="#FF2E88" stroke-width="1.5" /><polygon fill="#FF2E88" opacity="0.35" points="291.4122,533.8901 350.5629,350.5629 533.8901,291.4122 426.5911,426.5911" stroke="#FF2E88" stroke-width="1.5" /><polygon fill="#FFB000" opacity="0.35" points="647.3367,246.6738 800.0,164.4 952.6633,246.6738 800.0,271.92" stroke="#FF2E88" stroke-width="1.5" /><polygon fill="#19D3FF" opacity="0.35" points="1106.2426,314.5193 1249.4371,350.5629 1285.4807,493.7574 1173.4089,426.5911" stroke="#FF2E88" stroke-width="1.5" /><circle cx="800.0" cy="800.0" fill="none" opacity="0.82" r="672.0" stroke="#FFB000" stroke-width="2" /><polygon fill="#FFB000" opacity="0.35" points="1406.5971,629.8826 1491.6,800.0 1406.5971,970.1174 1379.6,800.0" stroke="#FFB000" stroke-width="1.5" /><polygon fill="#19D3FF" opacity="0.35" points="1368.083,1072.3633 1289.035,1289.035 1072.3633,1368.083 1209.8391,1209.8391" stroke="#FFB000" stroke-width="1.5" /><polygon fill="#7A5CFF" opacity="0.35" points="1025.8209,1388.1368 800.0,1491.6 574.1791,1388.1368 800.0,1379.6" stroke="#FFB000" stroke-width="1.5" /><polygon fill="#0B1026" opacity="0.35" points="464.5594,1333.2725 310.965,1289.035 266.7275,1135.4406 390.1609,1209.8391" stroke="#FFB000" stroke-width="1.5" /><polygon fill="#FF2E88" opacity="0.35" points="214.7457,1033.1895 108.4,800.0 214.7457,566.8105 220.4,800.0" stroke="#FFB000" stroke-width="1.5" /><polygon fill="#FFB000" opacity="0.35" points="233.4536,524.4548 310.965,310.965 524.4548,233.4536 390.1609,390.1609" stroke="#FFB000" stroke-width="1.5" /><polygon fill="#19D3FF" opacity="0.35" points="642.3141,190.0532 800.0,108.4 957.6859,190.0532 800.0,220.4" stroke="#FFB000" stroke-width="1.5" /><polygon fill="#7A5CFF" opacity="0.35" points="1077.5955,234.4554 1289.035,310.965 1365.5446,522.4045 1209.8391,390.1609" stroke="#FFB000" stroke-width="1.5" /><circle cx="912.0" cy="800.0" fill="#7A5CFF" r="7" /><circle cx="1024.0" cy="800.0" fill="#7A5CFF" r="9" /><circle cx="1136.0" cy="800.0" fill="#7A5CFF" r="11" /><circle cx="1248.0" cy="800.0" fill="#7A5CFF" r="13" /><circle cx="1360.0" cy="800.0" fill="#7A5CFF" r="15" /><circle cx="903.4745" cy="842.8605" fill="#7A5CFF" r="7" /><circle cx="1006.949" cy="885.7211" fill="#7A5CFF" r="9" /><circle cx="1110.4235" cy="928.5816" fill="#7A5CFF" r="11" /><circle cx="1213.898" cy="971.4422" fill="#7A5CFF" r="13" /><circle cx="1317.3725" cy="1014.3027" fill="#7A5CFF" r="15" /><circle cx="879.196" cy="879.196" fill="#7A5CFF" r="7" /><circle cx="958.3919" cy="958.3919" fill="#7A5CFF" r="9" /><circle cx="1037.5879" cy="1037.5879" fill="#7A5CFF" r="11" /><circle cx="1116.7838" cy="1116.7838" fill="#7A5CFF" r="13" /><circle cx="1195.9798" cy="1195.9798" fill="#7A5CFF" r="15" /><circle cx="842.8605" cy="903.4745" fill="#7A5CFF" r="7" /><circle cx="885.7211" cy="1006.949" fill="#7A5CFF" r="9" /><circle cx="928.5816" cy="1110.4235" fill="#7A5CFF" r="11" /><circle cx="971.4422" cy="1213.898" fill="#7A5CFF" r="13" /><circle cx="1014.3027" cy="1317.3725" fill="#7A5CFF" r="15" /><circle cx="800.0" cy="912.0" fill="#7A5CFF" r="7" /><circle cx="800.0" cy="1024.0" fill="#7A5CFF" r="9" /><circle cx="800.0" cy="1136.0" fill="#7A5CFF" r="11" /><circle cx="800.0" cy="1248.0" fill="#7A5CFF" r="13" /><circle cx="800.0" cy="1360.0" fill="#7A5CFF" r="15" /><circle cx="757.1395" cy="903.4745" fill="#7A5CFF" r="7" /><circle cx="714.2789" cy="1006.949" fill="#7A5CFF" r="9" /><circle cx="671.4184" cy="1110.4235" fill="#7A5CFF" r="11" /><circle cx="628.5578" cy="1213.898" fill="#7A5CFF" r="13" /><circle cx="585.6973" cy="1317.3725" fill="#7A5CFF" r="15" /><circle cx="720.804" cy="879.196" fill="#7A5CFF" r="7" /><circle cx="641.6081" cy="958.3919" fill="#7A5CFF" r="9" /><circle cx="562.4121" cy="1037.5879" fill="#7A5CFF" r="11" /><circle cx="483.2162" cy="1116.7838" fill="#7A5CFF" r="13" /><circle cx="404.0202" cy="1195.9798" fill="#7A5CFF" r="15" /><circle cx="696.5255" cy="842.8605" fill="#7A5CFF" r="7" /><circle cx="593.051" cy="885.7211" fill="#7A5CFF" r="9" /><circle cx="489.5765" cy="928.5816" fill="#7A5CFF" r="11" /><circle cx="386.102" cy="971.4422" fill="#7A5CFF" r="13" /><circle cx="282.6275" cy="1014.3027" fill="#7A5CFF" r="15" /><circle cx="688.0" cy="800.0" fill="#7A5CFF" r="7" /><circle cx="576.0" cy="800.0" fill="#7A5CFF" r="9" /><circle cx="464.0" cy="800.0" fill="#7A5CFF" r="11" /><circle cx="352.0" cy="800.0" fill="#7A5CFF" r="13" /><circle cx="240.0" cy="800.0" fill="#7A5CFF" r="15" /><circle cx="696.5255" cy="757.1395" fill="#7A5CFF" r="7" /><circle cx="593.051" cy="714.2789" fill="#7A5CFF" r="9" /><circle cx="489.5765" cy="671.4184" fill="#7A5CFF" r="11" /><circle cx="386.102" cy="628.5578" fill="#7A5CFF" r="13" /><circle cx="282.6275" cy="585.6973" fill="#7A5CFF" r="15" /><circle cx="720.804" cy="720.804" fill="#7A5CFF" r="7" /><circle cx="641.6081" cy="641.6081" fill="#7A5CFF" r="9" /><circle cx="562.4121" cy="562.4121" fill="#7A5CFF" r="11" /><circle cx="483.2162" cy="483.2162" fill="#7A5CFF" r="13" /><circle cx="404.0202" cy="404.0202" fill="#7A5CFF" r="15" /><circle cx="757.1395" cy="696.5255" fill="#7A5CFF" r="7" /><circle cx="714.2789" cy="593.051" fill="#7A5CFF" r="9" /><circle cx="671.4184" cy="489.5765" fill="#7A5CFF" r="11" /><circle cx="628.5578" cy="386.102" fill="#7A5CFF" r="13" /><circle cx="585.6973" cy="282.6275" fill="#7A5CFF" r="15" /><circle cx="800.0" cy="688.0" fill="#7A5CFF" r="7" /><circle cx="800.0" cy="576.0" fill="#7A5CFF" r="9" /><circle cx="800.0" cy="464.0" fill="#7A5CFF" r="11" /><circle cx="800.0" cy="352.0" fill="#7A5CFF" r="13" /><circle cx="800.0" cy="240.0" fill="#7A5CFF" r="15" /><circle cx="842.8605" cy="696.5255" fill="#7A5CFF" r="7" /><circle cx="885.7211" cy="593.051" fill="#7A5CFF" r="9" /><circle cx="928.5816" cy="489.5765" fill="#7A5CFF" r="11" /><circle cx="971.4422" cy="386.102" fill="#7A5CFF" r="13" /><circle cx="1014.3027" cy="282.6275" fill="#7A5CFF" r="15" /><circle cx="879.196" cy="720.804" fill="#7A5CFF" r="7" /><circle cx="958.3919" cy="641.6081" fill="#7A5CFF" r="9" /><circle cx="1037.5879" cy="562.4121" fill="#7A5CFF" r="11" /><circle cx="1116.7838" cy="483.2162" fill="#7A5CFF" r="13" /><circle cx="1195.9798" cy="404.0202" fill="#7A5CFF" r="15" /><circle cx="903.4745" cy="757.1395" fill="#7A5CFF" r="7" /><circle cx="1006.949" cy="714.2789" fill="#7A5CFF" r="9" /><circle cx="1110.4235" cy="671.4184" fill="#7A5CFF" r="11" /><circle cx="1213.898" cy="628.5578" fill="#7A5CFF" r="13" /><circle cx="1317.3725" cy="585.6973" fill="#7A5CFF" r="15" /></svg>