<?xml version="1.0" encoding="utf-8" ?>
<svg baseProfile="tiny" height="1600" version="1.2" viewBox="0 0 1600 1600" width="1600" xmlns="http://www.w3.org/2000/svg" xmlns:ev="http://www.w3.org/2001/xml-events" xmlns:xlink="http://www.w3.org/1999/xlink"><defs /><rect fill="#0B1026" height="100%" width="100%" x="0" y="0" /><polygon fill="none" points="861.6796,1392.2223 754.2164,1436.7559 678.6545,1348.314 739.4178,1249.1203 852.5335,1276.2571" stroke="#0B1026" stroke-width="3" /><polygon fill="none" points="467.2251,396.2786 264.8624,391.5557 269.5852,189.193 471.948,193.9158" stroke="#FF2E88" stroke-width="3" /><circle cx="1016.1857" cy="907.8664" fill="none" opacity="0.9" r="37.6755" stroke="#FFB000" stroke-width="4" /><polygon fill="none" points="624.142,302.7591 525.0333,265.9833 606.4364,198.5405" stroke="#19D3FF" stroke-width="3" /><polygon fill="none" points="545.7069,1145.1894 486.6716,1254.2996 364.5579,1276.173 271.3199,1194.3385 277.1677,1070.4192 377.6978,997.7287 497.209,1031.0046" stroke="#7A5CFF" stroke-width="3" /><polygon fill="none" points="1250.0793,1076.5327 1186.8584,1106.9482 1128.9074,1067.405 1134.1773,997.4464 1197.3982,967.0309 1255.3492,1006.5741" stroke="#0B1026" stroke-width="3" /><circle cx="742.1306" cy="574.3909" fill="none" opacity="0.9" r="133.1292" stroke="#FF2E88" stroke-width="4" /><line opacity="0.9" stroke="#FFB000" stroke-width="6.792" x1="1396.0303" x2="1533.9623" y1="1241.7824" y2="1212.4777" /><rect fill="#19D3FF" height="113.5684" opacity="0.45" stroke="#7A5CFF" stroke-width="2" width="294.1936" x="1079.5566" y="235.4681" /><line opacity="0.9" stroke="#7A5CFF" stroke-width="7.3845" x1="22.5278" x2="256.5153" y1="165.2453" y2="63.6527" /><rect fill="#0B1026" height="78.3228" opacity="0.45" stroke="#7A5CFF" stroke-width="2" width="149.4783" x="688.5979" y="308.6684" /><circle cx="992.5564" cy="980.1315" fill="none" opacity="0.9" r="75.7463" stroke="#FF2E88" stroke-width="4" /><line opacity="0.9" stroke="#FFB000" stroke-width="3.3436" x1="614.8828" x2="779.6611" y1="847.2063" y2="823.7593" /><line opacity="0.9" stroke="#19D3FF" stroke-width="7.5996" x1="1080.2414" x2="1506.7575" y1="403.68" y2="274.661" /><line opacity="0.9" stroke="#7A5CFF" stroke-width="2.6786" x1="805.129" x2="1222.5605" y1="967.2869" y2="1141.013" /><rect fill="#0B1026" height="102.4149" opacity="0.45" stroke="#7A5CFF" stroke-width="2" width="74.2639" x="1135.7658" y="132.4778" /><line opacity="0.9" stroke="#FF2E88" stroke-width="5.4396" x1="365.355" x2="903.6202" y1="970.8035" y2="894.1359" /><polygon fill="none" points="1206.5163,1473.4084 1131.0118,1483.601 1075.9666,1430.9242 1082.8308,1355.0447 1146.4356,1313.1012 1218.8853,1336.6782 1245.6237,1408.0216" stroke="#FFB000" stroke-width="3" /><rect fill="#19D3FF" height="105.9895" opacity="0.45" stroke="#7A5CFF" stroke-width="2" width="194.0249" x="771.9195" y="132.4767" /><circle cx="233.494" cy="487.8942" fill="none" opacity="0.9" r="148.5156" stroke="#7A5CFF" stroke-width="4" /><rect fill="#0B1026" height="98.4957" opacity="0.45" stroke="#7A5CFF" stroke-width="2" width="224.7642" x="1100.4028" y="372.8883" /><line opacity="0.9" stroke="#FF2E88" stroke-width="4.4454" x1="260.8208" x2="697.8312" y1="1059.5518" y2="938.6224" /><rect fill="#FFB000" height="88.9723" opacity="0.45" stroke="#7A5CFF" stroke-width="2" width="118.4231" x="769.1376" y="507.2668" /><line opacity="0.9" stroke="#19D3FF" stroke-width="4.2858" x1="797.2939" x2="1195.8421" y1="131.2909" y2="202.6232" /><polygon fill="none" points="1264.497,1186.1171 1199.919,1201.4266 1147.6858,1160.4828 1147.1301,1094.1172 1198.6704,1052.3044 1263.4957,1066.5304 1292.7913,1126.0827" stroke="#7A5CFF" stroke-width="3" /><circle cx="1309.765" cy="269.5272" fill="none" opacity="0.9" r="117.8205" stroke="#0B1026" stroke-width="4" /><line opacity="0.9" stroke="#FF2E88" stroke-width="5.5514" x1="166.9449" x2="330.1997" y1="794.6783" y2="766.0837" /><polygon fill="none" points="935.589,1265.8691 891.5593,1292.3539 846.6079,1267.4654 845.6863,1216.0922 889.716,1189.6074 934.6673,1214.4958" stroke="#FFB000" stroke-width="3" /><line opacity="0.9" stroke="#19D3FF" stroke-width="6.1497" x1="72.3342" x2="649.0452" y1="363.5362" y2="562.4723" /><line opacity="0.9" stroke="#7A5CFF" stroke-width="7.3353" x1="1302.9235" x2="1640.215" y1="1373.6596" y2="1484.1506" /><line opacity="0.9" stroke="#0B1026" stroke-width="5.2884" x1="925.4873" x2="1405.9374" y1="1126.6941" y2="989.2749" /><rect fill="#FF2E88" height="152.8305" opacity="0.45" stroke="#7A5CFF" stroke-width="2" width="278.3369" x="606.5331" y="732.806" /><polygon fill="none" points="219.2257,913.286 114.9405,922.3959 54.9086,836.6372 99.1617,741.7687 203.4469,732.6588 263.4789,818.4175" stroke="#FFB000" stroke-width="3" /><circle cx="693.058" cy="675.8004" fill="none" opacity="0.9" r="56.7859" stroke="#19D3FF" stroke-width="4" /><circle cx="537.2966" cy="707.6825" fill="none" opacity="0.9" r="154.435" stroke="#7A5CFF" stroke-width="4" /><rect fill="#0B1026" height="173.7065" opacity="0.45" stroke="#7A5CFF" stroke-width="2" width="189.5228" x="125.4015" y="284.4574" /><polygon fill="none" points="1466.6088,214.8526 1369.2189,234.4074 1303.589,159.8428 1335.349,65.7233 1432.7388,46.1685 1498.3687,120.7331" stroke="#FF2E88" stroke-width="3" /><circle cx="456.8855" cy="593.6978" fill="none" opacity="0.9" r="118.6845" stroke="#FFB000" stroke-width="4" /><circle cx="1087.8077" cy="289.7829" fill="none" opacity="0.9" r="61.5905" stroke="#19D3FF" stroke-width="4" /><rect fill="#7A5CFF" height="142.921" opacity="0.45" stroke="#7A5CFF" stroke-width="2" width="195.673" x="608.3557" y="113.1525" /><rect fill="#0B1026" height="299.5161" opacity="0.45" stroke="#7A5CFF" stroke-width="2" width="243.2865" x="1099.0402" y="1092.2491" /><polygon fill="none" points="1485.8596,1081.408 1334.2815,1106.7678 1236.5302,988.1773 1290.357,844.227 1441.935,818.8671 1539.6863,937.4576" stroke="#FF2E88" stroke-width="3" /><line opacity="0.9" stroke="#FFB000" stroke-width="3.4406" x1="464.741" x2="957.0722" y1="1463.6773" y2="1309.8172" /><circle cx="1331.2887" cy="1117.9064" fill="none" opacity="0.9" r="146.5029" stroke="#19D3FF" stroke-width="4" /><line opacity="0.9" stroke="#7A5CFF" stroke-width="5.6794" x1="479.4153" x2="647.6226" y1="193.0372" y2="255.5806" /><line opacity="0.9" stroke="#0B1026" stroke-width="3.2432" x1="311.3589" x2="652.1276" y1="761.3904" y2="841.0006" /><polygon fill="none" points="841.1096,1155.6928 763.3936,1197.9278 681.9178,1163.5001 658.0351,1078.3344 709.7297,1006.5622 798.0745,1002.2295 856.5441,1068.5988" stroke="#FF2E88" stroke-width="3" /><rect fill="#FFB000" height="174.6168" opacity="0.45" stroke="#7A5CFF" stroke-width="2" width="223.8146" x="438.7285" y="593.4163" /></svg>