<?xml version="1.0" encoding="utf-8" ?>
<svg baseProfile="tiny" height="1600" version="1.2" viewBox="0 0 1600 1600" width="1600" xmlns="http://www.w3.org/2000/svg" xmlns:ev="http://www.w3.org/2001/xml-events" xmlns:xlink="http://www.w3.org/1999/xlink"><defs /><rect fill="#0B1026" height="100%" width="100%" x="0" y="0" /><rect fill="#FFB000" height="36.48" opacity="0.85" width="207.4341" x="696.283" y="576.0" /><rect fill="#FFB000" height="36.48" opacity="0.85" width="408.945" x="595.5275" y="636.8" /><rect fill="#FFB000" height="36.48" opacity="0.85" width="511.7323" x="544.1338" y="697.6" /><rect fill="#FFB000" height="36.48" opacity="0.85" width="571.7787" x="514.1107" y="758.4" /><rect fill="#FFB000" height="36.48" opacity="0.85" width="602.0121" x="498.9939" y="819.2" /><rect fill="#FFB000" height="36.48" opacity="0.85" width="606.9046" x="496.5477" y="880.0" /><rect fill="#FFB000" height="36.48" opacity="0.85" width="587.09" x="506.455" y="940.8" /><rect fill="#FFB000" height="36.48" opacity="0.85" width="539.8547" x="530.0726" y="1001.6" /><rect fill="#FFB000" height="36.48" opacity="0.85" width="456.7695" x="571.6153" y="1062.4" /><rect fill="#FFB000" height="36.48" opacity="0.85" width="310.2588" x="644.8706" y="1123.2" /><polyline fill="none" points="0,880.0 0.0,631.043 200.0,772.7438 400.0,638.034 600.0,618.3609 800.0,766.4754 1000.0,610.7215 1200.0,633.108 1400.0,705.9175 1600.0,712.1013 1600,880.0" stroke="#7A5CFF" stroke-width="5" /><line opacity="0.8" stroke="#19D3FF" stroke-width="2" x1="0" x2="1600" y1="882.7604" y2="882.7604" /><line opacity="0.8" stroke="#19D3FF" stroke-width="2" x1="0" x2="1600" y1="889.6123" y2="889.6123" /><line opacity="0.8" stroke="#19D3FF" stroke-width="2" x1="0" x2="1600" y1="899.943" y2="899.943" /><line opacity="0.8" stroke="#19D3FF" stroke-width="2" x1="0" x2="1600" y1="913.4718" y2="913.4718" /><line opacity="0.8" stroke="#19D3FF" stroke-width="2" x1="0" x2="1600" y1="930.017" y2="930.017" /><line opacity="0.8" stroke="#19D3FF" stroke-width="2" x1="0" x2="1600" y1="949.4455" y2="949.4455" /><line opacity="0.8" stroke="#19D3FF" stroke-width="2" x1="0" x2="1600" y1="971.6533" y2="971.6533" /><line opacity="0.8" stroke="#19D3FF" stroke-width="2" x1="0" x2="1600" y1="996.5557" y2="996.5557" /><line opacity="0.8" stroke="#19D3FF" stroke-width="2" x1="0" x2="1600" y1="1024.0815" y2="1024.0815" /><line opacity="0.8" stroke="#19D3FF" stroke-width="2" x1="0" x2="1600" y1="1054.1693" y2="1054.1693" /><line opacity="0.8" stroke="#19D3FF" stroke-width="2" x1="0" x2="1600" y1="1086.7657" y2="1086.7657" /><line opacity="0.8" stroke="#19D3FF" stroke-width="2" x1="0" x2="1600" y1="1121.8232" y2="1121.8232" /><line opacity="0.8" stroke="#19D3FF" stroke-width="2" x1="0" x2="1600" y1="1159.2992" y2="1159.2992" /><line opacity="0.8" stroke="#19D3FF" stroke-width="2" x1="0" x2="1600" y1="1199.1554" y2="1199.1554" /><line opacity="0.8" stroke="#19D3FF" stroke-width="2" x1="0" x2="1600" y1="1241.3566" y2="1241.3566" /><line opacity="0.8" stroke="#19D3FF" stroke-width="2" x1="0" x2="1600" y1="1285.8706" y2="1285.8706" /><line opacity="0.8" stroke="#19D3FF" stroke-width="2" x1="0" x2="1600" y1="1332.6679" y2="1332.6679" /><line opacity="0.8" stroke="#19D3FF" stroke-width="2" x1="0" x2="1600" y1="1381.7209" y2="1381.7209" /><line opacity="0.8" stroke="#19D3FF" stroke-width="2" x1="0" x2="1600" y1="1433.0038" y2="1433.0038" /><line opacity="0.8" stroke="#19D3FF" stroke-width="2" x1="0" x2="1600" y1="1486.4928" y2="1486.4928" /><line opacity="0.8" stroke="#19D3FF" stroke-width="2" x1="0" x2="1600" y1="1542.1653" y2="1542.1653" /><line opacity="0.8" stroke="#19D3FF" stroke-width="2" x1="800.0" x2="-800.0" y1="880.0" y2="1600" /><line opacity="0.8" stroke="#19D3FF" stroke-width="2" x1="800.0" x2="-666.6667" y1="880.0" y2="1600" /><line opacity="0.8" stroke="#19D3FF" stroke-width="2" x1="800.0" x2="-533.3333" y1="880.0" y2="1600" /><line opacity="0.8" stroke="#19D3FF" stroke-width="2" x1="800.0" x2="-400.0" y1="880.0" y2="1600" /><line opacity="0.8" stroke="#19D3FF" stroke-width="2" x1="800.0" x2="-266.6667" y1="880.0" y2="1600" /><line opacity="0.8" stroke="#19D3FF" stroke-width="2" x1="800.0" x2="-133.3333" y1="880.0" y2="1600" /><line opacity="0.8" stroke="#19D3FF" stroke-width="2" x1="800.0" x2="0.0" y1="880.0" y2="1600" /><line opacity="0.8" stroke="#19D3FF" stroke-width="2" x1="800.0" x2="133.3333" y1="880.0" y2="1600" /><line opacity="0.8" stroke="#19D3FF" stroke-width="2" x1="800.0" x2="266.6667" y1="880.0" y2="1600" /><line opacity="0.8" stroke="#19D3FF" stroke-width="2" x1="800.0" x2="400.0" y1="880.0" y2="1600" /><line opacity="0.8" stroke="#19D3FF" stroke-width="2" x1="800.0" x2="533.3333" y1="880.0" y2="1600" /><line opacity="0.8" stroke="#19D3FF" stroke-width="2" x1="800.0" x2="666.6667" y1="880.0" y2="1600" /><line opacity="0.8" stroke="#19D3FF" stroke-width="2" x1="800.0" x2="800.0" y1="880.0" y2="1600" /><line opacity="0.8" stroke="#19D3FF" stroke-width="2" x1="800.0" x2="933.3333" y1="880.0" y2="1600" /><line opacity="0.8" stroke="#19D3FF" stroke-width="2" x1="800.0" x2="1066.6667" y1="880.0" y2="1600" /><line opacity="0.8" stroke="#19D3FF" stroke-width="2" x1="800.0" x2="1200.0" y1="880.0" y2="1600" /><line opacity="0.8" stroke="#19D3FF" stroke-width="2" x1="800.0" x2="1333.3333" y1="880.0" y2="1600" /><line opacity="0.8" stroke="#19D3FF" stroke-width="2" x1="800.0" x2="1466.6667" y1="880.0" y2="1600" /><line opacity="0.8" stroke="#19D3FF" stroke-width="2" x1="800.0" x2="1600.0" y1="880.0" y2="1600" /><line opacity="0.8" stroke="#19D3FF" stroke-width="2" x1="800.0" x2="1733.3333" y1="880.0" y2="1600" /><line opacity="0.8" stroke="#19D3FF" stroke-width="2" x1="800.0" x2="1866.6667" y1="880.0" y2="1600" /><line opacity="0.8" stroke="#19D3FF" stroke-width="2" x1="800.0" x2="2000.0" y1="880.0" y2="1600" /><line opacity="0.8" stroke="#19D3FF" stroke-width="2" x1="800.0" x2="2133.3333" y1="880.0" y2="1600" /><line opacity="0.8" stroke="#19D3FF" stroke-width="2" x1="800.0" x2="2266.6667" y1="880.0" y2="1600" /><line opacity="0.8" stroke="#19D3FF" stroke-width="2" x1="800.0" x2="2400.0" y1="880.0" y2="1600" /><polyline fill="none" opacity="0.65" points="400.4995,693.7099 418.256,659.6 438.9178,627.1675 462.3276,596.6592 488.3073,568.3073 516.6592,542.3276 547.1675,518.9178 579.6,498.256 613.7099,480.4995 649.2375,465.7835 685.9126,454.2199 723.4559,445.8967 761.5817,440.8774 800.0,439.2 838.4183,440.8774 876.5441,445.8967 914.0874,454.2199 950.7625,465.7835 986.2901,480.4995 1020.4,498.256 1052.8325,518.9178 1083.3408,542.3276 1111.6927,568.3073 1137.6724,596.6592 1161.0822,627.1675 1181.744,659.6 1199.5005,693.7099" stroke="#FF2E88" stroke-width="2" /><polyline fill="none" opacity="0.65" points="331.6201,661.5909 352.4381,621.6 376.6622,583.5757 404.1082,547.8074 434.5672,514.5672 467.8074,484.1082 503.5757,456.6622 541.6,432.4381 581.5909,411.6201 623.244,394.3669 666.2423,380.8095 710.2586,371.0514 754.9579,365.1666 800.0,363.2 845.0421,365.1666 889.7414,371.0514 933.7577,380.8095 976.756,394.3669 1018.4091,411.6201 1058.4,432.4381 1096.4243,456.6622 1132.1926,484.1082 1165.4328,514.5672 1195.8918,547.8074 1223.3378,583.5757 1247.5619,621.6 1268.3799,661.5909" stroke="#FF2E88" stroke-width="2" /><polyline fill="none" opacity="0.65" points="248.9649,623.0481 273.4566,576.0 301.9556,531.2655 334.245,489.1851 370.0791,450.0791 409.1851,414.245 451.2655,381.9556 496.0,353.4566 543.0481,328.9649 592.0518,308.6669 642.638,292.7171 694.4219,281.2369 747.0093,274.3136 800.0,272.0 852.9907,274.3136 905.5781,281.2369 957.362,292.7171 1007.9482,308.6669 1056.9519,328.9649 1104.0,353.4566 1148.7345,381.9556 1190.8149,414.245 1229.9209,450.0791 1265.755,489.1851 1298.0444,531.2655 1326.5434,576.0 1351.0351,623.0481" stroke="#FF2E88" stroke-width="2" /></svg>