<?xml version="1.0" encoding="utf-8" ?>
<svg baseProfile="tiny" height="1600" version="1.2" viewBox="0 0 1600 1600" width="1600" xmlns="http://www.w3.org/2000/svg" xmlns:ev="http://www.w3.org/2001/xml-events" xmlns:xlink="http://www.w3.org/1999/xlink"><defs /><rect fill="#0B1026" height="100%" width="100%" x="0" y="0" /><polygon fill="#FF2E88" opacity="0.55" points="93.1086,502.2007 90.6452,500.209 92.1008,499.7215 90.8739,509.298 88.4615,505.4639 88.0724,507.8885 81.4169,503.8288 87.5762,503.8679" stroke="#7A5CFF" stroke-width="2" /><polygon fill="#FFB000" opacity="0.55" points="278.54,740.2496 248.284,739.3208 242.6906,705.9962 257.274,684.3357 280.0533,689.8646 314.4446,707.9006 302.3699,738.1167" stroke="#7A5CFF" stroke-width="2" /><polygon fill="#19D3FF" opacity="0.55" points="220.4599,791.3452 336.3496,782.3758 377.4884,884.789 331.4817,958.4305 243.2169,988.638 163.2334,897.4936" stroke="#7A5CFF" stroke-width="2" /><polygon fill="#7A5CFF" opacity="0.55" points="604.2322,1223.5777 591.0625,1180.1857 634.135,1150.4112 672.2707,1196.2087 645.2896,1242.2125" stroke="#7A5CFF" stroke-width="2" /><polygon fill="#0B1026" opacity="0.55" points="952.1057,1398.4083 993.7451,1420.5806 1009.5218,1444.3541 1023.0467,1502.8984 963.3822,1526.8884 925.4026,1493.7647 907.4046,1432.9109" stroke="#7A5CFF" stroke-width="2" /><polygon fill="#FF2E88" opacity="0.55" points="1257.6968,1159.0774 1182.6871,1095.0267 1178.9022,1012.9043 1216.7429,945.888 1292.846,929.0476 1390.249,943.719 1367.7055,1040.8976 1344.8415,1107.0834" stroke="#7A5CFF" stroke-width="2" /><polygon fill="#FFB000" opacity="0.55" points="242.6815,302.8902 138.7229,265.3916 165.7114,150.3623 250.8819,84.1106 349.9394,139.2559 383.1091,228.4637 317.4843,297.9451" stroke="#7A5CFF" stroke-width="2" /><polygon fill="#19D3FF" opacity="0.55" points="868.9784,710.407 914.8682,713.7725 937.4253,745.8246 947.594,790.4661 903.2498,806.9711 865.1319,817.8072 834.8444,786.3231 841.845,754.1819" stroke="#7A5CFF" stroke-width="2" /><polygon fill="#7A5CFF" opacity="0.55" points="491.744,569.0265 533.7657,595.2359 515.9866,645.8467 490.2376,668.9591 452.6127,667.9599 434.4583,622.8646 441.435,591.0882" stroke="#7A5CFF" stroke-width="2" /><polygon fill="#0B1026" opacity="0.55" points="1224.5515,847.3764 1258.8675,833.4644 1284.5501,849.8776 1314.2801,877.8841 1299.9818,911.8993 1265.8697,930.6084 1233.6386,919.3071 1225.1272,880.082" stroke="#7A5CFF" stroke-width="2" /><polygon fill="#FF2E88" opacity="0.55" points="1017.679,830.1434 1027.5414,861.0647 994.27,878.0655 981.6713,859.219 986.3847,828.7107" stroke="#7A5CFF" stroke-width="2" /><polygon fill="#FFB000" opacity="0.55" points="390.9441,608.6387 364.9036,609.3723 349.8696,583.9574 375.3006,563.3994 395.8824,548.8799 413.9401,560.7337 427.8071,572.6131 423.3041,597.5485" stroke="#7A5CFF" stroke-width="2" /><polygon fill="#19D3FF" opacity="0.55" points="130.4069,203.8516 69.3837,166.4135 59.8088,89.7993 93.2078,20.8767 160.8011,16.8074 255.1923,24.9753 273.5276,121.2696 199.9668,171.8457" stroke="#7A5CFF" stroke-width="2" /><polygon fill="#7A5CFF" opacity="0.55" points="872.4723,1108.7774 833.0659,1168.4864 750.737,1225.8268 702.2403,1142.926 699.7518,1057.1292 765.6143,994.4978 857.3617,1026.0827" stroke="#7A5CFF" stroke-width="2" /><polygon fill="#0B1026" opacity="0.55" points="476.3673,850.4391 525.6216,789.3319 585.4615,808.2256 638.5348,861.8115 578.4748,915.5423 505.7947,911.3253" stroke="#7A5CFF" stroke-width="2" /><polygon fill="#FF2E88" opacity="0.55" points="1493.9786,1437.1113 1471.0055,1443.2477 1434.9703,1445.8235 1424.7423,1418.1754 1430.6328,1384.4211 1471.3791,1390.0506 1498.5645,1393.2872" stroke="#7A5CFF" stroke-width="2" /><polygon fill="#FFB000" opacity="0.55" points="1091.4292,1437.4716 1145.4363,1348.3282 1251.5413,1327.5754 1295.3915,1424.4707 1254.1297,1508.5044 1149.087,1517.1941" stroke="#7A5CFF" stroke-width="2" /><polygon fill="#19D3FF" opacity="0.55" points="1135.0938,1201.2254 1205.5825,1248.2266 1275.2325,1300.0228 1207.5363,1354.3935 1138.5113,1412.8565 1065.8228,1350.8444 1083.6148,1259.9165" stroke="#7A5CFF" stroke-width="2" /><polygon fill="#7A5CFF" opacity="0.55" points="1705.4562,644.1678 1431.1536,648.6305 1283.5354,450.2315 1470.0152,304.9348 1728.7846,338.1369" stroke="#7A5CFF" stroke-width="2" /><polygon fill="#0B1026" opacity="0.55" points="1202.6017,399.0325 1189.1427,408.2031 1162.1733,408.4591 1173.1572,388.8607 1175.0411,377.5682 1197.5242,372.8662 1202.8986,393.3663" stroke="#7A5CFF" stroke-width="2" /><polygon fill="#FF2E88" opacity="0.55" points="1144.5091,362.1991 1170.5261,363.9966 1181.4408,391.9952 1160.414,404.2665 1142.4674,389.7094" stroke="#7A5CFF" stroke-width="2" /><polygon fill="#FFB000" opacity="0.55" points="757.3925,815.4535 806.8823,773.3647 849.8895,805.9981 857.6013,870.2593 804.132,898.6843 757.2511,866.2687" stroke="#7A5CFF" stroke-width="2" /><polygon fill="#19D3FF" opacity="0.55" points="666.45,1426.1538 679.8481,1453.3083 654.0752,1470.0057 638.487,1478.1352 623.4641,1465.3713 605.0032,1439.4356 617.3293,1415.5846 649.9362,1428.2602" stroke="#7A5CFF" stroke-width="2" /><polygon fill="#7A5CFF" opacity="0.55" points="207.4813,723.0499 227.1248,736.4569 237.1216,752.3115 223.6237,765.3113 204.296,759.0375 194.1059,739.0599" stroke="#7A5CFF" stroke-width="2" /><polygon fill="#0B1026" opacity="0.55" points="134.5607,375.1981 53.7652,352.6365 33.84,276.5947 78.2466,212.8536 151.9374,191.9858 217.1309,231.1346 230.7905,309.4363 201.0899,366.7846" stroke="#7A5CFF" stroke-width="2" /><polygon fill="#FF2E88" opacity="0.55" points="1195.5475,871.1229 1218.2032,859.9921 1238.8168,885.8304 1216.4573,909.1258 1189.0441,899.5936" stroke="#7A5CFF" stroke-width="2" /><polygon fill="#FFB000" opacity="0.55" points="1094.7438,837.5844 1092.7523,866.5118 1055.6526,873.0823 1033.1913,871.0977 1020.5889,852.9198 1015.8202,815.5465 1040.5297,795.9234 1077.4254,803.6865" stroke="#7A5CFF" stroke-width="2" /><polygon fill="#19D3FF" opacity="0.55" points="736.118,429.1026 691.2617,426.4413 677.6346,400.3048 692.525,363.2678 715.6679,356.3249 746.4254,372.6312 762.88,401.1785" stroke="#7A5CFF" stroke-width="2" /><polygon fill="#7A5CFF" opacity="0.55" points="361.1382,621.7104 382.2539,586.8441 420.1961,601.3507 429.6623,631.1021 399.3033,651.0501 373.0807,653.1296" stroke="#7A5CFF" stroke-width="2" /><polygon fill="#0B1026" opacity="0.55" points="1243.2969,163.6358 1237.4445,182.4918 1220.5772,194.0832 1212.0186,179.1401 1204.9629,156.4412 1226.7775,143.5816" stroke="#7A5CFF" stroke-width="2" /><polygon fill="#FF2E88" opacity="0.55" points="410.3665,1150.6255 445.9947,1336.7131 376.3284,1470.6993 200.4553,1506.0331 94.1823,1339.2524 215.8172,1198.2449" stroke="#7A5CFF" stroke-width="2" /><polygon fill="#FFB000" opacity="0.55" points="1459.1859,1450.3288 1448.3737,1475.9021 1429.7921,1494.4708 1395.1003,1486.8443 1379.2508,1467.3148 1383.5561,1435.7953 1407.6937,1415.5692 1437.6806,1426.8535" stroke="#7A5CFF" stroke-width="2" /><polygon fill="#19D3FF" opacity="0.55" points="1210.2279,110.4863 1240.1493,104.8664 1253.2531,139.2492 1239.8373,160.2631 1202.14,142.9721" stroke="#7A5CFF" stroke-width="2" /><polygon fill="#7A5CFF" opacity="0.55" points="931.5895,1424.0841 892.9898,1386.529 913.904,1335.3358 954.0396,1313.0448 1012.6521,1332.1546 1016.6394,1382.5885 993.0518,1436.1108" stroke="#7A5CFF" stroke-width="2" /><polygon fill="#0B1026" opacity="0.55" points="495.5511,146.1335 640.9192,146.3593 705.345,272.8133 632.6715,389.8821 515.5,370.7902 445.3714,272.8359" stroke="#7A5CFF" stroke-width="2" /><polygon fill="#FF2E88" opacity="0.55" points="679.3623,1448.2954 714.7269,1463.7529 705.087,1490.8086 690.8033,1523.4591 657.3286,1516.2994 636.0954,1490.5283 652.9293,1466.6019" stroke="#7A5CFF" stroke-width="2" /><polygon fill="#FFB000" opacity="0.55" points="174.2499,680.2031 193.1771,721.1962 166.8042,754.9727 135.1025,773.4352 114.631,749.5427 97.4051,721.8791 90.4804,688.3408 135.5373,683.6396" stroke="#7A5CFF" stroke-width="2" /><polygon fill="#19D3FF" opacity="0.55" points="1381.6848,1346.1022 1347.2394,1384.1736 1302.6369,1394.4656 1269.7398,1357.2592 1260.4903,1299.248 1315.4241,1299.5987 1361.8703,1303.1999" stroke="#7A5CFF" stroke-width="2" /><polygon fill="#7A5CFF" opacity="0.55" points="1146.3742,821.5254 1166.5183,835.4834 1192.7687,862.2969 1176.8563,894.9087 1140.5204,897.2786 1121.5129,876.3588 1107.6831,859.0116 1112.9626,827.3321" stroke="#7A5CFF" stroke-width="2" /><polygon fill="#0B1026" opacity="0.55" points="209.4714,744.0166 206.8052,717.6687 229.7284,698.6227 247.1239,721.301 233.8804,741.9776" stroke="#7A5CFF" stroke-width="2" /><polygon fill="#FF2E88" opacity="0.55" points="819.3549,149.4745 918.7835,171.3858 892.0875,262.4987 810.2121,309.8905 782.8982,224.1327" stroke="#7A5CFF" stroke-width="2" /><polygon fill="#FFB000" opacity="0.55" points="519.8923,1519.6305 502.7157,1467.7084 544.7336,1430.6973 585.7965,1444.8645 604.9345,1485.312 568.6469,1515.4507" stroke="#7A5CFF" stroke-width="2" /><polygon fill="#19D3FF" opacity="0.55" points="774.9899,409.6278 853.6538,404.0459 931.1197,438.8907 938.519,521.7796 862.4573,573.4331 779.2737,569.9071 758.5143,488.3275" stroke="#7A5CFF" stroke-width="2" /><polygon fill="#7A5CFF" opacity="0.55" points="889.0108,1312.6196 867.4986,1245.2482 938.5544,1217.2476 1006.8551,1249.5674 981.8206,1313.9458 940.4375,1344.6923" stroke="#7A5CFF" stroke-width="2" /><polygon fill="#0B1026" opacity="0.55" points="741.2943,392.3208 737.6318,372.6096 751.2454,348.5656 768.446,348.8324 783.656,355.7196 798.1803,375.2777 786.6955,384.8671 767.1787,388.5612" stroke="#7A5CFF" stroke-width="2" /><polygon fill="#FF2E88" opacity="0.55" points="1215.0605,176.6146 1229.3682,204.821 1218.7405,230.218 1189.9215,237.0575 1178.203,215.5152 1188.0504,186.0866" stroke="#7A5CFF" stroke-width="2" /><polygon fill="#FFB000" opacity="0.55" points="911.1873,983.5576 871.9897,962.7588 850.8453,907.4207 905.0255,856.8656 958.822,886.0635 983.2368,930.629 970.8877,976.6474" stroke="#7A5CFF" stroke-width="2" /><polygon fill="#19D3FF" opacity="0.55" points="857.021,276.6778 938.0804,241.6527 1007.7648,311.4071 988.4714,397.8093 910.8216,445.7274 839.758,401.8451 795.695,330.2487" stroke="#7A5CFF" stroke-width="2" /><polygon fill="#7A5CFF" opacity="0.55" points="1028.613,909.4064 1041.0329,883.538 1067.1163,863.9675 1094.7438,882.3437 1107.2811,912.6643 1080.2235,938.7863 1047.437,939.0693" stroke="#7A5CFF" stroke-width="2" /><polygon fill="#0B1026" opacity="0.55" points="1180.9932,888.8326 1189.9866,899.2253 1204.8226,920.6229 1186.1119,940.4224 1163.741,935.0013 1156.4197,921.4209 1154.7238,903.2642 1169.27,895.523" stroke="#7A5CFF" stroke-width="2" /><polygon fill="#FF2E88" opacity="0.55" points="650.5472,1111.0218 684.756,1115.2934 691.9913,1141.7343 684.5487,1175.4899 653.8797,1187.3792 620.4692,1185.3926 605.4405,1148.27 627.2077,1123.6795" stroke="#7A5CFF" stroke-width="2" /><polygon fill="#FFB000" opacity="0.55" points="617.1224,432.0433 647.8039,493.9385 597.3691,552.1184 525.478,549.5175 477.8165,511.1979 453.2389,446.7066 493.4689,385.3739 568.1035,382.8187" stroke="#7A5CFF" stroke-width="2" /><polygon fill="#19D3FF" opacity="0.55" points="970.5637,1143.6124 976.1616,1217.6745 932.7123,1251.2288 890.4972,1219.2821 907.9265,1161.4036" stroke="#7A5CFF" stroke-width="2" /><polygon fill="#7A5CFF" opacity="0.55" points="1309.5861,182.0233 1311.6537,208.5898 1299.9629,239.391 1271.3222,240.6338 1249.6788,230.9986 1243.2946,199.0324 1251.1014,164.7607 1292.9335,159.1004" stroke="#7A5CFF" stroke-width="2" /><polygon fill="#0B1026" opacity="0.55" points="1267.9137,1224.2383 1323.509,1228.068 1332.2235,1286.9197 1273.0739,1313.8791 1233.9542,1265.6987" stroke="#7A5CFF" stroke-width="2" /><polygon fill="#FF2E88" opacity="0.55" points="1578.7678,822.1697 1459.1439,884.3812 1350.8749,808.7324 1356.6041,670.0249 1485.4345,614.8246 1626.1476,677.5088" stroke="#7A5CFF" stroke-width="2" /><polygon fill="#FFB000" opacity="0.55" points="661.561,1027.3227 589.3784,1023.7602 540.574,993.8788 536.7055,922.6404 590.4838,871.4739 655.684,900.4042 696.656,961.4233" stroke="#7A5CFF" stroke-width="2" /><polygon fill="#19D3FF" opacity="0.55" points="1545.6487,1463.2246 1537.2752,1516.8033 1506.4143,1556.1045 1457.8221,1533.3984 1421.1359,1492.8081 1452.8254,1445.6139 1498.5487,1447.3246" stroke="#7A5CFF" stroke-width="2" /><polygon fill="#7A5CFF" opacity="0.55" points="925.9424,803.4067 947.5038,867.9365 897.3822,915.9759 855.8715,862.5504 869.6313,810.1725" stroke="#7A5CFF" stroke-width="2" /><polygon fill="#0B1026" opacity="0.55" points="93.9961,518.214 99.2825,516.0006 90.7304,510.9 92.7029,503.1489 103.4709,499.0825 102.0041,505.7537 102.7013,511.7066 101.6118,513.5521" stroke="#7A5CFF" stroke-width="2" /></svg>