<?xml version="1.0" encoding="utf-8" ?>
<svg baseProfile="tiny" height="1600" version="1.2" viewBox="0 0 2400 1600" width="2400" xmlns="http://www.w3.org/2000/svg" xmlns:ev="http://www.w3.org/2001/xml-events" xmlns:xlink="http://www.w3.org/1999/xlink"><defs /><rect fill="#0B1026" height="100%" width="100%" x="0" y="0" /><rect fill="#FFB000" height="36.48" opacity="0.85" width="207.4341" x="1096.283" y="591.2" /><rect fill="#FFB000" height="36.48" opacity="0.85" width="408.945" x="995.5275" y="652.0" /><rect fill="#FFB000" height="36.48" opacity="0.85" width="511.7323" x="944.1338" y="712.8" /><rect fill="#FFB000" height="36.48" opacity="0.85" width="571.7787" x="914.1107" y="773.6" /><rect fill="#FFB000" height="36.48" opacity="0.85" width="602.0121" x="898.9939" y="834.4" /><polyline fill="none" points="0,880.0 0.0,634.7475 300.0,655.3935 600.0,764.9652 900.0,716.2297 1200.0,694.1617 1500.0,681.3407 1800.0,596.1647 2100.0,758.9795 2400.0,655.1213 2400,880.0" stroke="#7A5CFF" stroke-width="5" /><line opacity="0.8" stroke="#19D3FF" stroke-width="2" x1="0" x2="2400" y1="882.7604" y2="882.7604" /><line opacity="0.8" stroke="#19D3FF" stroke-width="2" x1="0" x2="2400" y1="889.6123" y2="889.6123" /><line opacity="0.8" stroke="#19D3FF" stroke-width="2" x1="0" x2="2400" y1="899.943" y2="899.943" /><line opacity="0.8" stroke="#19D3FF" stroke-width="2" x1="0" x2="2400" y1="913.4718" y2="913.4718" /><line opacity="0.8" stroke="#19D3FF" stroke-width="2" x1="0" x2="2400" y1="930.017" y2="930.017" /><line opacity="0.8" stroke="#19D3FF" stroke-width="2" x1="0" x2="2400" y1="949.4455" y2="949.4455" /><line opacity="0.8" stroke="#19D3FF" stroke-width="2" x1="0" x2="2400" y1="971.6533" y2="971.6533" /><line opacity="0.8" stroke="#19D3FF" stroke-width="2" x1="0" x2="2400" y1="996.5557" y2="996.5557" /><line opacity="0.8" stroke="#19D3FF" stroke-width="2" x1="0" x2="2400" y1="1024.0815" y2="1024.0815" /><line opacity="0.8" stroke="#19D3FF" stroke-width="2" x1="0" x2="2400" y1="1054.1693" y2="1054.1693" /><line opacity="0.8" stroke="#19D3FF" stroke-width="2" x1="0" x2="2400" y1="1086.7657" y2="1086.7657" /><line opacity="0.8" stroke="#19D3FF" stroke-width="2" x1="0" x2="2400" y1="1121.8232" y2="1121.8232" /><line opacity="0.8" stroke="#19D3FF" stroke-width="2" x1="0" x2="2400" y1="1159.2992" y2="1159.2992" /><line opacity="0.8" stroke="#19D3FF" stroke-width="2" x1="0" x2="2400" y1="1199.1554" y2="1199.1554" /><line opacity="0.8" stroke="#19D3FF" stroke-width="2" x1="0" x2="2400" y1="1241.3566" y2="1241.3566" /><line opacity="0.8" stroke="#19D3FF" stroke-width="2" x1="0" x2="2400" y1="1285.8706" y2="1285.8706" /><line opacity="0.8" stroke="#19D3FF" stroke-width="2" x1="0" x2="2400" y1="1332.6679" y2="1332.6679" /><line opacity="0.8" stroke="#19D3FF" stroke-width="2" x1="0" x2="2400" y1="1381.7209" y2="1381.7209" /><line opacity="0.8" stroke="#19D3FF" stroke-width="2" x1="0" x2="2400" y1="1433.0038" y2="1433.0038" /><line opacity="0.8" stroke="#19D3FF" stroke-width="2" x1="0" x2="2400" y1="1486.4928" y2="1486.4928" /><line opacity="0.8" stroke="#19D3FF" stroke-width="2" x1="0" x2="2400" y1="1542.1653" y2="1542.1653" /><line opacity="0.8" stroke="#19D3FF" stroke-width="2" x1="1200.0" x2="-1200.0" y1="880.0" y2="1600" /><line opacity="0.8" stroke="#19D3FF" stroke-width="2" x1="1200.0" x2="-1000.0" y1="880.0" y2="1600" /><line opacity="0.8" stroke="#19D3FF" stroke-width="2" x1="1200.0" x2="-800.0" y1="880.0" y2="1600" /><line opacity="0.8" stroke="#19D3FF" stroke-width="2" x1="1200.0" x2="-600.0" y1="880.0" y2="1600" /><line opacity="0.8" stroke="#19D3FF" stroke-width="2" x1="1200.0" x2="-400.0" y1="880.0" y2="1600" /><line opacity="0.8" stroke="#19D3FF" stroke-width="2" x1="1200.0" x2="-200.0" y1="880.0" y2="1600" /><line opacity="0.8" stroke="#19D3FF" stroke-width="2" x1="1200.0" x2="0.0" y1="880.0" y2="1600" /><line opacity="0.8" stroke="#19D3FF" stroke-width="2" x1="1200.0" x2="200.0" y1="880.0" y2="1600" /><line opacity="0.8" stroke="#19D3FF" stroke-width="2" x1="1200.0" x2="400.0" y1="880.0" y2="1600" /><line opacity="0.8" stroke="#19D3FF" stroke-width="2" x1="1200.0" x2="600.0" y1="880.0" y2="1600" /><line opacity="0.8" stroke="#19D3FF" stroke-width="2" x1="1200.0" x2="800.0" y1="880.0" y2="1600" /><line opacity="0.8" stroke="#19D3FF" stroke-width="2" x1="1200.0" x2="1000.0" y1="880.0" y2="1600" /><line opacity="0.8" stroke="#19D3FF" stroke-width="2" x1="1200.0" x2="1200.0" y1="880.0" y2="1600" /><line opacity="0.8" stroke="#19D3FF" stroke-width="2" x1="1200.0" x2="1400.0" y1="880.0" y2="1600" /><line opacity="0.8" stroke="#19D3FF" stroke-width="2" x1="1200.0" x2="1600.0" y1="880.0" y2="1600" /><line opacity="0.8" stroke="#19D3FF" stroke-width="2" x1="1200.0" x2="1800.0" y1="880.0" y2="1600" /><line opacity="0.8" stroke="#19D3FF" stroke-width="2" x1="1200.0" x2="2000.0" y1="880.0" y2="1600" /><line opacity="0.8" stroke="#19D3FF" stroke-width="2" x1="1200.0" x2="2200.0" y1="880.0" y2="1600" /><line opacity="0.8" stroke="#19D3FF" stroke-width="2" x1="1200.0" x2="2400.0" y1="880.0" y2="1600" /><line opacity="0.8" stroke="#19D3FF" stroke-width="2" x1="1200.0" x2="2600.0" y1="880.0" y2="1600" /><line opacity="0.8" stroke="#19D3FF" stroke-width="2" x1="1200.0" x2="2800.0" y1="880.0" y2="1600" /><line opacity="0.8" stroke="#19D3FF" stroke-width="2" x1="1200.0" x2="3000.0" y1="880.0" y2="1600" /><line opacity="0.8" stroke="#19D3FF" stroke-width="2" x1="1200.0" x2="3200.0" y1="880.0" y2="1600" /><line opacity="0.8" stroke="#19D3FF" stroke-width="2" x1="1200.0" x2="3400.0" y1="880.0" y2="1600" /><line opacity="0.8" stroke="#19D3FF" stroke-width="2" x1="1200.0" x2="3600.0" y1="880.0" y2="1600" /><polyline fill="none" opacity="0.65" points="800.4995,693.7099 818.256,659.6 838.9178,627.1675 862.3276,596.6592 888.3073,568.3073 916.6592,542.3276 947.1675,518.9178 979.6,498.256 1013.7099,480.4995 1049.2375,465.7835 1085.9126,454.2199 1123.4559,445.8967 1161.5817,440.8774 1200.0,439.2 1238.4183,440.8774 1276.5441,445.8967 1314.0874,454.2199 1350.7625,465.7835 1386.2901,480.4995 1420.4,498.256 1452.8325,518.9178 1483.3408,542.3276 1511.6927,568.3073 1537.6724,596.6592 1561.0822,627.1675 1581.744,659.6 1599.5005,693.7099" stroke="#FF2E88" stroke-width="2" /><polyline fill="none" opacity="0.65" points="731.6201,661.5909 752.4381,621.6 776.6622,583.5757 804.1082,547.8074 834.5672,514.5672 867.8074,484.1082 903.5757,456.6622 941.6,432.4381 981.5909,411.6201 1023.244,394.3669 1066.2423,380.8095 1110.2586,371.0514 1154.9579,365.1666 1200.0,363.2 1245.0421,365.1666 1289.7414,371.0514 1333.7577,380.8095 1376.756,394.3669 1418.4091,411.6201 1458.4,432.4381 1496.4243,456.6622 1532.1926,484.1082 1565.4328,514.5672 1595.8918,547.8074 1623.3378,583.5757 1647.5619,621.6 1668.3799,661.5909" stroke="#FF2E88" stroke-width="2" /><polyline fill="none" opacity="0.65" points="648.9649,623.0481 673.4566,576.0 701.9556,531.2655 734.245,489.1851 770.0791,450.0791 809.1851,414.245 851.2655,381.9556 896.0,353.4566 943.0481,328.9649 992.0518,308.6669 1042.638,292.7171 1094.4219,281.2369 1147.0093,274.3136 1200.0,272.0 1252.9907,274.3136 1305.5781,281.2369 1357.362,292.7171 1407.9482,308.6669 1456.9519,328.9649 1504.0,353.4566 1548.7345,381.9556 1590.8149,414.245 1629.9209,450.0791 1665.755,489.1851 1698.0444,531.2655 1726.5434,576.0 1751.0351,623.0481" stroke="#FF2E88" stroke-width="2" /></svg>