<?xml version="1.0" encoding="utf-8" ?>
<svg baseProfile="tiny" height="1600" version="1.2" viewBox="0 0 1600 1600" width="1600" xmlns="http://www.w3.org/2000/svg" xmlns:ev="http://www.w3.org/2001/xml-events" xmlns:xlink="http://www.w3.org/1999/xlink"><defs /><rect fill="#FFFFFF" height="100%" width="100%" x="0" y="0" /><line opacity="0.9" stroke="#000000" stroke-width="4.5" x1="800.0" x2="800.0" y1="928.0" y2="672.0" /><line opacity="0.9" stroke="#000000" stroke-width="3.6" x1="800.0" x2="716.5461" y1="672.0" y2="529.5108" /><line opacity="0.9" stroke="#000000" stroke-width="2.7" x1="716.5461" x2="621.9581" y1="529.5108" y2="477.6265" /><line opacity="0.9" stroke="#000000" stroke-width="1.8" x1="621.9581" x2="547.0969" y1="477.6265" y2="481.895" /><line opacity="0.9" stroke="#000000" stroke-width="1.0" x1="547.0969" x2="510.2925" y1="481.895" y2="505.0951" /><line opacity="0.9" stroke="#000000" stroke-width="1.0" x1="547.0969" x2="507.8939" y1="481.895" y2="463.0288" /><line opacity="0.9" stroke="#000000" stroke-width="1.8" x1="621.9581" x2="585.3262" y1="477.6265" y2="412.2008" /><line opacity="0.9" stroke="#000000" stroke-width="1.0" x1="585.3262" x2="540.2124" y1="412.2008" y2="386.2571" /><line opacity="0.9" stroke="#000000" stroke-width="1.0" x1="585.3262" x2="586.7876" y1="412.2008" y2="360.1797" /><line opacity="0.9" stroke="#000000" stroke-width="2.7" x1="716.5461" x2="717.5631" y1="529.5108" y2="421.632" /><line opacity="0.9" stroke="#000000" stroke-width="1.8" x1="717.5631" x2="687.0641" y1="421.632" y2="358.8506" /><line opacity="0.9" stroke="#000000" stroke-width="1.0" x1="687.0641" x2="651.1225" y1="358.8506" y2="333.3195" /><line opacity="0.9" stroke="#000000" stroke-width="1.0" x1="687.0641" x2="689.2111" y1="358.8506" y2="314.8162" /><line opacity="0.9" stroke="#000000" stroke-width="1.8" x1="717.5631" x2="749.2403" y1="421.632" y2="359.4367" /><line opacity="0.9" stroke="#000000" stroke-width="1.0" x1="749.2403" x2="744.0765" y1="359.4367" y2="311.5391" /><line opacity="0.9" stroke="#000000" stroke-width="1.0" x1="749.2403" x2="791.0175" y1="359.4367" y2="335.447" /><line opacity="0.9" stroke="#000000" stroke-width="3.6" x1="800.0" x2="883.4539" y1="672.0" y2="529.5108" /><line opacity="0.9" stroke="#000000" stroke-width="2.7" x1="883.4539" x2="891.1121" y1="529.5108" y2="428.4086" /><line opacity="0.9" stroke="#000000" stroke-width="1.8" x1="891.1121" x2="866.5678" y1="428.4086" y2="368.6243" /><line opacity="0.9" stroke="#000000" stroke-width="1.0" x1="866.5678" x2="838.2245" y1="368.6243" y2="340.5212" /><line opacity="0.9" stroke="#000000" stroke-width="1.0" x1="866.5678" x2="866.9877" y1="368.6243" y2="328.7125" /><line opacity="0.9" stroke="#000000" stroke-width="1.8" x1="891.1121" x2="924.3816" y1="428.4086" y2="373.0035" /><line opacity="0.9" stroke="#000000" stroke-width="1.0" x1="924.3816" x2="929.1716" y1="373.0035" y2="334.3701" /><line opacity="0.9" stroke="#000000" stroke-width="1.0" x1="924.3816" x2="956.2317" y1="373.0035" y2="350.6191" /><line opacity="0.9" stroke="#000000" stroke-width="2.7" x1="883.4539" x2="967.8878" y1="529.5108" y2="473.3751" /><line opacity="0.9" stroke="#000000" stroke-width="1.8" x1="967.8878" x2="1002.326" y1="473.3751" y2="416.8887" /><line opacity="0.9" stroke="#000000" stroke-width="1.0" x1="1002.326" x2="1006.037" y1="416.8887" y2="376.3659" /><line opacity="0.9" stroke="#000000" stroke-width="1.0" x1="1002.326" x2="1036.648" y1="416.8887" y2="395.0287" /><line opacity="0.9" stroke="#000000" stroke-width="1.8" x1="967.8878" x2="1033.2996" y1="473.3751" y2="463.4762" /><line opacity="0.9" stroke="#000000" stroke-width="1.0" x1="1033.2996" x2="1067.2023" y1="463.4762" y2="440.19" /><line opacity="0.9" stroke="#000000" stroke-width="1.0" x1="1033.2996" x2="1072.5744" y1="463.4762" y2="475.6884" /><line opacity="0.9" stroke="#000000" stroke-width="4.5" x1="709.4903" x2="890.5097" y1="890.5097" y2="709.4903" /><line opacity="0.9" stroke="#000000" stroke-width="3.6" x1="890.5097" x2="933.6292" y1="709.4903" y2="542.758" /><line opacity="0.9" stroke="#000000" stroke-width="2.7" x1="933.6292" x2="915.4952" y1="542.758" y2="428.0738" /><line opacity="0.9" stroke="#000000" stroke-width="1.8" x1="915.4952" x2="861.8681" y1="428.0738" y2="367.2" /><line opacity="0.9" stroke="#000000" stroke-width="1.0" x1="861.8681" x2="812.1008" y1="367.2" y2="352.4201" /><line opacity="0.9" stroke="#000000" stroke-width="1.0" x1="861.8681" x2="853.4806" y1="367.2" y2="315.9664" /><line opacity="0.9" stroke="#000000" stroke-width="1.8" x1="915.4952" x2="947.7248" y1="428.0738" y2="353.6242" /><line opacity="0.9" stroke="#000000" stroke-width="1.0" x1="947.7248" x2="944.119" y1="353.6242" y2="302.6097" /><line opacity="0.9" stroke="#000000" stroke-width="1.0" x1="947.7248" x2="987.3902" y1="353.6242" y2="321.342" /><line opacity="0.9" stroke="#000000" stroke-width="2.7" x1="933.6292" x2="1005.0893" y1="542.758" y2="451.2442" /><line opacity="0.9" stroke="#000000" stroke-width="1.8" x1="1005.0893" x2="1019.4615" y1="451.2442" y2="372.7096" /><line opacity="0.9" stroke="#000000" stroke-width="1.0" x1="1019.4615" x2="1000.8801" y1="372.7096" y2="319.1612" /><line opacity="0.9" stroke="#000000" stroke-width="1.0" x1="1019.4615" x2="1055.8028" y1="372.7096" y2="329.2123" /><line opacity="0.9" stroke="#000000" stroke-width="1.8" x1="1005.0893" x2="1077.797" y1="451.2442" y2="418.2618" /><line opacity="0.9" stroke="#000000" stroke-width="1.0" x1="1077.797" x2="1109.4006" y1="418.2618" y2="381.3697" /><line opacity="0.9" stroke="#000000" stroke-width="1.0" x1="1077.797" x2="1126.3721" y1="418.2618" y2="418.7822" /><line opacity="0.9" stroke="#000000" stroke-width="3.6" x1="890.5097" x2="1057.242" y1="709.4903" y2="666.3708" /><line opacity="0.9" stroke="#000000" stroke-width="2.7" x1="1057.242" x2="1140.4093" y1="666.3708" y2="595.6924" /><line opacity="0.9" stroke="#000000" stroke-width="1.8" x1="1140.4093" x2="1168.2917" y1="595.6924" y2="536.2587" /><line opacity="0.9" stroke="#000000" stroke-width="1.0" x1="1168.2917" x2="1167.0056" y1="536.2587" y2="490.5593" /><line opacity="0.9" stroke="#000000" stroke-width="1.0" x1="1168.2917" x2="1204.2574" y1="536.2587" y2="508.0354" /><line opacity="0.9" stroke="#000000" stroke-width="1.8" x1="1140.4093" x2="1203.5621" y1="595.6924" y2="577.7614" /><line opacity="0.9" stroke="#000000" stroke-width="1.0" x1="1203.5621" x2="1230.8508" y1="577.7614" y2="548.4436" /><line opacity="0.9" stroke="#000000" stroke-width="1.0" x1="1203.5621" x2="1242.1856" y1="577.7614" y2="588.3648" /><line opacity="0.9" stroke="#000000" stroke-width="2.7" x1="1057.242" x2="1164.2473" y1="666.3708" y2="687.8675" /><line opacity="0.9" stroke="#000000" stroke-width="1.8" x1="1164.2473" x2="1236.1193" y1="687.8675" y2="673.5631" /><line opacity="0.9" stroke="#000000" stroke-width="1.0" x1="1236.1193" x2="1272.526" y1="673.5631" y2="638.1387" /><line opacity="0.9" stroke="#000000" stroke-width="1.0" x1="1236.1193" x2="1283.3151" y1="673.5631" y2="692.3486" /><line opacity="0.9" stroke="#000000" stroke-width="1.8" x1="1164.2473" x2="1225.0187" y1="687.8675" y2="728.8192" /><line opacity="0.9" stroke="#000000" stroke-width="1.0" x1="1225.0187" x2="1268.5059" y1="728.8192" y2="734.4113" /><line opacity="0.9" stroke="#000000" stroke-width="1.0" x1="1225.0187" x2="1246.5281" y1="728.8192" y2="767.0259" /><line opacity="0.9" stroke="#000000" stroke-width="4.5" x1="672.0" x2="928.0" y1="800.0" y2="800.0" /><line opacity="0.9" stroke="#000000" stroke-width="3.6" x1="928.0" x2="1091.0733" y1="800.0" y2="724.8282" /><line opacity="0.9" stroke="#000000" stroke-width="2.7" x1="1091.0733" x2="1160.869" y1="724.8282" y2="628.368" /><line opacity="0.9" stroke="#000000" stroke-width="1.8" x1="1160.869" x2="1170.5084" y1="628.368" y2="550.7898" /><line opacity="0.9" stroke="#000000" stroke-width="1.0" x1="1170.5084" x2="1148.9509" y1="550.7898" y2="501.5072" /><line opacity="0.9" stroke="#000000" stroke-width="1.0" x1="1170.5084" x2="1203.4713" y1="550.7898" y2="508.2815" /><line opacity="0.9" stroke="#000000" stroke-width="1.8" x1="1160.869" x2="1231.5418" y1="628.368" y2="594.9518" /><line opacity="0.9" stroke="#000000" stroke-width="1.0" x1="1231.5418" x2="1258.4766" y1="594.9518" y2="555.1358" /><line opacity="0.9" stroke="#000000" stroke-width="1.0" x1="1231.5418" x2="1279.4063" y1="594.9518" y2="599.4005" /><line opacity="0.9" stroke="#000000" stroke-width="2.7" x1="1091.0733" x2="1209.7503" y1="724.8282" y2="734.4083" /><line opacity="0.9" stroke="#000000" stroke-width="1.8" x1="1209.7503" x2="1288.271" y1="734.4083" y2="706.3965" /><line opacity="0.9" stroke="#000000" stroke-width="1.0" x1="1288.271" x2="1325.7438" y1="706.3965" y2="660.8375" /><line opacity="0.9" stroke="#000000" stroke-width="1.0" x1="1288.271" x2="1346.1185" y1="706.3965" y2="717.9505" /><line opacity="0.9" stroke="#000000" stroke-width="1.8" x1="1209.7503" x2="1282.7611" y1="734.4083" y2="774.6524" /><line opacity="0.9" stroke="#000000" stroke-width="1.0" x1="1282.7611" x2="1341.566" y1="774.6524" y2="778.4213" /><line opacity="0.9" stroke="#000000" stroke-width="1.0" x1="1282.7611" x2="1317.3462" y1="774.6524" y2="822.3608" /><line opacity="0.9" stroke="#000000" stroke-width="3.6" x1="928.0" x2="1091.0733" y1="800.0" y2="875.1718" /><line opacity="0.9" stroke="#000000" stroke-width="2.7" x1="1091.0733" x2="1218.0105" y1="875.1718" y2="871.7851" /><line opacity="0.9" stroke="#000000" stroke-width="1.8" x1="1218.0105" x2="1296.0084" y1="871.7851" y2="833.3722" /><line opacity="0.9" stroke="#000000" stroke-width="1.0" x1="1296.0084" x2="1327.9772" y1="833.3722" y2="783.2578" /><line opacity="0.9" stroke="#000000" stroke-width="1.0" x1="1296.0084" x2="1355.2227" y1="833.3722" y2="838.5802" /><line opacity="0.9" stroke="#000000" stroke-width="1.8" x1="1218.0105" x2="1297.9457" y1="871.7851" y2="905.9843" /><line opacity="0.9" stroke="#000000" stroke-width="1.0" x1="1297.9457" x2="1357.2853" y1="905.9843" y2="897.4486" /><line opacity="0.9" stroke="#000000" stroke-width="1.0" x1="1297.9457" x2="1332.7492" y1="905.9843" y2="954.7979" /><line opacity="0.9" stroke="#000000" stroke-width="2.7" x1="1091.0733" x2="1170.9432" y1="875.1718" y2="973.8901" /><line opacity="0.9" stroke="#000000" stroke-width="1.8" x1="1170.9432" x2="1236.7721" y1="973.8901" y2="1007.0057" /><line opacity="0.9" stroke="#000000" stroke-width="1.0" x1="1236.7721" x2="1281.6866" y1="1007.0057" y2="1006.3955" /><line opacity="0.9" stroke="#000000" stroke-width="1.0" x1="1236.7721" x2="1263.0551" y1="1007.0057" y2="1043.4323" /><line opacity="0.9" stroke="#000000" stroke-width="1.8" x1="1170.9432" x2="1189.5869" y1="973.8901" y2="1045.1818" /><line opacity="0.9" stroke="#000000" stroke-width="1.0" x1="1189.5869" x2="1219.9055" y1="1045.1818" y2="1084.9508" /><line opacity="0.9" stroke="#000000" stroke-width="1.0" x1="1189.5869" x2="1182.6185" y1="1045.1818" y2="1094.7018" /><line opacity="0.9" stroke="#000000" stroke-width="4.5" x1="709.4903" x2="890.5097" y1="709.4903" y2="890.5097" /><line opacity="0.9" stroke="#000000" stroke-width="3.6" x1="890.5097" x2="1039.69" y1="890.5097" y2="923.7419" /><line opacity="0.9" stroke="#000000" stroke-width="2.7" x1="1039.69" x2="1138.8508" y1="923.7419" y2="903.49" /><line opacity="0.9" stroke="#000000" stroke-width="1.8" x1="1138.8508" x2="1190.4843" y1="903.49" y2="858.7225" /><line opacity="0.9" stroke="#000000" stroke-width="1.0" x1="1190.4843" x2="1207.1677" y1="858.7225" y2="818.1328" /><line opacity="0.9" stroke="#000000" stroke-width="1.0" x1="1190.4843" x2="1233.0288" y1="858.7225" y2="847.9601" /><line opacity="0.9" stroke="#000000" stroke-width="1.8" x1="1138.8508" x2="1203.9032" y1="903.49" y2="924.4265" /><line opacity="0.9" stroke="#000000" stroke-width="1.0" x1="1203.9032" x2="1250.9987" y1="924.4265" y2="920.067" /><line opacity="0.9" stroke="#000000" stroke-width="1.0" x1="1203.9032" x2="1239.6152" y1="924.4265" y2="955.4369" /><line opacity="0.9" stroke="#000000" stroke-width="2.7" x1="1039.69" x2="1120.8783" y1="923.7419" y2="984.1693" /><line opacity="0.9" stroke="#000000" stroke-width="1.8" x1="1120.8783" x2="1183.7755" y1="984.1693" y2="994.5177" /><line opacity="0.9" stroke="#000000" stroke-width="1.0" x1="1183.7755" x2="1221.1895" y1="994.5177" y2="981.2819" /><line opacity="0.9" stroke="#000000" stroke-width="1.0" x1="1183.7755" x2="1214.9768" y1="994.5177" y2="1019.0426" /><line opacity="0.9" stroke="#000000" stroke-width="1.8" x1="1120.8783" x2="1148.8447" y1="984.1693" y2="1041.4496" /><line opacity="0.9" stroke="#000000" stroke-width="1.0" x1="1148.8447" x2="1179.9198" y1="1041.4496" y2="1066.9562" /><line opacity="0.9" stroke="#000000" stroke-width="1.0" x1="1148.8447" x2="1149.8453" y1="1041.4496" y2="1081.6397" /><line opacity="0.9" stroke="#000000" stroke-width="3.6" x1="890.5097" x2="923.7419" y1="890.5097" y2="1039.69" /><line opacity="0.9" stroke="#000000" stroke-width="2.7" x1="923.7419" x2="987.6141" y1="1039.69" y2="1105.2194" /><line opacity="0.9" stroke="#000000" stroke-width="1.8" x1="987.6141" x2="1043.1975" y1="1105.2194" y2="1128.5268" /><line opacity="0.9" stroke="#000000" stroke-width="1.0" x1="1043.1975" x2="1085.2839" y1="1128.5268" y2="1124.656" /><line opacity="0.9" stroke="#000000" stroke-width="1.0" x1="1043.1975" x2="1069.9359" y1="1128.5268" y2="1161.2576" /><line opacity="0.9" stroke="#000000" stroke-width="1.8" x1="987.6141" x2="1009.4905" y1="1105.2194" y2="1161.3815" /><line opacity="0.9" stroke="#000000" stroke-width="1.0" x1="1009.4905" x2="1037.1449" y1="1161.3815" y2="1185.0854" /><line opacity="0.9" stroke="#000000" stroke-width="1.0" x1="1009.4905" x2="1005.1561" y1="1161.3815" y2="1197.5457" /><line opacity="0.9" stroke="#000000" stroke-width="2.7" x1="923.7419" x2="893.7242" y1="1039.69" y2="1126.1348" /><line opacity="0.9" stroke="#000000" stroke-width="1.8" x1="893.7242" x2="906.5508" y1="1126.1348" y2="1182.909" /><line opacity="0.9" stroke="#000000" stroke-width="1.0" x1="906.5508" x2="928.6528" y1="1182.909" y2="1211.6403" /><line opacity="0.9" stroke="#000000" stroke-width="1.0" x1="906.5508" x2="898.947" y1="1182.909" y2="1218.3515" /><line opacity="0.9" stroke="#000000" stroke-width="1.8" x1="893.7242" x2="848.4716" y1="1126.1348" y2="1162.7412" /><line opacity="0.9" stroke="#000000" stroke-width="1.0" x1="848.4716" x2="837.5828" y1="1162.7412" y2="1195.4704" /><line opacity="0.9" stroke="#000000" stroke-width="1.0" x1="848.4716" x2="814.1898" y1="1162.7412" y2="1166.5521" /><line opacity="0.9" stroke="#000000" stroke-width="4.5" x1="800.0" x2="800.0" y1="672.0" y2="928.0" /><line opacity="0.9" stroke="#000000" stroke-width="3.6" x1="800.0" x2="887.2776" y1="928.0" y2="1083.064" /><line opacity="0.9" stroke="#000000" stroke-width="2.7" x1="887.2776" x2="975.6632" y1="1083.064" y2="1146.6099" /><line opacity="0.9" stroke="#000000" stroke-width="1.8" x1="975.6632" x2="1041.3887" y1="1146.6099" y2="1160.6524" /><line opacity="0.9" stroke="#000000" stroke-width="1.0" x1="1041.3887" x2="1081.8817" y1="1160.6524" y2="1153.0977" /><line opacity="0.9" stroke="#000000" stroke-width="1.0" x1="1041.3887" x2="1075.259" y1="1160.6524" y2="1184.0952" /><line opacity="0.9" stroke="#000000" stroke-width="1.8" x1="975.6632" x2="1009.9063" y1="1146.6099" y2="1204.441" /><line opacity="0.9" stroke="#000000" stroke-width="1.0" x1="1009.9063" x2="1050.2649" y1="1204.441" y2="1224.9976" /><line opacity="0.9" stroke="#000000" stroke-width="1.0" x1="1009.9063" x2="1008.5259" y1="1204.441" y2="1249.7123" /><line opacity="0.9" stroke="#000000" stroke-width="2.7" x1="887.2776" x2="895.7438" y1="1083.064" y2="1191.5925" /><line opacity="0.9" stroke="#000000" stroke-width="1.8" x1="895.7438" x2="931.4467" y1="1191.5925" y2="1248.0219" /><line opacity="0.9" stroke="#000000" stroke-width="1.0" x1="931.4467" x2="968.1978" y1="1248.0219" y2="1269.9174" /><line opacity="0.9" stroke="#000000" stroke-width="1.0" x1="931.4467" x2="935.4939" y1="1248.0219" y2="1290.6092" /><line opacity="0.9" stroke="#000000" stroke-width="1.8" x1="895.7438" x2="869.2236" y1="1191.5925" y2="1252.8759" /><line opacity="0.9" stroke="#000000" stroke-width="1.0" x1="869.2236" x2="872.1618" y1="1252.8759" y2="1291.6209" /><line opacity="0.9" stroke="#000000" stroke-width="1.0" x1="869.2236" x2="838.968" y1="1252.8759" y2="1277.2564" /><line opacity="0.9" stroke="#000000" stroke-width="3.6" x1="800.0" x2="712.7224" y1="928.0" y2="1083.064" /><line opacity="0.9" stroke="#000000" stroke-width="2.7" x1="712.7224" x2="717.1422" y1="1083.064" y2="1202.6888" /><line opacity="0.9" stroke="#000000" stroke-width="1.8" x1="717.1422" x2="760.1363" y1="1202.6888" y2="1268.3536" /><line opacity="0.9" stroke="#000000" stroke-width="1.0" x1="760.1363" x2="801.4848" y1="1268.3536" y2="1292.4086" /><line opacity="0.9" stroke="#000000" stroke-width="1.0" x1="760.1363" x2="765.6503" y1="1268.3536" y2="1315.8713" /><line opacity="0.9" stroke="#000000" stroke-width="1.8" x1="717.1422" x2="679.1108" y1="1202.6888" y2="1271.3472" /><line opacity="0.9" stroke="#000000" stroke-width="1.0" x1="679.1108" x2="676.4099" y1="1271.3472" y2="1323.0381" /><line opacity="0.9" stroke="#000000" stroke-width="1.0" x1="679.1108" x2="636.7235" y1="1271.3472" y2="1301.0549" /><line opacity="0.9" stroke="#000000" stroke-width="2.7" x1="712.7224" x2="608.1651" y1="1083.064" y2="1141.3512" /><line opacity="0.9" stroke="#000000" stroke-width="1.8" x1="608.1651" x2="570.7256" y1="1141.3512" y2="1207.7927" /><line opacity="0.9" stroke="#000000" stroke-width="1.0" x1="570.7256" x2="570.0604" y1="1207.7927" y2="1255.4212" /><line opacity="0.9" stroke="#000000" stroke-width="1.0" x1="570.7256" x2="530.3296" y1="1207.7927" y2="1233.033" /><line opacity="0.9" stroke="#000000" stroke-width="1.8" x1="608.1651" x2="531.9638" y1="1141.3512" y2="1138.2606" /><line opacity="0.9" stroke="#000000" stroke-width="1.0" x1="531.9638" x2="485.5291" y1="1138.2606" y2="1160.6951" /><line opacity="0.9" stroke="#000000" stroke-width="1.0" x1="531.9638" x2="487.4984" y1="1138.2606" y2="1112.1394" /><line opacity="0.9" stroke="#000000" stroke-width="4.5" x1="890.5097" x2="709.4903" y1="709.4903" y2="890.5097" /><line opacity="0.9" stroke="#000000" stroke-width="3.6" x1="709.4903" x2="654.4527" y1="890.5097" y2="1059.2122" /><line opacity="0.9" stroke="#000000" stroke-width="2.7" x1="654.4527" x2="675.5591" y1="1059.2122" y2="1169.5713" /><line opacity="0.9" stroke="#000000" stroke-width="1.8" x1="675.5591" x2="723.4655" y1="1169.5713" y2="1223.2439" /><line opacity="0.9" stroke="#000000" stroke-width="1.0" x1="723.4655" x2="768.0156" y1="1223.2439" y2="1235.6422" /><line opacity="0.9" stroke="#000000" stroke-width="1.0" x1="723.4655" x2="730.7426" y1="1223.2439" y2="1268.9109" /><line opacity="0.9" stroke="#000000" stroke-width="1.8" x1="675.5591" x2="650.8391" y1="1169.5713" y2="1237.1338" /><line opacity="0.9" stroke="#000000" stroke-width="1.0" x1="650.8391" x2="656.5043" y1="1237.1338" y2="1281.2548" /><line opacity="0.9" stroke="#000000" stroke-width="1.0" x1="650.8391" x2="618.0372" y1="1237.1338" y2="1267.1804" /><line opacity="0.9" stroke="#000000" stroke-width="2.7" x1="654.4527" x2="572.3265" y1="1059.2122" y2="1135.8927" /><line opacity="0.9" stroke="#000000" stroke-width="1.8" x1="572.3265" x2="547.9256" y1="1135.8927" y2="1207.2249" /><line opacity="0.9" stroke="#000000" stroke-width="1.0" x1="547.9256" x2="555.3916" y1="1207.2249" y2="1257.5036" /><line opacity="0.9" stroke="#000000" stroke-width="1.0" x1="547.9256" x2="511.2291" y1="1207.2249" y2="1242.3967" /><line opacity="0.9" stroke="#000000" stroke-width="1.8" x1="572.3265" x2="499.4903" y1="1135.8927" y2="1155.3498" /><line opacity="0.9" stroke="#000000" stroke-width="1.0" x1="499.4903" x2="461.7019" y1="1155.3498" y2="1192.0962" /><line opacity="0.9" stroke="#000000" stroke-width="1.0" x1="499.4903" x2="448.4111" y1="1155.3498" y2="1142.343" /><line opacity="0.9" stroke="#000000" stroke-width="3.6" x1="709.4903" x2="540.7878" y1="890.5097" y2="945.5473" /><line opacity="0.9" stroke="#000000" stroke-width="2.7" x1="540.7878" x2="457.733" y1="945.5473" y2="1022.4698" /><line opacity="0.9" stroke="#000000" stroke-width="1.8" x1="457.733" x2="439.0572" y1="1022.4698" y2="1096.8965" /><line opacity="0.9" stroke="#000000" stroke-width="1.0" x1="439.0572" x2="454.8167" y1="1096.8965" y2="1147.9704" /><line opacity="0.9" stroke="#000000" stroke-width="1.0" x1="439.0572" x2="401.0513" y1="1096.8965" y2="1134.4791" /><line opacity="0.9" stroke="#000000" stroke-width="1.8" x1="457.733" x2="382.0951" y1="1022.4698" y2="1035.3933" /><line opacity="0.9" stroke="#000000" stroke-width="1.0" x1="382.0951" x2="342.853" y1="1035.3933" y2="1069.2751" /><line opacity="0.9" stroke="#000000" stroke-width="1.0" x1="382.0951" x2="333.8296" y1="1035.3933" y2="1016.4631" /><line opacity="0.9" stroke="#000000" stroke-width="2.7" x1="540.7878" x2="428.3494" y1="945.5473" y2="932.4025" /><line opacity="0.9" stroke="#000000" stroke-width="1.8" x1="428.3494" x2="366.6794" y1="932.4025" y2="958.4721" /><line opacity="0.9" stroke="#000000" stroke-width="1.0" x1="366.6794" x2="340.8853" y1="958.4721" y2="993.6808" /><line opacity="0.9" stroke="#000000" stroke-width="1.0" x1="366.6794" x2="323.452" y1="958.4721" y2="952.4408" /><line opacity="0.9" stroke="#000000" stroke-width="1.8" x1="428.3494" x2="374.3555" y1="932.4025" y2="892.8111" /><line opacity="0.9" stroke="#000000" stroke-width="1.0" x1="374.3555" x2="328.5062" y1="892.8111" y2="881.7979" /><line opacity="0.9" stroke="#000000" stroke-width="1.0" x1="374.3555" x2="350.0664" y1="892.8111" y2="852.3946" /><line opacity="0.9" stroke="#000000" stroke-width="4.5" x1="928.0" x2="672.0" y1="800.0" y2="800.0" /><line opacity="0.9" stroke="#000000" stroke-width="3.6" x1="672.0" x2="525.8838" y1="800.0" y2="887.8715" /><line opacity="0.9" stroke="#000000" stroke-width="2.7" x1="525.8838" x2="465.9421" y1="887.8715" y2="980.4514" /><line opacity="0.9" stroke="#000000" stroke-width="1.8" x1="465.9421" x2="457.8853" y1="980.4514" y2="1044.4592" /><line opacity="0.9" stroke="#000000" stroke-width="1.0" x1="457.8853" x2="469.9969" y1="1044.4592" y2="1085.0052" /><line opacity="0.9" stroke="#000000" stroke-width="1.0" x1="457.8853" x2="436.1035" y1="1044.4592" y2="1080.7389" /><line opacity="0.9" stroke="#000000" stroke-width="1.8" x1="465.9421" x2="410.8369" y1="980.4514" y2="1013.9973" /><line opacity="0.9" stroke="#000000" stroke-width="1.0" x1="410.8369" x2="392.039" y1="1013.9973" y2="1048.4425" /><line opacity="0.9" stroke="#000000" stroke-width="1.0" x1="410.8369" x2="371.6061" y1="1013.9973" y2="1014.8778" /><line opacity="0.9" stroke="#000000" stroke-width="2.7" x1="525.8838" x2="416.0069" y1="887.8715" y2="897.4172" /><line opacity="0.9" stroke="#000000" stroke-width="1.8" x1="416.0069" x2="354.6565" y1="897.4172" y2="939.9246" /><line opacity="0.9" stroke="#000000" stroke-width="1.0" x1="354.6565" x2="330.3687" y1="939.9246" y2="985.3684" /><line opacity="0.9" stroke="#000000" stroke-width="1.0" x1="354.6565" x2="303.5769" y1="939.9246" y2="946.7001" /><line opacity="0.9" stroke="#000000" stroke-width="1.8" x1="416.0069" x2="348.2452" y1="897.4172" y2="866.1266" /><line opacity="0.9" stroke="#000000" stroke-width="1.0" x1="348.2452" x2="297.5871" y1="866.1266" y2="873.6626" /><line opacity="0.9" stroke="#000000" stroke-width="1.0" x1="348.2452" x2="321.1308" y1="866.1266" y2="822.6773" /><line opacity="0.9" stroke="#000000" stroke-width="3.6" x1="672.0" x2="525.8838" y1="800.0" y2="712.1285" /><line opacity="0.9" stroke="#000000" stroke-width="2.7" x1="525.8838" x2="425.477" y1="712.1285" y2="708.5263" /><line opacity="0.9" stroke="#000000" stroke-width="1.8" x1="425.477" x2="363.9227" y1="708.5263" y2="738.7649" /><line opacity="0.9" stroke="#000000" stroke-width="1.0" x1="363.9227" x2="337.0488" y1="738.7649" y2="774.9161" /><line opacity="0.9" stroke="#000000" stroke-width="1.0" x1="363.9227" x2="318.8845" y1="738.7649" y2="737.9406" /><line opacity="0.9" stroke="#000000" stroke-width="1.8" x1="425.477" x2="366.2479" y1="708.5263" y2="673.9543" /><line opacity="0.9" stroke="#000000" stroke-width="1.0" x1="366.2479" x2="318.4481" y1="673.9543" y2="675.7274" /><line opacity="0.9" stroke="#000000" stroke-width="1.0" x1="366.2479" x2="344.286" y1="673.9543" y2="631.4615" /><line opacity="0.9" stroke="#000000" stroke-width="2.7" x1="525.8838" x2="475.6315" y1="712.1285" y2="625.1273" /><line opacity="0.9" stroke="#000000" stroke-width="1.8" x1="475.6315" x2="427.6444" y1="625.1273" y2="590.4061" /><line opacity="0.9" stroke="#000000" stroke-width="1.0" x1="427.6444" x2="388.6332" y1="590.4061" y2="585.2333" /><line opacity="0.9" stroke="#000000" stroke-width="1.0" x1="427.6444" x2="410.5307" y1="590.4061" y2="554.9695" /><line opacity="0.9" stroke="#000000" stroke-width="1.8" x1="475.6315" x2="469.5332" y1="625.1273" y2="566.2109" /><line opacity="0.9" stroke="#000000" stroke-width="1.0" x1="469.5332" x2="449.0244" y1="566.2109" y2="537.0591" /><line opacity="0.9" stroke="#000000" stroke-width="1.0" x1="469.5332" x2="483.6363" y1="566.2109" y2="533.4764" /><line opacity="0.9" stroke="#000000" stroke-width="4.5" x1="890.5097" x2="709.4903" y1="890.5097" y2="709.4903" /><line opacity="0.9" stroke="#000000" stroke-width="3.6" x1="709.4903" x2="552.1061" y1="709.4903" y2="655.9303" /><line opacity="0.9" stroke="#000000" stroke-width="2.7" x1="552.1061" x2="453.6047" y1="655.9303" y2="662.6731" /><line opacity="0.9" stroke="#000000" stroke-width="1.8" x1="453.6047" x2="399.8483" y1="662.6731" y2="690.999" /><line opacity="0.9" stroke="#000000" stroke-width="1.0" x1="399.8483" x2="381.3903" y1="690.999" y2="724.1585" /><line opacity="0.9" stroke="#000000" stroke-width="1.0" x1="399.8483" x2="362.0615" y1="690.999" y2="687.4764" /><line opacity="0.9" stroke="#000000" stroke-width="1.8" x1="453.6047" x2="396.4898" y1="662.6731" y2="641.9369" /><line opacity="0.9" stroke="#000000" stroke-width="1.0" x1="396.4898" x2="356.7015" y1="641.9369" y2="647.7606" /><line opacity="0.9" stroke="#000000" stroke-width="1.0" x1="396.4898" x2="369.7054" y1="641.9369" y2="611.9433" /><line opacity="0.9" stroke="#000000" stroke-width="2.7" x1="552.1061" x2="478.1652" y1="655.9303" y2="590.503" /><line opacity="0.9" stroke="#000000" stroke-width="1.8" x1="478.1652" x2="420.4158" y1="590.503" y2="574.7903" /><line opacity="0.9" stroke="#000000" stroke-width="1.0" x1="420.4158" x2="384.5077" y1="574.7903" y2="586.4166" /><line opacity="0.9" stroke="#000000" stroke-width="1.0" x1="420.4158" x2="395.3485" y1="574.7903" y2="546.5734" /><line opacity="0.9" stroke="#000000" stroke-width="1.8" x1="478.1652" x2="455.54" y1="590.503" y2="535.0956" /><line opacity="0.9" stroke="#000000" stroke-width="1.0" x1="455.54" x2="427.7027" y1="535.0956" y2="511.336" /><line opacity="0.9" stroke="#000000" stroke-width="1.0" x1="455.54" x2="458.7898" y1="535.0956" y2="498.6419" /><line opacity="0.9" stroke="#000000" stroke-width="3.6" x1="709.4903" x2="655.9303" y1="709.4903" y2="552.1061" /><line opacity="0.9" stroke="#000000" stroke-width="2.7" x1="655.9303" x2="569.6706" y1="552.1061" y2="483.5523" /><line opacity="0.9" stroke="#000000" stroke-width="1.8" x1="569.6706" x2="506.4676" y1="483.5523" y2="466.1843" /><line opacity="0.9" stroke="#000000" stroke-width="1.0" x1="506.4676" x2="463.6505" y1="466.1843" y2="475.4651" /><line opacity="0.9" stroke="#000000" stroke-width="1.0" x1="506.4676" x2="474.4055" y1="466.1843" y2="436.327" /><line opacity="0.9" stroke="#000000" stroke-width="1.8" x1="569.6706" x2="538.4808" y1="483.5523" y2="425.9028" /><line opacity="0.9" stroke="#000000" stroke-width="1.0" x1="538.4808" x2="501.8637" y1="425.9028" y2="400.4356" /><line opacity="0.9" stroke="#000000" stroke-width="1.0" x1="538.4808" x2="537.1984" y1="425.9028" y2="381.3186" /><line opacity="0.9" stroke="#000000" stroke-width="2.7" x1="655.9303" x2="682.4671" y1="552.1061" y2="445.1661" /><line opacity="0.9" stroke="#000000" stroke-width="1.8" x1="682.4671" x2="668.9741" y1="445.1661" y2="369.1442" /><line opacity="0.9" stroke="#000000" stroke-width="1.0" x1="668.9741" x2="638.5261" y1="369.1442" y2="330.4127" /><line opacity="0.9" stroke="#000000" stroke-width="1.0" x1="668.9741" x2="684.2333" y1="369.1442" y2="322.3002" /><line opacity="0.9" stroke="#000000" stroke-width="1.8" x1="682.4671" x2="729.9354" y1="445.1661" y2="384.2716" /><line opacity="0.9" stroke="#000000" stroke-width="1.0" x1="729.9354" x2="737.195" y1="384.2716" y2="330.9472" /><line opacity="0.9" stroke="#000000" stroke-width="1.0" x1="729.9354" x2="779.8755" y1="384.2716" y2="364.2174" /><circle cx="800.0" cy="800.0" fill="none" r="71.68" stroke="#000000" stroke-width="3" /></svg>