<?xml version="1.0" encoding="utf-8" ?>
<svg baseProfile="tiny" height="1600" version="1.2" viewBox="0 0 1600 1600" width="1600" xmlns="http://www.w3.org/2000/svg" xmlns:ev="http://www.w3.org/2001/xml-events" xmlns:xlink="http://www.w3.org/1999/xlink"><defs /><rect fill="#FFFFFF" height="100%" width="100%" x="0" y="0" /><polygon fill="#000000" opacity="1" points="857.3333,800.0 835.7467,844.825 787.2421,855.8959 748.3445,824.876 748.3445,775.124 787.2421,744.1041 835.7467,755.175" stroke="#000000" stroke-width="2" /><polygon fill="none" opacity="1" points="905.9382,843.881 843.881,905.9382 756.119,905.9382 694.0618,843.881 694.0618,756.119 756.119,694.0618 843.881,694.0618 905.9382,756.119" stroke="#000000" stroke-width="3" /><polygon fill="#000000" opacity="1" points="921.6224,921.6224 814.9908,971.3455 701.3449,940.8942 633.8608,844.5169 644.1151,727.3097 727.3097,644.1151 844.5169,633.8608 940.8942,701.3449 971.3455,814.9908" stroke="#000000" stroke-width="4" /><polygon fill="none" opacity="1" points="887.7621,1011.8764 746.4632,1022.9968 625.6136,948.9401 571.3736,817.9933 604.4612,680.1737 712.2379,588.1236 853.5368,577.0032 974.3864,651.0599 1028.6264,782.0067 995.5388,919.8263" stroke="#000000" stroke-width="2" /><polygon fill="#000000" opacity="1" points="800.0,1086.6667 575.875,978.7337 520.5207,736.2107 675.62,541.7223 924.38,541.7223 1079.4793,736.2107 1024.125,978.7337" stroke="#000000" stroke-width="3" /><polygon fill="none" opacity="1" points="668.3569,1117.8146 482.1854,931.6431 482.1854,668.3569 668.3569,482.1854 931.6431,482.1854 1117.8146,668.3569 1117.8146,931.6431 931.6431,1117.8146" stroke="#000000" stroke-width="4" /><polygon fill="#000000" opacity="1" points="516.2145,1083.7855 400.1939,834.9785 471.247,569.8047 696.1273,412.3418 969.6108,436.2685 1163.7315,630.3892 1187.6582,903.8727 1030.1953,1128.753 765.0215,1199.8061" stroke="#000000" stroke-width="2" /><polygon fill="none" opacity="1" points="376.2473,975.5241 354.0063,692.9264 502.1198,451.2271 764.0134,342.7472 1039.6527,408.9224 1223.7527,624.4759 1245.9937,907.0736 1097.8802,1148.7729 835.9866,1257.2528 560.3473,1191.0776" stroke="#000000" stroke-width="3" /><polygon fill="#000000" opacity="1" points="284.0,800.0 478.2793,396.575 914.8208,296.9372 1264.8999,576.116 1264.8999,1023.884 914.8208,1303.0628 478.2793,1203.425" stroke="#000000" stroke-width="4" /><polygon fill="none" opacity="1" points="270.3091,580.5948 580.5948,270.3091 1019.4052,270.3091 1329.6909,580.5948 1329.6909,1019.4052 1019.4052,1329.6909 580.5948,1329.6909 270.3091,1019.4052" stroke="#000000" stroke-width="2" /><polygon fill="#000000" opacity="1" points="354.0513,354.0513 745.0338,171.7332 1161.7355,283.3881 1409.1772,636.7715 1371.5781,1066.5313 1066.5313,1371.5781 636.7715,1409.1772 283.3881,1161.7355 171.7332,745.0338" stroke="#000000" stroke-width="3" /><polygon fill="none" opacity="1" points="536.7138,164.3709 960.6104,131.0095 1323.1593,353.1797 1485.8791,746.0201 1386.6164,1159.479 1063.2862,1435.6291 639.3896,1468.9905 276.8407,1246.8203 114.1209,853.9799 213.3836,440.521" stroke="#000000" stroke-width="4" /><line opacity="0.75" stroke="#000000" stroke-width="1.6" x1="753.9" x2="777.1689" y1="1199.9432" y2="1039.9076" /><line opacity="0.75" stroke="#000000" stroke-width="1.6" x1="484.5998" x2="614.2157" y1="1050.2049" y2="953.4963" /><line opacity="0.75" stroke="#000000" stroke-width="1.6" x1="400.0568" x2="560.0924" y1="753.9" y2="777.1689" /><line opacity="0.75" stroke="#000000" stroke-width="1.6" x1="549.7951" x2="646.5037" y1="484.5998" y2="614.2157" /><line opacity="0.75" stroke="#000000" stroke-width="1.6" x1="846.1" x2="822.8311" y1="400.0568" y2="560.0924" /><line opacity="0.75" stroke="#000000" stroke-width="1.6" x1="1115.4002" x2="985.7843" y1="549.7951" y2="646.5037" /><line opacity="0.75" stroke="#000000" stroke-width="1.6" x1="1199.9432" x2="1039.9076" y1="846.1" y2="822.8311" /><line opacity="0.75" stroke="#000000" stroke-width="1.6" x1="1050.2049" x2="953.4963" y1="1115.4002" y2="985.7843" /><line opacity="0.75" stroke="#000000" stroke-width="1.6" x1="1060.183" x2="580.0292" y1="1188.2601" y2="1064.6716" /><line opacity="0.75" stroke="#000000" stroke-width="1.6" x1="709.4358" x2="457.3061" y1="1258.5185" y2="831.6083" /><line opacity="0.75" stroke="#000000" stroke-width="1.6" x1="411.7399" x2="535.3284" y1="1060.183" y2="580.0292" /><line opacity="0.75" stroke="#000000" stroke-width="1.6" x1="341.4815" x2="768.3917" y1="709.4358" y2="457.3061" /><line opacity="0.75" stroke="#000000" stroke-width="1.6" x1="539.817" x2="1019.9708" y1="411.7399" y2="535.3284" /><line opacity="0.75" stroke="#000000" stroke-width="1.6" x1="890.5642" x2="1142.6939" y1="341.4815" y2="768.3917" /><line opacity="0.75" stroke="#000000" stroke-width="1.6" x1="1188.2601" x2="1064.6716" y1="539.817" y2="1019.9708" /><line opacity="0.75" stroke="#000000" stroke-width="1.6" x1="1258.5185" x2="831.6083" y1="890.5642" y2="1142.6939" /><line opacity="0.75" stroke="#000000" stroke-width="1.6" x1="866.7369" x2="1028.3893" y1="477.101" y2="520.8573" /><line opacity="0.75" stroke="#000000" stroke-width="1.6" x1="1075.5141" x2="1158.8793" y1="618.866" y2="764.1119" /><line opacity="0.75" stroke="#000000" stroke-width="1.6" x1="1122.899" x2="1079.1427" y1="866.7369" y2="1028.3893" /><line opacity="0.75" stroke="#000000" stroke-width="1.6" x1="981.134" x2="835.8881" y1="1075.5141" y2="1158.8793" /><line opacity="0.75" stroke="#000000" stroke-width="1.6" x1="733.2631" x2="571.6107" y1="1122.899" y2="1079.1427" /><line opacity="0.75" stroke="#000000" stroke-width="1.6" x1="524.4859" x2="441.1207" y1="981.134" y2="835.8881" /><line opacity="0.75" stroke="#000000" stroke-width="1.6" x1="477.101" x2="520.8573" y1="733.2631" y2="571.6107" /><line opacity="0.75" stroke="#000000" stroke-width="1.6" x1="618.866" x2="764.1119" y1="524.4859" y2="441.1207" /><line opacity="0.75" stroke="#000000" stroke-width="1.6" x1="1086.0685" x2="941.1558" y1="483.4189" y2="991.0223" /><line opacity="0.75" stroke="#000000" stroke-width="1.6" x1="1226.1376" x2="764.739" y1="778.4243" y2="1034.8854" /><line opacity="0.75" stroke="#000000" stroke-width="1.6" x1="1116.5811" x2="608.9777" y1="1086.0685" y2="941.1558" /><line opacity="0.75" stroke="#000000" stroke-width="1.6" x1="821.5757" x2="565.1146" y1="1226.1376" y2="764.739" /><line opacity="0.75" stroke="#000000" stroke-width="1.6" x1="513.9315" x2="658.8442" y1="1116.5811" y2="608.9777" /><line opacity="0.75" stroke="#000000" stroke-width="1.6" x1="373.8624" x2="835.261" y1="821.5757" y2="565.1146" /><line opacity="0.75" stroke="#000000" stroke-width="1.6" x1="483.4189" x2="991.0223" y1="513.9315" y2="658.8442" /><line opacity="0.75" stroke="#000000" stroke-width="1.6" x1="778.4243" x2="1034.8854" y1="373.8624" y2="835.261" /><line opacity="0.75" stroke="#000000" stroke-width="1.6" x1="660.3099" x2="1216.285" y1="731.5996" y2="537.3987" /><line opacity="0.75" stroke="#000000" stroke-width="1.6" x1="749.5906" x2="1280.0452" y1="652.8578" y2="908.6708" /><line opacity="0.75" stroke="#000000" stroke-width="1.6" x1="868.4004" x2="1062.6013" y1="660.3099" y2="1216.285" /><line opacity="0.75" stroke="#000000" stroke-width="1.6" x1="947.1422" x2="691.3292" y1="749.5906" y2="1280.0452" /><line opacity="0.75" stroke="#000000" stroke-width="1.6" x1="939.6901" x2="383.715" y1="868.4004" y2="1062.6013" /><line opacity="0.75" stroke="#000000" stroke-width="1.6" x1="850.4094" x2="319.9548" y1="947.1422" y2="691.3292" /><line opacity="0.75" stroke="#000000" stroke-width="1.6" x1="731.5996" x2="537.3987" y1="939.6901" y2="383.715" /><line opacity="0.75" stroke="#000000" stroke-width="1.6" x1="652.8578" x2="908.6708" y1="850.4094" y2="319.9548" /><line opacity="0.75" stroke="#000000" stroke-width="1.6" x1="1064.1829" x2="893.2853" y1="1113.3524" y2="883.4632" /><line opacity="0.75" stroke="#000000" stroke-width="1.6" x1="765.232" x2="806.9453" y1="1208.3791" y2="924.98" /><line opacity="0.75" stroke="#000000" stroke-width="1.6" x1="486.6476" x2="716.5368" y1="1064.1829" y2="893.2853" /><line opacity="0.75" stroke="#000000" stroke-width="1.6" x1="391.6209" x2="675.02" y1="765.232" y2="806.9453" /><line opacity="0.75" stroke="#000000" stroke-width="1.6" x1="535.8171" x2="706.7147" y1="486.6476" y2="716.5368" /><line opacity="0.75" stroke="#000000" stroke-width="1.6" x1="834.768" x2="793.0547" y1="391.6209" y2="675.02" /><line opacity="0.75" stroke="#000000" stroke-width="1.6" x1="1113.3524" x2="883.4632" y1="535.8171" y2="706.7147" /><line opacity="0.75" stroke="#000000" stroke-width="1.6" x1="1208.3791" x2="924.98" y1="834.768" y2="793.0547" /><line opacity="0.75" stroke="#000000" stroke-width="1.6" x1="748.8085" x2="982.7189" y1="1209.1432" y2="1200.8296" /><line opacity="0.75" stroke="#000000" stroke-width="1.6" x1="474.4942" x2="645.7725" y1="1053.1101" y2="1212.6311" /><line opacity="0.75" stroke="#000000" stroke-width="1.6" x1="390.8568" x2="399.1704" y1="748.8085" y2="982.7189" /><line opacity="0.75" stroke="#000000" stroke-width="1.6" x1="546.8899" x2="387.3689" y1="474.4942" y2="645.7725" /><line opacity="0.75" stroke="#000000" stroke-width="1.6" x1="851.1915" x2="617.2811" y1="390.8568" y2="399.1704" /><line opacity="0.75" stroke="#000000" stroke-width="1.6" x1="1125.5058" x2="954.2275" y1="546.8899" y2="387.3689" /><line opacity="0.75" stroke="#000000" stroke-width="1.6" x1="1209.1432" x2="1200.8296" y1="851.1915" y2="617.2811" /><line opacity="0.75" stroke="#000000" stroke-width="1.6" x1="1053.1101" x2="1212.6311" y1="1125.5058" y2="954.2275" /><line opacity="0.75" stroke="#000000" stroke-width="1.6" x1="1006.2751" x2="784.1156" y1="1167.9867" y2="1140.8196" /><line opacity="0.75" stroke="#000000" stroke-width="1.6" x1="685.6526" x2="547.7722" y1="1206.0644" y2="1029.7639" /><line opacity="0.75" stroke="#000000" stroke-width="1.6" x1="432.0133" x2="459.1804" y1="1006.2751" y2="784.1156" /><line opacity="0.75" stroke="#000000" stroke-width="1.6" x1="393.9356" x2="570.2361" y1="685.6526" y2="547.7722" /><line opacity="0.75" stroke="#000000" stroke-width="1.6" x1="593.7249" x2="815.8844" y1="432.0133" y2="459.1804" /><line opacity="0.75" stroke="#000000" stroke-width="1.6" x1="914.3474" x2="1052.2278" y1="393.9356" y2="570.2361" /><line opacity="0.75" stroke="#000000" stroke-width="1.6" x1="1167.9867" x2="1140.8196" y1="593.7249" y2="815.8844" /><line opacity="0.75" stroke="#000000" stroke-width="1.6" x1="1206.0644" x2="1029.7639" y1="914.3474" y2="1052.2278" /><line opacity="0.75" stroke="#000000" stroke-width="1.6" x1="873.7607" x2="548.8617" y1="1233.6524" y2="462.4711" /><line opacity="0.75" stroke="#000000" stroke-width="1.6" x1="545.5182" x2="861.0874" y1="1158.7953" y2="383.7494" /><line opacity="0.75" stroke="#000000" stroke-width="1.6" x1="366.3476" x2="1137.5289" y1="873.7607" y2="548.8617" /><line opacity="0.75" stroke="#000000" stroke-width="1.6" x1="441.2047" x2="1216.2506" y1="545.5182" y2="861.0874" /><line opacity="0.75" stroke="#000000" stroke-width="1.6" x1="726.2393" x2="1051.1383" y1="366.3476" y2="1137.5289" /><line opacity="0.75" stroke="#000000" stroke-width="1.6" x1="1054.4818" x2="738.9126" y1="441.2047" y2="1216.2506" /><line opacity="0.75" stroke="#000000" stroke-width="1.6" x1="1233.6524" x2="462.4711" y1="726.2393" y2="1051.1383" /><line opacity="0.75" stroke="#000000" stroke-width="1.6" x1="1158.7953" x2="383.7494" y1="1054.4818" y2="738.9126" /><line opacity="0.75" stroke="#000000" stroke-width="1.6" x1="758.2777" x2="810.8974" y1="400.0116" y2="528.8025" /><line opacity="0.75" stroke="#000000" stroke-width="1.6" x1="1053.3324" x2="999.4712" y1="487.6634" y2="615.94" /><line opacity="0.75" stroke="#000000" stroke-width="1.6" x1="1199.9884" x2="1071.1975" y1="758.2777" y2="810.8974" /><line opacity="0.75" stroke="#000000" stroke-width="1.6" x1="1112.3366" x2="984.06" y1="1053.3324" y2="999.4712" /><line opacity="0.75" stroke="#000000" stroke-width="1.6" x1="841.7223" x2="789.1026" y1="1199.9884" y2="1071.1975" /><line opacity="0.75" stroke="#000000" stroke-width="1.6" x1="546.6676" x2="600.5288" y1="1112.3366" y2="984.06" /><line opacity="0.75" stroke="#000000" stroke-width="1.6" x1="400.0116" x2="528.8025" y1="841.7223" y2="789.1026" /><line opacity="0.75" stroke="#000000" stroke-width="1.6" x1="487.6634" x2="615.94" y1="546.6676" y2="600.5288" /><line opacity="0.75" stroke="#000000" stroke-width="1.6" x1="771.4886" x2="1087.4147" y1="1150.8716" y2="605.984" /><line opacity="0.75" stroke="#000000" stroke-width="1.6" x1="531.7357" x2="1140.4229" y1="1027.9431" y2="866.0428" /><line opacity="0.75" stroke="#000000" stroke-width="1.6" x1="449.1284" x2="994.016" y1="771.4886" y2="1087.4147" /><line opacity="0.75" stroke="#000000" stroke-width="1.6" x1="572.0569" x2="733.9572" y1="531.7357" y2="1140.4229" /><line opacity="0.75" stroke="#000000" stroke-width="1.6" x1="828.5114" x2="512.5853" y1="449.1284" y2="994.016" /><line opacity="0.75" stroke="#000000" stroke-width="1.6" x1="1068.2643" x2="459.5771" y1="572.0569" y2="733.9572" /><line opacity="0.75" stroke="#000000" stroke-width="1.6" x1="1150.8716" x2="605.984" y1="828.5114" y2="512.5853" /><line opacity="0.75" stroke="#000000" stroke-width="1.6" x1="1027.9431" x2="866.0428" y1="1068.2643" y2="459.5771" /><line opacity="0.75" stroke="#000000" stroke-width="1.6" x1="927.5765" x2="860.1625" y1="621.2385" y2="355.9112" /><line opacity="0.75" stroke="#000000" stroke-width="1.6" x1="1016.6137" x2="1156.5595" y1="763.8068" y2="528.5231" /><line opacity="0.75" stroke="#000000" stroke-width="1.6" x1="978.7615" x2="1244.0888" y1="927.5765" y2="860.1625" /><line opacity="0.75" stroke="#000000" stroke-width="1.6" x1="836.1932" x2="1071.4769" y1="1016.6137" y2="1156.5595" /><line opacity="0.75" stroke="#000000" stroke-width="1.6" x1="672.4235" x2="739.8375" y1="978.7615" y2="1244.0888" /><line opacity="0.75" stroke="#000000" stroke-width="1.6" x1="583.3863" x2="443.4405" y1="836.1932" y2="1071.4769" /><line opacity="0.75" stroke="#000000" stroke-width="1.6" x1="621.2385" x2="355.9112" y1="672.4235" y2="739.8375" /><line opacity="0.75" stroke="#000000" stroke-width="1.6" x1="763.8068" x2="528.5231" y1="583.3863" y2="443.4405" /><line opacity="0.75" stroke="#000000" stroke-width="1.6" x1="456.8373" x2="813.1254" y1="449.4807" y2="551.002" /><line opacity="0.75" stroke="#000000" stroke-width="1.6" x1="805.2019" x2="985.3493" y1="309.4928" y2="633.2129" /><line opacity="0.75" stroke="#000000" stroke-width="1.6" x1="1150.5193" x2="1048.998" y1="456.8373" y2="813.1254" /><line opacity="0.75" stroke="#000000" stroke-width="1.6" x1="1290.5072" x2="966.7871" y1="805.2019" y2="985.3493" /><line opacity="0.75" stroke="#000000" stroke-width="1.6" x1="1143.1627" x2="786.8746" y1="1150.5193" y2="1048.998" /><line opacity="0.75" stroke="#000000" stroke-width="1.6" x1="794.7981" x2="614.6507" y1="1290.5072" y2="966.7871" /><line opacity="0.75" stroke="#000000" stroke-width="1.6" x1="449.4807" x2="551.002" y1="1143.1627" y2="786.8746" /><line opacity="0.75" stroke="#000000" stroke-width="1.6" x1="309.4928" x2="633.2129" y1="794.7981" y2="614.6507" /><line opacity="0.75" stroke="#000000" stroke-width="1.6" x1="528.4584" x2="1185.7633" y1="363.451" y2="463.3303" /><line opacity="0.75" stroke="#000000" stroke-width="1.6" x1="916.6778" x2="1310.8373" y1="299.3043" y2="834.7144" /><line opacity="0.75" stroke="#000000" stroke-width="1.6" x1="1236.549" x2="1136.6697" y1="528.4584" y2="1185.7633" /><line opacity="0.75" stroke="#000000" stroke-width="1.6" x1="1300.6957" x2="765.2856" y1="916.6778" y2="1310.8373" /><line opacity="0.75" stroke="#000000" stroke-width="1.6" x1="1071.5416" x2="414.2367" y1="1236.549" y2="1136.6697" /><line opacity="0.75" stroke="#000000" stroke-width="1.6" x1="683.3222" x2="289.1627" y1="1300.6957" y2="765.2856" /><line opacity="0.75" stroke="#000000" stroke-width="1.6" x1="363.451" x2="463.3303" y1="1071.5416" y2="414.2367" /><line opacity="0.75" stroke="#000000" stroke-width="1.6" x1="299.3043" x2="834.7144" y1="683.3222" y2="289.1627" /><line opacity="0.75" stroke="#000000" stroke-width="1.6" x1="484.6799" x2="1162.2604" y1="472.6096" y2="571.1572" /><line opacity="0.75" stroke="#000000" stroke-width="1.6" x1="808.535" x2="1217.973" y1="345.5351" y2="894.3405" /><line opacity="0.75" stroke="#000000" stroke-width="1.6" x1="1127.3904" x2="1028.8428" y1="484.6799" y2="1162.2604" /><line opacity="0.75" stroke="#000000" stroke-width="1.6" x1="1254.4649" x2="705.6595" y1="808.535" y2="1217.973" /><line opacity="0.75" stroke="#000000" stroke-width="1.6" x1="1115.3201" x2="437.7396" y1="1127.3904" y2="1028.8428" /><line opacity="0.75" stroke="#000000" stroke-width="1.6" x1="791.465" x2="382.027" y1="1254.4649" y2="705.6595" /><line opacity="0.75" stroke="#000000" stroke-width="1.6" x1="472.6096" x2="571.1572" y1="1115.3201" y2="437.7396" /><line opacity="0.75" stroke="#000000" stroke-width="1.6" x1="345.5351" x2="894.3405" y1="791.465" y2="382.027" /><line opacity="0.75" stroke="#000000" stroke-width="1.6" x1="1062.3102" x2="1076.4408" y1="431.7569" y2="860.3271" /><line opacity="0.75" stroke="#000000" stroke-width="1.6" x1="1245.8685" x2="952.8154" y1="725.0942" y2="1038.1308" /><line opacity="0.75" stroke="#000000" stroke-width="1.6" x1="1168.2431" x2="739.6729" y1="1062.3102" y2="1076.4408" /><line opacity="0.75" stroke="#000000" stroke-width="1.6" x1="874.9058" x2="561.8692" y1="1245.8685" y2="952.8154" /><line opacity="0.75" stroke="#000000" stroke-width="1.6" x1="537.6898" x2="523.5592" y1="1168.2431" y2="739.6729" /><line opacity="0.75" stroke="#000000" stroke-width="1.6" x1="354.1315" x2="647.1846" y1="874.9058" y2="561.8692" /><line opacity="0.75" stroke="#000000" stroke-width="1.6" x1="431.7569" x2="860.3271" y1="537.6898" y2="523.5592" /><line opacity="0.75" stroke="#000000" stroke-width="1.6" x1="725.0942" x2="1038.1308" y1="354.1315" y2="647.1846" /><line opacity="0.75" stroke="#000000" stroke-width="1.6" x1="1109.4417" x2="1057.6211" y1="926.3279" y2="550.0751" /><line opacity="0.75" stroke="#000000" stroke-width="1.6" x1="929.481" x2="1158.8892" y1="1108.1356" y2="805.442" /><line opacity="0.75" stroke="#000000" stroke-width="1.6" x1="673.6721" x2="1049.9249" y1="1109.4417" y2="1057.6211" /><line opacity="0.75" stroke="#000000" stroke-width="1.6" x1="491.8644" x2="794.558" y1="929.481" y2="1158.8892" /><line opacity="0.75" stroke="#000000" stroke-width="1.6" x1="490.5583" x2="542.3789" y1="673.6721" y2="1049.9249" /><line opacity="0.75" stroke="#000000" stroke-width="1.6" x1="670.519" x2="441.1108" y1="491.8644" y2="794.558" /><line opacity="0.75" stroke="#000000" stroke-width="1.6" x1="926.3279" x2="550.0751" y1="490.5583" y2="542.3789" /><line opacity="0.75" stroke="#000000" stroke-width="1.6" x1="1108.1356" x2="805.442" y1="670.519" y2="441.1108" /><line opacity="0.75" stroke="#000000" stroke-width="1.6" x1="358.5416" x2="648.8292" y1="637.6778" y2="1111.1584" /><line opacity="0.75" stroke="#000000" stroke-width="1.6" x1="602.6209" x2="473.0839" y1="373.0626" y2="913.1283" /><line opacity="0.75" stroke="#000000" stroke-width="1.6" x1="962.3222" x2="488.8416" y1="358.5416" y2="648.8292" /><line opacity="0.75" stroke="#000000" stroke-width="1.6" x1="1226.9374" x2="686.8717" y1="602.6209" y2="473.0839" /><line opacity="0.75" stroke="#000000" stroke-width="1.6" x1="1241.4584" x2="951.1708" y1="962.3222" y2="488.8416" /><line opacity="0.75" stroke="#000000" stroke-width="1.6" x1="997.3791" x2="1126.9161" y1="1226.9374" y2="686.8717" /><line opacity="0.75" stroke="#000000" stroke-width="1.6" x1="637.6778" x2="1111.1584" y1="1241.4584" y2="951.1708" /><line opacity="0.75" stroke="#000000" stroke-width="1.6" x1="373.0626" x2="913.1283" y1="997.3791" y2="1126.9161" /><line opacity="0.75" stroke="#000000" stroke-width="1.6" x1="488.8089" x2="833.2972" y1="608.4731" y2="719.288" /><line opacity="0.75" stroke="#000000" stroke-width="1.6" x1="715.3846" x2="880.6167" y1="444.5247" y2="766.4726" /><line opacity="0.75" stroke="#000000" stroke-width="1.6" x1="991.5269" x2="880.712" y1="488.8089" y2="833.2972" /><line opacity="0.75" stroke="#000000" stroke-width="1.6" x1="1155.4753" x2="833.5274" y1="715.3846" y2="880.6167" /><line opacity="0.75" stroke="#000000" stroke-width="1.6" x1="1111.1911" x2="766.7028" y1="991.5269" y2="880.712" /><line opacity="0.75" stroke="#000000" stroke-width="1.6" x1="884.6154" x2="719.3833" y1="1155.4753" y2="833.5274" /><line opacity="0.75" stroke="#000000" stroke-width="1.6" x1="608.4731" x2="719.288" y1="1111.1911" y2="766.7028" /><line opacity="0.75" stroke="#000000" stroke-width="1.6" x1="444.5247" x2="766.4726" y1="884.6154" y2="719.3833" /><line opacity="0.75" stroke="#000000" stroke-width="1.6" x1="1018.2052" x2="481.9694" y1="1066.5201" y2="522.0772" /><line opacity="0.75" stroke="#000000" stroke-width="1.6" x1="765.8362" x2="771.6395" y1="1142.7526" y2="378.5973" /><line opacity="0.75" stroke="#000000" stroke-width="1.6" x1="533.4799" x2="1077.9228" y1="1018.2052" y2="481.9694" /><line opacity="0.75" stroke="#000000" stroke-width="1.6" x1="457.2474" x2="1221.4027" y1="765.8362" y2="771.6395" /><line opacity="0.75" stroke="#000000" stroke-width="1.6" x1="581.7948" x2="1118.0306" y1="533.4799" y2="1077.9228" /><line opacity="0.75" stroke="#000000" stroke-width="1.6" x1="834.1638" x2="828.3605" y1="457.2474" y2="1221.4027" /><line opacity="0.75" stroke="#000000" stroke-width="1.6" x1="1066.5201" x2="522.0772" y1="581.7948" y2="1118.0306" /><line opacity="0.75" stroke="#000000" stroke-width="1.6" x1="1142.7526" x2="378.5973" y1="834.1638" y2="828.3605" /><line opacity="0.75" stroke="#000000" stroke-width="1.6" x1="556.3871" x2="788.7761" y1="362.7496" y2="839.1295" /><line opacity="0.75" stroke="#000000" stroke-width="1.6" x1="936.9224" x2="764.3948" y1="318.5569" y2="819.7323" /><line opacity="0.75" stroke="#000000" stroke-width="1.6" x1="1237.2504" x2="760.8705" y1="556.3871" y2="788.7761" /><line opacity="0.75" stroke="#000000" stroke-width="1.6" x1="1281.4431" x2="780.2677" y1="936.9224" y2="764.3948" /><line opacity="0.75" stroke="#000000" stroke-width="1.6" x1="1043.6129" x2="811.2239" y1="1237.2504" y2="760.8705" /><line opacity="0.75" stroke="#000000" stroke-width="1.6" x1="663.0776" x2="835.6052" y1="1281.4431" y2="780.2677" /><line opacity="0.75" stroke="#000000" stroke-width="1.6" x1="362.7496" x2="839.1295" y1="1043.6129" y2="811.2239" /><line opacity="0.75" stroke="#000000" stroke-width="1.6" x1="318.5569" x2="819.7323" y1="663.0776" y2="835.6052" /><line opacity="0.75" stroke="#000000" stroke-width="1.6" x1="885.915" x2="663.7418" y1="1144.348" y2="892.1565" /><line opacity="0.75" stroke="#000000" stroke-width="1.6" x1="617.2602" x2="638.4864" y1="1104.2419" y2="768.8154" /><line opacity="0.75" stroke="#000000" stroke-width="1.6" x1="455.652" x2="707.8435" y1="885.915" y2="663.7418" /><line opacity="0.75" stroke="#000000" stroke-width="1.6" x1="495.7581" x2="831.1846" y1="617.2602" y2="638.4864" /><line opacity="0.75" stroke="#000000" stroke-width="1.6" x1="714.085" x2="936.2582" y1="455.652" y2="707.8435" /><line opacity="0.75" stroke="#000000" stroke-width="1.6" x1="982.7398" x2="961.5136" y1="495.7581" y2="831.1846" /><line opacity="0.75" stroke="#000000" stroke-width="1.6" x1="1144.348" x2="892.1565" y1="714.085" y2="936.2582" /><line opacity="0.75" stroke="#000000" stroke-width="1.6" x1="1104.2419" x2="768.8154" y1="982.7398" y2="961.5136" /><line opacity="0.75" stroke="#000000" stroke-width="1.6" x1="734.2897" x2="1041.7299" y1="481.2027" y2="1149.4882" /><line opacity="0.75" stroke="#000000" stroke-width="1.6" x1="978.9596" x2="723.8033" y1="528.1121" y2="1218.0543" /><line opacity="0.75" stroke="#000000" stroke-width="1.6" x1="1118.7973" x2="450.5118" y1="734.2897" y2="1041.7299" /><line opacity="0.75" stroke="#000000" stroke-width="1.6" x1="1071.8879" x2="381.9457" y1="978.9596" y2="723.8033" /><line opacity="0.75" stroke="#000000" stroke-width="1.6" x1="865.7103" x2="558.2701" y1="1118.7973" y2="450.5118" /><line opacity="0.75" stroke="#000000" stroke-width="1.6" x1="621.0404" x2="876.1967" y1="1071.8879" y2="381.9457" /><line opacity="0.75" stroke="#000000" stroke-width="1.6" x1="481.2027" x2="1149.4882" y1="865.7103" y2="558.2701" /><line opacity="0.75" stroke="#000000" stroke-width="1.6" x1="528.1121" x2="1218.0543" y1="621.0404" y2="876.1967" /><line opacity="0.75" stroke="#000000" stroke-width="1.6" x1="370.5822" x2="858.706" y1="542.365" y2="1033.1608" /><line opacity="0.75" stroke="#000000" stroke-width="1.6" x1="678.5312" x2="676.6418" y1="314.1803" y2="1006.381" /><line opacity="0.75" stroke="#000000" stroke-width="1.6" x1="1057.635" x2="566.8392" y1="370.5822" y2="858.706" /><line opacity="0.75" stroke="#000000" stroke-width="1.6" x1="1285.8197" x2="593.619" y1="678.5312" y2="676.6418" /><line opacity="0.75" stroke="#000000" stroke-width="1.6" x1="1229.4178" x2="741.294" y1="1057.635" y2="566.8392" /><line opacity="0.75" stroke="#000000" stroke-width="1.6" x1="921.4688" x2="923.3582" y1="1285.8197" y2="593.619" /><line opacity="0.75" stroke="#000000" stroke-width="1.6" x1="542.365" x2="1033.1608" y1="1229.4178" y2="741.294" /><line opacity="0.75" stroke="#000000" stroke-width="1.6" x1="314.1803" x2="1006.381" y1="921.4688" y2="923.3582" /><line opacity="0.75" stroke="#000000" stroke-width="1.6" x1="931.2875" x2="987.6891" y1="706.2735" y2="662.9119" /><line opacity="0.75" stroke="#000000" stroke-width="1.6" x1="959.1089" x2="1029.6522" y1="826.5597" y2="835.7803" /><line opacity="0.75" stroke="#000000" stroke-width="1.6" x1="893.7265" x2="937.0881" y1="931.2875" y2="987.6891" /><line opacity="0.75" stroke="#000000" stroke-width="1.6" x1="773.4403" x2="764.2197" y1="959.1089" y2="1029.6522" /><line opacity="0.75" stroke="#000000" stroke-width="1.6" x1="668.7125" x2="612.3109" y1="893.7265" y2="937.0881" /><line opacity="0.75" stroke="#000000" stroke-width="1.6" x1="640.8911" x2="570.3478" y1="773.4403" y2="764.2197" /><line opacity="0.75" stroke="#000000" stroke-width="1.6" x1="706.2735" x2="662.9119" y1="668.7125" y2="612.3109" /><line opacity="0.75" stroke="#000000" stroke-width="1.6" x1="826.5597" x2="835.7803" y1="640.8911" y2="570.3478" /><line opacity="0.75" stroke="#000000" stroke-width="1.6" x1="709.7338" x2="499.1853" y1="1144.566" y2="562.844" /><line opacity="0.75" stroke="#000000" stroke-width="1.6" x1="492.5272" x2="754.9865" y1="979.8171" y2="419.5973" /><line opacity="0.75" stroke="#000000" stroke-width="1.6" x1="455.434" x2="1037.156" y1="709.7338" y2="499.1853" /><line opacity="0.75" stroke="#000000" stroke-width="1.6" x1="620.1829" x2="1180.4027" y1="492.5272" y2="754.9865" /><line opacity="0.75" stroke="#000000" stroke-width="1.6" x1="890.2662" x2="1100.8147" y1="455.434" y2="1037.156" /><line opacity="0.75" stroke="#000000" stroke-width="1.6" x1="1107.4728" x2="845.0135" y1="620.1829" y2="1180.4027" /><line opacity="0.75" stroke="#000000" stroke-width="1.6" x1="1144.566" x2="562.844" y1="890.2662" y2="1100.8147" /><line opacity="0.75" stroke="#000000" stroke-width="1.6" x1="979.8171" x2="419.5973" y1="1107.4728" y2="845.0135" /><line opacity="0.75" stroke="#000000" stroke-width="1.6" x1="540.2521" x2="884.2398" y1="1190.6729" y2="622.5073" /><line opacity="0.75" stroke="#000000" stroke-width="1.6" x1="340.083" x2="985.0728" y1="892.5779" y2="734.0602" /><line opacity="0.75" stroke="#000000" stroke-width="1.6" x1="409.3271" x2="977.4927" y1="540.2521" y2="884.2398" /><line opacity="0.75" stroke="#000000" stroke-width="1.6" x1="707.4221" x2="865.9398" y1="340.083" y2="985.0728" /><line opacity="0.75" stroke="#000000" stroke-width="1.6" x1="1059.7479" x2="715.7602" y1="409.3271" y2="977.4927" /><line opacity="0.75" stroke="#000000" stroke-width="1.6" x1="1259.917" x2="614.9272" y1="707.4221" y2="865.9398" /><line opacity="0.75" stroke="#000000" stroke-width="1.6" x1="1190.6729" x2="622.5073" y1="1059.7479" y2="715.7602" /><line opacity="0.75" stroke="#000000" stroke-width="1.6" x1="892.5779" x2="734.0602" y1="1259.917" y2="614.9272" /><line opacity="0.75" stroke="#000000" stroke-width="1.6" x1="391.9639" x2="458.4432" y1="789.0723" y2="426.0036" /><line opacity="0.75" stroke="#000000" stroke-width="1.6" x1="519.202" x2="822.9383" y1="503.7479" y2="294.0275" /><line opacity="0.75" stroke="#000000" stroke-width="1.6" x1="810.9277" x2="1173.9964" y1="391.9639" y2="458.4432" /><line opacity="0.75" stroke="#000000" stroke-width="1.6" x1="1096.2521" x2="1305.9725" y1="519.202" y2="822.9383" /><line opacity="0.75" stroke="#000000" stroke-width="1.6" x1="1208.0361" x2="1141.5568" y1="810.9277" y2="1173.9964" /><line opacity="0.75" stroke="#000000" stroke-width="1.6" x1="1080.798" x2="777.0617" y1="1096.2521" y2="1305.9725" /><line opacity="0.75" stroke="#000000" stroke-width="1.6" x1="789.0723" x2="426.0036" y1="1208.0361" y2="1141.5568" /><line opacity="0.75" stroke="#000000" stroke-width="1.6" x1="503.7479" x2="294.0275" y1="1080.798" y2="777.0617" /><line opacity="0.75" stroke="#000000" stroke-width="1.6" x1="919.9763" x2="1203.0154" y1="991.2797" y2="931.37" /><line opacity="0.75" stroke="#000000" stroke-width="1.6" x1="749.5809" x2="992.0823" y1="1020.0913" y2="1177.8676" /><line opacity="0.75" stroke="#000000" stroke-width="1.6" x1="608.7203" x2="668.63" y1="919.9763" y2="1203.0154" /><line opacity="0.75" stroke="#000000" stroke-width="1.6" x1="579.9087" x2="422.1324" y1="749.5809" y2="992.0823" /><line opacity="0.75" stroke="#000000" stroke-width="1.6" x1="680.0237" x2="396.9846" y1="608.7203" y2="668.63" /><line opacity="0.75" stroke="#000000" stroke-width="1.6" x1="850.4191" x2="607.9177" y1="579.9087" y2="422.1324" /><line opacity="0.75" stroke="#000000" stroke-width="1.6" x1="991.2797" x2="931.37" y1="680.0237" y2="396.9846" /><line opacity="0.75" stroke="#000000" stroke-width="1.6" x1="1020.0913" x2="1177.8676" y1="850.4191" y2="607.9177" /><line opacity="0.75" stroke="#000000" stroke-width="1.6" x1="735.2837" x2="472.0991" y1="386.108" y2="1032.7758" /><line opacity="0.75" stroke="#000000" stroke-width="1.6" x1="1046.9046" x2="403.5417" y1="461.5728" y2="732.7364" /><line opacity="0.75" stroke="#000000" stroke-width="1.6" x1="1213.892" x2="567.2242" y1="735.2837" y2="472.0991" /><line opacity="0.75" stroke="#000000" stroke-width="1.6" x1="1138.4272" x2="867.2636" y1="1046.9046" y2="403.5417" /><line opacity="0.75" stroke="#000000" stroke-width="1.6" x1="864.7163" x2="1127.9009" y1="1213.892" y2="567.2242" /><line opacity="0.75" stroke="#000000" stroke-width="1.6" x1="553.0954" x2="1196.4583" y1="1138.4272" y2="867.2636" /><line opacity="0.75" stroke="#000000" stroke-width="1.6" x1="386.108" x2="1032.7758" y1="864.7163" y2="1127.9009" /><line opacity="0.75" stroke="#000000" stroke-width="1.6" x1="461.5728" x2="732.7364" y1="553.0954" y2="1196.4583" /><line opacity="0.75" stroke="#000000" stroke-width="1.6" x1="535.7286" x2="752.556" y1="813.6253" y2="562.3273" /><line opacity="0.75" stroke="#000000" stroke-width="1.6" x1="603.4974" x2="934.512" y1="622.7664" y2="598.392" /><line opacity="0.75" stroke="#000000" stroke-width="1.6" x1="786.3747" x2="1037.6727" y1="535.7286" y2="752.556" /><line opacity="0.75" stroke="#000000" stroke-width="1.6" x1="977.2336" x2="1001.608" y1="603.4974" y2="934.512" /><line opacity="0.75" stroke="#000000" stroke-width="1.6" x1="1064.2714" x2="847.444" y1="786.3747" y2="1037.6727" /><line opacity="0.75" stroke="#000000" stroke-width="1.6" x1="996.5026" x2="665.488" y1="977.2336" y2="1001.608" /><line opacity="0.75" stroke="#000000" stroke-width="1.6" x1="813.6253" x2="562.3273" y1="1064.2714" y2="847.444" /><line opacity="0.75" stroke="#000000" stroke-width="1.6" x1="622.7664" x2="598.392" y1="996.5026" y2="665.488" /><line opacity="0.75" stroke="#000000" stroke-width="1.6" x1="1084.5697" x2="524.2309" y1="456.2086" y2="1017.7102" /><line opacity="0.75" stroke="#000000" stroke-width="1.6" x1="1244.3184" x2="451.0574" y1="758.124" y2="758.9462" /><line opacity="0.75" stroke="#000000" stroke-width="1.6" x1="1143.7914" x2="582.2898" y1="1084.5697" y2="524.2309" /><line opacity="0.75" stroke="#000000" stroke-width="1.6" x1="841.876" x2="841.0538" y1="1244.3184" y2="451.0574" /><line opacity="0.75" stroke="#000000" stroke-width="1.6" x1="515.4303" x2="1075.7691" y1="1143.7914" y2="582.2898" /><line opacity="0.75" stroke="#000000" stroke-width="1.6" x1="355.6816" x2="1148.9426" y1="841.876" y2="841.0538" /><line opacity="0.75" stroke="#000000" stroke-width="1.6" x1="456.2086" x2="1017.7102" y1="515.4303" y2="1075.7691" /><line opacity="0.75" stroke="#000000" stroke-width="1.6" x1="758.124" x2="758.9462" y1="355.6816" y2="1148.9426" /><line opacity="0.75" stroke="#000000" stroke-width="1.6" x1="491.8182" x2="1041.4088" y1="898.6229" y2="428.2516" /><line opacity="0.75" stroke="#000000" stroke-width="1.6" x1="512.3456" x2="1233.5676" y1="651.8195" y2="707.836" /><line opacity="0.75" stroke="#000000" stroke-width="1.6" x1="701.3771" x2="1171.7484" y1="491.8182" y2="1041.4088" /><line opacity="0.75" stroke="#000000" stroke-width="1.6" x1="948.1805" x2="892.164" y1="512.3456" y2="1233.5676" /><line opacity="0.75" stroke="#000000" stroke-width="1.6" x1="1108.1818" x2="558.5912" y1="701.3771" y2="1171.7484" /><line opacity="0.75" stroke="#000000" stroke-width="1.6" x1="1087.6544" x2="366.4324" y1="948.1805" y2="892.164" /><line opacity="0.75" stroke="#000000" stroke-width="1.6" x1="898.6229" x2="428.2516" y1="1108.1818" y2="558.5912" /><line opacity="0.75" stroke="#000000" stroke-width="1.6" x1="651.8195" x2="707.836" y1="1087.6544" y2="366.4324" /><line opacity="0.75" stroke="#000000" stroke-width="1.6" x1="646.9128" x2="453.4798" y1="826.0665" y2="852.7658" /><line opacity="0.75" stroke="#000000" stroke-width="1.6" x1="673.3192" x2="517.6622" y1="710.1828" y2="592.2843" /><line opacity="0.75" stroke="#000000" stroke-width="1.6" x1="773.9335" x2="747.2342" y1="646.9128" y2="453.4798" /><line opacity="0.75" stroke="#000000" stroke-width="1.6" x1="889.8172" x2="1007.7157" y1="673.3192" y2="517.6622" /><line opacity="0.75" stroke="#000000" stroke-width="1.6" x1="953.0872" x2="1146.5202" y1="773.9335" y2="747.2342" /><line opacity="0.75" stroke="#000000" stroke-width="1.6" x1="926.6808" x2="1082.3378" y1="889.8172" y2="1007.7157" /><line opacity="0.75" stroke="#000000" stroke-width="1.6" x1="826.0665" x2="852.7658" y1="953.0872" y2="1146.5202" /><line opacity="0.75" stroke="#000000" stroke-width="1.6" x1="710.1828" x2="592.2843" y1="926.6808" y2="1082.3378" /><line opacity="0.75" stroke="#000000" stroke-width="1.6" x1="425.0891" x2="996.5145" y1="922.4611" y2="993.2581" /><line opacity="0.75" stroke="#000000" stroke-width="1.6" x1="448.3049" x2="802.3026" y1="621.491" y2="1075.6108" /><line opacity="0.75" stroke="#000000" stroke-width="1.6" x1="677.5389" x2="606.7419" y1="425.0891" y2="996.5145" /><line opacity="0.75" stroke="#000000" stroke-width="1.6" x1="978.509" x2="524.3892" y1="448.3049" y2="802.3026" /><line opacity="0.75" stroke="#000000" stroke-width="1.6" x1="1174.9109" x2="603.4855" y1="677.5389" y2="606.7419" /><line opacity="0.75" stroke="#000000" stroke-width="1.6" x1="1151.6951" x2="797.6974" y1="978.509" y2="524.3892" /><line opacity="0.75" stroke="#000000" stroke-width="1.6" x1="922.4611" x2="993.2581" y1="1174.9109" y2="603.4855" /><line opacity="0.75" stroke="#000000" stroke-width="1.6" x1="621.491" x2="1075.6108" y1="1151.6951" y2="797.6974" /><line opacity="0.75" stroke="#000000" stroke-width="1.6" x1="352.9588" x2="1004.5791" y1="565.2553" y2="1023.7256" /><line opacity="0.75" stroke="#000000" stroke-width="1.6" x1="649.8837" x2="786.4614" y1="317.9046" y2="1102.8571" /><line opacity="0.75" stroke="#000000" stroke-width="1.6" x1="1034.7447" x2="576.2744" y1="352.9588" y2="1004.5791" /><line opacity="0.75" stroke="#000000" stroke-width="1.6" x1="1282.0954" x2="497.1429" y1="649.8837" y2="786.4614" /><line opacity="0.75" stroke="#000000" stroke-width="1.6" x1="1247.0412" x2="595.4209" y1="1034.7447" y2="576.2744" /><line opacity="0.75" stroke="#000000" stroke-width="1.6" x1="950.1163" x2="813.5386" y1="1282.0954" y2="497.1429" /><line opacity="0.75" stroke="#000000" stroke-width="1.6" x1="565.2553" x2="1023.7256" y1="1247.0412" y2="595.4209" /><line opacity="0.75" stroke="#000000" stroke-width="1.6" x1="317.9046" x2="1102.8571" y1="950.1163" y2="813.5386" /><line opacity="0.75" stroke="#000000" stroke-width="1.6" x1="623.4188" x2="453.3614" y1="1190.3558" y2="562.7016" /><line opacity="0.75" stroke="#000000" stroke-width="1.6" x1="399.115" x2="722.6848" y1="951.1614" y2="387.0942" /><line opacity="0.75" stroke="#000000" stroke-width="1.6" x1="409.6442" x2="1037.2984" y1="623.4188" y2="453.3614" /><line opacity="0.75" stroke="#000000" stroke-width="1.6" x1="648.8386" x2="1212.9058" y1="399.115" y2="722.6848" /><line opacity="0.75" stroke="#000000" stroke-width="1.6" x1="976.5812" x2="1146.6386" y1="409.6442" y2="1037.2984" /><line opacity="0.75" stroke="#000000" stroke-width="1.6" x1="1200.885" x2="877.3152" y1="648.8386" y2="1212.9058" /><line opacity="0.75" stroke="#000000" stroke-width="1.6" x1="1190.3558" x2="562.7016" y1="976.5812" y2="1146.6386" /><line opacity="0.75" stroke="#000000" stroke-width="1.6" x1="951.1614" x2="387.0942" y1="1200.885" y2="877.3152" /><line opacity="0.75" stroke="#000000" stroke-width="1.6" x1="840.4961" x2="1055.2084" y1="994.296" y2="737.1437" /><line opacity="0.75" stroke="#000000" stroke-width="1.6" x1="691.247" x2="1024.9058" y1="966.0231" y2="936.0135" /><line opacity="0.75" stroke="#000000" stroke-width="1.6" x1="605.704" x2="862.8563" y1="840.4961" y2="1055.2084" /><line opacity="0.75" stroke="#000000" stroke-width="1.6" x1="633.9769" x2="663.9865" y1="691.247" y2="1024.9058" /><line opacity="0.75" stroke="#000000" stroke-width="1.6" x1="759.5039" x2="544.7916" y1="605.704" y2="862.8563" /><line opacity="0.75" stroke="#000000" stroke-width="1.6" x1="908.753" x2="575.0942" y1="633.9769" y2="663.9865" /><line opacity="0.75" stroke="#000000" stroke-width="1.6" x1="994.296" x2="737.1437" y1="759.5039" y2="544.7916" /><line opacity="0.75" stroke="#000000" stroke-width="1.6" x1="966.0231" x2="936.0135" y1="908.753" y2="575.0942" /><line opacity="0.75" stroke="#000000" stroke-width="1.6" x1="942.9698" x2="1170.5115" y1="767.1225" y2="1193.4674" /><line opacity="0.75" stroke="#000000" stroke-width="1.6" x1="924.3428" x2="783.7677" y1="877.847" y2="1340.2146" /><line opacity="0.75" stroke="#000000" stroke-width="1.6" x1="832.8775" x2="406.5326" y1="942.9698" y2="1170.5115" /><line opacity="0.75" stroke="#000000" stroke-width="1.6" x1="722.153" x2="259.7854" y1="924.3428" y2="783.7677" /><line opacity="0.75" stroke="#000000" stroke-width="1.6" x1="657.0302" x2="429.4885" y1="832.8775" y2="406.5326" /><line opacity="0.75" stroke="#000000" stroke-width="1.6" x1="675.6572" x2="816.2323" y1="722.153" y2="259.7854" /><line opacity="0.75" stroke="#000000" stroke-width="1.6" x1="767.1225" x2="1193.4674" y1="657.0302" y2="429.4885" /><line opacity="0.75" stroke="#000000" stroke-width="1.6" x1="877.847" x2="1340.2146" y1="675.6572" y2="816.2323" /><line opacity="0.75" stroke="#000000" stroke-width="1.6" x1="447.8777" x2="398.0977" y1="389.4535" y2="750.3294" /><line opacity="0.75" stroke="#000000" stroke-width="1.6" x1="841.3121" x2="550.9346" y1="260.7117" y2="480.6897" /><line opacity="0.75" stroke="#000000" stroke-width="1.6" x1="1210.5465" x2="849.6706" y1="447.8777" y2="398.0977" /><line opacity="0.75" stroke="#000000" stroke-width="1.6" x1="1339.2883" x2="1119.3103" y1="841.3121" y2="550.9346" /><line opacity="0.75" stroke="#000000" stroke-width="1.6" x1="1152.1223" x2="1201.9023" y1="1210.5465" y2="849.6706" /><line opacity="0.75" stroke="#000000" stroke-width="1.6" x1="758.6879" x2="1049.0654" y1="1339.2883" y2="1119.3103" /><line opacity="0.75" stroke="#000000" stroke-width="1.6" x1="389.4535" x2="750.3294" y1="1152.1223" y2="1201.9023" /><line opacity="0.75" stroke="#000000" stroke-width="1.6" x1="260.7117" x2="480.6897" y1="758.6879" y2="1049.0654" /><line opacity="0.75" stroke="#000000" stroke-width="1.6" x1="679.9406" x2="908.8744" y1="1241.071" y2="643.2331" /><line opacity="0.75" stroke="#000000" stroke-width="1.6" x1="403.2209" x2="987.8368" y1="1026.9895" y2="766.1349" /><line opacity="0.75" stroke="#000000" stroke-width="1.6" x1="358.929" x2="956.7669" y1="679.9406" y2="908.8744" /><line opacity="0.75" stroke="#000000" stroke-width="1.6" x1="573.0105" x2="833.8651" y1="403.2209" y2="987.8368" /><line opacity="0.75" stroke="#000000" stroke-width="1.6" x1="920.0594" x2="691.1256" y1="358.929" y2="956.7669" /><line opacity="0.75" stroke="#000000" stroke-width="1.6" x1="1196.7791" x2="612.1632" y1="573.0105" y2="833.8651" /><line opacity="0.75" stroke="#000000" stroke-width="1.6" x1="1241.071" x2="643.2331" y1="920.0594" y2="691.1256" /><line opacity="0.75" stroke="#000000" stroke-width="1.6" x1="1026.9895" x2="766.1349" y1="1196.7791" y2="612.1632" /><line opacity="0.75" stroke="#000000" stroke-width="1.6" x1="1204.2759" x2="410.2323" y1="798.7041" y2="1028.7277" /><line opacity="0.75" stroke="#000000" stroke-width="1.6" x1="1086.7826" x2="362.6577" y1="1084.9499" y2="686.1275" /><line opacity="0.75" stroke="#000000" stroke-width="1.6" x1="801.2959" x2="571.2723" y1="1204.2759" y2="410.2323" /><line opacity="0.75" stroke="#000000" stroke-width="1.6" x1="515.0501" x2="913.8725" y1="1086.7826" y2="362.6577" /><line opacity="0.75" stroke="#000000" stroke-width="1.6" x1="395.7241" x2="1189.7677" y1="801.2959" y2="571.2723" /><line opacity="0.75" stroke="#000000" stroke-width="1.6" x1="513.2174" x2="1237.3423" y1="515.0501" y2="913.8725" /><line opacity="0.75" stroke="#000000" stroke-width="1.6" x1="798.7041" x2="1028.7277" y1="395.7241" y2="1189.7677" /><line opacity="0.75" stroke="#000000" stroke-width="1.6" x1="1084.9499" x2="686.1275" y1="513.2174" y2="1237.3423" /><line opacity="0.75" stroke="#000000" stroke-width="1.6" x1="826.2557" x2="742.95" y1="413.7558" y2="787.3149" /><line opacity="0.75" stroke="#000000" stroke-width="1.6" x1="1091.6814" x2="768.6293" y1="545.4497" y2="750.6899" /><line opacity="0.75" stroke="#000000" stroke-width="1.6" x1="1186.2442" x2="812.6851" y1="826.2557" y2="742.95" /><line opacity="0.75" stroke="#000000" stroke-width="1.6" x1="1054.5503" x2="849.3101" y1="1091.6814" y2="768.6293" /><line opacity="0.75" stroke="#000000" stroke-width="1.6" x1="773.7443" x2="857.05" y1="1186.2442" y2="812.6851" /><line opacity="0.75" stroke="#000000" stroke-width="1.6" x1="508.3186" x2="831.3707" y1="1054.5503" y2="849.3101" /><line opacity="0.75" stroke="#000000" stroke-width="1.6" x1="413.7558" x2="787.3149" y1="773.7443" y2="857.05" /><line opacity="0.75" stroke="#000000" stroke-width="1.6" x1="545.4497" x2="750.6899" y1="508.3186" y2="831.3707" /><line opacity="0.75" stroke="#000000" stroke-width="1.6" x1="1074.2689" x2="378.7304" y1="802.2238" y2="417.6994" /><line opacity="0.75" stroke="#000000" stroke-width="1.6" x1="992.365" x2="772.4448" y1="995.5099" y2="231.79" /><line opacity="0.75" stroke="#000000" stroke-width="1.6" x1="797.7762" x2="1182.3006" y1="1074.2689" y2="378.7304" /><line opacity="0.75" stroke="#000000" stroke-width="1.6" x1="604.4901" x2="1368.21" y1="992.365" y2="772.4448" /><line opacity="0.75" stroke="#000000" stroke-width="1.6" x1="525.7311" x2="1221.2696" y1="797.7762" y2="1182.3006" /><line opacity="0.75" stroke="#000000" stroke-width="1.6" x1="607.635" x2="827.5552" y1="604.4901" y2="1368.21" /><line opacity="0.75" stroke="#000000" stroke-width="1.6" x1="802.2238" x2="417.6994" y1="525.7311" y2="1221.2696" /><line opacity="0.75" stroke="#000000" stroke-width="1.6" x1="995.5099" x2="231.79" y1="607.635" y2="827.5552" /><line opacity="0.75" stroke="#000000" stroke-width="1.6" x1="657.9981" x2="865.1723" y1="588.2264" y2="549.5843" /><line opacity="0.75" stroke="#000000" stroke-width="1.6" x1="849.336" x2="1023.1544" y1="549.8429" y2="669.0131" /><line opacity="0.75" stroke="#000000" stroke-width="1.6" x1="1011.7736" x2="1050.4157" y1="657.9981" y2="865.1723" /><line opacity="0.75" stroke="#000000" stroke-width="1.6" x1="1050.1571" x2="930.9869" y1="849.336" y2="1023.1544" /><line opacity="0.75" stroke="#000000" stroke-width="1.6" x1="942.0019" x2="734.8277" y1="1011.7736" y2="1050.4157" /><line opacity="0.75" stroke="#000000" stroke-width="1.6" x1="750.664" x2="576.8456" y1="1050.1571" y2="930.9869" /><line opacity="0.75" stroke="#000000" stroke-width="1.6" x1="588.2264" x2="549.5843" y1="942.0019" y2="734.8277" /><line opacity="0.75" stroke="#000000" stroke-width="1.6" x1="549.8429" x2="669.0131" y1="750.664" y2="576.8456" /><line opacity="0.75" stroke="#000000" stroke-width="1.6" x1="986.9265" x2="407.0386" y1="362.075" y2="1236.7036" /><line opacity="0.75" stroke="#000000" stroke-width="1.6" x1="1241.8367" x2="213.3383" y1="622.5172" y2="830.9304" /><line opacity="0.75" stroke="#000000" stroke-width="1.6" x1="1237.925" x2="363.2964" y1="986.9265" y2="407.0386" /><line opacity="0.75" stroke="#000000" stroke-width="1.6" x1="977.4828" x2="769.0696" y1="1241.8367" y2="213.3383" /><line opacity="0.75" stroke="#000000" stroke-width="1.6" x1="613.0735" x2="1192.9614" y1="1237.925" y2="363.2964" /><line opacity="0.75" stroke="#000000" stroke-width="1.6" x1="358.1633" x2="1386.6617" y1="977.4828" y2="769.0696" /><line opacity="0.75" stroke="#000000" stroke-width="1.6" x1="362.075" x2="1236.7036" y1="613.0735" y2="1192.9614" /><line opacity="0.75" stroke="#000000" stroke-width="1.6" x1="622.5172" x2="830.9304" y1="358.1633" y2="1386.6617" /><line opacity="0.75" stroke="#000000" stroke-width="1.6" x1="491.3987" x2="644.3897" y1="1141.8157" y2="660.0285" /><line opacity="0.75" stroke="#000000" stroke-width="1.6" x1="340.0857" x2="788.9417" y1="823.4862" y2="590.9921" /><line opacity="0.75" stroke="#000000" stroke-width="1.6" x1="458.1843" x2="939.9715" y1="491.3987" y2="644.3897" /><line opacity="0.75" stroke="#000000" stroke-width="1.6" x1="776.5138" x2="1009.0079" y1="340.0857" y2="788.9417" /><line opacity="0.75" stroke="#000000" stroke-width="1.6" x1="1108.6013" x2="955.6103" y1="458.1843" y2="939.9715" /><line opacity="0.75" stroke="#000000" stroke-width="1.6" x1="1259.9143" x2="811.0583" y1="776.5138" y2="1009.0079" /><line opacity="0.75" stroke="#000000" stroke-width="1.6" x1="1141.8157" x2="660.0285" y1="1108.6013" y2="955.6103" /><line opacity="0.75" stroke="#000000" stroke-width="1.6" x1="823.4862" x2="590.9921" y1="1259.9143" y2="811.0583" /><line opacity="0.75" stroke="#000000" stroke-width="1.6" x1="645.7449" x2="479.3827" y1="1226.0669" y2="735.3896" /><line opacity="0.75" stroke="#000000" stroke-width="1.6" x1="389.6504" x2="618.9758" y1="992.2" y2="527.6029" /><line opacity="0.75" stroke="#000000" stroke-width="1.6" x1="373.9331" x2="864.6104" y1="645.7449" y2="479.3827" /><line opacity="0.75" stroke="#000000" stroke-width="1.6" x1="607.8" x2="1072.3971" y1="389.6504" y2="618.9758" /><line opacity="0.75" stroke="#000000" stroke-width="1.6" x1="954.2551" x2="1120.6173" y1="373.9331" y2="864.6104" /><line opacity="0.75" stroke="#000000" stroke-width="1.6" x1="1210.3496" x2="981.0242" y1="607.8" y2="1072.3971" /><line opacity="0.75" stroke="#000000" stroke-width="1.6" x1="1226.0669" x2="735.3896" y1="954.2551" y2="1120.6173" /><line opacity="0.75" stroke="#000000" stroke-width="1.6" x1="992.2" x2="527.6029" y1="1210.3496" y2="981.0242" /></svg>