<?xml version="1.0" encoding="utf-8" ?>
<svg baseProfile="tiny" height="1600" version="1.2" viewBox="0 0 1600 1600" width="1600" xmlns="http://www.w3.org/2000/svg" xmlns:ev="http://www.w3.org/2001/xml-events" xmlns:xlink="http://www.w3.org/1999/xlink"><defs /><rect fill="#FFFFFF" height="100%" width="100%" x="0" y="0" /><circle cx="800.0" cy="800.0" fill="none" opacity="0.82" r="56.0" stroke="#000000" stroke-width="2" /><polygon fill="none" opacity="1" points="813.6122,796.7278 875.6,800.0 813.6122,803.2722 812.88,800.0" stroke="#000000" stroke-width="1.5" /><polygon fill="none" opacity="1" points="812.9009,805.4376 853.4573,853.4573 805.4376,812.9009 809.1075,809.1075" stroke="#000000" stroke-width="1.5" /><polygon fill="none" opacity="1" points="804.649,813.2055 800.0,875.6 795.351,813.2055 800.0,812.88" stroke="#000000" stroke-width="1.5" /><polygon fill="none" opacity="1" points="793.0527,812.1546 746.5427,853.4573 787.8454,806.9473 790.8925,809.1075" stroke="#000000" stroke-width="1.5" /><polygon fill="none" opacity="1" points="786.7737,804.5897 724.4,800.0 786.7737,795.4103 787.12,800.0" stroke="#000000" stroke-width="1.5" /><polygon fill="none" opacity="1" points="787.2731,794.1668 746.5427,746.5427 794.1668,787.2731 790.8925,790.8925" stroke="#000000" stroke-width="1.5" /><polygon fill="none" opacity="1" points="795.0949,786.8874 800.0,724.4 804.9051,786.8874 800.0,787.12" stroke="#000000" stroke-width="1.5" /><polygon fill="none" opacity="1" points="805.6999,787.2129 853.4573,746.5427 812.7871,794.3001 809.1075,790.8925" stroke="#000000" stroke-width="1.5" /><circle cx="800.0" cy="800.0" fill="none" opacity="0.82" r="112.0" stroke="#000000" stroke-width="2" /><polygon fill="none" opacity="1" points="865.9708,776.5939 931.6,800.0 865.9708,823.4061 864.4,800.0" stroke="#000000" stroke-width="1.5" /><polygon fill="none" opacity="1" points="859.6078,836.7003 893.0553,893.0553 836.7003,859.6078 845.5377,845.5377" stroke="#000000" stroke-width="1.5" /><polygon fill="none" opacity="1" points="817.0093,867.902 800.0,931.6 782.9907,867.902 800.0,864.4" stroke="#000000" stroke-width="1.5" /><polygon fill="none" opacity="1" points="765.3539,860.8247 706.9447,893.0553 739.1753,834.6461 754.4623,845.5377" stroke="#000000" stroke-width="1.5" /><polygon fill="none" opacity="1" points="734.3216,824.2147 668.4,800.0 734.3216,775.7853 735.6,800.0" stroke="#000000" stroke-width="1.5" /><polygon fill="none" opacity="1" points="738.6105,766.3648 706.9447,706.9447 766.3648,738.6105 754.4623,754.4623" stroke="#000000" stroke-width="1.5" /><polygon fill="none" opacity="1" points="783.066,732.0792 800.0,668.4 816.934,732.0792 800.0,735.6" stroke="#000000" stroke-width="1.5" /><polygon fill="none" opacity="1" points="833.4617,738.5158 893.0553,706.9447 861.4842,766.5383 845.5377,754.4623" stroke="#000000" stroke-width="1.5" /><circle cx="800.0" cy="800.0" fill="none" opacity="0.82" r="168.0" stroke="#000000" stroke-width="2" /><polygon fill="none" opacity="1" points="919.6708,760.5678 987.6,800.0 919.6708,839.4322 915.92,800.0" stroke="#000000" stroke-width="1.5" /><polygon fill="none" opacity="1" points="910.109,861.2537 932.6532,932.6532 861.2537,910.109 881.9678,881.9678" stroke="#000000" stroke-width="1.5" /><polygon fill="none" opacity="1" points="827.6162,922.9364 800.0,987.6 772.3838,922.9364 800.0,915.92" stroke="#000000" stroke-width="1.5" /><polygon fill="none" opacity="1" points="744.7549,913.243 667.3468,932.6532 686.757,855.2451 718.0322,881.9678" stroke="#000000" stroke-width="1.5" /><polygon fill="none" opacity="1" points="680.2836,839.2936 612.4,800.0 680.2836,760.7064 684.08,800.0" stroke="#000000" stroke-width="1.5" /><polygon fill="none" opacity="1" points="690.6793,737.3504 667.3468,667.3468 737.3504,690.6793 718.0322,718.0322" stroke="#000000" stroke-width="1.5" /><polygon fill="none" opacity="1" points="763.8626,679.2934 800.0,612.4 836.1374,679.2934 800.0,684.08" stroke="#000000" stroke-width="1.5" /><polygon fill="none" opacity="1" points="866.5996,693.0398 932.6532,667.3468 906.9602,733.4004 881.9678,718.0322" stroke="#000000" stroke-width="1.5" /><circle cx="800.0" cy="800.0" fill="none" opacity="0.82" r="224.0" stroke="#000000" stroke-width="2" /><polygon fill="none" opacity="1" points="970.2143,735.5709 1043.6,800.0 970.2143,864.4291 967.44,800.0" stroke="#000000" stroke-width="1.5" /><polygon fill="none" opacity="1" points="960.2835,886.216 972.2512,972.2512 886.216,960.2835 918.398,918.398" stroke="#000000" stroke-width="1.5" /><polygon fill="none" opacity="1" points="855.9359,973.1912 800.0,1043.6 744.0641,973.1912 800.0,967.44" stroke="#000000" stroke-width="1.5" /><polygon fill="none" opacity="1" points="719.7285,963.3416 627.7488,972.2512 636.6584,880.2715 681.602,918.398" stroke="#000000" stroke-width="1.5" /><polygon fill="none" opacity="1" points="622.8235,841.623 556.4,800.0 622.8235,758.377 632.56,800.0" stroke="#000000" stroke-width="1.5" /><polygon fill="none" opacity="1" points="641.4096,710.7078 627.7488,627.7488 710.7078,641.4096 681.602,681.602" stroke="#000000" stroke-width="1.5" /><polygon fill="none" opacity="1" points="745.8829,626.2319 800.0,556.4 854.1171,626.2319 800.0,632.56" stroke="#000000" stroke-width="1.5" /><polygon fill="none" opacity="1" points="895.3227,644.9594 972.2512,627.7488 955.0406,704.6773 918.398,681.602" stroke="#000000" stroke-width="1.5" /><circle cx="800.0" cy="800.0" fill="none" opacity="0.82" r="280.0" stroke="#000000" stroke-width="2" /><polygon fill="none" opacity="1" points="1030.9938,742.6774 1099.6,800.0 1030.9938,857.3226 1018.96,800.0" stroke="#000000" stroke-width="1.5" /><polygon fill="none" opacity="1" points="1003.1453,923.9999 1011.8492,1011.8492 923.9999,1003.1453 954.8281,954.8281" stroke="#000000" stroke-width="1.5" /><polygon fill="none" opacity="1" points="863.2821,1029.4327 800.0,1099.6 736.7179,1029.4327 800.0,1018.96" stroke="#000000" stroke-width="1.5" /><polygon fill="none" opacity="1" points="689.8251,1010.9632 588.1508,1011.8492 589.0368,910.1749 645.1719,954.8281" stroke="#000000" stroke-width="1.5" /><polygon fill="none" opacity="1" points="567.6644,851.6155 500.4,800.0 567.6644,748.3845 581.04,800.0" stroke="#000000" stroke-width="1.5" /><polygon fill="none" opacity="1" points="588.0409,691.7533 588.1508,588.1508 691.7533,588.0409 645.1719,645.1719" stroke="#000000" stroke-width="1.5" /><polygon fill="none" opacity="1" points="723.2954,574.6993 800.0,500.4 876.7046,574.6993 800.0,581.04" stroke="#000000" stroke-width="1.5" /><polygon fill="none" opacity="1" points="904.3275,586.0847 1011.8492,588.1508 1013.9153,695.6725 954.8281,645.1719" stroke="#000000" stroke-width="1.5" /><circle cx="800.0" cy="800.0" fill="none" opacity="0.82" r="336.0" stroke="#000000" stroke-width="2" /><polygon fill="none" opacity="1" points="1081.2483,714.3532 1155.6,800.0 1081.2483,885.6468 1070.48,800.0" stroke="#000000" stroke-width="1.5" /><polygon fill="none" opacity="1" points="1066.432,924.2979 1051.4472,1051.4472 924.2979,1066.432 991.2582,991.2582" stroke="#000000" stroke-width="1.5" /><polygon fill="none" opacity="1" points="864.9793,1086.7293 800.0,1155.6 735.0207,1086.7293 800.0,1070.48" stroke="#000000" stroke-width="1.5" /><polygon fill="none" opacity="1" points="676.7977,1066.9404 548.5528,1051.4472 533.0596,923.2023 608.7418,991.2582" stroke="#000000" stroke-width="1.5" /><polygon fill="none" opacity="1" points="519.4845,888.0174 444.4,800.0 519.4845,711.9826 529.52,800.0" stroke="#000000" stroke-width="1.5" /><polygon fill="none" opacity="1" points="541.6071,659.7533 548.5528,548.5528 659.7533,541.6071 608.7418,608.7418" stroke="#000000" stroke-width="1.5" /><polygon fill="none" opacity="1" points="705.3396,521.656 800.0,444.4 894.6604,521.656 800.0,529.52" stroke="#000000" stroke-width="1.5" /><polygon fill="none" opacity="1" points="917.7357,530.6038 1051.4472,548.5528 1069.3962,682.2643 991.2582,608.7418" stroke="#000000" stroke-width="1.5" /><circle cx="800.0" cy="800.0" fill="none" opacity="0.82" r="392.0" stroke="#000000" stroke-width="2" /><polygon fill="none" opacity="1" points="1127.8501,677.467 1211.6,800.0 1127.8501,922.533 1122.0,800.0" stroke="#000000" stroke-width="1.5" /><polygon fill="none" opacity="1" points="1121.1855,939.0679 1091.0452,1091.0452 939.0679,1121.1855 1027.6884,1027.6884" stroke="#000000" stroke-width="1.5" /><polygon fill="none" opacity="1" points="882.2922,1140.1882 800.0,1211.6 717.7078,1140.1882 800.0,1122.0" stroke="#000000" stroke-width="1.5" /><polygon fill="none" opacity="1" points="636.7348,1109.5876 508.9548,1091.0452 490.4124,963.2652 572.3116,1027.6884" stroke="#000000" stroke-width="1.5" /><polygon fill="none" opacity="1" points="473.7142,926.6395 388.4,800.0 473.7142,673.3605 478.0,800.0" stroke="#000000" stroke-width="1.5" /><polygon fill="none" opacity="1" points="493.9769,630.1476 508.9548,508.9548 630.1476,493.9769 572.3116,572.3116" stroke="#000000" stroke-width="1.5" /><polygon fill="none" opacity="1" points="700.6501,464.3967 800.0,388.4 899.3499,464.3967 800.0,478.0" stroke="#000000" stroke-width="1.5" /><polygon fill="none" opacity="1" points="984.0322,502.2885 1091.0452,508.9548 1097.7115,615.9678 1027.6884,572.3116" stroke="#000000" stroke-width="1.5" /><circle cx="800.0" cy="800.0" fill="none" opacity="0.82" r="448.0" stroke="#000000" stroke-width="2" /><polygon fill="none" opacity="1" points="1184.4525,669.4922 1267.6,800.0 1184.4525,930.5078 1173.52,800.0" stroke="#000000" stroke-width="1.5" /><polygon fill="none" opacity="1" points="1142.8911,1017.3976 1130.6431,1130.6431 1017.3976,1142.8911 1064.1185,1064.1185" stroke="#000000" stroke-width="1.5" /><polygon fill="none" opacity="1" points="942.1788,1180.2909 800.0,1267.6 657.8212,1180.2909 800.0,1173.52" stroke="#000000" stroke-width="1.5" /><polygon fill="none" opacity="1" points="586.4562,1145.3043 469.3569,1130.6431 454.6957,1013.5438 535.8815,1064.1185" stroke="#000000" stroke-width="1.5" /><polygon fill="none" opacity="1" points="416.2132,932.4527 332.4,800.0 416.2132,667.5473 426.48,800.0" stroke="#000000" stroke-width="1.5" /><polygon fill="none" opacity="1" points="447.5945,598.3905 469.3569,469.3569 598.3905,447.5945 535.8815,535.8815" stroke="#000000" stroke-width="1.5" /><polygon fill="none" opacity="1" points="702.6589,405.8418 800.0,332.4 897.3411,405.8418 800.0,426.48" stroke="#000000" stroke-width="1.5" /><polygon fill="none" opacity="1" points="1005.2826,449.7214 1130.6431,469.3569 1150.2786,594.7174 1064.1185,535.8815" stroke="#000000" stroke-width="1.5" /><circle cx="800.0" cy="800.0" fill="none" opacity="0.82" r="504.0" stroke="#000000" stroke-width="2" /><polygon fill="none" opacity="1" points="1238.7376,655.2475 1323.6,800.0 1238.7376,944.7525 1225.04,800.0" stroke="#000000" stroke-width="1.5" /><polygon fill="none" opacity="1" points="1204.4122,1023.3714 1170.2411,1170.2411 1023.3714,1204.4122 1100.5487,1100.5487" stroke="#000000" stroke-width="1.5" /><polygon fill="none" opacity="1" points="963.2336,1232.2023 800.0,1323.6 636.7664,1232.2023 800.0,1225.04" stroke="#000000" stroke-width="1.5" /><polygon fill="none" opacity="1" points="552.0088,1189.8004 429.7589,1170.2411 410.1996,1047.9912 499.4513,1100.5487" stroke="#000000" stroke-width="1.5" /><polygon fill="none" opacity="1" points="365.7244,957.6348 276.4,800.0 365.7244,642.3652 374.96,800.0" stroke="#000000" stroke-width="1.5" /><polygon fill="none" opacity="1" points="385.0344,596.905 429.7589,429.7589 596.905,385.0344 499.4513,499.4513" stroke="#000000" stroke-width="1.5" /><polygon fill="none" opacity="1" points="624.4851,372.6377 800.0,276.4 975.5149,372.6377 800.0,374.96" stroke="#000000" stroke-width="1.5" /><polygon fill="none" opacity="1" points="1003.2067,385.0891 1170.2411,429.7589 1214.9109,596.7933 1100.5487,499.4513" stroke="#000000" stroke-width="1.5" /><circle cx="800.0" cy="800.0" fill="none" opacity="0.82" r="560.0" stroke="#000000" stroke-width="2" /><polygon fill="none" opacity="1" points="1289.8936,631.6901 1379.6,800.0 1289.8936,968.3099 1276.56,800.0" stroke="#000000" stroke-width="1.5" /><polygon fill="none" opacity="1" points="1243.558,1067.545 1209.8391,1209.8391 1067.545,1243.558 1136.9788,1136.9788" stroke="#000000" stroke-width="1.5" /><polygon fill="none" opacity="1" points="996.3307,1279.3519 800.0,1379.6 603.6693,1279.3519 800.0,1276.56" stroke="#000000" stroke-width="1.5" /><polygon fill="none" opacity="1" points="522.8341,1237.6106 390.1609,1209.8391 362.3894,1077.1659 463.0212,1136.9788" stroke="#000000" stroke-width="1.5" /><polygon fill="none" opacity="1" points="312.5849,975.3583 220.4,800.0 312.5849,624.6417 323.44,800.0" stroke="#000000" stroke-width="1.5" /><polygon fill="none" opacity="1" points="330.2867,581.6119 390.1609,390.1609 581.6119,330.2867 463.0212,463.0212" stroke="#000000" stroke-width="1.5" /><polygon fill="none" opacity="1" points="643.4531,306.2216 800.0,220.4 956.5469,306.2216 800.0,323.44" stroke="#000000" stroke-width="1.5" /><polygon fill="none" opacity="1" points="1045.7497,344.0054 1209.8391,390.1609 1255.9946,554.2503 1136.9788,463.0212" stroke="#000000" stroke-width="1.5" /><circle cx="800.0" cy="800.0" fill="none" opacity="0.82" r="616.0" stroke="#000000" stroke-width="2" /><polygon fill="none" opacity="1" points="1351.883,642.199 1435.6,800.0 1351.883,957.801 1328.08,800.0" stroke="#000000" stroke-width="1.5" /><polygon fill="none" opacity="1" points="1328.7858,1023.297 1249.4371,1249.4371 1023.297,1328.7858 1173.4089,1173.4089" stroke="#000000" stroke-width="1.5" /><polygon fill="none" opacity="1" points="975.7878,1346.4199 800.0,1435.6 624.2122,1346.4199 800.0,1328.08" stroke="#000000" stroke-width="1.5" /><polygon fill="none" opacity="1" points="507.7765,1294.046 350.5629,1249.4371 305.954,1092.2235 426.5911,1173.4089" stroke="#000000" stroke-width="1.5" /><polygon fill="none" opacity="1" points="240.4734,928.0859 164.4,800.0 240.4734,671.9141 271.92,800.0" stroke="#000000" stroke-width="1.5" /><polygon fill="none" opacity="1" points="310.5942,500.07 350.5629,350.5629 500.07,310.5942 426.5911,426.5911" stroke="#000000" stroke-width="1.5" /><polygon fill="none" opacity="1" points="610.0888,258.3269 800.0,164.4 989.9112,258.3269 800.0,271.92" stroke="#000000" stroke-width="1.5" /><polygon fill="none" opacity="1" points="1040.314,278.7273 1249.4371,350.5629 1321.2727,559.686 1173.4089,426.5911" stroke="#000000" stroke-width="1.5" /><circle cx="800.0" cy="800.0" fill="none" opacity="0.82" r="672.0" stroke="#000000" stroke-width="2" /><polygon fill="none" opacity="1" points="1386.6501,570.3444 1491.6,800.0 1386.6501,1029.6556 1379.6,800.0" stroke="#000000" stroke-width="1.5" /><polygon fill="none" opacity="1" points="1361.3123,1086.0569 1289.035,1289.035 1086.0569,1361.3123 1209.8391,1209.8391" stroke="#000000" stroke-width="1.5" /><polygon fill="none" opacity="1" points="995.5576,1398.88 800.0,1491.6 604.4424,1398.88 800.0,1379.6" stroke="#000000" stroke-width="1.5" /><polygon fill="none" opacity="1" points="551.3729,1378.8649 310.965,1289.035 221.1351,1048.6271 390.1609,1209.8391" stroke="#000000" stroke-width="1.5" /><polygon fill="none" opacity="1" points="211.2012,1024.0892 108.4,800.0 211.2012,575.9108 220.4,800.0" stroke="#000000" stroke-width="1.5" /><polygon fill="none" opacity="1" points="244.4653,502.8785 310.965,310.965 502.8785,244.4653 390.1609,390.1609" stroke="#000000" stroke-width="1.5" /><polygon fill="none" opacity="1" points="638.301,191.1048 800.0,108.4 961.699,191.1048 800.0,220.4" stroke="#000000" stroke-width="1.5" /><polygon fill="none" opacity="1" points="1050.9679,222.1461 1289.035,310.965 1377.8539,549.0321 1209.8391,390.1609" stroke="#000000" stroke-width="1.5" /><circle cx="912.0" cy="800.0" fill="#000000" r="7" /><circle cx="1024.0" cy="800.0" fill="#000000" r="9" /><circle cx="1136.0" cy="800.0" fill="#000000" r="11" /><circle cx="1248.0" cy="800.0" fill="#000000" r="13" /><circle cx="1360.0" cy="800.0" fill="#000000" r="15" /><circle cx="903.4745" cy="842.8605" fill="#000000" r="7" /><circle cx="1006.949" cy="885.7211" fill="#000000" r="9" /><circle cx="1110.4235" cy="928.5816" fill="#000000" r="11" /><circle cx="1213.898" cy="971.4422" fill="#000000" r="13" /><circle cx="1317.3725" cy="1014.3027" fill="#000000" r="15" /><circle cx="879.196" cy="879.196" fill="#000000" r="7" /><circle cx="958.3919" cy="958.3919" fill="#000000" r="9" /><circle cx="1037.5879" cy="1037.5879" fill="#000000" r="11" /><circle cx="1116.7838" cy="1116.7838" fill="#000000" r="13" /><circle cx="1195.9798" cy="1195.9798" fill="#000000" r="15" /><circle cx="842.8605" cy="903.4745" fill="#000000" r="7" /><circle cx="885.7211" cy="1006.949" fill="#000000" r="9" /><circle cx="928.5816" cy="1110.4235" fill="#000000" r="11" /><circle cx="971.4422" cy="1213.898" fill="#000000" r="13" /><circle cx="1014.3027" cy="1317.3725" fill="#000000" r="15" /><circle cx="800.0" cy="912.0" fill="#000000" r="7" /><circle cx="800.0" cy="1024.0" fill="#000000" r="9" /><circle cx="800.0" cy="1136.0" fill="#000000" r="11" /><circle cx="800.0" cy="1248.0" fill="#000000" r="13" /><circle cx="800.0" cy="1360.0" fill="#000000" r="15" /><circle cx="757.1395" cy="903.4745" fill="#000000" r="7" /><circle cx="714.2789" cy="1006.949" fill="#000000" r="9" /><circle cx="671.4184" cy="1110.4235" fill="#000000" r="11" /><circle cx="628.5578" cy="1213.898" fill="#000000" r="13" /><circle cx="585.6973" cy="1317.3725" fill="#000000" r="15" /><circle cx="720.804" cy="879.196" fill="#000000" r="7" /><circle cx="641.6081" cy="958.3919" fill="#000000" r="9" /><circle cx="562.4121" cy="1037.5879" fill="#000000" r="11" /><circle cx="483.2162" cy="1116.7838" fill="#000000" r="13" /><circle cx="404.0202" cy="1195.9798" fill="#000000" r="15" /><circle cx="696.5255" cy="842.8605" fill="#000000" r="7" /><circle cx="593.051" cy="885.7211" fill="#000000" r="9" /><circle cx="489.5765" cy="928.5816" fill="#000000" r="11" /><circle cx="386.102" cy="971.4422" fill="#000000" r="13" /><circle cx="282.6275" cy="1014.3027" fill="#000000" r="15" /><circle cx="688.0" cy="800.0" fill="#000000" r="7" /><circle cx="576.0" cy="800.0" fill="#000000" r="9" /><circle cx="464.0" cy="800.0" fill="#000000" r="11" /><circle cx="352.0" cy="800.0" fill="#000000" r="13" /><circle cx="240.0" cy="800.0" fill="#000000" r="15" /><circle cx="696.5255" cy="757.1395" fill="#000000" r="7" /><circle cx="593.051" cy="714.2789" fill="#000000" r="9" /><circle cx="489.5765" cy="671.4184" fill="#000000" r="11" /><circle cx="386.102" cy="628.5578" fill="#000000" r="13" /><circle cx="282.6275" cy="585.6973" fill="#000000" r="15" /><circle cx="720.804" cy="720.804" fill="#000000" r="7" /><circle cx="641.6081" cy="641.6081" fill="#000000" r="9" /><circle cx="562.4121" cy="562.4121" fill="#000000" r="11" /><circle cx="483.2162" cy="483.2162" fill="#000000" r="13" /><circle cx="404.0202" cy="404.0202" fill="#000000" r="15" /><circle cx="757.1395" cy="696.5255" fill="#000000" r="7" /><circle cx="714.2789" cy="593.051" fill="#000000" r="9" /><circle cx="671.4184" cy="489.5765" fill="#000000" r="11" /><circle cx="628.5578" cy="386.102" fill="#000000" r="13" /><circle cx="585.6973" cy="282.6275" fill="#000000" r="15" /><circle cx="800.0" cy="688.0" fill="#000000" r="7" /><circle cx="800.0" cy="576.0" fill="#000000" r="9" /><circle cx="800.0" cy="464.0" fill="#000000" r="11" /><circle cx="800.0" cy="352.0" fill="#000000" r="13" /><circle cx="800.0" cy="240.0" fill="#000000" r="15" /><circle cx="842.8605" cy="696.5255" fill="#000000" r="7" /><circle cx="885.7211" cy="593.051" fill="#000000" r="9" /><circle cx="928.5816" cy="489.5765" fill="#000000" r="11" /><circle cx="971.4422" cy="386.102" fill="#000000" r="13" /><circle cx="1014.3027" cy="282.6275" fill="#000000" r="15" /><circle cx="879.196" cy="720.804" fill="#000000" r="7" /><circle cx="958.3919" cy="641.6081" fill="#000000" r="9" /><circle cx="1037.5879" cy="562.4121" fill="#000000" r="11" /><circle cx="1116.7838" cy="483.2162" fill="#000000" r="13" /><circle cx="1195.9798" cy="404.0202" fill="#000000" r="15" /><circle cx="903.4745" cy="757.1395" fill="#000000" r="7" /><circle cx="1006.949" cy="714.2789" fill="#000000" r="9" /><circle cx="1110.4235" cy="671.4184" fill="#000000" r="11" /><circle cx="1213.898" cy="628.5578" fill="#000000" r="13" /><circle cx="1317.3725" cy="585.6973" fill="#000000" r="15" /></svg>