<?xml version="1.0" encoding="utf-8" ?>
<svg baseProfile="tiny" height="1600" version="1.2" viewBox="0 0 1600 1600" width="1600" xmlns="http://www.w3.org/2000/svg" xmlns:ev="http://www.w3.org/2001/xml-events" xmlns:xlink="http://www.w3.org/1999/xlink"><defs /><rect fill="#FFFFFF" height="100%" width="100%" x="0" y="0" /><line opacity="0.9" stroke="#000000" stroke-width="4.6757" x1="616.8684" x2="849.7289" y1="230.6842" y2="136.8469" /><circle cx="1237.1161" cy="665.9515" fill="none" opacity="0.9" r="146.77" stroke="#000000" stroke-width="4" /><polygon fill="none" points="615.6379,1242.6141 420.8633,1321.8828 341.5946,1127.1082 536.3691,1047.8395" stroke="#000000" stroke-width="3" /><line opacity="0.9" stroke="#000000" stroke-width="4.4254" x1="-129.3455" x2="470.2122" y1="1321.8566" y2="1047.5095" /><polygon fill="none" points="575.5395,568.1018 543.347,588.4301 514.0657,564.095 528.1613,528.7269 566.1542,531.2033" stroke="#000000" stroke-width="3" /><rect fill="none" height="194.0766" opacity="1" stroke="#000000" stroke-width="2" width="151.2199" x="925.0368" y="205.2259" /><rect fill="none" height="178.9051" opacity="1" stroke="#000000" stroke-width="2" width="145.008" x="688.1883" y="1057.1908" /><rect fill="none" height="127.8038" opacity="1" stroke="#000000" stroke-width="2" width="103.0228" x="287.6614" y="363.2764" /><polygon fill="none" points="1071.6294,425.7698 952.5815,469.3405 874.3556,369.5833 945.0571,264.3593 1066.979,299.0845" stroke="#000000" stroke-width="3" /><line opacity="0.9" stroke="#000000" stroke-width="7.5966" x1="201.0495" x2="365.9517" y1="1186.359" y2="1104.5573" /><line opacity="0.9" stroke="#000000" stroke-width="3.3451" x1="366.4167" x2="989.7035" y1="389.4978" y2="224.023" /><circle cx="1008.4279" cy="821.2118" fill="none" opacity="0.9" r="48.2076" stroke="#000000" stroke-width="4" /><circle cx="302.821" cy="1130.3" fill="none" opacity="0.9" r="125.9715" stroke="#000000" stroke-width="4" /><rect fill="none" height="162.158" opacity="1" stroke="#000000" stroke-width="2" width="200.465" x="882.4626" y="1062.5226" /><rect fill="none" height="287.9734" opacity="1" stroke="#000000" stroke-width="2" width="251.5377" x="421.1315" y="286.8865" /><polygon fill="none" points="1217.4655,843.5462 1027.0654,795.0652 1164.2512,654.4144" stroke="#000000" stroke-width="3" /><polygon fill="none" points="360.061,515.2251 171.6458,584.5281 102.3429,396.113 290.758,326.81" stroke="#000000" stroke-width="3" /><polygon fill="none" points="264.5204,640.961 94.7303,574.3304 237.3291,460.6032" stroke="#000000" stroke-width="3" /><circle cx="247.8377" cy="299.9656" fill="none" opacity="0.9" r="105.8183" stroke="#000000" stroke-width="4" /><line opacity="0.9" stroke="#000000" stroke-width="2.2207" x1="1135.1389" x2="1635.0622" y1="690.581" y2="451.7884" /><rect fill="none" height="148.9512" opacity="1" stroke="#000000" stroke-width="2" width="174.0322" x="600.9833" y="169.9892" /><rect fill="none" height="248.5284" opacity="1" stroke="#000000" stroke-width="2" width="180.9003" x="952.4143" y="139.105" /><circle cx="645.0907" cy="401.6214" fill="none" opacity="0.9" r="143.3492" stroke="#000000" stroke-width="4" /><circle cx="495.7341" cy="1212.9427" fill="none" opacity="0.9" r="155.1952" stroke="#000000" stroke-width="4" /><circle cx="774.5444" cy="131.1074" fill="none" opacity="0.9" r="76.1401" stroke="#000000" stroke-width="4" /><circle cx="1031.1684" cy="1423.9362" fill="none" opacity="0.9" r="72.3115" stroke="#000000" stroke-width="4" /><polygon fill="none" points="878.133,312.3465 835.1577,391.8596 746.1972,407.8357 678.2406,348.2445 682.4606,257.9594 755.6795,204.9669 842.7619,229.1715" stroke="#000000" stroke-width="3" /><polygon fill="none" points="1365.688,1220.0836 1293.4425,1280.4009 1233.1252,1208.1555 1305.3707,1147.8382" stroke="#000000" stroke-width="3" /><circle cx="458.0142" cy="1044.4322" fill="none" opacity="0.9" r="145.0545" stroke="#000000" stroke-width="4" /><circle cx="1346.3844" cy="681.4078" fill="none" opacity="0.9" r="81.5934" stroke="#000000" stroke-width="4" /><line opacity="0.9" stroke="#000000" stroke-width="4.0248" x1="258.7856" x2="580.102" y1="1356.7274" y2="1302.0521" /><circle cx="469.5426" cy="1021.3958" fill="none" opacity="0.9" r="52.6539" stroke="#000000" stroke-width="4" /><polygon fill="none" points="1062.4908,750.5255 1022.5293,771.7817 989.9647,740.3447 1009.8,699.6592 1054.6236,705.9513" stroke="#000000" stroke-width="3" /><circle cx="1187.1543" cy="1435.2602" fill="none" opacity="0.9" r="81.6769" stroke="#000000" stroke-width="4" /><circle cx="969.7025" cy="885.0055" fill="none" opacity="0.9" r="100.7674" stroke="#000000" stroke-width="4" /><polygon fill="none" points="816.4877,724.3484 773.6332,807.8565 681.6247,826.418 609.7463,766.0557 612.124,672.2236 686.9673,615.5793 777.9177,638.777" stroke="#000000" stroke-width="3" /><line opacity="0.9" stroke="#000000" stroke-width="6.3521" x1="55.2362" x2="348.1484" y1="629.1506" y2="702.6892" /><circle cx="1098.8853" cy="378.1743" fill="none" opacity="0.9" r="150.802" stroke="#000000" stroke-width="4" /><line opacity="0.9" stroke="#000000" stroke-width="6.3246" x1="332.9302" x2="806.7952" y1="254.1069" y2="338.7221" /><rect fill="none" height="74.2255" opacity="1" stroke="#000000" stroke-width="2" width="69.0793" x="266.4083" y="737.5537" /><circle cx="581.4118" cy="821.8668" fill="none" opacity="0.9" r="138.8571" stroke="#000000" stroke-width="4" /><rect fill="none" height="64.4802" opacity="1" stroke="#000000" stroke-width="2" width="85.5713" x="923.6612" y="109.3097" /><circle cx="727.2707" cy="173.3891" fill="none" opacity="0.9" r="110.1075" stroke="#000000" stroke-width="4" /><polygon fill="none" points="1175.3528,442.9122 1109.6451,460.4197 1127.3369,394.7614" stroke="#000000" stroke-width="3" /><line opacity="0.9" stroke="#000000" stroke-width="3.1404" x1="745.79" x2="1165.8067" y1="457.1543" y2="359.7664" /><line opacity="0.9" stroke="#000000" stroke-width="3.7394" x1="610.5044" x2="864.2148" y1="1206.0994" y2="1179.6282" /><line opacity="0.9" stroke="#000000" stroke-width="3.5338" x1="-77.5921" x2="506.4679" y1="1319.0232" y2="1535.6519" /><polygon fill="none" points="730.0811,993.8048 708.6955,1029.4204 667.1586,1028.7077 647.0074,992.3794 668.393,956.7638 709.9299,957.4764" stroke="#000000" stroke-width="3" /></svg>