<?xml version="1.0" encoding="utf-8" ?>
<svg baseProfile="tiny" height="1600" version="1.2" viewBox="0 0 1600 1600" width="1600" xmlns="http://www.w3.org/2000/svg" xmlns:ev="http://www.w3.org/2001/xml-events" xmlns:xlink="http://www.w3.org/1999/xlink"><defs /><rect fill="#FFFFFF" height="100%" width="100%" x="0" y="0" /><polygon fill="none" opacity="1" points="1009.7562,1117.0046 952.5422,1102.9634 954.108,1033.1543 1018.8872,1011.4696 1061.8488,1069.885" stroke="#000000" stroke-width="2" /><polygon fill="none" opacity="1" points="534.0056,1031.9011 550.8538,1091.8868 503.6641,1125.0304 427.6492,1093.6113 464.5323,1018.824" stroke="#000000" stroke-width="2" /><polygon fill="none" opacity="1" points="1337.4221,1139.7575 1375.6059,1093.6637 1430.0649,1110.0499 1433.5643,1164.6285 1376.5878,1187.041" stroke="#000000" stroke-width="2" /><polygon fill="none" opacity="1" points="1005.1237,333.1106 987.8411,294.7905 1026.6441,267.336 1063.1523,287.9859 1069.3926,326.223 1040.494,338.2465" stroke="#000000" stroke-width="2" /><polygon fill="none" opacity="1" points="897.8326,705.1477 878.9914,745.3609 849.8362,732.7008 845.1482,696.3028 880.1083,677.9652" stroke="#000000" stroke-width="2" /><polygon fill="none" opacity="1" points="135.6047,1419.7023 170.0222,1405.9015 214.5484,1432.133 176.5272,1476.5701 130.6443,1479.3417" stroke="#000000" stroke-width="2" /><polygon fill="none" opacity="1" points="938.3811,896.6667 877.4479,881.8073 858.6576,813.3582 923.4862,763.2329 981.1094,828.3428" stroke="#000000" stroke-width="2" /><polygon fill="none" opacity="1" points="863.1082,150.3174 811.4789,120.1143 794.8029,59.0242 847.2663,13.0184 907.7905,35.0099 935.4061,89.8541 928.4919,153.6517" stroke="#000000" stroke-width="2" /><polygon fill="none" opacity="1" points="298.7539,227.9757 331.1907,185.1753 379.8782,175.2658 406.1126,213.5185 423.5548,272.4401 382.2673,296.6665 323.2761,317.3062 302.5254,268.7039" stroke="#000000" stroke-width="2" /><polygon fill="none" opacity="1" points="824.2402,1013.3889 706.3837,1014.3755 638.848,943.0504 606.8204,853.276 684.6642,794.3914 764.1744,746.1438 825.6105,825.6186 843.4239,904.61" stroke="#000000" stroke-width="2" /><polygon fill="none" opacity="1" points="967.7834,496.238 1007.153,522.4749 1050.5079,566.6119 1026.6806,626.9104 975.1727,628.0744 909.2072,630.0294 894.6515,571.2404 918.4882,522.0588" stroke="#000000" stroke-width="2" /><polygon fill="none" opacity="1" points="1017.7751,1233.6304 1137.5017,1212.7767 1176.9011,1323.5854 1104.5828,1399.9147 1021.6087,1341.4662" stroke="#000000" stroke-width="2" /><polygon fill="none" opacity="1" points="609.2529,1126.6272 557.3213,1082.8302 580.2671,1007.8632 649.2009,1008.0297 682.9437,1062.5995 667.6077,1117.1179" stroke="#000000" stroke-width="2" /><polygon fill="none" opacity="1" points="327.126,965.2902 353.533,984.1082 356.4644,1022.1722 328.8933,1045.7444 301.5369,1030.4144 303.3835,994.6756" stroke="#000000" stroke-width="2" /><polygon fill="none" opacity="1" points="891.6024,930.4198 920.4127,892.8157 959.5611,875.1363 1004.0845,889.3678 1005.4828,935.6256 965.6786,960.2196 930.5299,955.913" stroke="#000000" stroke-width="2" /><polygon fill="none" opacity="1" points="1330.6833,449.4674 1374.1362,527.6239 1334.325,606.9718 1265.4475,638.7986 1187.4253,593.4658 1205.8162,522.0412 1246.2283,461.1077" stroke="#000000" stroke-width="2" /><polygon fill="none" opacity="1" points="509.3855,391.5618 460.7735,379.0342 439.9057,332.9425 467.5005,280.3469 517.5596,271.3557 560.5244,297.8677 592.7204,338.2924 551.7037,391.705" stroke="#000000" stroke-width="2" /><polygon fill="none" opacity="1" points="1268.9995,1247.8909 1290.929,1193.9615 1329.8268,1178.9926 1386.2244,1183.7116 1402.4817,1235.4939 1369.3912,1294.7251 1301.578,1291.2392" stroke="#000000" stroke-width="2" /><polygon fill="none" opacity="1" points="1327.2079,136.0838 1333.8912,75.4433 1396.6869,45.9191 1475.8253,53.5732 1480.8558,130.0331 1435.303,183.5589 1363.9496,195.326" stroke="#000000" stroke-width="2" /><polygon fill="none" opacity="1" points="864.2055,482.0071 881.7028,517.4924 837.5227,549.3977 801.7048,513.2735 824.1574,482.4108" stroke="#000000" stroke-width="2" /><polygon fill="none" opacity="1" points="1056.609,317.4262 1052.7093,299.7998 1059.8115,277.5241 1077.8903,266.4447 1114.6384,270.9204 1107.3722,298.964 1112.4523,327.2058 1081.4839,332.8409" stroke="#000000" stroke-width="2" /><polygon fill="none" opacity="1" points="546.5737,694.3711 522.7517,739.6906 468.977,740.1968 445.0885,693.281 476.4307,639.4094 528.5699,653.9535" stroke="#000000" stroke-width="2" /><polygon fill="none" opacity="1" points="274.9529,1032.5833 278.1127,1022.7436 281.5757,1020.7187 279.3382,1023.8849 285.5963,1029.4932 283.7988,1035.0828 286.4724,1031.9247 281.1825,1031.4831" stroke="#000000" stroke-width="2" /><polygon fill="none" opacity="1" points="907.7424,1207.0736 947.5495,1181.5705 1007.2457,1188.7187 1043.6861,1229.4526 1001.4726,1279.7455 951.0851,1298.9986 895.3743,1274.105" stroke="#000000" stroke-width="2" /><polygon fill="none" opacity="1" points="654.5988,1287.7444 621.0476,1247.0955 629.5062,1195.3031 667.0193,1143.9595 713.6858,1177.7106 762.2565,1196.9576 759.4523,1264.1757 706.0985,1284.3906" stroke="#000000" stroke-width="2" /><polygon fill="none" opacity="1" points="645.7546,88.4347 694.7557,73.2711 733.3157,92.939 748.6542,139.4753 718.3502,166.581 673.1611,161.1253 638.1259,135.6415" stroke="#000000" stroke-width="2" /><polygon fill="none" opacity="1" points="1259.214,129.8383 1309.2634,132.1476 1324.1502,189.9522 1288.5362,216.9939 1253.2702,200.7538 1241.8102,168.7095" stroke="#000000" stroke-width="2" /><polygon fill="none" opacity="1" points="587.7395,237.6553 576.036,283.0236 530.9741,311.2733 480.3788,284.1827 494.7382,229.4022 522.7788,199.7577 576.7339,186.9359" stroke="#000000" stroke-width="2" /><polygon fill="none" opacity="1" points="663.8508,732.8137 594.0661,767.3974 550.9233,734.7597 528.1522,670.4593 581.5015,642.6151 622.8957,677.9819" stroke="#000000" stroke-width="2" /><polygon fill="none" opacity="1" points="1265.4893,124.0 1248.8759,132.998 1226.7413,111.2562 1229.0176,88.7594 1256.5276,77.1388 1279.2892,102.1118" stroke="#000000" stroke-width="2" /><polygon fill="none" opacity="1" points="879.2462,609.9401 914.7096,651.7725 892.131,691.6189 856.5063,682.0849 849.2852,641.903" stroke="#000000" stroke-width="2" /><polygon fill="none" opacity="1" points="1472.0883,1210.7756 1440.4985,1247.2996 1398.099,1228.0824 1384.5624,1191.3456 1408.9301,1160.3628 1445.5653,1174.3451" stroke="#000000" stroke-width="2" /><polygon fill="none" opacity="1" points="945.1963,1343.4716 991.2147,1391.3468 980.1745,1455.0386 937.0708,1488.6161 868.716,1508.5896 813.3248,1458.7652 840.5409,1389.7893 878.4554,1339.2089" stroke="#000000" stroke-width="2" /><polygon fill="none" opacity="1" points="226.2739,1060.8603 152.699,1042.2946 109.3429,986.6394 149.9096,930.3289 217.8863,939.8537 242.707,996.4383" stroke="#000000" stroke-width="2" /><polygon fill="none" opacity="1" points="781.0216,1435.7638 736.8194,1394.1925 735.9681,1329.8997 788.2516,1286.2087 843.5584,1308.7602 891.8605,1356.4424 859.6224,1425.5428" stroke="#000000" stroke-width="2" /><polygon fill="none" opacity="1" points="1343.2905,374.4974 1358.5703,324.8588 1411.5445,295.7076 1438.4099,360.9205 1395.4941,402.47" stroke="#000000" stroke-width="2" /><polygon fill="none" opacity="1" points="273.5162,1030.0845 265.8772,1030.3954 274.7004,1026.0551 275.978,1024.4205 278.4864,1033.1556 275.6853,1035.6365 276.4073,1037.7152 265.4611,1034.595" stroke="#000000" stroke-width="2" /><polygon fill="none" opacity="1" points="477.9125,472.3569 453.059,434.0664 485.7394,393.2711 525.5037,379.6881 565.0323,399.8898 574.7153,437.4725 548.6753,475.2675 515.3576,503.3741" stroke="#000000" stroke-width="2" /><polygon fill="none" opacity="1" points="1543.4025,399.0271 1471.2405,409.153 1427.0475,354.7462 1478.0993,277.0662 1569.6532,311.8" stroke="#000000" stroke-width="2" /><polygon fill="none" opacity="1" points="1111.7592,1044.9082 1123.1095,1087.2121 1103.5215,1131.9138 1050.1633,1128.035 1037.8927,1081.4621 1039.8439,1048.3854 1071.0126,1023.3063" stroke="#000000" stroke-width="2" /><polygon fill="none" opacity="1" points="217.5667,549.1447 243.5603,541.8294 264.3021,561.4826 251.3458,585.6952 231.4695,588.908 212.0292,579.9514 204.706,563.3422" stroke="#000000" stroke-width="2" /><polygon fill="none" opacity="1" points="487.4197,998.7228 439.5009,956.4704 480.8827,903.4149 558.2759,906.266 539.365,980.0143" stroke="#000000" stroke-width="2" /><polygon fill="none" opacity="1" points="715.2209,127.8522 770.2736,107.3542 813.9745,136.8829 840.1264,192.454 804.8385,233.1225 742.9593,236.0732 699.654,190.979" stroke="#000000" stroke-width="2" /><polygon fill="none" opacity="1" points="1316.9747,114.2698 1292.2008,127.4819 1254.7523,102.6701 1274.6433,78.6516 1312.8893,80.938" stroke="#000000" stroke-width="2" /><polygon fill="none" opacity="1" points="263.1478,1422.7549 275.191,1380.1161 310.2195,1363.8822 342.5883,1388.8268 335.8443,1428.8465 295.6985,1446.8564" stroke="#000000" stroke-width="2" /><polygon fill="none" opacity="1" points="599.3619,125.1743 545.5758,189.6695 462.842,145.9072 450.5029,49.6935 526.4608,30.9781 602.3088,44.8829" stroke="#000000" stroke-width="2" /><polygon fill="none" opacity="1" points="218.7953,244.536 224.7569,200.5194 272.0431,183.5249 312.8968,202.6636 334.0805,260.9694 284.9742,288.327 231.7014,302.2383" stroke="#000000" stroke-width="2" /><polygon fill="none" opacity="1" points="114.5713,1433.5172 77.9003,1415.5155 70.8857,1374.806 92.1713,1350.1268 119.3489,1335.0807 153.586,1348.9188 165.8079,1385.5562 144.2502,1410.4872" stroke="#000000" stroke-width="2" /><polygon fill="none" opacity="1" points="233.9091,1065.2866 306.4708,1132.578 315.4609,1228.6081 226.1095,1277.1388 117.5363,1236.2983 118.6051,1110.9826" stroke="#000000" stroke-width="2" /><polygon fill="none" opacity="1" points="230.6762,562.5553 225.5142,528.2196 224.5456,499.5862 256.8746,483.2161 282.6765,506.8592 290.0414,536.91 263.1278,564.6248" stroke="#000000" stroke-width="2" /><polygon fill="none" opacity="1" points="570.9538,1189.5507 553.1552,1147.9919 553.1565,1101.9934 602.9857,1084.1192 643.9629,1131.0786 618.8898,1179.1032" stroke="#000000" stroke-width="2" /><polygon fill="none" opacity="1" points="803.8677,428.9465 779.2839,389.4371 810.8524,373.4476 851.4182,372.3731 879.1488,380.2968 884.1223,414.6636 857.7703,441.0643 825.1008,445.6693" stroke="#000000" stroke-width="2" /><polygon fill="none" opacity="1" points="1375.0802,606.397 1395.141,449.2543 1544.3548,410.5863 1594.9445,552.4573 1530.9,672.8533" stroke="#000000" stroke-width="2" /><polygon fill="none" opacity="1" points="444.1479,846.2526 470.8402,913.6334 446.6711,991.0804 386.3086,956.0631 376.4845,895.9748" stroke="#000000" stroke-width="2" /><polygon fill="none" opacity="1" points="820.0333,546.4941 862.9784,551.1824 874.2407,590.5742 865.1629,622.2248 820.8357,631.6964 798.7277,621.7491 773.117,589.2808 786.858,553.0447" stroke="#000000" stroke-width="2" /><polygon fill="none" opacity="1" points="816.281,496.8633 796.535,506.7385 764.3001,494.9469 773.2358,472.1019 788.7363,457.0897 807.6168,464.7266 832.2845,480.6111" stroke="#000000" stroke-width="2" /><polygon fill="none" opacity="1" points="1333.2333,333.8178 1362.7134,375.0208 1371.6268,420.056 1330.5674,443.0112 1287.8333,447.4914 1248.8935,416.3779 1251.6804,367.7012 1285.0127,329.564" stroke="#000000" stroke-width="2" /><polygon fill="none" opacity="1" points="968.0145,1189.2687 981.1152,1141.6516 992.4333,1083.6727 1056.0364,1086.2529 1086.8657,1126.2102 1094.6792,1169.0686 1061.7467,1207.9296 1012.4082,1230.6638" stroke="#000000" stroke-width="2" /><polygon fill="none" opacity="1" points="1170.5089,381.5171 1110.7289,350.9338 1123.0237,282.3681 1195.6979,278.5306 1218.9965,334.1451" stroke="#000000" stroke-width="2" /><polygon fill="none" opacity="1" points="209.856,1359.1292 256.0754,1375.7133 271.6785,1420.0625 226.1072,1456.4701 189.91,1414.6513" stroke="#000000" stroke-width="2" /></svg>